<svg width="108" height="108" viewBox="0 0 108 108" fill="none" xmlns="http://www.w3.org/2000/svg">
<path d="M104.985 83.3415H3.0017C1.34393 83.3415 0 81.9976 0 80.3398V3.0017C0 1.34393 1.34393 0 3.0017 0H104.985C106.643 0 107.987 1.34393 107.987 3.0017V80.3398C107.987 81.9976 106.643 83.3415 104.985 83.3415Z" fill="url(#paint0_linear)"/>
<path d="M104.985 0H3.0017C1.34393 0 0 1.34393 0 3.0017V5.95447C0 4.2967 1.34393 2.95277 3.0017 2.95277H104.985C106.643 2.95277 107.987 4.2967 107.987 5.95447V3.0017C107.987 1.34393 106.643 0 104.985 0Z" fill="url(#paint1_linear)"/>
<path d="M6.32739 74.0123V10.375C6.32739 8.13931 8.13955 6.32715 10.3752 6.32715H97.6119C99.8476 6.32715 101.66 8.13931 101.66 10.375V74.0123C101.66 75.67 100.316 77.014 98.658 77.014H9.3291C7.67133 77.014 6.32739 75.67 6.32739 74.0123Z" fill="url(#paint2_linear)"/>
<path d="M81.5391 74.1042H24.8037C22.8953 74.1042 21.3485 72.5573 21.3485 70.649C21.3485 68.7407 22.8953 67.1938 24.8037 67.1938H81.5391C83.4474 67.1938 84.9942 68.7407 84.9942 70.649C84.9942 72.5573 83.4474 74.1042 81.5391 74.1042Z" fill="url(#paint3_linear)"/>
<path d="M27.2018 33.5851V70.7002H45.0631V33.5851C45.0631 32.6373 44.295 31.8691 43.3471 31.8691H28.9178C27.9699 31.8691 27.2018 32.6373 27.2018 33.5851Z" fill="url(#paint4_linear)"/>
<path d="M45.0631 43.3869V70.7004H62.9244V43.3869C62.9244 42.439 62.1563 41.6709 61.2084 41.6709H46.7791C45.8313 41.6709 45.0631 42.439 45.0631 43.3869Z" fill="url(#paint5_linear)"/>
<path d="M62.924 70.6996H80.7853V25.5006C80.7853 24.5528 80.0171 23.7847 79.0693 23.7847H64.6399C63.6921 23.7847 62.924 24.5528 62.924 25.5006V70.6996Z" fill="#43E8E1"/>
<path d="M67.1063 83.3418H41.397V99.5546H67.1063V83.3418Z" fill="#5861C7"/>
<path d="M79.2629 107.987H29.3607C27.0322 107.987 25.1445 106.099 25.1445 103.771C25.1445 101.442 27.0322 99.5547 29.3607 99.5547H79.2629C81.5914 99.5547 83.479 101.442 83.479 103.771C83.479 106.099 81.5914 107.987 79.2629 107.987Z" fill="#6770E6"/>
<path d="M79.263 105.034H29.3607C27.5524 105.034 26.0144 103.894 25.4154 102.294C25.2429 102.755 25.1442 103.251 25.1442 103.771C25.1442 106.099 27.0318 107.987 29.3603 107.987H79.2626C81.591 107.987 83.4787 106.099 83.4787 103.771C83.4787 103.251 83.38 102.755 83.2075 102.294C82.6093 103.894 81.0713 105.034 79.263 105.034Z" fill="#5861C7"/>
<path d="M97.6119 6.32715H10.3752C8.13955 6.32715 6.32739 8.13931 6.32739 10.375V15.6689H101.66V10.375C101.66 8.13931 99.8476 6.32715 97.6119 6.32715Z" fill="#43E8E1"/>
<path d="M12.8353 13.2878C14.0999 13.2878 15.125 12.2627 15.125 10.9982C15.125 9.73361 14.0999 8.7085 12.8353 8.7085C11.5708 8.7085 10.5457 9.73361 10.5457 10.9982C10.5457 12.2627 11.5708 13.2878 12.8353 13.2878Z" fill="white"/>
<path d="M21.6333 13.2878C22.8978 13.2878 23.923 12.2627 23.923 10.9982C23.923 9.73361 22.8978 8.7085 21.6333 8.7085C20.3687 8.7085 19.3436 9.73361 19.3436 10.9982C19.3436 12.2627 20.3687 13.2878 21.6333 13.2878Z" fill="white"/>
<path d="M106.495 106.501C104.514 108.482 101.302 108.482 99.3202 106.501L78.3273 85.5082L85.5025 78.333L106.496 99.3264C108.477 101.307 108.477 104.52 106.495 106.501Z" fill="url(#paint6_linear)"/>
<path d="M86.3377 93.5188L99.3202 106.501C101.302 108.482 104.514 108.482 106.495 106.501C108.477 104.52 108.477 101.307 106.496 99.3264L93.5129 86.3436L86.3377 93.5188Z" fill="url(#paint7_linear)"/>
<path d="M30.2064 13.2878C31.471 13.2878 32.4961 12.2627 32.4961 10.9982C32.4961 9.73361 31.471 8.7085 30.2064 8.7085C28.9419 8.7085 27.9167 9.73361 27.9167 10.9982C27.9167 12.2627 28.9419 13.2878 30.2064 13.2878Z" fill="white"/>
<path d="M69.995 92.3347C82.3299 92.3347 92.3293 82.3353 92.3293 70.0004C92.3293 57.6654 82.3299 47.666 69.995 47.666C57.6601 47.666 47.6606 57.6654 47.6606 70.0004C47.6606 82.3353 57.6601 92.3347 69.995 92.3347Z" fill="url(#paint8_linear)"/>
<path d="M69.9951 85.7929C78.7171 85.7929 85.7878 78.7223 85.7878 70.0002C85.7878 61.2782 78.7171 54.2075 69.9951 54.2075C61.273 54.2075 54.2024 61.2782 54.2024 70.0002C54.2024 78.7223 61.273 85.7929 69.9951 85.7929Z" fill="#43E8E1"/>
<path d="M107.517 100.804C107.272 101.339 106.936 101.842 106.495 102.283C105.508 103.27 104.214 103.765 102.92 103.768V103.769H96.5881L99.3202 106.501C101.302 108.482 104.514 108.482 106.495 106.501C108.036 104.96 108.373 102.676 107.517 100.804Z" fill="url(#paint9_linear)"/>
<defs>
<linearGradient id="paint0_linear" x1="-29.5857" y1="74.5141" x2="78.661" y2="124.866" gradientUnits="userSpaceOnUse">
<stop stop-color="#26259E"/>
<stop offset="1" stop-color="#5F50CC"/>
</linearGradient>
<linearGradient id="paint1_linear" x1="-29.5859" y1="5.32378" x2="-26.5512" y2="25.0815" gradientUnits="userSpaceOnUse">
<stop stop-color="#26259E"/>
<stop offset="1" stop-color="#5F50CC"/>
</linearGradient>
<linearGradient id="paint2_linear" x1="2.5714" y1="36.75" x2="44.3947" y2="98.9243" gradientUnits="userSpaceOnUse">
<stop stop-color="#42B2F1"/>
<stop offset="1" stop-color="#2A54D3"/>
</linearGradient>
<linearGradient id="paint3_linear" x1="3.91112" y1="73.3722" x2="10.4146" y2="94.8756" gradientUnits="userSpaceOnUse">
<stop stop-color="#26259E"/>
<stop offset="1" stop-color="#5F50CC"/>
</linearGradient>
<linearGradient id="paint4_linear" x1="22.3082" y1="66.5872" x2="43.5085" y2="70.088" gradientUnits="userSpaceOnUse">
<stop stop-color="#26259E"/>
<stop offset="1" stop-color="#5F50CC"/>
</linearGradient>
<linearGradient id="paint5_linear" x1="40.1695" y1="67.6257" x2="60.9347" y2="72.2124" gradientUnits="userSpaceOnUse">
<stop stop-color="#26259E"/>
<stop offset="1" stop-color="#5F50CC"/>
</linearGradient>
<linearGradient id="paint6_linear" x1="77.1589" y1="91.0959" x2="96.0122" y2="111.877" gradientUnits="userSpaceOnUse">
<stop stop-color="#42B2F1"/>
<stop offset="1" stop-color="#2A54D3"/>
</linearGradient>
<linearGradient id="paint7_linear" x1="77.1589" y1="91.0959" x2="96.0122" y2="111.877" gradientUnits="userSpaceOnUse">
<stop stop-color="#42B2F1"/>
<stop offset="1" stop-color="#2A54D3"/>
</linearGradient>
<linearGradient id="paint8_linear" x1="45.9007" y1="66.891" x2="74.2998" y2="98.1946" gradientUnits="userSpaceOnUse">
<stop stop-color="#42B2F1"/>
<stop offset="1" stop-color="#2A54D3"/>
</linearGradient>
<linearGradient id="paint9_linear" x1="96.1393" y1="103.896" x2="100.095" y2="110.809" gradientUnits="userSpaceOnUse">
<stop stop-color="#42B2F1"/>
<stop offset="1" stop-color="#2A54D3"/>
</linearGradient>
</defs>
</svg>
