<svg width="690" height="503" viewBox="0 0 690 503" fill="none" xmlns="http://www.w3.org/2000/svg">
<g opacity="0.3">
<path d="M421.838 268.002H416.317V273.524H421.838V268.002Z" fill="#7543B8" fill-opacity="0.32"/>
<path d="M2.12363 481.044H0V483.168H2.12363V481.044Z" fill="#7543B8" fill-opacity="0.32"/>
<path d="M44.9359 44.8508H44.0015V45.7852H44.9359V44.8508Z" fill="#7543B8" fill-opacity="0.32"/>
<path d="M47.1444 493.616H41.8778V498.883H47.1444V493.616Z" fill="#7543B8" fill-opacity="0.32"/>
<path d="M22.5104 347.171H18.8578V350.824H22.5104V347.171Z" fill="#7543B8" fill-opacity="0.32"/>
<path d="M37.6307 370.106H18.4331V389.304H37.6307V370.106Z" fill="#7543B8" fill-opacity="0.32"/>
<path d="M67.2765 463.292H59.9712V470.597H67.2765V463.292Z" fill="#7543B8" fill-opacity="0.32"/>
<path d="M118.838 47.6538H113.062V53.4301H118.838V47.6538Z" fill="#7543B8" fill-opacity="0.32"/>
<path d="M99.6406 75.5166H97.347V77.8101H99.6406V75.5166Z" fill="#7543B8" fill-opacity="0.32"/>
<path d="M50.1176 281.084H39.2446V291.957H50.1176V281.084Z" fill="#7543B8" fill-opacity="0.32"/>
<path d="M67.6164 371.975H53.2606V386.331H67.6164V371.975Z" fill="#7543B8" fill-opacity="0.32"/>
<path d="M678.712 38.9902H672.341V45.3611H678.712V38.9902Z" fill="#7543B8" fill-opacity="0.32"/>
<path d="M78.4893 283.887H73.3926V288.984H78.4893V283.887Z" fill="#7543B8" fill-opacity="0.32"/>
<path d="M98.1965 373.25H87.7482V383.698H98.1965V373.25Z" fill="#7543B8" fill-opacity="0.32"/>
<path d="M116.46 330.437H110.004V336.893H116.46V330.437Z" fill="#7543B8" fill-opacity="0.32"/>
<path d="M209.05 492.173H198.942V502.281H209.05V492.173Z" fill="#7543B8" fill-opacity="0.32"/>
<path d="M690.52 171.844H678.287V184.076H690.52V171.844Z" fill="#7543B8" fill-opacity="0.32"/>
<path d="M643.46 90.8914H634.201V100.15H643.46V90.8914Z" fill="#7543B8" fill-opacity="0.32"/>
<path d="M552.568 6.03076H529.548V29.0509H552.568V6.03076Z" fill="#7543B8" fill-opacity="0.32"/>
<path d="M517.486 0H506.443V11.0429H517.486V0Z" fill="#7543B8" fill-opacity="0.32"/>
<path d="M329.417 2.2937H323.046V8.66459H329.417V2.2937Z" fill="#7543B8" fill-opacity="0.32"/>
<path d="M302.235 12.4871H292.041V22.6805H302.235V12.4871Z" fill="#7543B8" fill-opacity="0.32"/>
<path d="M246.936 47.9941H240.82V54.1102H246.936V47.9941Z" fill="#7543B8" fill-opacity="0.32"/>
<path d="M148.399 260.442H127.672V281.168H148.399V260.442Z" fill="#7543B8" fill-opacity="0.32"/>
<path d="M140.924 301.215H138.8V303.339H140.924V301.215Z" fill="#7543B8" fill-opacity="0.32"/>
<path d="M595.721 489.2H593.003V491.918H595.721V489.2Z" fill="#7543B8" fill-opacity="0.32"/>
<path d="M642.271 442.564H635.39V449.445H642.271V442.564Z" fill="#7543B8" fill-opacity="0.32"/>
<path d="M672.681 266.983H665.121V274.543H672.681V266.983Z" fill="#7543B8" fill-opacity="0.32"/>
<path d="M668.349 238.101H665.631V240.82H668.349V238.101Z" fill="#7543B8" fill-opacity="0.32"/>
<path d="M662.148 207.691H660.109V209.73H662.148V207.691Z" fill="#7543B8" fill-opacity="0.32"/>
<path d="M658.41 171.929H644.564V185.776H658.41V171.929Z" fill="#7543B8" fill-opacity="0.32"/>
<path d="M379.96 17.7539H364.67V33.044H379.96V17.7539Z" fill="#7543B8" fill-opacity="0.32"/>
<path d="M203.529 387.945H196.988V394.486H203.529V387.945Z" fill="#7543B8" fill-opacity="0.32"/>
<path d="M672.681 266.983H665.121V274.543H672.681V266.983Z" fill="#7543B8" fill-opacity="0.32"/>
<path d="M642.186 266.388H633.352V275.222H642.186V266.388Z" fill="#7543B8" fill-opacity="0.32"/>
<path d="M583.998 122.916H579.921V126.993H583.998V122.916Z" fill="#7543B8" fill-opacity="0.32"/>
<path d="M563.781 97.8569H554.012V107.626H563.781V97.8569Z" fill="#7543B8" fill-opacity="0.32"/>
<path d="M447.236 49.2683H438.742V57.7628H447.236V49.2683Z" fill="#7543B8" fill-opacity="0.32"/>
<path d="M411.814 51.6465H410.455V53.0056H411.814V51.6465Z" fill="#7543B8" fill-opacity="0.32"/>
<path d="M391.937 43.322H366.963V68.2959H391.937V43.322Z" fill="#7543B8" fill-opacity="0.32"/>
<path d="M350.059 62.3501H347.001V65.4081H350.059V62.3501Z" fill="#7543B8" fill-opacity="0.32"/>
<path d="M255.77 127.502H236.402V146.87H255.77V127.502Z" fill="#7543B8" fill-opacity="0.32"/>
<path d="M234.194 158.168H222.896V169.466H234.194V158.168Z" fill="#7543B8" fill-opacity="0.32"/>
<path d="M641.676 266.898H633.861V274.713H641.676V266.898Z" fill="#7543B8" fill-opacity="0.32"/>
<path d="M608.717 268.597H604.3V273.014H608.717V268.597Z" fill="#7543B8" fill-opacity="0.32"/>
<path d="M611.435 231.476H596.145V246.766H611.435V231.476Z" fill="#7543B8" fill-opacity="0.32"/>
<path d="M598.099 205.992H593.427V210.664H598.099V205.992Z" fill="#7543B8" fill-opacity="0.32"/>
<path d="M584.423 177.79H581.11V181.103H584.423V177.79Z" fill="#7543B8" fill-opacity="0.32"/>
<path d="M544.923 128.097H540.846V132.175H544.923V128.097Z" fill="#7543B8" fill-opacity="0.32"/>
<path d="M491.153 94.6294H486.651V99.1315H491.153V94.6294Z" fill="#7543B8" fill-opacity="0.32"/>
<path d="M342.499 95.7334H327.039V111.193H342.499V95.7334Z" fill="#7543B8" fill-opacity="0.32"/>
<path d="M266.643 163.095H261.036V168.701H266.643V163.095Z" fill="#7543B8" fill-opacity="0.32"/>
<path d="M264.604 374.863H262.99V376.477H264.604V374.863Z" fill="#7543B8" fill-opacity="0.32"/>
<path d="M365.349 448.935H363.226V451.059H365.349V448.935Z" fill="#7543B8" fill-opacity="0.32"/>
<path d="M458.789 453.692H458.364V454.117H458.789V453.692Z" fill="#7543B8" fill-opacity="0.32"/>
<path d="M579.581 373.759H550.105V403.235H579.581V373.759Z" fill="#7543B8" fill-opacity="0.32"/>
<path d="M602.856 326.105H588.67V340.291H602.856V326.105Z" fill="#7543B8" fill-opacity="0.32"/>
<path d="M604.98 301.301H602.601V303.679H604.98V301.301Z" fill="#7543B8" fill-opacity="0.32"/>
<path d="M609.057 268.257H603.96V273.354H609.057V268.257Z" fill="#7543B8" fill-opacity="0.32"/>
<path d="M583.998 261.971H566.414V279.555H583.998V261.971Z" fill="#7543B8" fill-opacity="0.32"/>
<path d="M573.295 238.187H570.917V240.565H573.295V238.187Z" fill="#7543B8" fill-opacity="0.32"/>
<path d="M562.762 208.965H562.337V209.39H562.762V208.965Z" fill="#7543B8" fill-opacity="0.32"/>
<path d="M547.642 181.273H546.962V181.953H547.642V181.273Z" fill="#7543B8" fill-opacity="0.32"/>
<path d="M485.717 111.873H460.828V136.762H485.717V111.873Z" fill="#7543B8" fill-opacity="0.32"/>
<path d="M352.692 128.183H347.851V133.024H352.692V128.183Z" fill="#7543B8" fill-opacity="0.32"/>
<path d="M326.529 391.343H320.583V397.289H326.529V391.343Z" fill="#7543B8" fill-opacity="0.32"/>
<path d="M549.341 357.959H545.263V362.037H549.341V357.959Z" fill="#7543B8" fill-opacity="0.32"/>
<path d="M572.531 322.452H552.654V342.329H572.531V322.452Z" fill="#7543B8" fill-opacity="0.32"/>
<path d="M583.743 262.311H566.754V279.3H583.743V262.311Z" fill="#7543B8" fill-opacity="0.32"/>
<path d="M548.406 266.473H539.742V275.138H548.406V266.473Z" fill="#7543B8" fill-opacity="0.32"/>
<path d="M543.31 236.488H536.854V242.944H543.31V236.488Z" fill="#7543B8" fill-opacity="0.32"/>
<path d="M537.193 202.085H520.034V219.244H537.193V202.085Z" fill="#7543B8" fill-opacity="0.32"/>
<path d="M516.467 179.064H503.98V191.551H516.467V179.064Z" fill="#7543B8" fill-opacity="0.32"/>
<path d="M489.115 162.245H482.999V168.361H489.115V162.245Z" fill="#7543B8" fill-opacity="0.32"/>
<path d="M460.573 149.079H454.797V154.855H460.573V149.079Z" fill="#7543B8" fill-opacity="0.32"/>
<path d="M369.172 154.516H362.716V160.971H369.172V154.516Z" fill="#7543B8" fill-opacity="0.32"/>
<path d="M345.047 361.526H334.004V372.569H345.047V361.526Z" fill="#7543B8" fill-opacity="0.32"/>
<path d="M528.784 330.691H528.359V331.116H528.784V330.691Z" fill="#7543B8" fill-opacity="0.32"/>
<path d="M542.035 299.941H538.128V303.849H542.035V299.941Z" fill="#7543B8" fill-opacity="0.32"/>
<path d="M548.406 266.473H539.742V275.138H548.406V266.473Z" fill="#7543B8" fill-opacity="0.32"/>
<path d="M515.872 267.662H509.671V273.863H515.872V267.662Z" fill="#7543B8" fill-opacity="0.32"/>
<path d="M517.911 227.908H496.25V249.569H517.911V227.908Z" fill="#7543B8" fill-opacity="0.32"/>
<path d="M438.402 175.582H432.456V181.528H438.402V175.582Z" fill="#7543B8" fill-opacity="0.32"/>
<path d="M411.39 169.89H394.146V187.134H411.39V169.89Z" fill="#7543B8" fill-opacity="0.32"/>
<path d="M375.033 187.05H369.681V192.401H375.033V187.05Z" fill="#7543B8" fill-opacity="0.32"/>
<path d="M336.723 297.224H325.51V308.436H336.723V297.224Z" fill="#7543B8" fill-opacity="0.32"/>
<path d="M492.173 329.842H489.709V332.305H492.173V329.842Z" fill="#7543B8" fill-opacity="0.32"/>
<path d="M515.872 267.662H509.671V273.863H515.872V267.662Z" fill="#7543B8" fill-opacity="0.32"/>
<path d="M482.998 269.446H480.195V272.249H482.998V269.446Z" fill="#7543B8" fill-opacity="0.32"/>
<path d="M422.517 204.888H415.637V211.769H422.517V204.888Z" fill="#7543B8" fill-opacity="0.32"/>
<path d="M391.088 213.467H384.632V219.923H391.088V213.467Z" fill="#7543B8" fill-opacity="0.32"/>
<path d="M365.264 301.726H364.67V302.32H365.264V301.726Z" fill="#7543B8" fill-opacity="0.32"/>
<path d="M457.685 317.61H443.074V332.221H457.685V317.61Z" fill="#7543B8" fill-opacity="0.32"/>
<path d="M482.998 269.446H480.195V272.249H482.998V269.446Z" fill="#7543B8" fill-opacity="0.32"/>
<path d="M460.063 261.207H440.781V280.489H460.063V261.207Z" fill="#7543B8" fill-opacity="0.32"/>
<path d="M460.063 261.207H440.781V280.489H460.063V261.207Z" fill="#7543B8" fill-opacity="0.32"/>
</g>
</svg>
