<svg width="84" height="59" viewBox="0 0 84 59" fill="none" xmlns="http://www.w3.org/2000/svg">
<path d="M59.2843 10.5391H7.2764C3.25776 10.5391 0 14.0924 0 18.4757V50.682C0 55.0653 3.25776 58.6187 7.2764 58.6187H59.2843C63.3029 58.6187 66.5607 55.0653 66.5607 50.682V18.4757C66.5607 14.0924 63.3029 10.5391 59.2843 10.5391Z" fill="#1AD4FF"/>
<path d="M8.1991 19.1782H38.4631" stroke="white" stroke-width="2.0059" stroke-miterlimit="10"/>
<path d="M8.1991 25.1912H30.941" stroke="white" stroke-width="2.0059" stroke-miterlimit="10"/>
<path d="M16.5787 31.2034H39.3206" stroke="white" stroke-width="2.0059" stroke-miterlimit="10"/>
<path d="M16.5787 37.2161H46.8427" stroke="white" stroke-width="2.0059" stroke-miterlimit="10"/>
<path d="M8.1991 43.229H30.941" stroke="white" stroke-width="2.0059" stroke-miterlimit="10"/>
<path d="M8.1991 49.2417H38.4631" stroke="white" stroke-width="2.0059" stroke-miterlimit="10"/>
<path fill-rule="evenodd" clip-rule="evenodd" d="M59.8979 7.37587H71.0106C71.16 7.38601 71.31 7.36532 71.4511 7.3151C71.5923 7.26488 71.7215 7.18619 71.831 7.08392C71.9404 6.98164 72.0277 6.85796 72.0873 6.72056C72.147 6.58316 72.1778 6.43497 72.1778 6.28517C72.1778 6.13537 72.147 5.98716 72.0873 5.84976C72.0277 5.71236 71.9404 5.58868 71.831 5.4864C71.7215 5.38413 71.5923 5.30545 71.4511 5.25522C71.31 5.205 71.16 5.18431 71.0106 5.19445H59.8929C59.7435 5.18431 59.5935 5.205 59.4524 5.25522C59.3113 5.30545 59.182 5.38413 59.0725 5.4864C58.9631 5.58868 58.8758 5.71236 58.8161 5.84976C58.7565 5.98716 58.7257 6.13537 58.7257 6.28517C58.7257 6.43497 58.7565 6.58316 58.8161 6.72056C58.8758 6.85796 58.9631 6.98164 59.0725 7.08392C59.182 7.18619 59.3113 7.26488 59.4524 7.3151C59.5935 7.36532 59.7435 7.38601 59.8929 7.37587H59.8979ZM66.2817 12.3405C66.2807 12.5985 66.3563 12.8511 66.499 13.0662C66.6417 13.2813 66.8449 13.4492 67.0831 13.5486C67.3212 13.6481 67.5836 13.6746 67.8368 13.6249C68.0901 13.5751 68.3229 13.4513 68.5057 13.2692C68.6885 13.0871 68.8132 12.8548 68.8639 12.6017C68.9146 12.3486 68.8891 12.0862 68.7906 11.8477C68.6921 11.6092 68.5249 11.4052 68.3104 11.2617C68.0959 11.1182 67.8436 11.0416 67.5855 11.0416C67.4145 11.041 67.2451 11.0741 67.0869 11.1391C66.9288 11.204 66.785 11.2996 66.6639 11.4203C66.5427 11.5409 66.4466 11.6844 66.381 11.8423C66.3155 12.0002 66.2817 12.1695 66.2817 12.3405ZM62.0292 12.3405C62.0292 12.5973 62.1054 12.8485 62.2481 13.0621C62.3908 13.2756 62.5937 13.4421 62.831 13.5404C63.0683 13.6387 63.3294 13.6644 63.5814 13.6143C63.8333 13.5642 64.0648 13.4405 64.2464 13.2589C64.4281 13.0772 64.5518 12.8458 64.6019 12.5938C64.652 12.3419 64.6262 12.0808 64.5279 11.8434C64.4296 11.6061 64.2632 11.4033 64.0496 11.2605C63.836 11.1178 63.5849 11.0416 63.328 11.0416C63.1562 11.0397 62.9857 11.0718 62.8263 11.1362C62.667 11.2005 62.5221 11.2959 62.3999 11.4167C62.2777 11.5375 62.1807 11.6814 62.1144 11.8399C62.0482 11.9985 62.0141 12.1686 62.0141 12.3405H62.0292ZM77.0584 5.77617C77.2038 7.00451 76.9984 8.24892 76.4659 9.36536C75.9334 10.4818 75.0956 11.4246 74.0495 12.0847C73.9976 12.1158 73.9531 12.1581 73.9193 12.2084C73.8856 12.2587 73.8634 12.3158 73.8543 12.3757C73.8451 12.4356 73.8494 12.4967 73.8667 12.5548C73.884 12.6129 73.9139 12.6664 73.9543 12.7115C75.4821 14.4989 76.4084 16.7219 76.602 19.0652C76.6084 19.1236 76.6024 19.1826 76.5843 19.2384C76.5663 19.2942 76.5366 19.3456 76.4973 19.3892C76.458 19.4328 76.4099 19.4675 76.3562 19.4912C76.3026 19.5149 76.2445 19.5269 76.1858 19.5266H54.6926C54.6346 19.5255 54.5774 19.5124 54.5247 19.4881C54.472 19.4639 54.4249 19.429 54.3863 19.3857C54.3477 19.3424 54.3184 19.2916 54.3004 19.2364C54.2823 19.1813 54.2759 19.123 54.2814 19.0652C54.4745 16.7208 55.4028 14.4972 56.9342 12.7115C56.9743 12.6665 57.0039 12.6131 57.0208 12.5552C57.0376 12.4973 57.0414 12.4364 57.0318 12.3768C57.0222 12.3173 56.9995 12.2606 56.9652 12.211C56.931 12.1613 56.8861 12.1199 56.8339 12.0897C55.7149 11.3793 54.8378 10.3461 54.3185 9.12659C53.7991 7.90709 53.6621 6.55871 53.9254 5.25965C54.1783 3.93824 54.8385 2.72915 55.8134 1.80194C56.7883 0.874729 58.0289 0.275901 59.3614 0.0894471C60.6192 -0.104504 61.9062 0.0696587 63.0672 0.590921C63.815 0.935205 64.6285 1.11347 65.4517 1.11347C66.275 1.11347 67.0885 0.935205 67.8363 0.590921C68.7743 0.162905 69.8002 -0.0375727 70.8304 0.00579659C71.8606 0.0491659 72.8659 0.335151 73.7647 0.840496C74.6635 1.34584 75.4303 2.05626 76.0026 2.91393C76.5749 3.7716 76.9367 4.75228 77.0584 5.77617ZM54.818 21.4874H76.0755C76.1377 21.4868 76.1992 21.5002 76.2556 21.5265C76.312 21.5529 76.3617 21.5915 76.4012 21.6396C76.4406 21.6877 76.4688 21.7441 76.4836 21.8045C76.4984 21.865 76.4994 21.9279 76.4867 21.9888C76.0173 24.5728 74.6559 26.9101 72.6397 28.593C70.6235 30.276 68.0805 31.1978 65.4543 31.1978C62.828 31.1978 60.285 30.276 58.2688 28.593C56.2527 26.9101 54.8912 24.5728 54.4218 21.9888C54.4068 21.9275 54.4057 21.8635 54.4187 21.8017C54.4317 21.7398 54.4585 21.6817 54.497 21.6316C54.5356 21.5815 54.5849 21.5408 54.6413 21.5123C54.6977 21.4839 54.7598 21.4685 54.823 21.4673L54.818 21.4874ZM50.5504 7.36083C49.5024 7.78346 48.6046 8.50952 47.972 9.44589C47.3394 10.3823 47.0009 11.4863 47 12.6163V13.549C47.0029 14.6786 47.3422 15.7817 47.9745 16.7177C48.6068 17.6537 49.5036 18.3801 50.5504 18.8045C50.6136 18.8299 50.6821 18.8394 50.7498 18.8323C50.8175 18.8251 50.8824 18.8014 50.9389 18.7633C50.9953 18.7252 51.0415 18.6738 51.0735 18.6136C51.1054 18.5535 51.1221 18.4864 51.1221 18.4183V7.72691C51.1218 7.65943 51.1051 7.59303 51.0734 7.53345C51.0417 7.47387 50.9961 7.42288 50.9403 7.38488C50.8845 7.34689 50.8204 7.32301 50.7533 7.31533C50.6863 7.30764 50.6184 7.31637 50.5555 7.34076L50.5504 7.36083ZM79.7714 7.74696C79.771 7.67822 79.7877 7.61048 79.8199 7.54977C79.8521 7.48905 79.8989 7.43725 79.956 7.39901C80.0131 7.36077 80.0788 7.33726 80.1472 7.3306C80.2156 7.32394 80.2847 7.33432 80.3481 7.36083C81.3944 7.78537 82.2904 8.51204 82.9219 9.44809C83.5533 10.3841 83.8916 11.4871 83.8935 12.6163V13.549C83.8923 14.6783 83.5543 15.7816 82.9227 16.7178C82.2912 17.654 81.3948 18.3805 80.3481 18.8045C80.2846 18.8297 80.2159 18.8391 80.148 18.8319C80.0801 18.8246 80.0149 18.801 79.9582 18.763C79.9014 18.725 79.8548 18.6738 79.8222 18.6137C79.7897 18.5537 79.7722 18.4866 79.7714 18.4183V7.74696Z" fill="white"/>
</svg>
