<svg width="107" height="106" viewBox="0 0 107 106" fill="none" xmlns="http://www.w3.org/2000/svg">
<path d="M72.7645 95.5035H9.41584C6.89295 95.5035 4.8479 93.4584 4.8479 90.9355V41.2671H72.7645V95.5035Z" fill="url(#paint0_linear)"/>
<path d="M72.7645 95.5036H102.262C104.785 95.5036 106.83 93.4585 106.83 90.9356V77.768C106.83 77.1275 106.695 76.4944 106.435 75.9093L96.0858 52.675C95.352 51.0275 93.7169 49.9658 91.9133 49.9658H72.7649V95.5036H72.7645Z" fill="url(#paint1_linear)"/>
<path d="M96.7652 54.2017H79.7013C78.4152 54.2017 77.3726 55.2443 77.3726 56.5304V73.1115C77.3726 74.3976 78.4152 75.4402 79.7013 75.4402H106.225L96.7652 54.2017Z" fill="#43E8E1"/>
<path d="M104.177 88.3714H106.83V80.291H104.177C101.946 80.291 100.137 82.1001 100.137 84.3314C100.137 86.5624 101.946 88.3714 104.177 88.3714Z" fill="#43E8E1"/>
<path d="M7.50123 88.3714H4.84833V80.291H7.50123C9.73261 80.291 11.5416 82.1001 11.5416 84.3314C11.5412 86.5624 9.73219 88.3714 7.50123 88.3714Z" fill="#43E8E1"/>
<path d="M24.93 106C30.727 106 35.4264 101.3 35.4264 95.5033C35.4264 89.7063 30.727 85.0068 24.93 85.0068C19.1329 85.0068 14.4335 89.7063 14.4335 95.5033C14.4335 101.3 19.1329 106 24.93 106Z" fill="url(#paint2_linear)"/>
<path d="M24.93 100.914C27.9181 100.914 30.3405 98.4915 30.3405 95.5033C30.3405 92.5152 27.9181 90.0928 24.93 90.0928C21.9418 90.0928 19.5194 92.5152 19.5194 95.5033C19.5194 98.4915 21.9418 100.914 24.93 100.914Z" fill="#6770E6"/>
<path d="M87.8691 106C93.6661 106 98.3656 101.3 98.3656 95.5033C98.3656 89.7063 93.6661 85.0068 87.8691 85.0068C82.0721 85.0068 77.3726 89.7063 77.3726 95.5033C77.3726 101.3 82.0721 106 87.8691 106Z" fill="url(#paint3_linear)"/>
<path d="M24.93 103.516C19.5534 103.516 15.1241 99.4727 14.5092 94.2617C14.4612 94.6696 14.4335 95.0832 14.4335 95.5039C14.4335 101.301 19.1331 106 24.93 106C30.7268 106 35.4264 101.301 35.4264 95.5039C35.4264 95.0832 35.3987 94.6696 35.3507 94.2617C34.7358 99.4727 30.3066 103.516 24.93 103.516Z" fill="#29297A"/>
<path d="M87.8691 103.516C82.4925 103.516 78.0633 99.4727 77.4484 94.2617C77.4004 94.6696 77.3726 95.0832 77.3726 95.5039C77.3726 101.301 82.0722 106 87.8691 106C93.666 106 98.3656 101.301 98.3656 95.5039C98.3656 95.0832 98.3378 94.6696 98.2898 94.2617C97.6749 99.4727 93.2457 103.516 87.8691 103.516Z" fill="#29297A"/>
<path d="M87.869 100.914C90.8572 100.914 93.2796 98.4915 93.2796 95.5033C93.2796 92.5152 90.8572 90.0928 87.869 90.0928C84.8809 90.0928 82.4585 92.5152 82.4585 95.5033C82.4585 98.4915 84.8809 100.914 87.869 100.914Z" fill="#6770E6"/>
<path d="M73.5446 27.9414H4.06822C2.27988 27.9414 0.829834 29.391 0.829834 31.1798V38.0288C0.829834 39.8171 2.27988 41.2672 4.06822 41.2672H73.5446C75.3329 41.2672 76.783 39.8171 76.783 38.0288V31.1798C76.783 29.391 75.3329 27.9414 73.5446 27.9414Z" fill="url(#paint4_linear)"/>
<path d="M73.5446 27.9414H4.06822C2.27988 27.9414 0.829834 29.391 0.829834 31.1798V34.4575C0.829834 32.6692 2.27988 31.2191 4.06822 31.2191H73.5446C75.3329 31.2191 76.783 32.6692 76.783 34.4575V31.1798C76.783 29.391 75.3329 27.9414 73.5446 27.9414Z" fill="url(#paint5_linear)"/>
<path d="M51.054 55.1574H26.5589C24.7991 55.1574 23.3723 53.7306 23.3723 51.9708C23.3723 50.211 24.7991 48.7842 26.5589 48.7842H51.054C52.8138 48.7842 54.2406 50.211 54.2406 51.9708C54.2406 53.731 52.8142 55.1574 51.054 55.1574Z" fill="url(#paint6_linear)"/>
<path d="M26.5568 4.4126H22.1466V9.92832H26.5568V4.4126Z" fill="#43E8E1"/>
<path d="M41.598 17.8509L38.4793 14.7305L41.9115 11.2967C42.169 11.0391 42.5864 11.0391 42.8435 11.2967L45.0302 13.4846C45.2873 13.7421 45.2873 14.1591 45.0302 14.4162L41.598 17.8509Z" fill="#43E8E1"/>
<path d="M7.10579 17.8509L10.2245 14.7305L6.79234 11.2967C6.5348 11.0391 6.11742 11.0391 5.86029 11.2967L3.67362 13.4846C3.41649 13.7421 3.41649 14.1591 3.67362 14.4162L7.10579 17.8509Z" fill="#43E8E1"/>
<path d="M24.3519 55.1572C37.3428 55.1572 47.874 44.6208 47.874 31.6235C47.874 18.6262 37.3428 8.08984 24.3519 8.08984C11.361 8.08984 0.829834 18.6262 0.829834 31.6235C0.829834 44.6208 11.361 55.1572 24.3519 55.1572Z" fill="#43E8E1"/>
<path d="M24.3519 50.9289C35.0084 50.9289 43.6472 42.2856 43.6472 31.6236C43.6472 20.9616 35.0084 12.3184 24.3519 12.3184C13.6954 12.3184 5.05658 20.9616 5.05658 31.6236C5.05658 42.2856 13.6954 50.9289 24.3519 50.9289Z" fill="#F6F9FC"/>
<path d="M28.4706 4.41266H20.2328C19.8688 4.41266 19.5736 4.11744 19.5736 3.75348V0.659187C19.574 0.295227 19.8688 0 20.2328 0H28.4706C28.8345 0 29.1298 0.295227 29.1298 0.659187V3.75389C29.1298 4.11744 28.8345 4.41266 28.4706 4.41266Z" fill="#43E8E1"/>
<path d="M28.471 0H20.2328C19.8688 0 19.574 0.295227 19.574 0.659187V2.81397C19.574 2.45001 19.8688 2.15478 20.2328 2.15478H28.471C28.835 2.15478 29.1298 2.45001 29.1298 2.81397V0.659187C29.1298 0.295227 28.835 0 28.471 0Z" fill="#A1F1FC"/>
<path d="M24.3519 31.6235V15.0908C15.2256 15.0908 7.82751 22.4926 7.82751 31.6235C7.82751 40.7544 15.226 48.1562 24.3519 48.1562C28.9165 48.1562 33.0489 46.3045 36.0392 43.3108L24.3519 31.6235Z" fill="#43E8E1"/>
<defs>
<linearGradient id="paint0_linear" x1="2.17206" y1="64.6099" x2="35.0929" y2="110.051" gradientUnits="userSpaceOnUse">
<stop stop-color="#42B2F1"/>
<stop offset="1" stop-color="#2A54D3"/>
</linearGradient>
<linearGradient id="paint1_linear" x1="63.4314" y1="90.6803" x2="102.173" y2="101.085" gradientUnits="userSpaceOnUse">
<stop stop-color="#26259E"/>
<stop offset="1" stop-color="#5F50CC"/>
</linearGradient>
<linearGradient id="paint2_linear" x1="8.6819" y1="103.776" x2="31.3564" y2="111.916" gradientUnits="userSpaceOnUse">
<stop stop-color="#26259E"/>
<stop offset="1" stop-color="#5F50CC"/>
</linearGradient>
<linearGradient id="paint3_linear" x1="71.6211" y1="103.776" x2="94.2955" y2="111.916" gradientUnits="userSpaceOnUse">
<stop stop-color="#26259E"/>
<stop offset="1" stop-color="#5F50CC"/>
</linearGradient>
<linearGradient id="paint4_linear" x1="-2.16264" y1="33.6767" x2="0.480199" y2="50.2807" gradientUnits="userSpaceOnUse">
<stop stop-color="#42B2F1"/>
<stop offset="1" stop-color="#2A54D3"/>
</linearGradient>
<linearGradient id="paint5_linear" x1="-2.16264" y1="30.7459" x2="-1.51861" y2="39.0206" gradientUnits="userSpaceOnUse">
<stop stop-color="#42B2F1"/>
<stop offset="1" stop-color="#2A54D3"/>
</linearGradient>
<linearGradient id="paint6_linear" x1="22.1561" y1="51.5272" x2="23.6295" y2="59.3935" gradientUnits="userSpaceOnUse">
<stop stop-color="#42B2F1"/>
<stop offset="1" stop-color="#2A54D3"/>
</linearGradient>
</defs>
</svg>
