<svg id="Layer_1" data-name="Layer 1" xmlns="http://www.w3.org/2000/svg" viewBox="0 0 1443.45 527"><defs><style>.cls-1{opacity:0.2;}.cls-2,.cls-3{fill:#7543b8;}.cls-2{fill-opacity:0.32;}</style></defs><g class="cls-1"><path class="cls-2" d="M1206.88,268h-5.53v5.52h5.53Z"/><path class="cls-2" d="M787.16,481H785v2.13h2.12Z"/><path class="cls-2" d="M830,44.85H829v.94H830Z"/><path class="cls-2" d="M832.18,493.62h-5.27v5.26h5.27Z"/><path class="cls-2" d="M807.55,347.17h-3.66v3.65h3.66Z"/><path class="cls-2" d="M822.67,370.11h-19.2V389.3h19.2Z"/><path class="cls-2" d="M852.31,463.29H845v7.31h7.3Z"/><path class="cls-2" d="M903.88,47.65H898.1v5.78h5.78Z"/><path class="cls-2" d="M884.68,75.52h-2.3v2.29h2.3Z"/><path class="cls-2" d="M835.15,281.08H824.28V292h10.87Z"/><path class="cls-2" d="M852.65,372H838.3v14.35h14.35Z"/><path class="cls-2" d="M863.53,283.89h-5.1V289h5.1Z"/><path class="cls-2" d="M883.23,373.25H872.78V383.7h10.45Z"/><path class="cls-2" d="M901.5,330.44H895v6.45h6.46Z"/><path class="cls-2" d="M994.09,492.17H984v10.11h10.11Z"/><path class="cls-2" d="M1428.5,90.89h-9.26v9.26h9.26Z"/><path class="cls-2" d="M1337.61,6h-23v23h23Z"/><path class="cls-2" d="M1302.52,0h-11V11h11Z"/><path class="cls-2" d="M1114.45,2.29h-6.37V8.66h6.37Z"/><path class="cls-2" d="M1087.27,12.49h-10.19V22.68h10.19Z"/><path class="cls-2" d="M1032,48h-6.11v6.12H1032Z"/><path class="cls-2" d="M933.44,260.44H912.71v20.73h20.73Z"/><path class="cls-2" d="M926,301.21h-2.12v2.13H926Z"/><path class="cls-2" d="M1329.11,521.14h-5.86V527h5.86Z"/><path class="cls-2" d="M1380.76,489.2H1378v2.72h2.72Z"/><path class="cls-2" d="M1427.31,442.56h-6.88v6.89h6.88Z"/><path class="cls-2" d="M1443.45,171.93H1429.6v13.84h13.85Z"/><path class="cls-2" d="M1165,17.75h-15.29V33H1165Z"/><path class="cls-2" d="M988.57,388H982v6.54h6.55Z"/><path class="cls-2" d="M1427.22,266.39h-8.83v8.83h8.83Z"/><path class="cls-2" d="M1369,122.92H1365V127H1369Z"/><path class="cls-2" d="M1348.82,97.86h-9.77v9.77h9.77Z"/><path class="cls-2" d="M1232.27,49.27h-8.49v8.49h8.49Z"/><path class="cls-2" d="M1196.85,51.65h-1.36V53h1.36Z"/><path class="cls-2" d="M1177,43.32h-25v25h25Z"/><path class="cls-2" d="M1135.1,62.35H1132v3.06h3.06Z"/><path class="cls-2" d="M1040.81,127.5h-19.37v19.37h19.37Z"/><path class="cls-2" d="M1019.23,158.17h-11.3v11.3h11.3Z"/><path class="cls-2" d="M1426.71,266.9h-7.81v7.81h7.81Z"/><path class="cls-2" d="M1393.75,268.6h-4.41V273h4.41Z"/><path class="cls-2" d="M1396.47,231.48h-15.29v15.29h15.29Z"/><path class="cls-2" d="M1383.14,206h-4.68v4.67h4.68Z"/><path class="cls-2" d="M1369.46,177.79h-3.31v3.31h3.31Z"/><path class="cls-2" d="M1330,128.1h-4.08v4.08H1330Z"/><path class="cls-2" d="M1276.19,94.63h-4.5v4.5h4.5Z"/><path class="cls-2" d="M1127.54,95.73h-15.46v15.46h15.46Z"/><path class="cls-2" d="M1051.68,163.1h-5.61v5.6h5.61Z"/><path class="cls-2" d="M1049.64,374.86H1048v1.62h1.61Z"/><path class="cls-2" d="M1150.39,448.94h-2.13v2.12h2.13Z"/><path class="cls-2" d="M1243.83,453.69h-.43v.43h.43Z"/><path class="cls-2" d="M1364.62,373.76h-29.48v29.47h29.48Z"/><path class="cls-2" d="M1387.89,326.11h-14.18v14.18h14.18Z"/><path class="cls-2" d="M1390,301.3h-2.38v2.38H1390Z"/><path class="cls-2" d="M1394.09,268.26H1389v5.09h5.09Z"/><path class="cls-2" d="M1369,262h-17.59v17.58H1369Z"/><path class="cls-2" d="M1358.33,238.19H1356v2.38h2.38Z"/><path class="cls-2" d="M1347.8,209h-.43v.43h.43Z"/><path class="cls-2" d="M1332.68,181.27H1332V182h.68Z"/><path class="cls-2" d="M1270.75,111.87h-24.88v24.89h24.88Z"/><path class="cls-2" d="M1137.73,128.18h-4.84V133h4.84Z"/><path class="cls-2" d="M1111.57,391.34h-6v6h6Z"/><path class="cls-2" d="M1334.38,358h-4.08V362h4.08Z"/><path class="cls-2" d="M1357.57,322.45h-19.88v19.88h19.88Z"/><path class="cls-2" d="M1368.78,262.31h-17v17h17Z"/><path class="cls-2" d="M1333.44,266.47h-8.66v8.67h8.66Z"/><path class="cls-2" d="M1328.35,236.49h-6.46v6.45h6.46Z"/><path class="cls-2" d="M1322.23,202.08h-17.16v17.16h17.16Z"/><path class="cls-2" d="M1301.5,179.06H1289v12.49h12.48Z"/><path class="cls-2" d="M1274.15,162.24H1268v6.12h6.11Z"/><path class="cls-2" d="M1245.61,149.08h-5.78v5.77h5.78Z"/><path class="cls-2" d="M1154.21,154.52h-6.46V161h6.46Z"/><path class="cls-2" d="M1130.08,361.53h-11v11h11Z"/><path class="cls-2" d="M1313.82,330.69h-.42v.43h.42Z"/><path class="cls-2" d="M1327.07,299.94h-3.9v3.91h3.9Z"/><path class="cls-2" d="M1333.44,266.47h-8.66v8.67h8.66Z"/><path class="cls-2" d="M1300.91,267.66h-6.2v6.2h6.2Z"/><path class="cls-2" d="M1303,227.91h-21.66v21.66H1303Z"/><path class="cls-2" d="M1223.44,175.58h-6v5.95h6Z"/><path class="cls-2" d="M1196.43,169.89h-17.25v17.25h17.25Z"/><path class="cls-2" d="M1160.07,187.05h-5.35v5.35h5.35Z"/><path class="cls-2" d="M1121.76,297.22h-11.21v11.22h11.21Z"/><path class="cls-2" d="M1277.21,329.84h-2.46v2.46h2.46Z"/><path class="cls-2" d="M1300.91,267.66h-6.2v6.2h6.2Z"/><path class="cls-2" d="M1268,269.45h-2.81v2.8H1268Z"/><path class="cls-2" d="M1207.55,204.89h-6.88v6.88h6.88Z"/><path class="cls-2" d="M1176.13,213.47h-6.46v6.45h6.46Z"/><path class="cls-2" d="M1150.3,301.73h-.59v.59h.59Z"/><path class="cls-2" d="M1242.72,317.61h-14.61v14.61h14.61Z"/><path class="cls-2" d="M1268,269.45h-2.81v2.8H1268Z"/><path class="cls-2" d="M1245.1,261.21h-19.28v19.28h19.28Z"/><path class="cls-2" d="M1245.1,261.21h-19.28v19.28h19.28Z"/></g><g class="cls-1"><path class="cls-3" d="M250.84,268h5.53v5.52h-5.53Z"/><path class="cls-3" d="M670.56,481h2.12v2.13h-2.12Z"/><path class="cls-3" d="M627.75,44.85h.93v.94h-.93Z"/><path class="cls-3" d="M625.54,493.62h5.26v5.26h-5.26Z"/><path class="cls-3" d="M650.17,347.17h3.65v3.65h-3.65Z"/><path class="cls-3" d="M605.4,463.29h7.31v7.31H605.4Z"/><path class="cls-3" d="M553.84,47.65h5.78v5.78h-5.78Z"/><path class="cls-3" d="M573,75.52h2.29v2.29H573Z"/><path class="cls-3" d="M622.56,281.08h10.88V292H622.56Z"/><path class="cls-3" d="M594.19,283.89h5.1V289h-5.1Z"/><path class="cls-3" d="M574.49,373.25h10.44V383.7H574.49Z"/><path class="cls-3" d="M556.22,330.44h6.46v6.45h-6.46Z"/><path class="cls-3" d="M463.63,492.17h10.11v10.11H463.63Z"/><path class="cls-3" d="M29.22,90.89h9.26v9.26H29.22Z"/><path class="cls-3" d="M120.11,6h23v23h-23Z"/><path class="cls-3" d="M155.2,0h11V11h-11Z"/><path class="cls-3" d="M343.26,2.29h6.38V8.66h-6.38Z"/><path class="cls-3" d="M370.45,12.49h10.19V22.68H370.45Z"/><path class="cls-3" d="M425.75,48h6.11v6.12h-6.11Z"/><path class="cls-3" d="M524.28,260.44H545v20.73H524.28Z"/><path class="cls-3" d="M531.76,301.21h2.12v2.13h-2.12Z"/><path class="cls-3" d="M128.61,521.14h5.86V527h-5.86Z"/><path class="cls-3" d="M77,489.2h2.72v2.72H77Z"/><path class="cls-3" d="M30.41,442.56h6.88v6.89H30.41Z"/><path class="cls-3" d="M0,267H7.56v7.56H0Z"/><path class="cls-3" d="M4.33,238.1H7.05v2.72H4.33Z"/><path class="cls-3" d="M10.53,207.69h2v2h-2Z"/><path class="cls-3" d="M14.27,171.93H28.12v13.84H14.27Z"/><path class="cls-3" d="M292.72,17.75H308V33H292.72Z"/><path class="cls-3" d="M469.15,388h6.54v6.54h-6.54Z"/><path class="cls-3" d="M0,267H7.56v7.56H0Z"/><path class="cls-3" d="M30.5,266.39h8.83v8.83H30.5Z"/><path class="cls-3" d="M88.68,122.92h4.08V127H88.68Z"/><path class="cls-3" d="M108.9,97.86h9.77v9.77H108.9Z"/><path class="cls-3" d="M225.45,49.27h8.49v8.49h-8.49Z"/><path class="cls-3" d="M260.87,51.65h1.36V53h-1.36Z"/><path class="cls-3" d="M280.74,43.32h25v25h-25Z"/><path class="cls-3" d="M322.62,62.35h3.06v3.06h-3.06Z"/><path class="cls-3" d="M416.91,127.5h19.37v19.37H416.91Z"/><path class="cls-3" d="M438.49,158.17h11.29v11.3H438.49Z"/><path class="cls-3" d="M31,266.9h7.81v7.81H31Z"/><path class="cls-3" d="M64,268.6h4.42V273H64Z"/><path class="cls-3" d="M61.25,231.48H76.54v15.29H61.25Z"/><path class="cls-3" d="M74.58,206h4.67v4.67H74.58Z"/><path class="cls-3" d="M88.26,177.79h3.31v3.31H88.26Z"/><path class="cls-3" d="M127.76,128.1h4.08v4.08h-4.08Z"/><path class="cls-3" d="M181.53,94.63H186v4.5h-4.5Z"/><path class="cls-3" d="M330.18,95.73h15.46v15.46H330.18Z"/><path class="cls-3" d="M406,163.1h5.61v5.6H406Z"/><path class="cls-3" d="M408.08,374.86h1.61v1.62h-1.61Z"/><path class="cls-3" d="M307.33,448.94h2.13v2.12h-2.13Z"/><path class="cls-3" d="M213.89,453.69h.43v.43h-.43Z"/><path class="cls-3" d="M69.83,326.11H84v14.18H69.83Z"/><path class="cls-3" d="M67.7,301.3h2.38v2.38H67.7Z"/><path class="cls-3" d="M63.62,268.26h5.1v5.09h-5.1Z"/><path class="cls-3" d="M88.68,262h17.59v17.58H88.68Z"/><path class="cls-3" d="M99.39,238.19h2.37v2.38H99.39Z"/><path class="cls-3" d="M109.92,209h.42v.43h-.42Z"/><path class="cls-3" d="M125,181.27h.68V182H125Z"/><path class="cls-3" d="M187,111.87h24.89v24.89H187Z"/><path class="cls-3" d="M320,128.18h4.84V133H320Z"/><path class="cls-3" d="M346.15,391.34h6v6h-6Z"/><path class="cls-3" d="M123.34,358h4.08V362h-4.08Z"/><path class="cls-3" d="M100.15,322.45H120v19.88H100.15Z"/><path class="cls-3" d="M88.94,262.31h17v17h-17Z"/><path class="cls-3" d="M124.28,266.47h8.66v8.67h-8.66Z"/><path class="cls-3" d="M129.37,236.49h6.46v6.45h-6.46Z"/><path class="cls-3" d="M135.49,202.08h17.16v17.16H135.49Z"/><path class="cls-3" d="M156.21,179.06H168.7v12.49H156.21Z"/><path class="cls-3" d="M183.57,162.24h6.11v6.12h-6.11Z"/><path class="cls-3" d="M212.11,149.08h5.78v5.77h-5.78Z"/><path class="cls-3" d="M303.51,154.52H310V161h-6.46Z"/><path class="cls-3" d="M327.63,361.53h11.05v11H327.63Z"/><path class="cls-3" d="M143.9,330.69h.42v.43h-.42Z"/><path class="cls-3" d="M130.65,299.94h3.9v3.91h-3.9Z"/><path class="cls-3" d="M124.28,266.47h8.66v8.67h-8.66Z"/><path class="cls-3" d="M156.81,267.66H163v6.2h-6.2Z"/><path class="cls-3" d="M154.77,227.91h21.66v21.66H154.77Z"/><path class="cls-3" d="M234.28,175.58h5.95v5.95h-5.95Z"/><path class="cls-3" d="M261.29,169.89h17.24v17.25H261.29Z"/><path class="cls-3" d="M297.65,187.05H303v5.35h-5.35Z"/><path class="cls-3" d="M336,297.22h11.21v11.22H336Z"/><path class="cls-3" d="M180.51,329.84H183v2.46h-2.46Z"/><path class="cls-3" d="M156.81,267.66H163v6.2h-6.2Z"/><path class="cls-3" d="M189.68,269.45h2.81v2.8h-2.81Z"/><path class="cls-3" d="M189.09,229.18h20.73v20.73H189.09Z"/><path class="cls-3" d="M250.16,204.89H257v6.88h-6.88Z"/><path class="cls-3" d="M281.59,213.47h6.46v6.45h-6.46Z"/><path class="cls-3" d="M307.42,301.73H308v.59h-.59Z"/><path class="cls-3" d="M215,317.61h14.61v14.61H215Z"/><path class="cls-3" d="M189.68,269.45h2.81v2.8h-2.81Z"/><path class="cls-3" d="M212.62,261.21H231.9v19.28H212.62Z"/><path class="cls-3" d="M212.62,261.21H231.9v19.28H212.62Z"/></g></svg>