<svg id="Layer_1" data-name="Layer 1" xmlns="http://www.w3.org/2000/svg" xmlns:xlink="http://www.w3.org/1999/xlink" viewBox="0 0 813 530.06"><defs><style>.cls-1{fill:#182230;fill-rule:evenodd;}.cls-2,.cls-4,.cls-5,.cls-8{fill:#7543b8;}.cls-2{fill-opacity:0.32;}.cls-3{fill:#f8f3ff;}.cls-4{fill-opacity:0.7;}.cls-5{fill-opacity:0.8;}.cls-6,.cls-7{fill:#fff;}.cls-6{fill-opacity:0.9;}.cls-9{fill:#1ad5ff;}.cls-10{mask:url(#mask);}</style><mask id="mask" x="119" y="-524.94" width="1440" height="745" maskUnits="userSpaceOnUse"><g id="mask0"><path class="cls-1" d="M119-524.94H1559v745H119Z"/></g></mask></defs><path class="cls-2" d="M220.73,163.06H200v20.72h20.73Z"/><path class="cls-2" d="M210.3,198.06H199v11.3h11.3Z"/><path class="cls-3" d="M282.37,153.06H263v19.37h19.37Z"/><path class="cls-2" d="M263.2,199.06H244v19.2h19.2Z"/><path class="cls-4" d="M116.14,293.59h-5.26v5.27h5.26Z"/><path class="cls-4" d="M91.51,147.14H87.86v3.66h3.65Z"/><path class="cls-4" d="M164.3,219.06H157v7.3h7.3Z"/><path class="cls-4" d="M119.12,81.06H108.24V91.93h10.88Z"/><path class="cls-4" d="M136.61,172H122.26V186.3h14.35Z"/><path class="cls-4" d="M147.49,83.86h-5.1V89h5.1Z"/><path class="cls-4" d="M167.2,173.22H156.75v10.45H167.2Z"/><path class="cls-4" d="M185.46,130.41H179v6.46h6.46Z"/><path class="cls-4" d="M208.37,209.9H198.26V220h10.11Z"/><path class="cls-4" d="M209.92,101.19H207.8v2.12h2.12Z"/><path class="cls-4" d="M543.29,164.41h-5.86v5.86h5.86Z"/><path class="cls-4" d="M272.53,187.92H266v6.54h6.54Z"/><path class="cls-4" d="M434.35,248.91h-2.12V251h2.12Z"/><path class="cls-4" d="M671.86,126.08H657.67v14.18h14.19Z"/><path class="cls-4" d="M395.53,191.32h-5.95v5.94h5.95Z"/><path class="cls-4" d="M618.34,157.93h-4.08V162h4.08Z"/><path class="cls-4" d="M641.53,122.43H621.65V142.3h19.88Z"/><path class="cls-4" d="M414.05,161.5H403v11h11.05Z"/><path class="cls-4" d="M526.68,117.58H512.07V132.2h14.61Z"/><path class="cls-2" d="M125.49,198.06h-5.78v5.77h5.78Z"/><path class="cls-2" d="M106.29,225.92H104v2.29h2.29Z"/><path class="cls-2" d="M253.59,198.4h-6.12v6.11h6.12Z"/><path class="cls-2" d="M548.45,130.55H536.22v12h12.23Z"/><path class="cls-3" d="M457,198.06H434v22.61h23Z"/><path class="cls-3" d="M373,18.72H362V29.57H373Z"/><path class="cls-3" d="M157.8,31H147.61V41H157.8Z"/><path class="cls-3" d="M487,47.76H477.7v9.1H487Z"/><path class="cls-2" d="M593.41,54.08H563.93V83h29.48Z"/><path class="cls-3" d="M407.29,54.61h-9.77V64.2h9.77Z"/><path class="cls-3" d="M474,121.06H449v24.53h25Z"/><path class="cls-2" d="M371.92,65.49h-17V82.18h17Z"/><path class="cls-2" d="M331.49,40.12H325v6.34h6.46Z"/><path class="cls-5" d="M368.11,54.08H351V70.94h17.16Z"/><path class="cls-2" d="M304.74,56.85H292.26V69.12h12.48Z"/><path class="cls-3" d="M188.46,101.06H173v15.18h15.46Z"/><path class="cls-6" d="M303.42,0H297V6.34h6.46Z"/><path class="cls-2" d="M336.58,69.58h-8.66v8.51h8.66Z"/><path class="cls-7" d="M336.89,93.06H312v24.45h24.89Z"/><path class="cls-2" d="M248.25,64.4H229V83.35h19.28Z"/><path class="cls-2" d="M293.24,33.45H274V52.39h19.28Z"/><path class="cls-8" d="M74.84,271.06H69.32v5.52h5.52Z"/><path class="cls-9" d="M424.47,5H416v8.5h8.49Z"/><path class="cls-8" d="M402.73,91.23h-4.34v4.33h4.34Z"/><path class="cls-8" d="M411.48,210.15h-3.06v3.06h3.06Z"/><path class="cls-8" d="M331.71,42.05h-6.37v6.37h6.37Z"/><path class="cls-8" d="M381.91,423.71h-2.46v2.46h2.46Z"/><path class="cls-8" d="M411.9,334.17h-3.82V338h3.82Z"/><path class="cls-8" d="M382.25,206.76h-8.49v8.49h8.49Z"/><path class="cls-9" d="M343.52,174.9H331.29v12.23h12.23Z"/><path class="cls-9" d="M296.46,94H287.2v9.26h9.26Z"/><path class="cls-9" d="M205.57,9.09h-23v23h23Z"/><path class="cls-9" d="M170.49,3.06H159.44v11h11.05Z"/><path class="cls-9" d="M197.07,524.2h-5.86v5.86h5.86Z"/><path class="cls-8" d="M248.72,492.26H246V495h2.72Z"/><path class="cls-9" d="M238.88,421.06H232v6.88h6.88Z"/><path class="cls-8" d="M325.68,270h-7.56v7.56h7.56Z"/><path class="cls-8" d="M321.35,241.16h-2.72v2.72h2.72Z"/><path class="cls-8" d="M315.15,210.75h-2v2h2Z"/><path class="cls-8" d="M311.41,175H297.56v13.84h13.85Z"/><path class="cls-8" d="M33,20.81H17.67V36.1H33Z"/><path class="cls-8" d="M325.68,270h-7.56v7.56h7.56Z"/><path class="cls-8" d="M295.18,269.45h-8.83v8.83h8.83Z"/><path class="cls-8" d="M237,126h-4.08v4.08H237Z"/><path class="cls-9" d="M216.78,100.91H207v9.77h9.77Z"/><path class="cls-8" d="M100.23,52.33H91.74v8.49h8.49Z"/><path class="cls-8" d="M64.81,54.7H63.45v1.36h1.36Z"/><path class="cls-8" d="M44.94,46.38H20v25h25Z"/><path class="cls-8" d="M3.06,65.41H0v3.06H3.06Z"/><path class="cls-9" d="M294.68,270h-7.82v7.81h7.82Z"/><path class="cls-8" d="M261.72,271.65H257.3v4.42h4.42Z"/><path class="cls-9" d="M264.43,234.53H249.14v15.29h15.29Z"/><path class="cls-8" d="M251.1,209.05h-4.67v4.67h4.67Z"/><path class="cls-8" d="M237.42,180.85h-3.31v3.31h3.31Z"/><path class="cls-8" d="M197.92,131.15h-4.07v4.08h4.07Z"/><path class="cls-9" d="M144.15,97.69h-4.5v4.5h4.5Z"/><path class="cls-8" d="M18.35,452H16.23v2.13h2.12Z"/><path class="cls-8" d="M111.79,456.75h-.43v.42h.43Z"/><path class="cls-9" d="M517.48,190.06H488v29.47h29.48Z"/><path class="cls-8" d="M255.86,329.16H241.67v14.19h14.19Z"/><path class="cls-8" d="M258,304.36H255.6v2.38H258Z"/><path class="cls-8" d="M262.06,271.32H257v5.09h5.1Z"/><path class="cls-8" d="M237,265H219.41v17.58H237Z"/><path class="cls-8" d="M226.29,241.24h-2.37v2.38h2.37Z"/><path class="cls-8" d="M215.76,212h-.42v.43h.42Z"/><path class="cls-8" d="M200.64,184.33H200V185h.68Z"/><path class="cls-9" d="M151.89,120.06H127V145h24.89Z"/><path class="cls-8" d="M5.69,131.24H.85v4.84H5.69Z"/><path class="cls-8" d="M202.34,361h-4.08v4.07h4.08Z"/><path class="cls-9" d="M225.53,325.51H205.65v19.88h19.88Z"/><path class="cls-8" d="M236.74,265.37h-17v17h17Z"/><path class="cls-8" d="M201.4,269.53h-8.66v8.67h8.66Z"/><path class="cls-8" d="M196.31,239.55h-6.46V246h6.46Z"/><path class="cls-9" d="M190.19,205.14H173V222.3h17.16Z"/><path class="cls-9" d="M169.47,182.12H157v12.49h12.49Z"/><path class="cls-8" d="M142.11,165.3H136v6.12h6.11Z"/><path class="cls-8" d="M113.57,152.14H107.8v5.77h5.77Z"/><path class="cls-8" d="M22.17,157.57H15.71V164h6.46Z"/><path class="cls-8" d="M181.78,333.75h-.42v.42h.42Z"/><path class="cls-8" d="M195,303h-3.9v3.91H195Z"/><path class="cls-9" d="M201.4,269.53h-8.66v8.67h8.66Z"/><path class="cls-8" d="M168.87,270.72h-6.2v6.2h6.2Z"/><path class="cls-9" d="M170.91,231H149.25v21.66h21.66Z"/><path class="cls-8" d="M91.4,178.64h-6v6h6Z"/><path class="cls-9" d="M64.39,173H47.14v17.24H64.39Z"/><path class="cls-8" d="M28,190.11H22.68v5.35H28Z"/><path class="cls-8" d="M145.17,332.9h-2.46v2.46h2.46Z"/><path class="cls-8" d="M168.87,270.72h-6.2v6.2h6.2Z"/><path class="cls-8" d="M136,272.5h-2.81v2.81H136Z"/><path class="cls-8" d="M75.52,208H68.64v6.88h6.88Z"/><path class="cls-8" d="M44.09,216.52H37.63V223h6.46Z"/><path class="cls-8" d="M18.26,304.78h-.59v.6h.59Z"/><path class="cls-9" d="M110.68,320.67H96.07v14.61h14.61Z"/><path class="cls-8" d="M136,272.5h-2.81v2.81H136Z"/><path class="cls-8" d="M113.06,264.26H93.78v19.29h19.28Z"/><path class="cls-8" d="M113.06,264.26H93.78v19.29h19.28Z"/><g class="cls-10"><path class="cls-3" d="M813,87.64h-8.5V96H813Z"/><path class="cls-2" d="M793.66,115.36h-4.33v4.25h4.33Z"/><path class="cls-2" d="M732.63,78.25h-3.06v3h3.06Z"/><path class="cls-3" d="M720.25,124h-6.37v6.26h6.37Z"/><path class="cls-2" d="M733.06,200.08h-3.83v3.75h3.83Z"/><path class="cls-2" d="M703.41,74.91h-8.49v8.35h8.49Z"/><path class="cls-3" d="M371,88h-6.37v6.26H371Z"/><path class="cls-2" d="M642.51,108.71H639.8v2.67h2.71Z"/><path class="cls-3" d="M421.52,103.16H406.23v15h15.29Z"/><path class="cls-2" d="M646.84,137.08h-7.55v7.43h7.55Z"/><path class="cls-2" d="M491.19,77.14H482.7v8.34h8.49Z"/><path class="cls-2" d="M455.78,79.47h-1.36v1.34h1.36Z"/><path class="cls-2" d="M394,90H391v3H394Z"/><path class="cls-2" d="M615.84,137H608v7.68h7.81Z"/><path class="cls-2" d="M585.61,102.2H570.32v15h15.29Z"/><path class="cls-2" d="M572.27,77.16H567.6v4.59h4.67Z"/><path class="cls-2" d="M628.37,203.39h-3.31v3.26h3.31Z"/><path class="cls-2" d="M535.11,121.7h-4.5v4.42h4.5Z"/><path class="cls-2" d="M327.58,146.62H322v5.51h5.6Z"/><path class="cls-2" d="M579.15,170.79h-2.38v2.34h2.38Z"/><path class="cls-2" d="M583.23,138.33h-5.1v5h5.1Z"/><path class="cls-2" d="M547.47,108.79h-2.38v2.34h2.38Z"/><path class="cls-3" d="M613.5,146.22h-4.07v4h4.07Z"/><path class="cls-2" d="M591.59,206.81h-.68v.67h.68Z"/><path class="cls-2" d="M396.66,154.66h-4.84v4.76h4.84Z"/><path class="cls-3" d="M574.43,151.31h-4.07v4h4.07Z"/><path class="cls-2" d="M463.39,107.33h-6.11v6h6.11Z"/><path class="cls-6" d="M580.81,61.66H575v5.67h5.78Z"/><path class="cls-2" d="M516.21,169.45H512.3v3.84h3.91Z"/><path class="cls-2" d="M492.09,98.69H470.43V120h21.66Z"/><path class="cls-2" d="M482.36,201.22h-5.94v5.84h5.94Z"/><path class="cls-2" d="M349.32,131.7H344V137h5.35Z"/><path class="cls-2" d="M432.18,122.06H421v11h11.21Z"/><path class="cls-2" d="M466.35,198.83h-2.46v2.42h2.46Z"/><path class="cls-2" d="M490.05,137.75h-6.2v6.09h6.2Z"/><path class="cls-2" d="M396.8,149.22h-6.88V156h6.88Z"/><path class="cls-2" d="M365.38,157.65h-6.46V164h6.46Z"/></g></svg>