<svg width="214" height="233" viewBox="0 0 214 233" fill="none" xmlns="http://www.w3.org/2000/svg">
<mask id="mask0" mask-type="alpha" maskUnits="userSpaceOnUse" x="0" y="0" width="214" height="233">
<rect width="213.865" height="233" fill="url(#paint0_linear)"/>
</mask>
<g mask="url(#mask0)">
<rect width="119.588" height="119.588" transform="matrix(0.866025 0.5 -0.866025 0.5 103.566 98.2158)" fill="#1D46BF"/>
<path d="M207.21 158.057V147.592L194.329 154.3L207.21 158.057Z" fill="#1D46BF"/>
<path d="M0.046917 158.057V147.592L12.9275 154.3L0.046917 158.057Z" fill="#1D46BF"/>
<rect width="119.588" height="119.588" transform="matrix(0.866025 0.5 -0.866025 0.5 103.566 87.7974)" fill="url(#paint1_linear)"/>
<rect width="96.6043" height="96.6043" transform="matrix(0.866025 0.5 -0.866025 0.5 103.566 99.2887)" fill="url(#paint2_linear)"/>
<rect width="119.588" height="119.588" transform="matrix(0.866025 0.5 -0.866025 0.5 103.566 50.9404)" fill="#1D46BF"/>
<path d="M207.21 110.782V100.316L194.329 107.025L207.21 110.782Z" fill="#1D46BF"/>
<path d="M0.046917 110.782V100.316L12.9275 107.025L0.046917 110.782Z" fill="#1D46BF"/>
<rect width="119.588" height="119.588" transform="matrix(0.866025 0.5 -0.866025 0.5 103.566 40.522)" fill="url(#paint3_linear)"/>
<rect width="96.6043" height="96.6043" transform="matrix(0.866025 0.5 -0.866025 0.5 103.566 52.0132)" fill="url(#paint4_linear)"/>
<rect width="119.588" height="119.588" transform="matrix(0.866025 0.5 -0.866025 0.5 103.566 10.4185)" fill="#1D46BF"/>
<path d="M207.21 70.2599V59.7944L194.329 66.5031L207.21 70.2599Z" fill="#1D46BF"/>
<path d="M0.0474052 70.2599V59.7944L12.928 66.5031L0.0474052 70.2599Z" fill="#1D46BF"/>
<rect width="119.588" height="119.588" transform="matrix(0.866025 0.5 -0.866025 0.5 103.566 0)" fill="url(#paint5_linear)"/>
<rect width="96.6043" height="96.6043" transform="matrix(0.866025 0.5 -0.866025 0.5 103.566 11.4912)" fill="url(#paint6_linear)"/>
<path d="M138.792 60.5645C139.716 60.9273 140.455 61.4395 140.908 62.0531C143.487 65.6225 142.128 69.6828 137.461 72.4093L136.14 73.1723C131.436 75.888 124.412 76.6777 118.239 75.1837C117.528 75.0077 116.89 74.7569 116.363 74.4528C115.873 74.17 115.485 73.8392 115.199 73.4817C115.088 73.3323 114.728 73.3163 114.57 73.4497C114.173 73.7859 113.674 74.0846 113.073 74.3247C102.159 78.7159 87.4193 77.9635 78.0116 72.532C68.6039 67.1005 67.3008 58.5903 74.9065 52.2891C75.3223 51.9423 75.8399 51.6542 76.4221 51.4248C76.6531 51.3341 76.6254 51.126 76.3666 51.0619C75.7382 50.8912 75.1652 50.6671 74.6847 50.3897C74.1579 50.0855 73.7328 49.7227 73.4279 49.3119C70.8495 45.7424 72.2172 41.6875 76.9119 38.977L78.2334 38.2141C82.9372 35.4983 89.9607 34.7086 96.1339 36.2026C97.2059 36.4587 98.0838 36.8908 98.7122 37.4244C98.8324 37.5258 99.0542 37.5578 99.2297 37.4884C105.486 35.0928 113.766 35.1675 119.875 37.7765C122.749 38.9984 124.911 40.6524 126.131 42.5518C126.455 43.0587 126.963 43.5122 127.61 43.8857C128.257 44.2592 129.042 44.5526 129.92 44.7394C133.201 45.449 136.066 46.6975 138.191 48.3515C142.71 51.8783 142.84 56.6589 138.69 60.271C138.57 60.3724 138.616 60.4951 138.792 60.5645Z" fill="#143252"/>
<path d="M142.192 61.1261L142.187 61.1195L142.182 61.113C141.886 60.7112 141.524 60.3586 141.12 60.0527C142.576 58.3079 143.352 56.3097 143.273 54.2197C143.173 51.5464 141.687 49.0713 139.165 47.1035L139.164 47.1021C136.809 45.2701 133.711 43.9395 130.255 43.192L130.25 43.1909C129.509 43.0333 128.884 42.7931 128.402 42.5147C127.913 42.2329 127.619 41.9403 127.466 41.7002L127.463 41.6963C126.018 39.4463 123.555 37.6208 120.495 36.3201C114.17 33.6189 105.755 33.4786 99.2012 35.8115C98.4365 35.2933 97.5173 34.9057 96.5041 34.6634C90.0078 33.0918 82.5561 33.8903 77.4418 36.843L76.1203 37.606C73.555 39.0871 71.7087 41.0435 70.9424 43.3165C70.156 45.6488 70.5875 48.0834 72.1445 50.2389L72.1506 50.2472L72.1567 50.2555C72.5072 50.7277 72.9424 51.1302 73.4303 51.468C69.6412 54.801 67.8828 58.8583 68.5142 62.9766C69.1623 67.2043 72.2626 71.0409 77.22 73.903C87.0874 79.5999 102.341 80.3487 113.663 75.7941C114.05 75.6391 114.413 75.4603 114.749 75.2591C115.002 75.465 115.277 75.6536 115.572 75.8238C116.246 76.2132 117.026 76.5145 117.859 76.7205L117.867 76.7224C124.364 78.2947 131.816 77.4963 136.931 74.5433L138.253 73.7803L138.26 73.7762C140.811 72.2858 142.645 70.3229 143.404 68.0479C144.181 65.7147 143.748 63.2811 142.192 61.1261Z" stroke="white" stroke-opacity="0.15" stroke-width="3.16623"/>
<path fill-rule="evenodd" clip-rule="evenodd" d="M120.132 72.5095C124.272 73.5126 129.207 73.0644 132.571 71.1223L133.893 70.3593C137.257 68.4172 138.042 65.5627 136.305 63.1724C136.074 62.8576 135.362 62.7776 134.946 63.0177L119.864 71.7252C119.439 71.9706 119.587 72.3761 120.132 72.5095ZM114.504 69.6764C117.646 67.5422 119.393 64.9651 119.744 62.3294C119.79 62.0253 120.243 61.8385 120.761 61.9025C125.455 62.5001 130.603 61.5984 133.902 59.1921C137.497 56.5724 137.617 52.7575 134.179 50.0684C132.562 48.8146 130.464 47.9342 128.172 47.4433C126.592 47.1072 125.206 46.5843 124.06 45.9227C122.905 45.2558 122.008 44.4501 121.426 43.5484C120.576 42.2252 119.06 41.0087 116.879 40.0803C112.231 38.0902 105.614 38.1649 101.077 40.2404C96.8996 42.1505 95.347 45.117 96.3821 47.8275C96.493 48.1263 96.1695 48.3877 95.6428 48.4144C91.0868 48.6225 86.6139 49.6255 82.9174 51.4396C82.5385 51.6264 82.5015 51.9465 82.8527 52.1492L98.064 60.9315L113.275 69.7137C113.617 69.9111 114.19 69.8898 114.504 69.6764ZM78.9806 53.926C72.8905 58.9787 73.713 65.9735 81.522 70.482C89.3309 74.9905 101.437 75.4707 110.198 71.9493C110.632 71.7732 110.688 71.4211 110.318 71.2077L95.2916 62.5321L80.2651 53.8566C79.8955 53.6432 79.2763 53.6805 78.9806 53.926ZM78.0195 48.1956C78.2505 48.5104 78.9621 48.5905 79.378 48.3504L94.4691 39.6375C94.8942 39.3921 94.7463 38.9866 94.2011 38.8532C90.0517 37.8554 85.1168 38.3036 81.753 40.2457L80.4222 41.014C77.0676 42.9508 76.2821 45.8053 78.0195 48.1956ZM110.429 44.7219L126.14 53.7923C126.99 54.2831 126.99 55.0835 126.14 55.5743C125.29 56.0652 123.903 56.0652 123.053 55.5743L107.343 46.504C106.493 46.0131 106.493 45.2128 107.343 44.7219C108.193 44.2311 109.579 44.231 110.429 44.7219ZM109.348 55.7621C110.365 55.1752 112.01 55.1752 113.026 55.7621C114.043 56.349 114.043 57.2987 113.026 57.8856C112.01 58.4725 110.365 58.4725 109.348 57.8856C108.331 57.2987 108.331 56.349 109.348 55.7621ZM107.019 52.294C106.002 51.7071 104.357 51.7071 103.341 52.294C102.324 52.8809 102.324 53.8307 103.341 54.4176C104.357 55.0045 106.002 55.0045 107.019 54.4176C108.035 53.8307 108.035 52.8809 107.019 52.294Z" fill="white"/>
</g>
<defs>
<linearGradient id="paint0_linear" x1="106.932" y1="62.471" x2="106.932" y2="233" gradientUnits="userSpaceOnUse">
<stop stop-color="#C4C4C4"/>
<stop offset="1" stop-color="#C4C4C4" stop-opacity="0"/>
</linearGradient>
<linearGradient id="paint1_linear" x1="-4.71164" y1="51.4694" x2="71.319" y2="135.276" gradientUnits="userSpaceOnUse">
<stop stop-color="#42B2F1"/>
<stop offset="1" stop-color="#2A54D3"/>
</linearGradient>
<linearGradient id="paint2_linear" x1="-3.80611" y1="41.5775" x2="57.6122" y2="109.277" gradientUnits="userSpaceOnUse">
<stop stop-color="#42B2F1"/>
<stop offset="1" stop-color="#2A54D3"/>
</linearGradient>
<linearGradient id="paint3_linear" x1="-4.71164" y1="51.4694" x2="71.319" y2="135.276" gradientUnits="userSpaceOnUse">
<stop stop-color="#42B2F1"/>
<stop offset="1" stop-color="#2A54D3"/>
</linearGradient>
<linearGradient id="paint4_linear" x1="-3.80611" y1="41.5775" x2="57.6122" y2="109.277" gradientUnits="userSpaceOnUse">
<stop stop-color="#42B2F1"/>
<stop offset="1" stop-color="#2A54D3"/>
</linearGradient>
<linearGradient id="paint5_linear" x1="-4.71164" y1="51.4694" x2="71.319" y2="135.276" gradientUnits="userSpaceOnUse">
<stop stop-color="#42B2F1"/>
<stop offset="1" stop-color="#2A54D3"/>
</linearGradient>
<linearGradient id="paint6_linear" x1="-3.80611" y1="41.5775" x2="57.6122" y2="109.277" gradientUnits="userSpaceOnUse">
<stop stop-color="#42B2F1"/>
<stop offset="1" stop-color="#2A54D3"/>
</linearGradient>
</defs>
</svg>
