<svg width="1067" height="398" viewBox="0 0 1067 398" fill="none" xmlns="http://www.w3.org/2000/svg">
<g filter="url(#filter0_d)">
<rect x="4" width="1059" height="390" fill="url(#paint0_linear)"/>
<mask id="mask0" mask-type="alpha" maskUnits="userSpaceOnUse" x="4" y="0" width="392" height="390">
<rect x="4" width="392" height="390" rx="10" fill="#7159FF"/>
</mask>
<g mask="url(#mask0)">
<g style="mix-blend-mode:lighten" opacity="0.1">
<path d="M360.857 -111.356V56.5756L330.156 45.1857V-122.743L360.857 -111.356Z" fill="#C3C3C3"/>
<path d="M330.155 -122.743V45.1857L299.458 56.5756V-111.356L330.155 -122.743Z" fill="#E3E3E3"/>
<path d="M330.156 -60.9068V107.024L277.558 87.4938V-80.4344L330.156 -60.9068Z" fill="#C3C3C3"/>
<path d="M382.757 -80.4344V87.4938L330.156 107.024V-60.9068L382.757 -80.4344Z" fill="#E3E3E3"/>
<path d="M224.576 -111.356V56.5756L193.878 45.1857V-122.743L224.576 -111.356Z" fill="#C3C3C3"/>
<path d="M193.878 -122.743V45.1857L163.18 56.5756V-111.356L193.878 -122.743Z" fill="#E3E3E3"/>
<path d="M193.878 -60.9068V107.024L141.28 87.4938V-80.4344L193.878 -60.9068Z" fill="#C3C3C3"/>
<path d="M246.476 -80.4344V87.4938L193.878 107.024V-60.9068L246.476 -80.4344Z" fill="#E3E3E3"/>
<path d="M88.2985 -111.356V56.5756L57.6008 45.1857V-122.743L88.2985 -111.356Z" fill="#C3C3C3"/>
<path d="M57.6013 -122.743V45.1857L26.9006 56.5756V-111.356L57.6013 -122.743Z" fill="#E3E3E3"/>
<path d="M57.6007 -60.9068V107.024L5 87.4938V-80.4344L57.6007 -60.9068Z" fill="#C3C3C3"/>
<path d="M110.199 -80.4344V87.4938L57.6008 107.024V-60.9068L110.199 -80.4344Z" fill="#E3E3E3"/>
<path d="M398.487 -44.6486V123.283L367.789 134.67V-33.2586L398.487 -44.6486Z" fill="#E3E3E3"/>
<path d="M398.486 17.1892V185.117L345.888 165.59V-2.34143L398.486 17.1892Z" fill="#C3C3C3"/>
<path d="M451.084 -2.34159L398.486 17.189L345.889 -2.34159V-41.3882L398.486 -60.9188L451.084 -41.3882V-2.34159ZM367.801 -10.4823L398.498 0.931114L429.199 -10.4823V-33.2592L398.498 -44.6462L367.801 -33.2592V-10.4823Z" fill="white"/>
<path d="M292.906 -33.2586V134.67L262.209 123.283V-44.6486L292.906 -33.2586Z" fill="#C3C3C3"/>
<path d="M262.209 -44.6486V123.283L231.508 134.67V-33.2586L262.209 -44.6486Z" fill="#E3E3E3"/>
<path d="M262.209 17.1892V185.117L209.608 165.59V-2.34143L262.209 17.1892Z" fill="#C3C3C3"/>
<path d="M314.807 -2.34143V165.59L262.209 185.117V17.1892L314.807 -2.34143Z" fill="#E3E3E3"/>
<path d="M314.808 -2.34159L262.21 17.189L209.609 -2.34159V-41.3882L262.21 -60.9188L314.808 -41.3882V-2.34159ZM231.524 -10.4823L262.225 0.931114L292.922 -10.4823V-33.2592L262.21 -44.6462L231.509 -33.2592V-10.4823" fill="white"/>
<path d="M156.63 -33.2586V134.67L125.929 123.283V-44.6486L156.63 -33.2586Z" fill="#C3C3C3"/>
<path d="M125.929 -44.6486V123.283L95.2314 134.67V-33.2586L125.929 -44.6486Z" fill="#E3E3E3"/>
<path d="M125.929 17.1892V185.117L73.3313 165.59V-2.34143L125.929 17.1892Z" fill="#C3C3C3"/>
<path d="M178.53 -2.34143V165.59L125.929 185.117V17.1892L178.53 -2.34143Z" fill="#E3E3E3"/>
<path d="M178.53 -2.34159L125.93 17.189L73.3318 -2.34159V-41.3882L125.93 -60.9188L178.53 -41.3882V-2.34159ZM95.2231 -10.4823L125.921 0.931114L156.63 -10.4823V-33.2592L125.93 -44.6462L95.2231 -33.2592V-10.4823Z" fill="white"/>
<path d="M360.857 39.3036V207.235L330.156 195.845V27.9166L360.857 39.3036Z" fill="#C3C3C3"/>
<path d="M330.155 27.9166V195.845L299.458 207.235V39.3036L330.155 27.9166Z" fill="#E3E3E3"/>
<path d="M330.156 89.7513V257.682L277.558 238.152V70.2236L330.156 89.7513Z" fill="#C3C3C3"/>
<path d="M382.757 70.2236V238.152L330.156 257.682V89.7513L382.757 70.2236Z" fill="#E3E3E3"/>
<path d="M382.757 70.2242L330.156 89.7519L277.558 70.2242V31.1893L330.156 11.6587L382.757 31.1893V70.2242ZM299.473 62.0806L330.171 73.494L360.871 62.0806V39.3036L330.171 27.9166L299.473 39.3036V62.0806Z" fill="white"/>
<path d="M224.576 39.3036V207.235L193.878 195.845V27.9166L224.576 39.3036Z" fill="#C3C3C3"/>
<path d="M193.878 27.9166V195.845L163.18 207.235V39.3036L193.878 27.9166Z" fill="#E3E3E3"/>
<path d="M193.878 89.7513V257.682L141.28 238.152V70.2236L193.878 89.7513Z" fill="#C3C3C3"/>
<path d="M246.476 70.2236V238.152L193.878 257.682V89.7513L246.476 70.2236Z" fill="#E3E3E3"/>
<path d="M246.477 70.2242L193.879 89.7519L141.281 70.2242V31.1893L193.879 11.6587L246.477 31.1893V70.2242ZM163.193 62.0806L193.893 73.494L224.576 62.0806V39.3036L193.879 27.9166L163.178 39.3036V62.0806" fill="white"/>
<path d="M88.2985 39.3036V207.235L57.6008 195.845V27.9166L88.2985 39.3036Z" fill="#C3C3C3"/>
<path d="M57.6013 27.9166V195.845L26.9006 207.235V39.3036L57.6013 27.9166Z" fill="#E3E3E3"/>
<path d="M57.6007 89.7513V257.682L5 238.152V70.2236L57.6007 89.7513Z" fill="#C3C3C3"/>
<path d="M110.199 70.2236V238.152L57.6008 257.682V89.7513L110.199 70.2236Z" fill="#E3E3E3"/>
<path d="M110.199 70.2242L57.6007 89.7519L5 70.2242V31.1893L57.6007 11.6587L110.199 31.1893V70.2242ZM26.8942 62.0806L57.5949 73.494L88.2926 62.0806V39.3036L57.6007 27.9166L26.8942 39.3036V62.0806Z" fill="white"/>
<path d="M398.487 106.01V273.941L367.789 285.328V117.4L398.487 106.01Z" fill="#E3E3E3"/>
<path d="M398.486 167.847V335.776L345.888 316.248V148.317L398.486 167.847Z" fill="#C3C3C3"/>
<path d="M451.084 148.317L398.486 167.848L345.889 148.317V109.282L398.486 89.7516L451.084 109.282V148.317ZM367.801 140.176L398.498 151.59L429.199 140.176V117.399L398.498 106.012L367.801 117.399V140.176Z" fill="white"/>
<path d="M292.906 117.4V285.328L262.209 273.941V106.01L292.906 117.4Z" fill="#C3C3C3"/>
<path d="M262.209 106.01V273.941L231.508 285.328V117.4L262.209 106.01Z" fill="#E3E3E3"/>
<path d="M262.209 167.847V335.776L209.608 316.248V148.317L262.209 167.847Z" fill="#C3C3C3"/>
<path d="M314.807 148.317V316.248L262.209 335.776V167.847L314.807 148.317Z" fill="#E3E3E3"/>
<path d="M314.808 148.317L262.21 167.848L209.609 148.317V109.282L262.21 89.7516L314.808 109.282V148.317ZM231.524 140.176L262.225 151.59L292.922 140.176V117.399L262.21 106.012L231.509 117.399V140.176" fill="white"/>
<path d="M156.63 117.4V285.328L125.929 273.941V106.01L156.63 117.4Z" fill="#C3C3C3"/>
<path d="M125.929 106.01V273.941L95.2314 285.328V117.4L125.929 106.01Z" fill="#E3E3E3"/>
<path d="M125.929 167.847V335.776L73.3313 316.248V148.317L125.929 167.847Z" fill="#C3C3C3"/>
<path d="M178.53 148.317V316.248L125.929 335.776V167.847L178.53 148.317Z" fill="#E3E3E3"/>
<path d="M178.53 148.317L125.93 167.848L73.3318 148.317V109.282L125.93 89.7516L178.53 109.282V148.317ZM95.2231 140.176L125.921 151.59L156.63 140.176V117.399L125.93 106.012L95.2231 117.399V140.176Z" fill="white"/>
<path d="M360.857 189.962V357.893L330.156 346.503V178.575L360.857 189.962Z" fill="#C3C3C3"/>
<path d="M330.155 178.575V346.503L299.458 357.893V189.962L330.155 178.575Z" fill="#E3E3E3"/>
<path d="M330.156 240.409V408.341L277.558 388.81V220.882L330.156 240.409Z" fill="#C3C3C3"/>
<path d="M382.757 220.882V388.81L330.156 408.341V240.409L382.757 220.882Z" fill="#E3E3E3"/>
<path d="M382.757 220.884L330.156 240.411L277.558 220.884V181.849L330.156 162.318L382.757 181.849V220.884ZM299.473 212.74L330.171 224.153L360.871 212.74V189.963L330.171 178.576L299.473 189.963V212.74Z" fill="white"/>
<path d="M224.576 189.962V357.893L193.878 346.503V178.575L224.576 189.962Z" fill="#C3C3C3"/>
<path d="M193.878 178.575V346.503L163.18 357.893V189.962L193.878 178.575Z" fill="#E3E3E3"/>
<path d="M193.878 240.409V408.341L141.28 388.81V220.882L193.878 240.409Z" fill="#C3C3C3"/>
<path d="M246.476 220.882V388.81L193.878 408.341V240.409L246.476 220.882Z" fill="#E3E3E3"/>
<path d="M246.477 220.884L193.879 240.411L141.281 220.884V181.849L193.879 162.318L246.477 181.849V220.884ZM163.193 212.74L193.893 224.153L224.591 212.74V189.963L193.893 178.576L163.193 189.963V212.74Z" fill="white"/>
<path d="M88.2985 189.962V357.893L57.6008 346.503V178.575L88.2985 189.962Z" fill="#C3C3C3"/>
<path d="M57.6013 178.575V346.503L26.9006 357.893V189.962L57.6013 178.575Z" fill="#E3E3E3"/>
<path d="M57.6007 240.409V408.341L5 388.81V220.882L57.6007 240.409Z" fill="#C3C3C3"/>
<path d="M110.199 220.882V388.81L57.6008 408.341V240.409L110.199 220.882Z" fill="#E3E3E3"/>
<path d="M110.199 220.884L57.6007 240.411L5 220.884V181.849L57.6007 162.318L110.199 181.849V220.884ZM26.9148 212.74L57.6154 224.153L88.3131 212.74V189.963L57.6154 178.576L26.8942 189.963V212.74" fill="white"/>
<path d="M398.487 256.668V424.599L367.789 435.986V268.058L398.487 256.668Z" fill="#E3E3E3"/>
<path d="M398.486 318.505V486.434L345.888 466.906V298.975L398.486 318.505Z" fill="#C3C3C3"/>
<path d="M451.084 298.977L398.486 318.507L345.889 298.977V259.942L398.486 240.411L451.084 259.942V298.977ZM367.801 290.836L398.498 302.249L429.199 290.836V268.059L398.498 256.672L367.801 268.059V290.836Z" fill="white"/>
<path d="M292.906 268.058V435.986L262.209 424.599V256.668L292.906 268.058Z" fill="#C3C3C3"/>
<path d="M262.209 256.668V424.599L231.508 435.986V268.058L262.209 256.668Z" fill="#E3E3E3"/>
<path d="M262.209 318.505V486.434L209.608 466.906V298.975L262.209 318.505Z" fill="#C3C3C3"/>
<path d="M314.807 298.975V466.906L262.209 486.434V318.505L314.807 298.975Z" fill="#E3E3E3"/>
<path d="M314.808 298.977L262.21 318.507L209.609 298.977V259.942L262.21 240.411L314.808 259.942V298.977ZM231.524 290.836L262.225 302.249L292.922 290.836V268.059L262.225 256.672L231.524 268.059V290.836Z" fill="white"/>
<path d="M156.63 268.058V435.986L125.929 424.599V256.668L156.63 268.058Z" fill="#C3C3C3"/>
<path d="M125.929 256.668V424.599L95.2314 435.986V268.058L125.929 256.668Z" fill="#E3E3E3"/>
<path d="M125.929 318.505V486.434L73.3313 466.906V298.975L125.929 318.505Z" fill="#C3C3C3"/>
<path d="M178.53 298.975V466.906L125.929 486.434V318.505L178.53 298.975Z" fill="#E3E3E3"/>
<path d="M178.53 298.977L125.93 318.507L73.3318 298.977V259.942L125.93 240.411L178.53 259.942V298.977ZM95.2231 290.836L125.921 302.249L156.621 290.836V268.059L125.921 256.672L95.2231 268.059V290.836Z" fill="white"/>
<path d="M360.857 340.621V508.552L330.156 497.162V329.234L360.857 340.621Z" fill="#C3C3C3"/>
<path d="M330.155 329.234V497.162L299.458 508.552V340.621L330.155 329.234Z" fill="#E3E3E3"/>
<path d="M330.156 391.069V559.001L277.558 539.47V371.542L330.156 391.069Z" fill="#C3C3C3"/>
<path d="M382.757 371.542V539.47L330.156 559.001V391.069L382.757 371.542Z" fill="#E3E3E3"/>
<path d="M382.757 371.541L330.156 391.069L277.558 371.541V332.51L330.156 312.979L382.757 332.51V371.541ZM299.473 363.398L330.171 374.811L360.871 363.398V340.621L330.171 329.234L299.473 340.621V363.398Z" fill="white"/>
<path d="M224.576 340.621V508.552L193.878 497.162V329.234L224.576 340.621Z" fill="#C3C3C3"/>
<path d="M193.878 329.234V497.162L163.18 508.552V340.621L193.878 329.234Z" fill="#E3E3E3"/>
<path d="M193.878 391.069V559.001L141.28 539.47V371.542L193.878 391.069Z" fill="#C3C3C3"/>
<path d="M246.476 371.542V539.47L193.878 559.001V391.069L246.476 371.542Z" fill="#E3E3E3"/>
<path d="M246.477 371.541L193.879 391.069L141.281 371.541V332.51L193.879 312.979L246.477 332.51V371.541ZM163.193 363.398L193.893 374.811L224.591 363.398V340.621L193.893 329.234L163.193 340.621V363.398Z" fill="white"/>
<path d="M88.2985 340.621V508.552L57.6008 497.162V329.234L88.2985 340.621Z" fill="#C3C3C3"/>
<path d="M57.6013 329.234V497.162L26.9006 508.552V340.621L57.6013 329.234Z" fill="#E3E3E3"/>
<path d="M57.6007 391.069V559.001L5 539.47V371.542L57.6007 391.069Z" fill="#C3C3C3"/>
<path d="M110.199 371.542V539.47L57.6008 559.001V391.069L110.199 371.542Z" fill="#E3E3E3"/>
<path d="M110.199 371.541L57.6007 391.069L5 371.541V332.51L57.6007 312.979L110.199 332.51V371.541ZM26.9148 363.398L57.6154 374.811L88.3131 363.398V340.621L57.6154 329.234L26.8942 340.621V363.398" fill="white"/>
</g>
</g>
</g>
<defs>
<filter id="filter0_d" x="0" y="0" width="1067" height="398" filterUnits="userSpaceOnUse" color-interpolation-filters="sRGB">
<feFlood flood-opacity="0" result="BackgroundImageFix"/>
<feColorMatrix in="SourceAlpha" type="matrix" values="0 0 0 0 0 0 0 0 0 0 0 0 0 0 0 0 0 0 127 0"/>
<feOffset dy="4"/>
<feGaussianBlur stdDeviation="2"/>
<feColorMatrix type="matrix" values="0 0 0 0 0 0 0 0 0 0 0 0 0 0 0 0 0 0 0.25 0"/>
<feBlend mode="normal" in2="BackgroundImageFix" result="effect1_dropShadow"/>
<feBlend mode="normal" in="SourceGraphic" in2="effect1_dropShadow" result="shape"/>
</filter>
<linearGradient id="paint0_linear" x1="288.606" y1="109.056" x2="274.571" y2="18.3599" gradientUnits="userSpaceOnUse">
<stop stop-color="#182230"/>
<stop offset="1" stop-color="#2B394D"/>
</linearGradient>
</defs>
</svg>
