<svg width="88" height="88" viewBox="0 0 88 88" fill="none" xmlns="http://www.w3.org/2000/svg">
<circle cx="44" cy="44" r="44" fill="#C4C4C4"/>
<circle cx="44" cy="44" r="44" fill="url(#paint0_linear)"/>
<path d="M34.6552 24H27.7586C27.027 24 26.3253 24.2906 25.808 24.808C25.2906 25.3253 25 26.027 25 26.7586V62.6207C25 62.9865 25.1453 63.3373 25.404 63.596C25.6627 63.8547 26.0135 64 26.3793 64H36.0345C36.4003 64 36.7511 63.8547 37.0098 63.596C37.2685 63.3373 37.4138 62.9865 37.4138 62.6207V26.7586C37.4138 26.027 37.1232 25.3253 36.6058 24.808C36.0885 24.2906 35.3868 24 34.6552 24ZM27.7586 30.2069C27.7586 30.024 27.8313 29.8486 27.9606 29.7192C28.09 29.5899 28.2654 29.5172 28.4483 29.5172H33.9655C34.1484 29.5172 34.3238 29.5899 34.4532 29.7192C34.5825 29.8486 34.6552 30.024 34.6552 30.2069V39.8621C34.6552 40.045 34.5825 40.2204 34.4532 40.3497C34.3238 40.4791 34.1484 40.5517 33.9655 40.5517H28.4483C28.2654 40.5517 28.09 40.4791 27.9606 40.3497C27.8313 40.2204 27.7586 40.045 27.7586 39.8621V30.2069Z" fill="#125D16"/>
<path d="M47.069 29.5173H40.1724C39.4408 29.5173 38.7391 29.808 38.2218 30.3253C37.7045 30.8427 37.4138 31.5443 37.4138 32.276V62.6208C37.4138 62.9866 37.5591 63.3374 37.8178 63.5961C38.0765 63.8548 38.4273 64.0001 38.7931 64.0001H48.4483C48.8141 64.0001 49.165 63.8548 49.4236 63.5961C49.6823 63.3374 49.8276 62.9866 49.8276 62.6208V32.276C49.8276 31.5443 49.537 30.8427 49.0196 30.3253C48.5023 29.808 47.8006 29.5173 47.069 29.5173ZM40.1724 35.7242C40.1724 35.5413 40.2451 35.3659 40.3744 35.2366C40.5038 35.1072 40.6792 35.0346 40.8621 35.0346H46.3793C46.5622 35.0346 46.7377 35.1072 46.867 35.2366C46.9963 35.3659 47.069 35.5413 47.069 35.7242V45.3794C47.069 45.5623 46.9963 45.7377 46.867 45.8671C46.7377 45.9964 46.5622 46.0691 46.3793 46.0691H40.8621C40.6792 46.0691 40.5038 45.9964 40.3744 45.8671C40.2451 45.7377 40.1724 45.5623 40.1724 45.3794V35.7242Z" fill="#62AA56"/>
<path d="M58.1035 36.4138H52.5863C51.8546 36.4138 51.153 36.7045 50.6356 37.2218C50.1183 37.7391 49.8276 38.4408 49.8276 39.1724V62.6207C49.8276 62.9865 49.973 63.3374 50.2316 63.596C50.4903 63.8547 50.8411 64 51.2069 64H59.4828C59.8486 64 60.1995 63.8547 60.4581 63.596C60.7168 63.3374 60.8621 62.9865 60.8621 62.6207V39.1724C60.8621 38.4408 60.5715 37.7391 60.0541 37.2218C59.5368 36.7045 58.8351 36.4138 58.1035 36.4138ZM52.5863 41.9311C52.5863 41.7482 52.6589 41.5727 52.7883 41.4434C52.9176 41.3141 53.093 41.2414 53.2759 41.2414H57.4138C57.5968 41.2414 57.7722 41.3141 57.9015 41.4434C58.0308 41.5727 58.1035 41.7482 58.1035 41.9311V48.8276C58.1035 49.0105 58.0308 49.1859 57.9015 49.3153C57.7722 49.4446 57.5968 49.5173 57.4138 49.5173H53.2759C53.093 49.5173 52.9176 49.4446 52.7883 49.3153C52.6589 49.1859 52.5863 49.0105 52.5863 48.8276V41.9311Z" fill="#125D16"/>
<path d="M33.9654 29.5173H28.4482C28.0673 29.5173 27.7585 29.8261 27.7585 30.207V39.8622C27.7585 40.243 28.0673 40.5518 28.4482 40.5518H33.9654C34.3463 40.5518 34.6551 40.243 34.6551 39.8622V30.207C34.6551 29.8261 34.3463 29.5173 33.9654 29.5173Z" fill="white"/>
<path d="M46.3793 35.0344H40.862C40.4811 35.0344 40.1724 35.3432 40.1724 35.7241V45.3793C40.1724 45.7601 40.4811 46.0689 40.862 46.0689H46.3793C46.7601 46.0689 47.0689 45.7601 47.0689 45.3793V35.7241C47.0689 35.3432 46.7601 35.0344 46.3793 35.0344Z" fill="white"/>
<path d="M57.4138 41.2415H53.2758C52.895 41.2415 52.5862 41.5502 52.5862 41.9311V48.8277C52.5862 49.2085 52.895 49.5173 53.2758 49.5173H57.4138C57.7947 49.5173 58.1034 49.2085 58.1034 48.8277V41.9311C58.1034 41.5502 57.7947 41.2415 57.4138 41.2415Z" fill="white"/>
<path d="M35.3447 44H27.0688V45.3793H35.3447V44Z" fill="#62AA56"/>
<path d="M35.3447 48.1379H27.0688V49.5172H35.3447V48.1379Z" fill="#62AA56"/>
<path d="M47.7585 49.5173H39.4827V50.8966H47.7585V49.5173Z" fill="#125D16"/>
<path d="M47.7585 53.6553H39.4827V55.0346H47.7585V53.6553Z" fill="#125D16"/>
<path d="M58.793 52.9656H51.8965V54.3449H58.793V52.9656Z" fill="#62AA56"/>
<path d="M58.793 57.1035H51.8965V58.4828H58.793V57.1035Z" fill="#62AA56"/>
<defs>
<linearGradient id="paint0_linear" x1="30.7066" y1="73.472" x2="79.2578" y2="18.3705" gradientUnits="userSpaceOnUse">
<stop stop-color="#AFF6B4"/>
<stop offset="1" stop-color="#6DCD74"/>
</linearGradient>
</defs>
</svg>
