<svg width="750" height="1210" viewBox="0 0 750 1210" fill="none" xmlns="http://www.w3.org/2000/svg">
<rect x="319.904" y="121.983" width="209.309" height="136.159" rx="7.24253" fill="#C4C4C4"/>
<rect x="319.904" y="121.983" width="209.309" height="136.159" rx="7.24253" fill="url(#paint0_linear)"/>
<path d="M319.904 129.226C319.904 125.226 323.146 121.983 327.146 121.983H521.97C525.97 121.983 529.213 125.226 529.213 129.226V135.744H319.904V129.226Z" fill="#125D16"/>
<path d="M374.947 208.572C378.843 192.37 384.922 175.039 393.392 153.662C397.79 143.355 404.752 138.541 411.063 138.101C413.767 137.914 416.187 139.806 416.843 142.436C420.954 158.909 418.756 176.479 410.835 191.191C403.044 205.656 394.784 222.518 393.962 230.171C393.022 238.106 392.288 248.611 391.958 259.189H374.947V208.572Z" fill="#2C2655"/>
<path d="M393.603 259.193H410.821C412.495 244.225 413.677 229.161 410.848 213.646C405.704 186.228 413.134 161.788 414.538 136.08C406.663 137.928 400.789 141.491 397.503 147.166C377.1 182.416 412.646 200.746 393.603 259.193Z" fill="#2C2655"/>
<path d="M410.831 259.193H460.587C461.006 252.592 461.132 246.155 459.53 240.004C450.703 204.711 451.679 170.908 451.127 136.469C450.632 136.338 450.13 136.204 449.615 136.063C435.776 134.109 423.788 133.91 414.547 136.079C413.144 161.787 405.713 186.228 410.857 213.646C413.686 229.161 412.498 244.225 410.831 259.193Z" fill="white"/>
<path d="M460.587 259.193H478.162C481.538 232.799 482.189 213.304 482.045 197.575C481.958 187.114 480.814 176.689 478.633 166.458C478.048 163.622 477.175 160.853 476.026 158.195C468.374 140.071 468.596 138.942 451.126 136.469C451.679 170.906 450.703 204.711 459.53 240.004C461.125 246.155 461.005 252.59 460.587 259.193Z" fill="#2C2655"/>
<path d="M495.848 208.572C491.953 192.37 485.874 175.039 477.403 153.662C473.005 143.355 466.044 138.541 459.733 138.101C457.028 137.914 454.608 139.806 453.953 142.436C449.842 158.909 452.04 176.479 459.96 191.191C467.751 205.656 476.011 222.518 476.834 230.171C477.774 238.106 478.508 248.611 478.838 259.189H495.848V208.572Z" fill="#2C2655"/>
<path d="M478.501 259.224C478.373 259.224 478.25 259.174 478.158 259.085C478.066 258.995 478.011 258.874 478.006 258.746L477.992 258.284C477.662 247.913 477.349 238.117 476.426 230.319C475.584 222.485 466.814 204.893 459.604 191.511C457.94 188.415 456.521 185.194 455.362 181.876C455.34 181.814 455.331 181.749 455.335 181.684C455.338 181.619 455.355 181.556 455.383 181.497C455.411 181.439 455.451 181.386 455.499 181.343C455.548 181.299 455.604 181.266 455.666 181.244C455.727 181.223 455.792 181.214 455.857 181.217C455.922 181.221 455.986 181.237 456.044 181.266C456.103 181.294 456.155 181.333 456.199 181.382C456.242 181.43 456.275 181.487 456.297 181.548C457.44 184.817 458.839 187.99 460.48 191.04C467.728 204.499 476.552 222.222 477.411 230.207C478.339 238.043 478.652 247.86 478.982 258.253L478.996 258.715C479 258.846 478.952 258.973 478.863 259.069C478.773 259.165 478.649 259.222 478.518 259.227L478.501 259.224Z" fill="#15132B"/>
<path d="M449.424 85.7638C450.873 87.787 452.207 90.2549 451.576 92.6727C451.318 93.6651 450.744 94.5643 450.6 95.5783C450.361 97.2523 451.318 98.821 452.071 100.323C452.824 101.825 453.401 103.716 452.49 105.127C451.619 106.474 449.749 106.801 448.747 108.052C447.264 109.903 448.003 113.313 445.894 114.373C445.019 114.81 443.907 114.638 443.11 115.207C441.994 116.003 442.061 117.819 441.013 118.706C440.205 119.392 438.945 119.275 438.062 118.689C437.18 118.103 436.608 117.151 436.149 116.192C435.259 114.373 434.64 112.266 435.219 110.321C435.895 108.035 438.012 106.562 439.495 104.709C441.85 101.763 442.548 97.3503 440.65 94.0812C440.025 93.0051 439.162 92.0915 438.497 91.0465C437.832 90.0014 437.335 88.734 437.601 87.5143C437.84 86.4095 438.646 85.5414 439.275 84.604C439.903 83.6665 440.36 82.4325 439.846 81.4281C439.607 80.9499 439.174 80.6007 438.949 80.12C438.328 78.7928 439.468 77.6879 440.695 77.5325C441.922 77.3771 442.467 77.9917 443.287 78.7689C445.55 80.9009 447.604 83.2431 449.424 85.7638Z" fill="#162A46"/>
<path d="M405.283 78.1018C405.73 75.8515 406.545 73.405 408.544 72.3313C409.365 71.8889 410.321 71.7239 411.087 71.193C412.347 70.3177 412.801 68.6915 413.332 67.2375C413.863 65.7835 414.767 64.2195 416.271 63.966C417.706 63.7269 419.091 64.8031 420.545 64.7122C422.697 64.5783 424.514 61.9549 426.523 62.7416C427.358 63.0669 427.937 63.9374 428.809 64.1287C430.034 64.3965 431.201 63.2247 432.442 63.3897C433.399 63.5189 434.116 64.4539 434.264 65.4224C434.413 66.391 434.145 67.3738 433.786 68.2922C433.126 70.0331 432.112 71.7669 430.452 72.58C428.508 73.5366 426.212 73.0009 424.058 73.1372C420.631 73.3524 417.256 75.6171 416.259 78.9484C415.932 80.046 415.86 81.2035 415.58 82.3155C415.3 83.4275 414.762 84.5467 413.784 85.1231C412.902 85.6444 411.821 85.6348 410.809 85.7903C409.798 85.9457 408.69 86.3953 408.341 87.371C408.176 87.8302 408.207 88.3467 408.026 88.8059C407.528 90.0566 406.084 89.9609 405.218 89.2172C404.352 88.4735 404.448 87.7154 404.448 86.6655C404.458 83.7911 404.737 80.924 405.283 78.1018Z" fill="#162A46"/>
<path d="M444.253 110.533C443.253 113.106 441.979 115.22 440.467 116.789C436.641 112.46 437.141 107.591 437.141 107.591C438.289 106.802 439.145 104.879 439.226 102.603C439.334 99.5774 438.03 97.0808 436.328 97.0258C436.199 97.0465 436.074 97.086 435.957 97.143L447.869 87.1252C449.012 92.5179 448.337 100.027 444.253 110.533Z" fill="#162A46"/>
<path d="M445.707 139.664C445.707 143.189 433.351 148.771 428.276 149.826C427.578 149.972 426.857 149.971 426.159 149.822C425.461 149.673 424.802 149.379 424.225 148.96C422.262 147.525 419.552 145.067 419.552 142.264C419.552 137.856 425.478 134.284 432.784 134.284C440.09 134.284 445.707 135.257 445.707 139.664Z" fill="url(#paint1_linear)"/>
<path d="M440.798 97.4941C443.304 97.5825 445.253 100.139 445.148 103.202C445.043 106.266 442.926 108.679 440.418 108.59C437.909 108.502 435.96 105.948 436.065 102.882C436.17 99.8161 438.287 97.4056 440.798 97.4941Z" fill="url(#paint2_linear)"/>
<path d="M443.471 138.426L443.156 107.325C443.136 105.434 441.637 103.901 439.822 103.917L426.628 104.056C424.816 104.075 423.347 105.639 423.366 107.531L423.68 138.435L443.471 138.426Z" fill="url(#paint3_linear)"/>
<path d="M413.268 77.5134C411.135 79.1499 409.392 81.2387 408.163 83.6297C406.935 86.0206 406.251 88.6541 406.163 91.3407L407.208 106.168C406.868 116.066 414.456 124.02 420.734 123.678C430.201 123.164 439.779 116.939 440.116 107.038L440.594 93.0267L413.268 77.5134Z" fill="url(#paint4_linear)"/>
<path d="M421.69 91.0826L425.595 91.238C425.874 91.2488 426.138 91.37 426.327 91.575C426.517 91.7799 426.618 92.0518 426.607 92.3309C426.596 92.61 426.475 92.8733 426.27 93.063C426.065 93.2528 425.793 93.3533 425.514 93.3425L421.609 93.1847C421.335 93.1664 421.08 93.0423 420.897 92.8386C420.713 92.635 420.617 92.3679 420.627 92.0941C420.638 91.8203 420.755 91.5615 420.953 91.3726C421.152 91.1837 421.416 91.0796 421.69 91.0826Z" fill="#162A46"/>
<path d="M406.304 90.4659L410.207 90.6214C410.345 90.6267 410.481 90.6592 410.606 90.717C410.732 90.7748 410.845 90.8568 410.939 90.9583C411.033 91.0598 411.106 91.1788 411.154 91.3085C411.202 91.4382 411.224 91.5761 411.218 91.7142C411.213 91.8524 411.18 91.9882 411.123 92.1138C411.065 92.2394 410.983 92.3524 410.881 92.4464C410.78 92.5403 410.661 92.6133 410.531 92.6613C410.401 92.7092 410.263 92.7312 410.125 92.7258L406.22 92.568C405.946 92.5499 405.691 92.4256 405.507 92.2217C405.324 92.0178 405.227 91.7503 405.238 91.4762C405.249 91.2021 405.367 90.9431 405.566 90.7544C405.765 90.5657 406.03 90.4622 406.304 90.4659Z" fill="#162A46"/>
<path d="M408.771 95.4299C408.731 96.463 409.233 97.3191 409.895 97.3431C410.558 97.367 411.125 96.5539 411.165 95.5232C411.206 94.4925 410.701 93.6316 410.041 93.61C409.381 93.5885 408.812 94.4112 408.771 95.4299Z" fill="#162A46"/>
<path d="M423.403 96.3028C423.362 97.3335 423.864 98.1921 424.527 98.216C425.189 98.2399 425.756 97.4268 425.797 96.3961C425.837 95.3654 425.333 94.5069 424.673 94.4829C424.012 94.459 423.441 95.2697 423.403 96.3028Z" fill="#162A46"/>
<path opacity="0.5" d="M413.385 101.586L413.545 101.239C413.576 101.645 413.726 102.033 413.976 102.354C414.225 102.676 414.563 102.918 414.949 103.049L416.957 103.707C417.271 103.805 417.607 103.802 417.919 103.698C418.23 103.593 418.5 103.393 418.691 103.126L418.725 103.327C418.776 103.602 418.755 103.886 418.664 104.15C418.573 104.415 418.415 104.652 418.206 104.838C417.997 105.023 417.743 105.152 417.469 105.211C417.195 105.269 416.911 105.256 416.644 105.173L414.635 104.518C414.349 104.423 414.086 104.269 413.864 104.065C413.642 103.861 413.466 103.612 413.348 103.334C413.229 103.057 413.171 102.758 413.178 102.456C413.184 102.155 413.255 101.858 413.385 101.586Z" fill="#FA694F"/>
<path d="M414.217 77.3004C414.217 77.3004 422.173 72.9264 433.465 76.4729L428.977 80.0601L414.217 77.3004Z" fill="#FFB288"/>
<path d="M408.992 79.3667C408.992 79.3667 424.182 93.8373 445.102 93.8014L445.392 81.6243L416.286 73.3284L408.992 79.3667Z" fill="#162A46"/>
<path d="M440.913 93.51L440.817 107.067C440.977 111.398 439.915 116.155 436.991 119.323C435.556 120.894 432.093 123.597 430.271 124.692C426.815 126.77 418.371 125.825 414.796 125.629C411.448 125.445 408.085 121.822 407.552 118.477L407.15 107.034C407.15 107.034 418.517 108.497 425.658 106.861C431.488 105.525 432.05 104.307 433.841 98.5225L437.407 87.0149L440.913 93.51Z" fill="#162A46"/>
<path d="M421.367 110.717C421.2 111.852 420.49 113.216 417.754 113.519C417.754 113.519 413.751 113.828 414.2 111.142L421.367 110.717Z" fill="white"/>
<path d="M451.722 82.8659C451.822 83.7746 451.762 84.7097 452.004 85.5874C452.3 86.6563 453.02 87.5364 453.367 88.5862C454.929 93.3069 448.584 98.4126 450.851 102.794C449.058 102.535 447.948 100.548 447.453 98.6805C446.958 96.8127 446.764 94.7609 445.645 93.2352C443.971 90.9394 440.838 90.6405 438.6 88.9784C436.663 87.5435 435.434 85.1019 433.317 83.9851C430.95 82.7344 427.994 83.4207 425.638 82.1461C424.062 81.2923 422.824 79.5968 421.068 79.3959C420.246 79.3027 419.394 79.5609 418.591 79.3768C412.753 78.04 419.239 69.5361 421.248 67.7855C424.182 65.2291 428.836 62.7229 432.727 63.6316C437.352 64.7149 438.92 69.7776 442.388 72.5564C446.001 75.4525 451.112 77.2867 451.722 82.8659Z" fill="#162A46"/>
<path d="M429.262 231.726C428.88 231.926 428.461 232.047 428.031 232.081C427.601 232.115 427.168 232.061 426.76 231.923C426.351 231.784 425.975 231.564 425.654 231.276C425.333 230.987 425.074 230.637 424.893 230.245C422.348 224.915 419.827 219.379 418.01 213.484C416.951 209.935 416.097 206.427 415.75 202.56C415.567 200.557 415.672 198.538 416.061 196.564C416.493 194.618 417.25 192.758 418.302 191.064C420.268 187.833 422.666 185.411 424.519 182.787C426.378 180.169 427.671 177.192 428.315 174.047C429.707 167.633 428.054 160.616 425.206 154.312C427.032 157.316 428.491 160.527 429.551 163.878C430.632 167.302 431.045 170.902 430.766 174.482C430.466 178.112 429.417 181.64 427.686 184.844C425.983 188.003 423.919 190.746 422.697 193.532C421.411 196.316 421.281 198.896 421.908 201.926C422.527 204.908 423.69 208.079 424.988 211.047C427.215 216.069 430.113 220.878 433.193 225.752C433.427 226.109 433.585 226.51 433.657 226.931C433.73 227.352 433.715 227.783 433.615 228.198C433.514 228.612 433.329 229.002 433.072 229.343C432.815 229.683 432.491 229.968 432.119 230.178L429.262 231.726Z" fill="#C4C4C4"/>
<path d="M429.262 231.726C428.88 231.926 428.461 232.047 428.031 232.081C427.601 232.115 427.168 232.061 426.76 231.923C426.351 231.784 425.975 231.564 425.654 231.276C425.333 230.987 425.074 230.637 424.893 230.245C422.348 224.915 419.827 219.379 418.01 213.484C416.951 209.935 416.097 206.427 415.75 202.56C415.567 200.557 415.672 198.538 416.061 196.564C416.493 194.618 417.25 192.758 418.302 191.064C420.268 187.833 422.666 185.411 424.519 182.787C426.378 180.169 427.671 177.192 428.315 174.047C429.707 167.633 428.054 160.616 425.206 154.312C427.032 157.316 428.491 160.527 429.551 163.878C430.632 167.302 431.045 170.902 430.766 174.482C430.466 178.112 429.417 181.64 427.686 184.844C425.983 188.003 423.919 190.746 422.697 193.532C421.411 196.316 421.281 198.896 421.908 201.926C422.527 204.908 423.69 208.079 424.988 211.047C427.215 216.069 430.113 220.878 433.193 225.752C433.427 226.109 433.585 226.51 433.657 226.931C433.73 227.352 433.715 227.783 433.615 228.198C433.514 228.612 433.329 229.002 433.072 229.343C432.815 229.683 432.491 229.968 432.119 230.178L429.262 231.726Z" fill="url(#paint5_linear)"/>
<path d="M428.857 151.122L425.698 150.809C424.148 150.656 423.216 153.246 424.218 154.912L425.652 157.318C426.274 158.354 427.374 158.461 428.111 157.557L429.823 155.465C431.024 154.02 430.407 151.275 428.857 151.122Z" fill="#C4C4C4"/>
<path d="M428.857 151.122L425.698 150.809C424.148 150.656 423.216 153.246 424.218 154.912L425.652 157.318C426.274 158.354 427.374 158.461 428.111 157.557L429.823 155.465C431.024 154.02 430.407 151.275 428.857 151.122Z" fill="url(#paint6_linear)"/>
<rect x="42" y="83.5979" width="209.309" height="136.159" rx="7.24253" fill="#C4C4C4"/>
<rect x="42" y="83.5979" width="209.309" height="136.159" rx="7.24253" fill="url(#paint7_linear)"/>
<path d="M42 90.8404C42 86.8405 45.2426 83.5979 49.2425 83.5979H244.066C248.066 83.5979 251.309 86.8405 251.309 90.8404V97.3587H42V90.8404Z" fill="#125D16"/>
<mask id="mask0" mask-type="alpha" maskUnits="userSpaceOnUse" x="42" y="9" width="210" height="211">
<rect x="42" y="9" width="209.309" height="210.757" rx="7.24253" fill="#C4C4C4"/>
<rect x="42" y="9" width="209.309" height="210.757" rx="7.24253" fill="#18341A"/>
</mask>
<g mask="url(#mask0)">
<path d="M72.627 30.9174C71.1796 34.6991 70.4626 38.8845 68.0167 42.0713C65.9134 44.796 62.7558 46.4797 60.4453 49.0239C58.1349 51.568 56.8548 55.7853 59.1175 58.5047C60.1797 59.7953 61.8528 60.4699 62.9231 61.7579C65.9453 65.3856 62.716 70.4845 61.4811 74.946C60.0948 79.9414 61.6776 85.7414 65.4354 89.4514C68.1362 92.107 72.0905 94.2024 72.5898 97.9496C72.9775 100.897 70.9327 103.935 72.1144 106.684C73.8539 110.718 80.0815 109.627 83.3798 112.527C85.6929 114.574 85.9426 118.013 86.9544 120.929C88.8426 126.365 94.1008 130.511 99.7362 131.005C102.745 131.27 105.905 130.596 108.704 131.817C112.319 133.411 114.422 137.774 118.217 138.773C126.107 140.836 127.969 131.422 133.354 126.448C140.121 120.183 153.192 121.136 156.223 112.311C156.934 110.248 156.995 107.76 158.613 106.318C160.23 104.876 162.862 105.08 164.657 103.803C168.009 101.413 166.598 95.671 168.072 91.9849C168.306 91.6768 169.498 89.8603 169.764 89.6771C183.632 69.555 185.831 45.4387 173.115 29.9667C162.583 17.1477 144.328 13.3421 125.674 18.1117C125.507 17.9577 125.409 17.7877 125.241 17.6364C121.154 14.0645 116.116 13.1217 110.85 13.3873C101.191 13.8839 98.164 22.6822 90.1863 24.257C87.1349 24.8545 84.0278 22.8627 80.9153 23.0646C76.8761 23.3381 74.0743 27.1384 72.627 30.9174Z" fill="#162A46"/>
<path d="M180.414 47.4328C180.414 59.6675 169.021 69.5865 154.967 69.5865C140.913 69.5865 129.52 59.6675 129.52 47.4328C129.52 35.198 140.913 25.2791 154.967 25.2791C169.021 25.2791 180.414 35.198 180.414 47.4328Z" fill="url(#paint8_linear)"/>
<path d="M186.925 64.3075L183.011 55.1772L180.05 69.0559L185.361 67.574C185.691 67.4814 185.998 67.3194 186.26 67.0989C186.523 66.8783 186.735 66.6043 186.883 66.2951C187.031 65.9858 187.111 65.6486 187.119 65.3058C187.126 64.9631 187.06 64.6227 186.925 64.3075Z" fill="url(#paint9_linear)"/>
<path d="M181.423 44.6072C180.068 41.0406 178.366 37.0411 175.58 34.6643L164.517 41.1176C152.696 48.6996 151.363 55.7079 151.363 55.7079C151.119 55.846 150.904 55.7079 150.649 55.7079C147.55 55.692 145.021 58.7089 145.003 62.4454C144.989 65.2047 146.349 67.5842 148.312 68.6464L146.798 71.4376L141.853 79.8667L161.264 88.7287C161.741 88.2327 162.326 87.8526 162.973 87.6174C163.62 87.3822 164.313 87.2981 164.997 87.3717C177.617 88.8615 182.86 80.6289 182.899 70.3514L182.987 52.6858C182.971 49.9192 182.441 47.1798 181.423 44.6072Z" fill="url(#paint10_linear)"/>
<path d="M144.126 79.962C144.102 79.8824 135.439 112.654 135.439 112.654C134.85 114.882 136.175 116.698 138.4 116.711L148.096 116.77C150.253 116.77 152.473 115.062 153.084 112.9L158.958 92.1065C159.377 90.764 160.2 89.5839 161.316 88.7285L144.206 79.8664L144.126 79.962Z" fill="url(#paint11_linear)"/>
<path d="M173.774 72.1545C173.875 73.5647 174.425 75.2829 176.695 75.7902C176.695 75.7902 180.026 76.3691 179.739 73.0336L173.774 72.1545Z" fill="white"/>
<path d="M179.168 49.3662H174.276C174.105 49.3662 173.936 49.3998 173.779 49.4651C173.621 49.5303 173.478 49.626 173.358 49.7466C173.237 49.8672 173.141 50.0103 173.076 50.1679C173.011 50.3254 172.977 50.4943 172.977 50.6648C172.977 50.8354 173.011 51.0042 173.076 51.1618C173.141 51.3194 173.237 51.4625 173.358 51.5831C173.478 51.7037 173.621 51.7994 173.779 51.8646C173.936 51.9299 174.105 51.9635 174.276 51.9635H179.168C179.338 51.9635 179.507 51.9299 179.665 51.8646C179.822 51.7994 179.965 51.7037 180.086 51.5831C180.207 51.4625 180.302 51.3194 180.367 51.1618C180.433 51.0042 180.466 50.8354 180.466 50.6648C180.466 50.4943 180.433 50.3254 180.367 50.1679C180.302 50.0103 180.207 49.8672 180.086 49.7466C179.965 49.626 179.822 49.5303 179.665 49.4651C179.507 49.3998 179.338 49.3662 179.168 49.3662Z" fill="#162A46"/>
<path d="M173.431 31.1755C173.365 28.2728 161 24.5867 158.105 24.4061C143.82 23.5165 115.572 32.9043 135.33 71.9801C136.84 75.0651 139.03 77.7673 141.736 79.8834C141.76 79.902 143.635 81.9521 143.661 81.9336C150.85 76.7045 148.409 68.7029 148.409 68.7029C146.386 67.6725 144.97 65.2505 144.984 62.4461C145.002 58.7096 147.53 55.6927 150.63 55.7087C150.872 55.7479 151.111 55.8074 151.344 55.8866C152.013 52.1872 156.948 49.1757 161.653 46.775C166.643 44.2308 170.669 40.003 172.616 34.75C173.131 33.4036 173.455 32.1421 173.431 31.1755Z" fill="#162A46"/>
<path d="M177.787 55.6071C177.787 56.8818 177.115 57.9149 176.287 57.9149C175.458 57.9149 174.786 56.8818 174.786 55.6071C174.786 54.3324 175.458 53.2993 176.287 53.2993C177.115 53.2993 177.787 54.3377 177.787 55.6071Z" fill="#162A46"/>
<path d="M175.341 200.56C172.341 212.566 177.501 221.046 181.391 243.038H96.5898C100.101 222.079 112.715 206.623 110.665 187.133C111.366 183.149 107.353 186.055 105.245 182.653C103.606 175.817 104.812 161.883 103.386 154.962C103.386 154.962 65.2527 141.949 116.399 110.939C125.513 104.079 138.204 98.1912 151.955 102.817C156.494 104.344 160.541 107.13 164.034 110.399C178.688 124.105 179.936 126.976 178.823 174.006C178.645 182.958 177.477 191.864 175.341 200.56Z" fill="white"/>
<path d="M183.924 207.281C184.658 206.627 185.293 205.869 185.81 205.032C187.543 202.482 189.175 199.86 190.707 197.166C191.218 196.334 191.625 195.442 191.918 194.51C192.09 193.886 192.112 193.095 191.612 192.731C190.967 192.266 190.112 192.911 189.578 193.528C188.593 194.68 187.642 195.957 186.296 196.571C185.832 196.765 185.351 196.916 184.859 197.022L175.662 199.298C175.304 199.386 174.757 199.298 174.815 198.924C174.843 198.807 174.907 198.702 174.998 198.624C175.139 198.506 175.291 198.403 175.453 198.316C175.883 198.031 176.359 197.822 176.86 197.697C177.2 197.612 177.543 197.54 177.885 197.484L182.567 196.688C183.629 196.507 184.692 196.319 185.621 195.742C185.97 195.549 186.253 195.255 186.431 194.898C186.518 194.717 186.547 194.514 186.515 194.316C186.483 194.118 186.39 193.934 186.251 193.79C185.998 193.624 185.693 193.554 185.393 193.594C184.022 193.618 182.655 193.769 181.292 193.921L175.487 194.563L174.335 194.691L173.049 194.834C171.512 195.004 169.955 195.179 168.497 195.742C166.861 196.377 162.883 199.16 161.516 200.323L165.624 208.755C166.043 208.633 167.748 208.426 167.876 208.352C169.483 207.374 171.434 207.311 173.248 207.555C175.062 207.799 176.834 208.37 178.661 208.543C180.488 208.715 182.456 208.476 183.924 207.281Z" fill="#FFA27F"/>
<path d="M84.8486 179.227C86.3438 167.388 91.4666 136.706 107.98 117.655C111.963 112.309 123.404 114.513 129.408 118.544C144.724 128.838 135.044 140.493 115.471 188.198C115.317 188.923 114.831 190.139 114.316 191.429C114.11 191.959 114.036 192.532 114.1 193.097C114.164 193.662 114.364 194.203 114.684 194.673C115.003 195.144 115.433 195.529 115.934 195.797C116.436 196.065 116.995 196.206 117.564 196.21C132.656 196.425 146.909 198.167 162.692 198.14C163.67 198.13 164.614 198.501 165.325 199.173C166.036 199.845 166.458 200.767 166.503 201.744L166.875 211.355C166.917 212.329 166.595 213.283 165.971 214.032C165.348 214.781 164.467 215.27 163.502 215.405C150.755 217.16 107.231 223.072 100.469 222.982C91.8384 222.849 84.6574 216.106 84.1236 207.608V207.125C83.7014 194.096 84.3733 185.882 84.8486 179.227Z" fill="white"/>
<path d="M84.8486 179.227C86.3438 167.388 91.4666 136.706 107.98 117.655C111.963 112.309 123.404 114.513 129.408 118.544C144.724 128.838 135.044 140.493 115.471 188.198C115.317 188.923 114.831 190.139 114.316 191.429C114.11 191.959 114.036 192.532 114.1 193.097C114.164 193.662 114.364 194.203 114.684 194.673C115.003 195.144 115.433 195.529 115.934 195.797C116.436 196.065 116.995 196.206 117.564 196.21C132.656 196.425 146.909 198.167 162.692 198.14C163.67 198.13 164.614 198.501 165.325 199.173C166.036 199.845 166.458 200.767 166.503 201.744L166.875 211.355C166.917 212.329 166.595 213.283 165.971 214.032C165.348 214.781 164.467 215.27 163.502 215.405C150.755 217.16 107.231 223.072 100.469 222.982C91.8384 222.849 84.6574 216.106 84.1236 207.608V207.125C83.7014 194.096 84.3733 185.882 84.8486 179.227Z" fill="white"/>
<path d="M100.594 223.518C107.866 223.518 150.556 217.721 163.55 215.934C164.651 215.782 165.656 215.225 166.368 214.371C167.08 213.518 167.447 212.429 167.398 211.318L167.026 201.705C166.979 200.585 166.499 199.528 165.687 198.757C164.874 197.986 163.794 197.561 162.674 197.572C162.554 197.572 162.432 197.572 162.307 197.572C153.907 197.572 145.842 197.07 138.031 196.584C131.368 196.17 124.487 195.74 117.545 195.642C117.058 195.636 116.58 195.513 116.151 195.281C115.722 195.05 115.356 194.718 115.084 194.314C114.817 193.921 114.652 193.468 114.603 192.996C114.554 192.524 114.623 192.047 114.802 191.608C115.333 190.296 115.822 189.058 115.984 188.285C119.67 179.328 122.995 171.653 125.927 164.878C136.881 139.572 141.417 129.098 133.4 121.059C133.297 120.956 133.157 120.898 133.011 120.898C132.865 120.898 132.725 120.956 132.622 121.059C132.519 121.163 132.461 121.302 132.461 121.448C132.461 121.594 132.519 121.734 132.622 121.837C140.111 129.353 135.663 139.631 124.92 164.448C121.999 171.225 118.661 178.905 114.943 187.967C114.629 189.07 114.242 190.151 113.785 191.204C113.541 191.808 113.448 192.463 113.516 193.111C113.583 193.759 113.809 194.381 114.173 194.922C114.544 195.475 115.044 195.93 115.629 196.247C116.215 196.564 116.869 196.735 117.535 196.744C124.44 196.842 131.318 197.275 137.968 197.684C145.9 198.178 154.114 198.746 162.666 198.674C163.502 198.663 164.309 198.977 164.918 199.551C165.526 200.124 165.888 200.912 165.927 201.747L166.299 211.361C166.336 212.198 166.06 213.018 165.524 213.663C164.988 214.307 164.231 214.727 163.401 214.842C150.325 216.643 107.101 222.506 100.461 222.416C99.4359 222.4 98.4142 222.286 97.4101 222.076C97.3393 222.062 97.2663 222.061 97.1953 222.075C97.1243 222.088 97.0566 222.116 96.9962 222.155C96.9358 222.195 96.8838 222.246 96.8432 222.306C96.8025 222.366 96.774 222.433 96.7594 222.504C96.7448 222.575 96.7442 222.648 96.7578 222.719C96.7713 222.79 96.7987 222.857 96.8384 222.918C96.8781 222.978 96.9294 223.03 96.9892 223.071C97.049 223.111 97.1162 223.14 97.187 223.154C98.2601 223.378 99.3521 223.499 100.448 223.516L100.594 223.518Z" fill="#CFD5F9"/>
<path d="M160.59 227.452C160.778 228.56 161.738 229.372 162.863 229.372C164.29 229.372 165.375 228.088 165.136 226.681L160.212 197.628C160.126 197.121 159.864 196.66 159.471 196.328C159.078 195.996 158.58 195.814 158.066 195.814H157.8C157.484 195.814 157.17 195.883 156.883 196.017C156.596 196.15 156.341 196.344 156.136 196.586C155.931 196.828 155.782 197.112 155.699 197.418C155.615 197.723 155.599 198.044 155.652 198.356L160.59 227.452Z" fill="#C4C4C4"/>
<path d="M160.59 227.452C160.778 228.56 161.738 229.372 162.863 229.372C164.29 229.372 165.375 228.088 165.136 226.681L160.212 197.628C160.126 197.121 159.864 196.66 159.471 196.328C159.078 195.996 158.58 195.814 158.066 195.814H157.8C157.484 195.814 157.17 195.883 156.883 196.017C156.596 196.15 156.341 196.344 156.136 196.586C155.931 196.828 155.782 197.112 155.699 197.418C155.615 197.723 155.599 198.044 155.652 198.356L160.59 227.452Z" fill="url(#paint12_linear)"/>
<path d="M122.61 227.45C122.799 228.559 123.76 229.371 124.885 229.371C126.313 229.371 127.398 228.086 127.159 226.678L121.948 195.939C121.885 195.566 121.692 195.228 121.402 194.984C121.113 194.741 120.746 194.609 120.368 194.611H118.942C118.709 194.607 118.477 194.656 118.264 194.752C118.051 194.848 117.862 194.99 117.71 195.167C117.558 195.344 117.447 195.553 117.384 195.778C117.322 196.003 117.31 196.239 117.349 196.47L122.61 227.45Z" fill="#C4C4C4"/>
<path d="M122.61 227.45C122.799 228.559 123.76 229.371 124.885 229.371C126.313 229.371 127.398 228.086 127.159 226.678L121.948 195.939C121.885 195.566 121.692 195.228 121.402 194.984C121.113 194.741 120.746 194.609 120.368 194.611H118.942C118.709 194.607 118.477 194.656 118.264 194.752C118.051 194.848 117.862 194.99 117.71 195.167C117.558 195.344 117.447 195.553 117.384 195.778C117.322 196.003 117.31 196.239 117.349 196.47L122.61 227.45Z" fill="url(#paint13_linear)"/>
<path d="M178.408 183.781C178.534 183.78 178.655 183.735 178.751 183.656C178.848 183.576 178.914 183.466 178.94 183.343C181.951 168.832 177.346 131.361 177.158 129.775C177.152 129.702 177.131 129.631 177.096 129.567C177.061 129.503 177.013 129.446 176.956 129.401C176.898 129.356 176.832 129.323 176.761 129.305C176.69 129.286 176.616 129.283 176.544 129.295C176.399 129.313 176.267 129.388 176.178 129.504C176.088 129.619 176.048 129.766 176.066 129.911C176.114 130.296 180.846 168.787 177.861 183.117C177.846 183.197 177.849 183.278 177.868 183.357C177.888 183.435 177.924 183.508 177.974 183.571C178.025 183.634 178.088 183.686 178.161 183.722C178.233 183.758 178.312 183.778 178.393 183.781H178.408Z" fill="#CFD5F9"/>
</g>
<rect x="154" y="245.289" width="209.309" height="136.159" rx="7.24253" fill="#C4C4C4"/>
<rect x="154" y="245.289" width="209.309" height="136.159" rx="7.24253" fill="url(#paint14_linear)"/>
<path d="M154 252.532C154 248.532 157.243 245.289 161.243 245.289H356.066C360.066 245.289 363.309 248.532 363.309 252.532V259.05H154V252.532Z" fill="#125D16"/>
<path d="M294.913 350.063C294.581 358.473 293.604 369.404 292.202 380.449H318.347C324.384 345.317 320.557 315.358 309.217 267.112C304.952 250.937 282.862 246.98 270.853 245.187C261.423 243.779 267.762 260.324 271.28 275.727C274.289 282.544 295.686 334.808 294.913 350.063Z" fill="white"/>
<path d="M212.867 350.063C213.199 358.473 214.176 369.404 215.578 380.449H189.433C183.397 345.317 187.224 315.358 198.563 267.112C202.828 250.937 224.918 246.98 236.927 245.187C246.358 243.779 240.019 260.324 236.5 275.727C233.491 282.544 212.094 334.808 212.867 350.063Z" fill="white"/>
<path d="M242.373 380.449H289.745C290.616 334.79 291.663 289.699 279.534 246.284C277.266 245.487 274.799 244.651 273.307 244.128L273.195 244.088C259.97 239.483 248.465 237.759 224.519 241.698C234.86 288.815 243.167 334.384 242.373 380.449Z" fill="white"/>
<path d="M228.415 182.852C226.947 184.996 225.643 187.633 226.508 190.288C226.862 191.383 227.571 192.389 227.796 193.502C228.179 195.334 227.233 197.007 226.5 198.614C225.767 200.221 225.263 202.258 226.376 203.838C227.438 205.346 229.539 205.784 230.739 207.192C232.521 209.277 231.939 212.965 234.359 214.213C235.36 214.729 236.584 214.591 237.511 215.247C238.807 216.165 238.863 218.141 240.087 219.156C241.035 219.939 242.427 219.867 243.364 219.267C244.301 218.667 244.872 217.653 245.324 216.627C246.184 214.681 246.723 212.408 245.943 210.254C245.027 207.731 242.573 206.029 240.793 203.941C237.968 200.624 236.879 195.778 238.756 192.296C239.373 191.149 240.268 190.19 240.942 189.077C241.617 187.965 242.068 186.608 241.688 185.264C241.343 184.05 240.387 183.065 239.63 182.016C238.873 180.967 238.27 179.599 238.767 178.526C239.003 178.022 239.458 177.653 239.675 177.137C240.27 175.717 238.924 174.461 237.551 174.24C236.178 174.02 235.615 174.662 234.757 175.472C232.388 177.701 230.262 180.175 228.415 182.852Z" fill="#162A46"/>
<path d="M277.604 177.289C277.322 174.769 276.653 172.065 274.542 171.077C273.676 170.671 272.635 170.597 271.838 170.081C270.526 169.232 270.176 167.426 269.714 165.832C269.252 164.239 268.415 162.55 266.771 162.441C265.204 162.34 263.571 163.74 261.97 163.811C259.596 163.92 257.84 161.132 255.535 162.276C254.579 162.752 253.857 163.814 252.879 164.135C251.501 164.592 250.319 163.389 248.93 163.729C247.868 163.995 246.984 165.147 246.718 166.273C246.453 167.399 246.665 168.496 246.962 169.5C247.525 171.412 248.489 173.273 250.242 174.014C252.303 174.875 254.898 173.985 257.269 173.882C261.043 173.717 264.562 175.9 265.348 179.591C265.613 180.808 265.576 182.125 265.778 183.365C265.98 184.605 266.471 185.819 267.499 186.361C268.428 186.852 269.623 186.709 270.728 186.764C271.833 186.82 273.017 187.203 273.312 188.275C273.45 188.783 273.365 189.378 273.522 189.869C273.955 191.239 275.564 190.955 276.592 189.999C277.62 189.043 277.617 188.188 277.707 186.993C277.973 183.762 277.938 180.513 277.604 177.289Z" fill="#162A46"/>
<path d="M265.276 189.364H245.571C245.145 189.354 244.736 189.191 244.42 188.905C244.105 188.619 243.902 188.228 243.85 187.805L242.753 177.31C242.703 176.921 242.737 176.526 242.853 176.152C242.969 175.778 243.164 175.433 243.425 175.14C243.687 174.848 244.008 174.616 244.367 174.459C244.726 174.303 245.115 174.225 245.507 174.232H263.683C267.756 174.232 271.44 177.565 271.865 181.641L271.899 181.955C272.33 186.039 269.345 189.364 265.276 189.364Z" fill="#FFA27F"/>
<path d="M238.834 196.033C236.053 196.02 234.072 198.723 234.404 202.069C234.736 205.415 237.264 208.143 240.045 208.156C242.825 208.169 244.806 205.466 244.474 202.12C244.142 198.774 241.614 196.046 238.834 196.033Z" fill="url(#paint15_linear)"/>
<path d="M267.619 175.496C272.399 179.127 275.87 184.658 276.491 190.899L278.071 206.73C279.15 217.546 273.1 225.601 262.597 225.548C252.094 225.495 240.961 217.361 239.883 206.544L238.356 191.237L267.619 175.496Z" fill="url(#paint16_linear)"/>
<path d="M245.539 248.257L260.146 248.329C262.156 248.329 263.633 246.656 263.425 244.59L259.559 205.817C259.352 203.75 257.54 202.051 255.53 202.043L240.924 201.971C238.913 201.971 237.44 203.644 237.644 205.71L241.511 244.483C241.718 246.549 243.532 248.246 245.539 248.257Z" fill="url(#paint17_linear)"/>
<path d="M261.293 239.456L243.279 239.663C240.289 239.698 239.081 243.222 241.282 245.476L256.247 260.818C258.281 262.9 261.601 262.165 262.119 259.52L265.154 243.971C265.606 241.705 263.654 239.419 261.293 239.456Z" fill="url(#paint18_linear)"/>
<path d="M235.915 210.108C237.208 212.957 238.775 215.321 240.568 217.098C241.726 215.746 242.594 214.17 243.117 212.469C243.64 210.768 243.807 208.977 243.608 207.208C242.281 206.297 241.189 204.162 240.937 201.673C240.605 198.37 241.869 195.701 243.763 195.714C243.908 195.744 244.049 195.793 244.182 195.86L230.24 184.409C229.35 190.241 230.633 198.463 235.915 210.108Z" fill="#162A46"/>
<path d="M261.356 211.308C261.622 212.556 262.509 214.075 265.568 214.527C265.568 214.527 270.038 215.036 269.35 212.086L261.356 211.308Z" fill="white"/>
<path d="M259.604 189.871H255.278C255.131 189.869 254.986 189.897 254.851 189.956C254.717 190.014 254.597 190.101 254.499 190.21C254.401 190.319 254.328 190.448 254.285 190.588C254.241 190.728 254.228 190.876 254.247 191.021C254.286 191.333 254.435 191.621 254.668 191.832C254.901 192.043 255.202 192.163 255.517 192.171H259.845C259.992 192.173 260.137 192.144 260.271 192.086C260.405 192.027 260.524 191.94 260.622 191.831C260.719 191.722 260.792 191.593 260.836 191.453C260.879 191.314 260.892 191.166 260.873 191.021C260.834 190.709 260.685 190.422 260.452 190.21C260.219 189.999 259.918 189.879 259.604 189.871Z" fill="#162A46"/>
<path d="M276.656 189.871H272.327C272.181 189.868 272.035 189.897 271.901 189.956C271.767 190.014 271.647 190.101 271.549 190.21C271.452 190.32 271.379 190.449 271.336 190.588C271.293 190.728 271.28 190.876 271.299 191.021C271.338 191.333 271.487 191.621 271.72 191.832C271.953 192.043 272.254 192.163 272.569 192.171H276.895C277.041 192.174 277.187 192.145 277.321 192.086C277.455 192.028 277.575 191.941 277.673 191.832C277.771 191.723 277.844 191.594 277.888 191.454C277.931 191.314 277.944 191.167 277.925 191.021C277.886 190.709 277.737 190.422 277.504 190.21C277.271 189.999 276.97 189.879 276.656 189.871Z" fill="#162A46"/>
<path d="M274.266 195.183C274.383 196.312 273.886 197.225 273.153 197.225C272.42 197.225 271.73 196.312 271.613 195.183C271.496 194.054 271.993 193.141 272.725 193.141C273.458 193.141 274.149 194.057 274.266 195.183Z" fill="#162A46"/>
<path d="M258.074 195.493C258.191 196.619 257.691 197.536 256.958 197.536C256.225 197.536 255.537 196.619 255.418 195.493C255.298 194.367 255.8 193.451 256.533 193.451C257.266 193.451 257.954 194.365 258.074 195.493Z" fill="#162A46"/>
<path opacity="0.5" d="M269.579 201.708L269.374 201.325C269.374 201.756 269.235 202.176 268.977 202.521C268.719 202.866 268.356 203.119 267.943 203.24L265.76 203.867C265.398 203.954 265.018 203.933 264.668 203.806C264.318 203.68 264.012 203.454 263.789 203.155L263.768 203.376C263.625 204.703 264.96 205.835 266.219 205.474L268.402 204.847C269.711 204.467 270.264 202.991 269.579 201.708Z" fill="#FA694F"/>
<path d="M266.928 175.151C266.928 175.151 257.779 170.031 245.483 173.406L250.726 177.541L266.928 175.151Z" fill="#FFA27F"/>
<path d="M274.837 182.362C274.837 182.362 270.078 178.405 259.582 180.423C249.087 182.441 253.952 194.854 242.368 196.872L236.497 195.632L236.273 174.214C236.273 174.214 256.157 158.075 273.591 176.386L274.837 182.362Z" fill="#162A46"/>
<path d="M228.415 182.853C228.415 182.853 229.873 166.414 246.766 164.318C263.659 162.223 273.588 176.383 273.588 176.383L228.415 182.853Z" fill="#162A46"/>
<path d="M206.209 344.116C205.707 357.129 206.979 369.125 203.162 380.449H242.374C243.17 334.383 234.861 288.812 224.519 241.705C223.988 241.793 223.494 241.865 222.955 241.958C221.861 242.147 220.762 242.342 219.657 242.542C211.926 243.957 202.897 250.971 200.249 259.071C192.556 282.598 207.605 307.792 206.209 344.116Z" fill="white"/>
<path d="M289.745 380.449H303.821C304.883 368.272 305.661 355.812 305.932 343.253C306.659 309.404 299.093 276.752 284.771 248.081L279.545 246.283C291.663 289.699 290.616 334.789 289.745 380.449Z" fill="white"/>
<path opacity="0.2" d="M305.278 343.418C305.013 355.369 304.288 367.794 303.178 380.449H304.296C305.401 367.805 306.134 355.4 306.391 343.439C306.855 322.659 304.163 301.93 298.408 281.957C298.389 281.886 298.356 281.82 298.31 281.762C298.265 281.704 298.208 281.656 298.144 281.62C298.079 281.584 298.009 281.562 297.935 281.554C297.862 281.547 297.788 281.554 297.718 281.575C297.576 281.616 297.456 281.712 297.385 281.842C297.314 281.971 297.297 282.124 297.338 282.266C303.063 302.131 305.74 322.749 305.278 343.418Z" fill="#6D5DCC"/>
<path d="M271.963 353.177C272.418 353.331 272.898 353.391 273.377 353.353C273.855 353.315 274.32 353.18 274.745 352.956C275.169 352.733 275.543 352.425 275.845 352.052C276.147 351.679 276.369 351.249 276.499 350.787C278.358 344.501 280.183 337.992 281.157 331.209C281.704 327.136 282.047 323.139 281.749 318.837C281.605 316.608 281.141 314.411 280.374 312.314C279.562 310.253 278.409 308.345 276.961 306.668C274.245 303.46 271.198 301.219 268.729 298.659C266.231 296.111 264.294 293.069 263.043 289.728C260.408 282.932 261.009 274.946 263.043 267.542C261.557 271.148 260.511 274.92 259.925 278.776C259.33 282.718 259.498 286.738 260.422 290.617C261.379 294.547 263.138 298.236 265.59 301.452C268.004 304.626 270.742 307.279 272.563 310.123C274.457 312.954 275.044 315.761 274.879 319.192C274.715 322.573 273.987 326.251 273.076 329.73C271.491 335.631 269.14 341.397 266.604 347.279C266.409 347.711 266.305 348.179 266.299 348.653C266.292 349.127 266.382 349.597 266.565 350.034C266.747 350.472 267.017 350.868 267.358 351.197C267.699 351.526 268.104 351.781 268.548 351.948L271.963 353.177Z" fill="#C4C4C4"/>
<path d="M271.963 353.177C272.418 353.331 272.898 353.391 273.377 353.353C273.855 353.315 274.32 353.18 274.745 352.956C275.169 352.733 275.543 352.425 275.845 352.052C276.147 351.679 276.369 351.249 276.499 350.787C278.358 344.501 280.183 337.992 281.157 331.209C281.704 327.136 282.047 323.139 281.749 318.837C281.605 316.608 281.141 314.411 280.374 312.314C279.562 310.253 278.409 308.345 276.961 306.668C274.245 303.46 271.198 301.219 268.729 298.659C266.231 296.111 264.294 293.069 263.043 289.728C260.408 282.932 261.009 274.946 263.043 267.542C261.557 271.148 260.511 274.92 259.925 278.776C259.33 282.718 259.498 286.738 260.422 290.617C261.379 294.547 263.138 298.236 265.59 301.452C268.004 304.626 270.742 307.279 272.563 310.123C274.457 312.954 275.044 315.761 274.879 319.192C274.715 322.573 273.987 326.251 273.076 329.73C271.491 335.631 269.14 341.397 266.604 347.279C266.409 347.711 266.305 348.179 266.299 348.653C266.292 349.127 266.382 349.597 266.565 350.034C266.747 350.472 267.017 350.868 267.358 351.197C267.699 351.526 268.104 351.781 268.548 351.948L271.963 353.177Z" fill="url(#paint19_linear)"/>
<path d="M258.488 264.685L261.901 263.795C263.574 263.36 265.045 266.039 264.232 268.044L263.061 270.934C262.559 272.177 261.369 272.485 260.405 271.627L258.167 269.627C256.613 268.238 256.815 265.121 258.488 264.685Z" fill="#C4C4C4"/>
<path d="M258.488 264.685L261.901 263.795C263.574 263.36 265.045 266.039 264.232 268.044L263.061 270.934C262.559 272.177 261.369 272.485 260.405 271.627L258.167 269.627C256.613 268.238 256.815 265.121 258.488 264.685Z" fill="url(#paint20_linear)"/>
<path d="M245.369 307.08L246.057 306.209L246.182 306.321L245.369 307.08Z" fill="#F6C19A"/>
<path d="M393 83.615C393 87.693 389.726 91 385.689 91H323.311C319.274 91 316 87.693 316 83.615V43.385C316 39.307 319.273 36 323.311 36H385.689C389.726 36 393 39.306 393 43.384V83.615Z" fill="#F4B855"/>
<path d="M346.882 84L371.508 108.626C373.301 110.419 376.208 110.419 378 108.626L377.897 84H346.882Z" fill="#F4B855"/>
<path d="M330 54H378.942V58H330V54Z" fill="white"/>
<path d="M330 62H378.942V66H330V62Z" fill="white"/>
<path d="M374.445 70H378.942V74H374.445H361.439H356.942V70H361.439H374.445Z" fill="white"/>
<path d="M198 47.615C198 51.693 201.274 55 205.311 55H267.689C271.726 55 275 51.693 275 47.615V7.385C275 3.307 271.727 0 267.689 0H205.311C201.274 0 198 3.306 198 7.384V47.615Z" fill="#62AA56"/>
<path d="M244.118 48L219.492 72.626C217.699 74.419 214.792 74.419 213 72.626L213.103 48H244.118Z" fill="#62AA56"/>
<path d="M261 18H212.058V22H261V18Z" fill="white"/>
<path d="M261 26H212.058V30H261V26Z" fill="white"/>
<path d="M216.555 34H212.058V38H216.555H229.561H234.058V34H229.561H216.555Z" fill="white"/>
<rect y="142" width="78" height="63" rx="7.24253" fill="#C4C4C4"/>
<rect y="142" width="78" height="63" rx="7.24253" fill="white"/>
<path d="M28.3526 178.129C28.3526 180.152 26.6997 181.805 24.6763 181.805C22.653 181.805 21 180.152 21 178.129C21 176.106 22.653 174.453 24.6763 174.453H28.3526V178.129Z" fill="#E01E5A"/>
<path d="M30.2104 178.129C30.2104 176.105 31.8634 174.452 33.8868 174.452C35.9102 174.452 37.5631 176.105 37.5631 178.129V187.334C37.5631 189.357 35.9102 191.01 33.8868 191.01C31.8634 191.01 30.2104 189.357 30.2104 187.334V178.129Z" fill="#E01E5A"/>
<path d="M33.8868 163.353C31.8634 163.353 30.2104 161.7 30.2104 159.676C30.2104 157.653 31.8634 156 33.8868 156C35.9102 156 37.5631 157.653 37.5631 159.676V163.353H33.8868Z" fill="#36C5F0"/>
<path d="M33.8813 165.192C35.9047 165.192 37.5576 166.845 37.5576 168.868C37.5576 170.892 35.9047 172.545 33.8813 172.545H24.6763C22.653 172.545 21 170.892 21 168.868C21 166.845 22.653 165.192 24.6763 165.192H33.8813Z" fill="#36C5F0"/>
<path d="M48.6479 168.869C48.6479 166.845 50.3009 165.192 52.3243 165.192C54.3477 165.192 56.0006 166.845 56.0006 168.869C56.0006 170.892 54.3477 172.545 52.3243 172.545H48.6479V168.869Z" fill="#2EB67D"/>
<path d="M46.7901 168.881C46.7901 170.905 45.1372 172.558 43.1138 172.558C41.0905 172.558 39.4375 170.905 39.4375 168.881V159.676C39.4375 157.653 41.0905 156 43.1138 156C45.1372 156 46.7901 157.653 46.7901 159.676V168.881Z" fill="#2EB67D"/>
<path d="M43.1133 183.648C45.1367 183.648 46.7896 185.301 46.7896 187.324C46.7896 189.348 45.1367 191.001 43.1133 191.001C41.09 191.001 39.437 189.348 39.437 187.324V183.648H43.1133Z" fill="#ECB22E"/>
<path d="M43.1133 181.808C41.09 181.808 39.437 180.155 39.437 178.132C39.437 176.108 41.09 174.455 43.1133 174.455H52.3183C54.3417 174.455 55.9946 176.108 55.9946 178.132C55.9946 180.155 54.3417 181.808 52.3183 181.808H43.1133Z" fill="#ECB22E"/>
<defs>
<linearGradient id="paint0_linear" x1="392.94" y1="235.664" x2="418.942" y2="184.961" gradientUnits="userSpaceOnUse">
<stop stop-color="#8FE195"/>
<stop offset="0.543707" stop-color="#8DD091"/>
<stop offset="1" stop-color="#6DCD74"/>
</linearGradient>
<linearGradient id="paint1_linear" x1="432.63" y1="97.4917" x2="432.63" y2="149.935" gradientUnits="userSpaceOnUse">
<stop stop-color="#FFDBD0"/>
<stop offset="1" stop-color="#FF9979"/>
</linearGradient>
<linearGradient id="paint2_linear" x1="432.63" y1="97.4917" x2="432.63" y2="149.935" gradientUnits="userSpaceOnUse">
<stop stop-color="#FFDBD0"/>
<stop offset="1" stop-color="#FF9979"/>
</linearGradient>
<linearGradient id="paint3_linear" x1="432.63" y1="97.4917" x2="432.63" y2="149.935" gradientUnits="userSpaceOnUse">
<stop stop-color="#FFDBD0"/>
<stop offset="1" stop-color="#FF9979"/>
</linearGradient>
<linearGradient id="paint4_linear" x1="423.379" y1="77.5134" x2="423.379" y2="123.688" gradientUnits="userSpaceOnUse">
<stop stop-color="#FFDBD0"/>
<stop offset="1" stop-color="#FF9979"/>
</linearGradient>
<linearGradient id="paint5_linear" x1="421.957" y1="219.25" x2="431.863" y2="216.336" gradientUnits="userSpaceOnUse">
<stop stop-color="#5144A3"/>
<stop offset="0.543707" stop-color="#6152BD"/>
<stop offset="1" stop-color="#6C5DCC"/>
</linearGradient>
<linearGradient id="paint6_linear" x1="426.123" y1="156.954" x2="427.84" y2="154.988" gradientUnits="userSpaceOnUse">
<stop stop-color="#5144A3"/>
<stop offset="0.543707" stop-color="#6152BD"/>
<stop offset="1" stop-color="#6C5DCC"/>
</linearGradient>
<linearGradient id="paint7_linear" x1="115.036" y1="197.279" x2="141.038" y2="146.575" gradientUnits="userSpaceOnUse">
<stop stop-color="#8FE195"/>
<stop offset="0.543707" stop-color="#8DD091"/>
<stop offset="1" stop-color="#6DCD74"/>
</linearGradient>
<linearGradient id="paint8_linear" x1="154.967" y1="25.2791" x2="154.967" y2="69.5865" gradientUnits="userSpaceOnUse">
<stop stop-color="#FFDBD0"/>
<stop offset="1" stop-color="#FF9979"/>
</linearGradient>
<linearGradient id="paint9_linear" x1="183.584" y1="55.1772" x2="183.584" y2="69.0559" gradientUnits="userSpaceOnUse">
<stop stop-color="#FFDBD0"/>
<stop offset="1" stop-color="#FF9979"/>
</linearGradient>
<linearGradient id="paint10_linear" x1="159.143" y1="34.6643" x2="159.143" y2="116.77" gradientUnits="userSpaceOnUse">
<stop stop-color="#FFDBD0"/>
<stop offset="1" stop-color="#FF9979"/>
</linearGradient>
<linearGradient id="paint11_linear" x1="159.143" y1="34.6643" x2="159.143" y2="116.77" gradientUnits="userSpaceOnUse">
<stop stop-color="#FFDBD0"/>
<stop offset="1" stop-color="#FF9979"/>
</linearGradient>
<linearGradient id="paint12_linear" x1="162.113" y1="223.832" x2="156.904" y2="221.869" gradientUnits="userSpaceOnUse">
<stop stop-color="#5144A3"/>
<stop offset="0.543707" stop-color="#6152BD"/>
<stop offset="1" stop-color="#6C5DCC"/>
</linearGradient>
<linearGradient id="paint13_linear" x1="124.025" y1="223.632" x2="118.645" y2="221.612" gradientUnits="userSpaceOnUse">
<stop stop-color="#5144A3"/>
<stop offset="0.543707" stop-color="#6152BD"/>
<stop offset="1" stop-color="#6C5DCC"/>
</linearGradient>
<linearGradient id="paint14_linear" x1="227.036" y1="358.97" x2="253.038" y2="308.266" gradientUnits="userSpaceOnUse">
<stop stop-color="#8FE195"/>
<stop offset="0.543707" stop-color="#8DD091"/>
<stop offset="1" stop-color="#6DCD74"/>
</linearGradient>
<linearGradient id="paint15_linear" x1="256.281" y1="175.496" x2="256.281" y2="262.023" gradientUnits="userSpaceOnUse">
<stop stop-color="#FFDBD0"/>
<stop offset="1" stop-color="#FF9979"/>
</linearGradient>
<linearGradient id="paint16_linear" x1="256.281" y1="175.496" x2="256.281" y2="262.023" gradientUnits="userSpaceOnUse">
<stop stop-color="#FFDBD0"/>
<stop offset="1" stop-color="#FF9979"/>
</linearGradient>
<linearGradient id="paint17_linear" x1="256.281" y1="175.496" x2="256.281" y2="262.023" gradientUnits="userSpaceOnUse">
<stop stop-color="#FFDBD0"/>
<stop offset="1" stop-color="#FF9979"/>
</linearGradient>
<linearGradient id="paint18_linear" x1="256.281" y1="175.496" x2="256.281" y2="262.023" gradientUnits="userSpaceOnUse">
<stop stop-color="#FFDBD0"/>
<stop offset="1" stop-color="#FF9979"/>
</linearGradient>
<linearGradient id="paint19_linear" x1="267.352" y1="339.195" x2="279.345" y2="335.246" gradientUnits="userSpaceOnUse">
<stop stop-color="#5144A3"/>
<stop offset="0.543707" stop-color="#6152BD"/>
<stop offset="1" stop-color="#6C5DCC"/>
</linearGradient>
<linearGradient id="paint20_linear" x1="259.675" y1="270.732" x2="261.63" y2="268.551" gradientUnits="userSpaceOnUse">
<stop stop-color="#5144A3"/>
<stop offset="0.543707" stop-color="#6152BD"/>
<stop offset="1" stop-color="#6C5DCC"/>
</linearGradient>
</defs>
</svg>
