<svg width="1059" height="180" viewBox="0 0 1059 180" fill="none" xmlns="http://www.w3.org/2000/svg">
<rect width="1059" height="180" rx="10" fill="#642FB3"/>
<mask id="mask0" mask-type="alpha" maskUnits="userSpaceOnUse" x="0" y="0" width="1059" height="180">
<rect width="1059" height="180" rx="10" fill="#7159FF"/>
</mask>
<g mask="url(#mask0)">
<g style="mix-blend-mode:lighten" opacity="0.1">
<path d="M765.692 -111.356V56.5756L734.991 45.1857V-122.743L765.692 -111.356Z" fill="#C3C3C3"/>
<path d="M734.991 -122.743V45.1857L704.294 56.5756V-111.356L734.991 -122.743Z" fill="#E3E3E3"/>
<path d="M734.991 -60.9068V107.024L682.394 87.4938V-80.4345L734.991 -60.9068Z" fill="#C3C3C3"/>
<path d="M787.592 -80.4345V87.4938L734.991 107.024V-60.9068L787.592 -80.4345Z" fill="#E3E3E3"/>
<path d="M629.411 -111.356V56.5756L598.713 45.1857V-122.743L629.411 -111.356Z" fill="#C3C3C3"/>
<path d="M598.714 -122.743V45.1857L568.016 56.5756V-111.356L598.714 -122.743Z" fill="#E3E3E3"/>
<path d="M598.714 -60.9068V107.024L546.116 87.4938V-80.4345L598.714 -60.9068Z" fill="#C3C3C3"/>
<path d="M651.311 -80.4345V87.4938L598.713 107.024V-60.9068L651.311 -80.4345Z" fill="#E3E3E3"/>
<path d="M1038.25 -111.356V56.5756L1007.55 45.1857V-122.743L1038.25 -111.356Z" fill="#C3C3C3"/>
<path d="M1007.55 -122.743V45.1857L976.848 56.5756V-111.356L1007.55 -122.743Z" fill="#E3E3E3"/>
<path d="M1007.55 -60.9068V107.024L954.951 87.4938V-80.4345L1007.55 -60.9068Z" fill="#C3C3C3"/>
<path d="M1060.15 -80.4345V87.4938L1007.55 107.024V-60.9068L1060.15 -80.4345Z" fill="#E3E3E3"/>
<path d="M901.969 -111.356V56.5756L871.271 45.1857V-122.743L901.969 -111.356Z" fill="#C3C3C3"/>
<path d="M871.27 -122.743V45.1857L840.57 56.5756V-111.356L871.27 -122.743Z" fill="#E3E3E3"/>
<path d="M871.271 -60.9068V107.024L818.67 87.4938V-80.4345L871.271 -60.9068Z" fill="#C3C3C3"/>
<path d="M923.869 -80.4345V87.4938L871.271 107.024V-60.9068L923.869 -80.4345Z" fill="#E3E3E3"/>
<path d="M493.133 -111.356V56.5756L462.436 45.1857V-122.743L493.133 -111.356Z" fill="#C3C3C3"/>
<path d="M462.435 -122.743V45.1857L431.734 56.5756V-111.356L462.435 -122.743Z" fill="#E3E3E3"/>
<path d="M462.435 -60.9068V107.024L409.835 87.4938V-80.4345L462.435 -60.9068Z" fill="#C3C3C3"/>
<path d="M515.033 -80.4345V87.4938L462.436 107.024V-60.9068L515.033 -80.4345Z" fill="#E3E3E3"/>
<path d="M356.857 -111.356V56.5756L326.156 45.1857V-122.743L356.857 -111.356Z" fill="#C3C3C3"/>
<path d="M326.155 -122.743V45.1857L295.458 56.5756V-111.356L326.155 -122.743Z" fill="#E3E3E3"/>
<path d="M326.156 -60.9068V107.024L273.558 87.4938V-80.4345L326.156 -60.9068Z" fill="#C3C3C3"/>
<path d="M378.757 -80.4345V87.4938L326.156 107.024V-60.9068L378.757 -80.4345Z" fill="#E3E3E3"/>
<path d="M220.576 -111.356V56.5756L189.879 45.1857V-122.743L220.576 -111.356Z" fill="#C3C3C3"/>
<path d="M189.878 -122.743V45.1857L159.18 56.5756V-111.356L189.878 -122.743Z" fill="#E3E3E3"/>
<path d="M189.878 -60.9068V107.024L137.28 87.4938V-80.4345L189.878 -60.9068Z" fill="#C3C3C3"/>
<path d="M242.476 -80.4345V87.4938L189.879 107.024V-60.9068L242.476 -80.4345Z" fill="#E3E3E3"/>
<path d="M84.2984 -111.356V56.5756L53.6007 45.1857V-122.743L84.2984 -111.356Z" fill="#C3C3C3"/>
<path d="M53.6011 -122.743V45.1857L22.9005 56.5756V-111.356L53.6011 -122.743Z" fill="#E3E3E3"/>
<path d="M53.6007 -60.9068V107.024L1 87.4938V-80.4345L53.6007 -60.9068Z" fill="#C3C3C3"/>
<path d="M106.199 -80.4345V87.4938L53.6007 107.024V-60.9068L106.199 -80.4345Z" fill="#E3E3E3"/>
<path d="M834.022 -33.2587V134.67L803.322 123.283V-44.6486L834.022 -33.2587Z" fill="#C3C3C3"/>
<path d="M803.322 -44.6486V123.283L772.624 134.67V-33.2587L803.322 -44.6486Z" fill="#E3E3E3"/>
<path d="M803.322 17.1891V185.117L750.724 165.59V-2.34149L803.322 17.1891Z" fill="#C3C3C3"/>
<path d="M855.92 -2.34149V165.59L803.322 185.117V17.1891L855.92 -2.34149Z" fill="#E3E3E3"/>
<path d="M855.921 -2.34164L803.323 17.189L750.725 -2.34164V-41.3882L803.323 -60.9189L855.921 -41.3882V-2.34164ZM772.637 -10.4823L803.335 0.931068L834.032 -10.4823V-33.2593L803.332 -44.6463L772.625 -33.2593V-10.4823" fill="white"/>
<path d="M697.743 -33.2587V134.67L667.045 123.283V-44.6486L697.743 -33.2587Z" fill="#C3C3C3"/>
<path d="M667.045 -44.6486V123.283L636.344 134.67V-33.2587L667.045 -44.6486Z" fill="#E3E3E3"/>
<path d="M667.045 17.1891V185.117L614.444 165.59V-2.34149L667.045 17.1891Z" fill="#C3C3C3"/>
<path d="M719.643 -2.34149V165.59L667.045 185.117V17.1891L719.643 -2.34149Z" fill="#E3E3E3"/>
<path d="M719.643 -2.34164L667.046 17.189L614.445 -2.34164V-41.3882L667.046 -60.9189L719.643 -41.3882V-2.34164ZM636.36 -10.4823L667.06 0.931068L697.758 -10.4823V-33.2593L667.06 -44.6463L636.36 -33.2593V-10.4823Z" fill="white"/>
<path d="M561.464 -33.2587V134.67L530.763 123.283V-44.6486L561.464 -33.2587Z" fill="#C3C3C3"/>
<path d="M530.764 -44.6486V123.283L500.066 134.67V-33.2587L530.764 -44.6486Z" fill="#E3E3E3"/>
<path d="M530.764 17.1891V185.117L478.166 165.59V-2.34149L530.764 17.1891Z" fill="#C3C3C3"/>
<path d="M583.364 -2.34149V165.59L530.763 185.117V17.1891L583.364 -2.34149Z" fill="#E3E3E3"/>
<path d="M583.366 -2.34164L530.765 17.189L478.167 -2.34164V-41.3882L530.765 -60.9189L583.366 -41.3882V-2.34164ZM500.082 -10.4823L530.779 0.931068L561.48 -10.4823V-33.2593L530.779 -44.6463L500.082 -33.2593V-10.4823Z" fill="white"/>
<path d="M425.187 -33.2587V134.67L394.486 123.283V-44.6486L425.187 -33.2587Z" fill="#C3C3C3"/>
<path d="M394.487 -44.6486V123.283L363.789 134.67V-33.2587L394.487 -44.6486Z" fill="#E3E3E3"/>
<path d="M394.486 17.1891V185.117L341.888 165.59V-2.34149L394.486 17.1891Z" fill="#C3C3C3"/>
<path d="M447.084 -2.34149V165.59L394.486 185.117V17.1891L447.084 -2.34149Z" fill="#E3E3E3"/>
<path d="M447.084 -2.34164L394.486 17.189L341.889 -2.34164V-41.3882L394.486 -60.9189L447.084 -41.3882V-2.34164ZM363.8 -10.4823L394.498 0.931068L425.199 -10.4823V-33.2593L394.498 -44.6463L363.8 -33.2593V-10.4823Z" fill="white"/>
<path d="M288.907 -33.2587V134.67L258.209 123.283V-44.6486L288.907 -33.2587Z" fill="#C3C3C3"/>
<path d="M258.209 -44.6486V123.283L227.508 134.67V-33.2587L258.209 -44.6486Z" fill="#E3E3E3"/>
<path d="M258.209 17.1891V185.117L205.608 165.59V-2.34149L258.209 17.1891Z" fill="#C3C3C3"/>
<path d="M310.807 -2.34149V165.59L258.209 185.117V17.1891L310.807 -2.34149Z" fill="#E3E3E3"/>
<path d="M310.808 -2.34164L258.21 17.189L205.61 -2.34164V-41.3882L258.21 -60.9189L310.808 -41.3882V-2.34164ZM227.524 -10.4823L258.225 0.931068L288.923 -10.4823V-33.2593L258.21 -44.6463L227.51 -33.2593V-10.4823" fill="white"/>
<path d="M152.63 -33.2587V134.67L121.929 123.283V-44.6486L152.63 -33.2587Z" fill="#C3C3C3"/>
<path d="M121.929 -44.6486V123.283L91.2313 134.67V-33.2587L121.929 -44.6486Z" fill="#E3E3E3"/>
<path d="M121.929 17.1891V185.117L69.3313 165.59V-2.34149L121.929 17.1891Z" fill="#C3C3C3"/>
<path d="M174.53 -2.34149V165.59L121.929 185.117V17.1891L174.53 -2.34149Z" fill="#E3E3E3"/>
<path d="M174.53 -2.34164L121.929 17.189L69.3317 -2.34164V-41.3882L121.929 -60.9189L174.53 -41.3882V-2.34164ZM91.223 -10.4823L121.921 0.931068L152.63 -10.4823V-33.2593L121.929 -44.6463L91.223 -33.2593V-10.4823Z" fill="white"/>
<path d="M765.692 39.3045V207.236L734.991 195.846V27.9175L765.692 39.3045Z" fill="#C3C3C3"/>
<path d="M734.991 27.9175V195.846L704.294 207.236V39.3045L734.991 27.9175Z" fill="#E3E3E3"/>
<path d="M734.991 89.7523V257.683L682.394 238.153V70.2246L734.991 89.7523Z" fill="#C3C3C3"/>
<path d="M787.592 70.2246V238.153L734.991 257.683V89.7523L787.592 70.2246Z" fill="#E3E3E3"/>
<path d="M787.593 70.2241L734.992 89.7518L682.394 70.2241V31.1893L734.992 11.6586L787.593 31.1893V70.2241ZM704.309 62.0805L735.007 73.4939L765.704 62.0805V39.3036L735.004 27.9166L704.306 39.3036V62.0805" fill="white"/>
<path d="M629.411 39.3035V207.235L598.713 195.845V27.9165L629.411 39.3035Z" fill="#C3C3C3"/>
<path d="M598.714 27.9165V195.845L568.016 207.235V39.3035L598.714 27.9165Z" fill="#E3E3E3"/>
<path d="M598.714 89.7513V257.682L546.116 238.152V70.2236L598.714 89.7513Z" fill="#C3C3C3"/>
<path d="M651.311 70.2236V238.152L598.713 257.682V89.7513L651.311 70.2236Z" fill="#E3E3E3"/>
<path d="M651.311 70.2241L598.714 89.7518L546.116 70.2241V31.1893L598.714 11.6586L651.311 31.1893V70.2241ZM568.028 62.0805L598.725 73.4939L629.423 62.0805V39.3036L598.725 27.9166L568.028 39.3036V62.0805Z" fill="white"/>
<path d="M970.3 -33.2586V134.67L939.6 123.283V-44.6485L970.3 -33.2586Z" fill="#C3C3C3"/>
<path d="M939.6 -44.6485V123.283L908.902 134.67V-33.2586L939.6 -44.6485Z" fill="#E3E3E3"/>
<path d="M939.6 17.1892V185.117L887.002 165.59V-2.34143L939.6 17.1892Z" fill="#C3C3C3"/>
<path d="M992.2 -2.34143V165.59L939.6 185.117V17.1892L992.2 -2.34143Z" fill="#E3E3E3"/>
<path d="M992.201 -2.34158L939.603 17.189L887.005 -2.34158V-41.3882L939.603 -60.9071L992.201 -41.3882V-2.34158ZM908.902 -10.4823L939.603 0.931118L970.304 -10.4823V-33.2592L939.603 -44.6462L908.905 -33.2592V-10.4823" fill="white"/>
<path d="M1038.25 39.3035V207.235L1007.55 195.845V27.9165L1038.25 39.3035Z" fill="#C3C3C3"/>
<path d="M1007.55 27.9165V195.845L976.848 207.235V39.3035L1007.55 27.9165Z" fill="#E3E3E3"/>
<path d="M1007.55 89.7513V257.682L954.951 238.152V70.2236L1007.55 89.7513Z" fill="#C3C3C3"/>
<path d="M1060.15 70.2236V238.152L1007.55 257.682V89.7513L1060.15 70.2236Z" fill="#E3E3E3"/>
<path d="M1060.15 70.2241L1007.55 89.7518L954.952 70.2241V31.1893L1007.55 11.6586L1060.15 31.1893V70.2241ZM976.863 62.0805L1007.56 73.4939L1038.26 62.0805V39.3036L1007.55 27.9166L976.846 39.3036V62.0805" fill="white"/>
<path d="M901.969 39.3035V207.235L871.271 195.845V27.9165L901.969 39.3035Z" fill="#C3C3C3"/>
<path d="M871.27 27.9165V195.845L840.57 207.235V39.3035L871.27 27.9165Z" fill="#E3E3E3"/>
<path d="M871.271 89.7513V257.682L818.67 238.152V70.2236L871.271 89.7513Z" fill="#C3C3C3"/>
<path d="M923.869 70.2236V238.152L871.271 257.682V89.7513L923.869 70.2236Z" fill="#E3E3E3"/>
<path d="M923.87 70.2241L871.275 89.7518L818.671 70.2241V31.1893L871.275 11.6586L923.873 31.1893L923.87 70.2241ZM840.586 62.0805L871.275 73.4939L901.972 62.0805V39.3036L871.275 27.9166L840.571 39.3036V62.0805" fill="white"/>
<path d="M493.133 39.3035V207.235L462.436 195.845V27.9165L493.133 39.3035Z" fill="#C3C3C3"/>
<path d="M462.435 27.9165V195.845L431.734 207.235V39.3035L462.435 27.9165Z" fill="#E3E3E3"/>
<path d="M462.435 89.7513V257.682L409.835 238.152V70.2236L462.435 89.7513Z" fill="#C3C3C3"/>
<path d="M515.033 70.2236V238.152L462.436 257.682V89.7513L515.033 70.2236Z" fill="#E3E3E3"/>
<path d="M515.034 70.2241L462.436 89.7518L409.836 70.2241V31.1893L462.436 11.6586L515.034 31.1893V70.2241ZM431.75 62.0805L462.451 73.4939L493.149 62.0805V39.3036L462.451 27.9166L431.75 39.3036V62.0805Z" fill="white"/>
<path d="M356.857 39.3035V207.235L326.156 195.845V27.9165L356.857 39.3035Z" fill="#C3C3C3"/>
<path d="M326.155 27.9165V195.845L295.458 207.235V39.3035L326.155 27.9165Z" fill="#E3E3E3"/>
<path d="M326.156 89.7513V257.682L273.558 238.152V70.2236L326.156 89.7513Z" fill="#C3C3C3"/>
<path d="M378.757 70.2236V238.152L326.156 257.682V89.7513L378.757 70.2236Z" fill="#E3E3E3"/>
<path d="M378.757 70.2241L326.156 89.7518L273.558 70.2241V31.1893L326.156 11.6586L378.757 31.1893V70.2241ZM295.473 62.0805L326.171 73.4939L356.871 62.0805V39.3036L326.171 27.9166L295.473 39.3036V62.0805Z" fill="white"/>
<path d="M220.576 39.3035V207.235L189.879 195.845V27.9165L220.576 39.3035Z" fill="#C3C3C3"/>
<path d="M189.878 27.9165V195.845L159.18 207.235V39.3035L189.878 27.9165Z" fill="#E3E3E3"/>
<path d="M189.878 89.7513V257.682L137.28 238.152V70.2236L189.878 89.7513Z" fill="#C3C3C3"/>
<path d="M242.476 70.2236V238.152L189.879 257.682V89.7513L242.476 70.2236Z" fill="#E3E3E3"/>
<path d="M242.477 70.2241L189.879 89.7518L137.281 70.2241V31.1893L189.879 11.6586L242.477 31.1893V70.2241ZM159.193 62.0805L189.893 73.4939L220.576 62.0805V39.3036L189.879 27.9166L159.178 39.3036V62.0805" fill="white"/>
<path d="M84.2984 39.3035V207.235L53.6007 195.845V27.9165L84.2984 39.3035Z" fill="#C3C3C3"/>
<path d="M53.6011 27.9165V195.845L22.9005 207.235V39.3035L53.6011 27.9165Z" fill="#E3E3E3"/>
<path d="M53.6007 89.7513V257.682L1 238.152V70.2236L53.6007 89.7513Z" fill="#C3C3C3"/>
<path d="M106.199 70.2236V238.152L53.6007 257.682V89.7513L106.199 70.2236Z" fill="#E3E3E3"/>
<path d="M106.199 70.2241L53.6007 89.7518L1 70.2241V31.1893L53.6007 11.6586L106.199 31.1893V70.2241ZM22.8942 62.0805L53.5949 73.4939L84.2926 62.0805V39.3036L53.6007 27.9166L22.8942 39.3036V62.0805Z" fill="white"/>
<path d="M834.022 117.399V285.328L803.322 273.941V106.01L834.022 117.399Z" fill="#C3C3C3"/>
<path d="M803.322 106.01V273.941L772.624 285.328V117.399L803.322 106.01Z" fill="#E3E3E3"/>
<path d="M803.322 167.847V335.775L750.724 316.248V148.317L803.322 167.847Z" fill="#C3C3C3"/>
<path d="M855.92 148.317V316.248L803.322 335.775V167.847L855.92 148.317Z" fill="#E3E3E3"/>
<path d="M855.921 148.317L803.323 167.848L750.725 148.317V109.282L803.323 89.7515L855.921 109.282V148.317ZM772.637 140.176L803.335 151.59L834.032 140.176V117.399L803.332 106.012L772.625 117.399V140.176" fill="white"/>
<path d="M697.743 117.399V285.328L667.045 273.941V106.01L697.743 117.399Z" fill="#C3C3C3"/>
<path d="M667.045 106.01V273.941L636.344 285.328V117.399L667.045 106.01Z" fill="#E3E3E3"/>
<path d="M667.045 167.847V335.775L614.444 316.248V148.317L667.045 167.847Z" fill="#C3C3C3"/>
<path d="M719.643 148.317V316.248L667.045 335.775V167.847L719.643 148.317Z" fill="#E3E3E3"/>
<path d="M719.643 148.317L667.046 167.848L614.445 148.317V109.282L667.046 89.7515L719.643 109.282V148.317ZM636.36 140.176L667.06 151.59L697.758 140.176V117.399L667.06 106.012L636.36 117.399V140.176Z" fill="white"/>
<path d="M561.464 117.399V285.328L530.763 273.941V106.01L561.464 117.399Z" fill="#C3C3C3"/>
<path d="M530.764 106.01V273.941L500.066 285.328V117.399L530.764 106.01Z" fill="#E3E3E3"/>
<path d="M530.764 167.847V335.775L478.166 316.248V148.317L530.764 167.847Z" fill="#C3C3C3"/>
<path d="M583.364 148.317V316.248L530.763 335.775V167.847L583.364 148.317Z" fill="#E3E3E3"/>
<path d="M583.366 148.317L530.765 167.848L478.167 148.317V109.282L530.765 89.7515L583.366 109.282V148.317ZM500.082 140.176L530.779 151.59L561.48 140.176V117.399L530.779 106.012L500.082 117.399V140.176Z" fill="white"/>
<path d="M425.187 117.399V285.328L394.486 273.941V106.01L425.187 117.399Z" fill="#C3C3C3"/>
<path d="M394.487 106.01V273.941L363.789 285.328V117.399L394.487 106.01Z" fill="#E3E3E3"/>
<path d="M394.486 167.847V335.775L341.888 316.248V148.317L394.486 167.847Z" fill="#C3C3C3"/>
<path d="M447.084 148.317V316.248L394.486 335.775V167.847L447.084 148.317Z" fill="#E3E3E3"/>
<path d="M447.084 148.317L394.486 167.848L341.889 148.317V109.282L394.486 89.7515L447.084 109.282V148.317ZM363.8 140.176L394.498 151.59L425.199 140.176V117.399L394.498 106.012L363.8 117.399V140.176Z" fill="white"/>
<path d="M288.907 117.399V285.328L258.209 273.941V106.01L288.907 117.399Z" fill="#C3C3C3"/>
<path d="M258.209 106.01V273.941L227.508 285.328V117.399L258.209 106.01Z" fill="#E3E3E3"/>
<path d="M258.209 167.847V335.775L205.608 316.248V148.317L258.209 167.847Z" fill="#C3C3C3"/>
<path d="M310.807 148.317V316.248L258.209 335.775V167.847L310.807 148.317Z" fill="#E3E3E3"/>
<path d="M310.808 148.317L258.21 167.848L205.61 148.317V109.282L258.21 89.7515L310.808 109.282V148.317ZM227.524 140.176L258.225 151.59L288.923 140.176V117.399L258.21 106.012L227.51 117.399V140.176" fill="white"/>
<path d="M152.63 117.399V285.328L121.929 273.941V106.01L152.63 117.399Z" fill="#C3C3C3"/>
<path d="M121.929 106.01V273.941L91.2313 285.328V117.399L121.929 106.01Z" fill="#E3E3E3"/>
<path d="M121.929 167.847V335.775L69.3313 316.248V148.317L121.929 167.847Z" fill="#C3C3C3"/>
<path d="M174.53 148.317V316.248L121.929 335.775V167.847L174.53 148.317Z" fill="#E3E3E3"/>
<path d="M174.53 148.317L121.929 167.848L69.3317 148.317V109.282L121.929 89.7515L174.53 109.282V148.317ZM91.223 140.176L121.921 151.59L152.63 140.176V117.399L121.929 106.012L91.223 117.399V140.176Z" fill="white"/>
<path d="M765.692 189.961V357.892L734.991 346.502V178.574L765.692 189.961Z" fill="#C3C3C3"/>
<path d="M734.991 178.574V346.502L704.294 357.892V189.961L734.991 178.574Z" fill="#E3E3E3"/>
<path d="M787.593 220.883L734.992 240.41L682.394 220.883V181.848L734.992 162.317L787.593 181.848V220.883ZM704.309 212.739L735.007 224.153L765.704 212.739V189.962L735.004 178.575L704.306 189.962V212.739" fill="white"/>
<path d="M629.411 189.962V357.893L598.713 346.503V178.575L629.411 189.962Z" fill="#C3C3C3"/>
<path d="M598.714 178.575V346.503L568.016 357.893V189.962L598.714 178.575Z" fill="#E3E3E3"/>
<path d="M651.311 220.884L598.714 240.411L546.116 220.884V181.849L598.714 162.318L651.311 181.849V220.884ZM568.028 212.74L598.725 224.153L629.423 212.74V189.963L598.725 178.576L568.028 189.963V212.74Z" fill="white"/>
<path d="M970.3 117.399V285.328L939.6 273.941V106.01L970.3 117.399Z" fill="#C3C3C3"/>
<path d="M939.6 106.01V273.941L908.902 285.328V117.399L939.6 106.01Z" fill="#E3E3E3"/>
<path d="M939.6 167.847V335.775L887.002 316.248V148.317L939.6 167.847Z" fill="#C3C3C3"/>
<path d="M992.2 148.317V316.248L939.6 335.775V167.847L992.2 148.317Z" fill="#E3E3E3"/>
<path d="M992.201 148.317L939.603 167.848L887.005 148.317V109.282L939.603 89.7515L992.204 109.282L992.201 148.317ZM908.902 140.176L939.603 151.59L970.304 140.176V117.399L939.603 106.012L908.905 117.399V140.176" fill="white"/>
<path d="M1038.25 189.962V357.893L1007.55 346.503V178.575L1038.25 189.962Z" fill="#C3C3C3"/>
<path d="M1007.55 178.575V346.503L976.848 357.893V189.962L1007.55 178.575Z" fill="#E3E3E3"/>
<path d="M1060.15 220.884L1007.55 240.411L954.952 220.884V181.849L1007.55 162.318L1060.15 181.849V220.884ZM976.863 212.74L1007.56 224.153L1038.26 212.74V189.963L1007.56 178.576L976.846 189.963V212.74" fill="white"/>
<path d="M901.969 189.962V357.893L871.271 346.503V178.575L901.969 189.962Z" fill="#C3C3C3"/>
<path d="M871.27 178.575V346.503L840.57 357.893V189.962L871.27 178.575Z" fill="#E3E3E3"/>
<path d="M923.869 220.884L871.274 240.411L818.673 220.884V181.849L871.274 162.318L923.872 181.849L923.869 220.884ZM840.585 212.74L871.274 224.153L901.972 212.74V189.963L871.274 178.576L840.573 189.963V212.74" fill="white"/>
<path d="M493.133 189.962V357.893L462.436 346.503V178.575L493.133 189.962Z" fill="#C3C3C3"/>
<path d="M462.435 178.575V346.503L431.734 357.893V189.962L462.435 178.575Z" fill="#E3E3E3"/>
<path d="M515.034 220.884L462.436 240.411L409.836 220.884V181.849L462.436 162.318L515.034 181.849V220.884ZM431.75 212.74L462.451 224.153L493.149 212.74V189.963L462.451 178.576L431.75 189.963V212.74Z" fill="white"/>
<path d="M356.857 189.962V357.893L326.156 346.503V178.575L356.857 189.962Z" fill="#C3C3C3"/>
<path d="M326.155 178.575V346.503L295.458 357.893V189.962L326.155 178.575Z" fill="#E3E3E3"/>
<path d="M378.757 220.884L326.156 240.411L273.558 220.884V181.849L326.156 162.318L378.757 181.849V220.884ZM295.473 212.74L326.171 224.153L356.871 212.74V189.963L326.171 178.576L295.473 189.963V212.74Z" fill="white"/>
<path d="M220.576 189.962V357.893L189.879 346.503V178.575L220.576 189.962Z" fill="#C3C3C3"/>
<path d="M189.878 178.575V346.503L159.18 357.893V189.962L189.878 178.575Z" fill="#E3E3E3"/>
<path d="M242.477 220.884L189.879 240.411L137.281 220.884V181.849L189.879 162.318L242.477 181.849V220.884ZM159.193 212.74L189.893 224.153L220.591 212.74V189.963L189.893 178.576L159.193 189.963V212.74Z" fill="white"/>
<path d="M84.2984 189.962V357.893L53.6007 346.503V178.575L84.2984 189.962Z" fill="#C3C3C3"/>
<path d="M53.6011 178.575V346.503L22.9005 357.893V189.962L53.6011 178.575Z" fill="#E3E3E3"/>
<path d="M106.199 220.884L53.6007 240.411L1 220.884V181.849L53.6007 162.318L106.199 181.849V220.884ZM22.9148 212.74L53.6154 224.153L84.3131 212.74V189.963L53.6154 178.576L22.8942 189.963V212.74" fill="white"/>
</g>
</g>
</svg>
