<svg width="88" height="88" viewBox="0 0 88 88" fill="none" xmlns="http://www.w3.org/2000/svg">
<circle cx="44" cy="44" r="44" fill="#C4C4C4"/>
<circle cx="44" cy="44" r="44" fill="url(#paint0_linear)"/>
<path d="M56.8335 62.4923H54.0835V67.8089L47.3918 62.4923H31.1668C30.1585 62.4923 29.3335 61.6673 29.3335 60.6589V40.4923C29.3335 39.4839 30.1585 38.6589 31.1668 38.6589H56.8335C57.8418 38.6589 58.6668 39.4839 58.6668 40.4923V60.6589C58.6668 61.6673 57.8418 62.4923 56.8335 62.4923Z" fill="#125D16"/>
<path d="M23.8333 55.1588H26.5833V60.4754L33.275 55.1588H49.5C50.5083 55.1588 51.3333 54.3338 51.3333 53.3254V33.1588C51.3333 32.1504 50.5083 31.3254 49.5 31.3254H23.8333C22.825 31.3254 22 32.1504 22 33.1588V53.3254C22 54.3338 22.825 55.1588 23.8333 55.1588Z" fill="#62AA56"/>
<path d="M64.5 47.8255H61.75V53.1422L55.0583 47.8255H38.8333C37.825 47.8255 37 47.0005 37 45.9922V25.8255C37 24.8172 37.825 23.9922 38.8333 23.9922H64.5C65.5083 23.9922 66.3333 24.8172 66.3333 25.8255V45.9922C66.3333 47.0005 65.5083 47.8255 64.5 47.8255Z" fill="white"/>
<path d="M47.73 37.2173C47.73 37.9686 47.1163 38.5823 46.365 38.5823C45.6137 38.5823 45 37.9686 45 37.2173C45 36.466 45.6137 35.8523 46.365 35.8523H47.73V37.2173Z" fill="#E01E5A"/>
<path d="M48.4199 37.217C48.4199 36.4658 49.0337 35.8521 49.7849 35.8521C50.5362 35.8521 51.1499 36.4658 51.1499 37.217V40.6348C51.1499 41.3861 50.5362 41.9998 49.7849 41.9998C49.0337 41.9998 48.4199 41.3861 48.4199 40.6348V37.217Z" fill="#E01E5A"/>
<path d="M49.7849 31.73C49.0337 31.73 48.4199 31.1163 48.4199 30.365C48.4199 29.6137 49.0337 29 49.7849 29C50.5362 29 51.1499 29.6137 51.1499 30.365V31.73H49.7849Z" fill="#36C5F0"/>
<path d="M49.7828 32.4133C50.534 32.4133 51.1478 33.0271 51.1478 33.7783C51.1478 34.5296 50.534 35.1433 49.7828 35.1433H46.365C45.6137 35.1433 45 34.5296 45 33.7783C45 33.0271 45.6137 32.4133 46.365 32.4133H49.7828Z" fill="#36C5F0"/>
<path d="M55.2656 33.7783C55.2656 33.0271 55.8794 32.4133 56.6306 32.4133C57.3819 32.4133 57.9956 33.0271 57.9956 33.7783C57.9956 34.5296 57.3819 35.1433 56.6306 35.1433H55.2656V33.7783Z" fill="#2EB67D"/>
<path d="M54.5757 33.7828C54.5757 34.534 53.962 35.1478 53.2107 35.1478C52.4594 35.1478 51.8457 34.534 51.8457 33.7828V30.365C51.8457 29.6137 52.4594 29 53.2107 29C53.962 29 54.5757 29.6137 54.5757 30.365V33.7828Z" fill="#2EB67D"/>
<path d="M53.2107 39.2654C53.962 39.2654 54.5757 39.8791 54.5757 40.6304C54.5757 41.3817 53.962 41.9954 53.2107 41.9954C52.4594 41.9954 51.8457 41.3817 51.8457 40.6304V39.2654H53.2107Z" fill="#ECB22E"/>
<path d="M53.2107 38.5823C52.4594 38.5823 51.8457 37.9686 51.8457 37.2173C51.8457 36.466 52.4594 35.8523 53.2107 35.8523H56.6285C57.3798 35.8523 57.9935 36.466 57.9935 37.2173C57.9935 37.9686 57.3798 38.5823 56.6285 38.5823H53.2107Z" fill="#ECB22E"/>
<defs>
<linearGradient id="paint0_linear" x1="30.7066" y1="73.472" x2="79.2578" y2="18.3705" gradientUnits="userSpaceOnUse">
<stop stop-color="#AFF6B4"/>
<stop offset="1" stop-color="#6DCD74"/>
</linearGradient>
</defs>
</svg>
