<svg width="517" height="19" viewBox="0 0 517 19" fill="none" xmlns="http://www.w3.org/2000/svg">
<rect width="517" height="19" rx="9.5" fill="#9C2FE6"/>
<mask id="mask0" mask-type="alpha" maskUnits="userSpaceOnUse" x="0" y="0" width="517" height="19">
<rect width="517" height="19" rx="9.5" fill="#9C2FE6"/>
</mask>
<g mask="url(#mask0)">
<g opacity="0.2">
<path d="M41.5 -4L13 24.5" stroke="#D597FF" stroke-width="3"/>
<path d="M61.5 -4L33 24.5" stroke="#D597FF" stroke-width="3"/>
<path d="M81.5 -4L53 24.5" stroke="#D597FF" stroke-width="3"/>
<path d="M101.5 -4L73 24.5" stroke="#D597FF" stroke-width="3"/>
<path d="M121.5 -4L93 24.5" stroke="#D597FF" stroke-width="3"/>
<path d="M141.5 -4L113 24.5" stroke="#D597FF" stroke-width="3"/>
<path d="M161.5 -4L133 24.5" stroke="#D597FF" stroke-width="3"/>
<path d="M181.5 -4L153 24.5" stroke="#D597FF" stroke-width="3"/>
<path d="M201.5 -4L173 24.5" stroke="#D597FF" stroke-width="3"/>
<path d="M221.5 -4L193 24.5" stroke="#D597FF" stroke-width="3"/>
<path d="M241.5 -4L213 24.5" stroke="#D597FF" stroke-width="3"/>
<path d="M261.5 -4L233 24.5" stroke="#D597FF" stroke-width="3"/>
<path d="M281.5 -4L253 24.5" stroke="#D597FF" stroke-width="3"/>
<path d="M301.5 -4L273 24.5" stroke="#D597FF" stroke-width="3"/>
<path d="M321.5 -4L293 24.5" stroke="#D597FF" stroke-width="3"/>
<path d="M341.5 -4L313 24.5" stroke="#D597FF" stroke-width="3"/>
<path d="M361.5 -4L333 24.5" stroke="#D597FF" stroke-width="3"/>
<path d="M381.5 -4L353 24.5" stroke="#D597FF" stroke-width="3"/>
<path d="M401.5 -4L373 24.5" stroke="#D597FF" stroke-width="3"/>
<path d="M421.5 -4L393 24.5" stroke="#D597FF" stroke-width="3"/>
<path d="M441.5 -4L413 24.5" stroke="#D597FF" stroke-width="3"/>
<path d="M461.5 -4L433 24.5" stroke="#D597FF" stroke-width="3"/>
<path d="M481.5 -4L453 24.5" stroke="#D597FF" stroke-width="3"/>
<path d="M501.5 -4L473 24.5" stroke="#D597FF" stroke-width="3"/>
</g>
</g>
</svg>
