<svg width="88" height="88" viewBox="0 0 88 88" fill="none" xmlns="http://www.w3.org/2000/svg">
<circle cx="44" cy="44" r="44" fill="#C4C4C4"/>
<circle cx="44" cy="44" r="44" fill="url(#paint0_linear)"/>
<path d="M61.3478 31.6956H26.6522C25.7397 31.6956 25 32.4353 25 33.3477V58.9564C25 59.8689 25.7397 60.6086 26.6522 60.6086H61.3478C62.2603 60.6086 63 59.8689 63 58.9564V33.3477C63 32.4353 62.2603 31.6956 61.3478 31.6956Z" fill="#125D16"/>
<path d="M29.1304 28.3911H40.6957C41.1338 28.3911 41.5541 28.5652 41.8639 28.875C42.1738 29.1849 42.3478 29.6051 42.3478 30.0433V31.6955H27.4783V30.0433C27.4783 29.6051 27.6523 29.1849 27.9622 28.875C28.272 28.5652 28.6923 28.3911 29.1304 28.3911Z" fill="#62AA56"/>
<path d="M34.5106 45.9818L38.5236 41.9688C39.2432 41.2493 40.0974 40.6785 41.0375 40.2891C41.9776 39.8997 42.9852 39.6993 44.0028 39.6993C45.0204 39.6993 46.028 39.8997 46.9681 40.2891C47.9082 40.6785 48.7624 41.2493 49.4819 41.9688L53.4949 45.9818C53.6498 46.1367 53.7369 46.3468 53.7369 46.5659C53.7369 46.785 53.6498 46.9951 53.4949 47.15L49.4819 51.163C48.0288 52.6162 46.0579 53.4326 44.0028 53.4326C41.9477 53.4326 39.9768 52.6162 38.5236 51.163L34.5106 47.15C34.3557 46.9951 34.2687 46.785 34.2687 46.5659C34.2687 46.3468 34.3557 46.1367 34.5106 45.9818Z" fill="white"/>
<path d="M45.0326 45.7392C44.7765 45.3768 44.6391 44.9439 44.6391 44.5001C44.6391 44.0563 44.7765 43.6235 45.0326 43.261C45.0654 43.2151 45.0862 43.1618 45.0932 43.1059C45.1002 43.05 45.0931 42.9932 45.0726 42.9407C45.0521 42.8882 45.0188 42.8416 44.9757 42.8052C44.9327 42.7688 44.8812 42.7438 44.8261 42.7323C44.0428 42.5679 43.228 42.6464 42.4905 42.9574C41.7531 43.2684 41.1281 43.797 40.699 44.4726C40.2699 45.1482 40.0572 45.9386 40.0893 46.7383C40.1215 47.538 40.3968 48.3089 40.8787 48.9479C41.3605 49.587 42.0259 50.0638 42.7859 50.3146C43.5459 50.5655 44.3644 50.5785 45.1319 50.3518C45.8995 50.1252 46.5797 49.6697 47.0815 49.0462C47.5833 48.4228 47.883 47.661 47.9404 46.8627C47.9455 46.8061 47.9367 46.7491 47.9147 46.6968C47.8926 46.6444 47.8581 46.5982 47.814 46.5623C47.77 46.5264 47.7178 46.5019 47.662 46.4909C47.6063 46.4799 47.5487 46.4828 47.4943 46.4992C47.0568 46.6544 46.581 46.6643 46.1374 46.5274C45.6939 46.3904 45.3064 46.114 45.0326 45.7392Z" fill="#62AA56"/>
<defs>
<linearGradient id="paint0_linear" x1="30.7066" y1="73.472" x2="79.2578" y2="18.3705" gradientUnits="userSpaceOnUse">
<stop stop-color="#AFF6B4"/>
<stop offset="1" stop-color="#6DCD74"/>
</linearGradient>
</defs>
</svg>
