<svg width="697" height="527" viewBox="0 0 697 527" fill="none" xmlns="http://www.w3.org/2000/svg"><path d="M421.838 268.002h-5.522v5.522h5.522v-5.522zM2.124 481.044H0v2.124h2.124v-2.124zM44.936 44.85h-.934v.935h.934v-.934zM47.145 493.616h-5.267v5.267h5.267v-5.267zM22.51 347.171h-3.652v3.653h3.653v-3.653zM37.63 370.106H18.434v19.198h19.198v-19.198zM67.276 463.292h-7.305v7.305h7.306v-7.305zM118.838 47.654h-5.776v5.776h5.776v-5.776zM99.64 75.517h-2.293v2.293h2.294v-2.293zM50.118 281.084H39.245v10.873h10.873v-10.873zM67.617 371.975H53.26v14.356h14.355v-14.356zM678.712 38.99h-6.371v6.371h6.371v-6.37zM78.49 283.887h-5.097v5.097h5.096v-5.097zM98.196 373.25H87.748v10.448h10.448V373.25zM116.46 330.437h-6.456v6.456h6.456v-6.456zM209.05 492.173h-10.109v10.108h10.109v-10.108zM690.52 171.844h-12.232v12.232h12.232v-12.232zM643.46 90.891h-9.259v9.259h9.259v-9.259zM552.568 6.03h-23.02v23.02h23.02V6.03zM517.486 0h-11.043v11.043h11.043V0zM329.417 2.294h-6.371v6.37h6.371v-6.37zM302.235 12.487h-10.193V22.68h10.193V12.487zM246.936 47.994h-6.116v6.116h6.116v-6.116zM148.399 260.442h-20.727v20.726h20.727v-20.726zM140.924 301.215H138.8v2.124h2.124v-2.124zM544.074 521.139h-5.861V527h5.861v-5.861zM595.721 489.2h-2.719v2.718h2.719V489.2zM642.271 442.564h-6.881v6.881h6.881v-6.881zM672.681 266.983h-7.56v7.56h7.56v-7.56zM668.349 238.101h-2.718v2.719h2.718v-2.719zM662.148 207.691h-2.039v2.039h2.039v-2.039zM658.41 171.929h-13.846v13.847h13.846v-13.847zM379.96 17.754h-15.291v15.29h15.291v-15.29zM203.529 387.945h-6.541v6.541h6.541v-6.541z" fill="#7543B8"/><path d="M672.681 266.983h-7.56v7.56h7.56v-7.56zM642.186 266.388h-8.834v8.834h8.834v-8.834zM583.998 122.916h-4.077v4.077h4.077v-4.077zM563.781 97.857h-9.769v9.769h9.769v-9.77zM447.237 49.268h-8.495v8.495h8.495v-8.495zM411.814 51.647h-1.359v1.359h1.359v-1.36zM391.937 43.322h-24.974v24.974h24.974V43.322zM350.059 62.35h-3.058v3.058h3.058V62.35zM255.77 127.502h-19.368v19.368h19.368v-19.368zM234.194 158.168h-11.298v11.298h11.298v-11.298z" fill="#7543B8"/><path d="M641.676 266.898h-7.815v7.815h7.815v-7.815zM608.717 268.597H604.3v4.417h4.417v-4.417zM611.436 231.476h-15.29v15.29h15.29v-15.29zM598.099 205.992h-4.672v4.672h4.672v-4.672zM584.423 177.79h-3.313v3.313h3.313v-3.313zM544.923 128.097h-4.077v4.078h4.077v-4.078zM491.153 94.63h-4.502v4.502h4.502v-4.503zM342.499 95.733h-15.46v15.46h15.46v-15.46zM266.643 163.095h-5.606v5.606h5.606v-5.606zM264.604 374.863h-1.614v1.614h1.614v-1.614zM365.349 448.935h-2.123v2.124h2.123v-2.124zM458.789 453.692h-.425v.425h.425v-.425zM579.581 373.759h-29.476v29.476h29.476v-29.476zM602.856 326.105H588.67v14.186h14.186v-14.186zM604.98 301.301h-2.379v2.378h2.379v-2.378z" fill="#7543B8"/><path d="M609.057 268.257h-5.097v5.097h5.097v-5.097zM583.998 261.971h-17.583v17.584h17.583v-17.584zM573.295 238.187h-2.378v2.378h2.378v-2.378zM562.762 208.965h-.425v.425h.425v-.425zM547.641 181.273h-.679v.68h.679v-.68zM485.717 111.873h-24.889v24.889h24.889v-24.889zM352.692 128.183h-4.841v4.841h4.841v-4.841zM326.529 391.343h-5.946v5.946h5.946v-5.946zM549.341 357.959h-4.078v4.078h4.078v-4.078zM572.53 322.452h-19.877v19.877h19.877v-19.877z" fill="#7543B8"/><path d="M583.743 262.311h-16.989V279.3h16.989v-16.989zM548.406 266.473h-8.664v8.665h8.664v-8.665zM543.309 236.488h-6.455v6.456h6.455v-6.456zM537.193 202.085h-17.159v17.159h17.159v-17.159zM516.466 179.064h-12.487v12.487h12.487v-12.487zM489.115 162.245h-6.116v6.116h6.116v-6.116zM460.573 149.079h-5.777v5.776h5.777v-5.776zM369.172 154.516h-6.456v6.455h6.456v-6.455zM345.047 361.526h-11.043v11.043h11.043v-11.043zM528.784 330.691h-.425v.425h.425v-.425zM542.035 299.941h-3.907v3.908h3.907v-3.908z" fill="#7543B8"/><path d="M548.406 266.473h-8.664v8.665h8.664v-8.665zM515.872 267.662h-6.201v6.201h6.201v-6.201zM517.911 227.908H496.25v21.661h21.661v-21.661zM438.402 175.582h-5.946v5.946h5.946v-5.946zM411.389 169.89h-17.243v17.244h17.243V169.89zM375.033 187.05h-5.352v5.351h5.352v-5.351zM336.723 297.224H325.51v11.212h11.213v-11.212zM492.172 329.842h-2.463v2.463h2.463v-2.463z" fill="#7543B8"/><path d="M515.872 267.662h-6.201v6.201h6.201v-6.201zM482.998 269.446h-2.803v2.803h2.803v-2.803zM422.517 204.888h-6.88v6.881h6.88v-6.881zM391.088 213.467h-6.456v6.456h6.456v-6.456zM365.264 301.726h-.595v.594h.595v-.594zM457.685 317.61h-14.611v14.611h14.611V317.61z" fill="#7543B8"/><path d="M482.998 269.446h-2.803v2.803h2.803v-2.803zM460.063 261.207h-19.282v19.282h19.282v-19.282z" fill="#7543B8"/><path d="M460.063 261.207h-19.282v19.282h19.282v-19.282z" fill="#7543B8"/><path d="M413 525.866h25.057V500.47H413v25.396zM685.478 518.743h11.095v-11.245h-11.095v11.245zM600.878 512.933h16.643v-16.869h-16.643v16.869zM527.65 478.165h9.246v-9.371h-9.246v9.371zM641.652 426.903h16.828v-17.056h-16.828v17.056zM429.736 309.572h18.677v-18.931h-18.677v18.931zM452.296 334.969h13.591v-13.776h-13.591v13.776zM450.724 281.083h23.577v-23.898h-23.577v23.898zM566.668 345.09h18.769v-19.024h-18.769v19.024zM606.24 326.159h5.825v-5.904h-5.825v5.904zM647.939 204.611h12.205V192.24h-12.205v12.371zM516.277 182.119h15.903V166h-15.903v16.119zM513.689 244.346h20.988v-21.273h-20.988v21.273z" fill="#F8D076"/></svg>