<svg width="1059" height="210" viewBox="0 0 1059 210" fill="none" xmlns="http://www.w3.org/2000/svg"><rect width="1059" height="210" rx="10" fill="#000"/><mask id="a" maskUnits="userSpaceOnUse" x="0" y="0" width="1059" height="210"><rect width="1059" height="210" rx="10" fill="#7159FF"/></mask><g style="mix-blend-mode:lighten" opacity=".1" mask="url(#a)"><path d="M765.692-111.356V56.575l-30.701-11.39v-167.928l30.701 11.387z" fill="#C3C3C3"/><path d="M734.991-122.743V45.185l-30.698 11.39v-167.931l30.698-11.387z" fill="#E3E3E3"/><path d="M734.991-60.907v167.931l-52.597-19.53V-80.435l52.597 19.528z" fill="#C3C3C3"/><path d="M787.592-80.435V87.494l-52.601 19.53v-167.93l52.601-19.529z" fill="#E3E3E3"/><path d="M629.411-111.356V56.575l-30.698-11.39v-167.928l30.698 11.387z" fill="#C3C3C3"/><path d="M598.713-122.743V45.185l-30.697 11.39v-167.931l30.697-11.387z" fill="#E3E3E3"/><path d="M598.714-60.907v167.931l-52.598-19.53V-80.435l52.598 19.528z" fill="#C3C3C3"/><path d="M651.311-80.435V87.494l-52.598 19.53v-167.93l52.598-19.529z" fill="#E3E3E3"/><path d="M1038.25-111.356V56.575l-30.7-11.39v-167.928l30.7 11.387z" fill="#C3C3C3"/><path d="M1007.55-122.743V45.185l-30.702 11.39v-167.931l30.702-11.387z" fill="#E3E3E3"/><path d="M1007.55-60.907v167.931l-52.599-19.53V-80.435l52.599 19.528z" fill="#C3C3C3"/><path d="M1060.15-80.435V87.494l-52.6 19.53v-167.93l52.6-19.529z" fill="#E3E3E3"/><path d="M901.969-111.356V56.575l-30.698-11.39v-167.928l30.698 11.387z" fill="#C3C3C3"/><path d="M871.27-122.743V45.185l-30.7 11.39v-167.931l30.7-11.387z" fill="#E3E3E3"/><path d="M871.271-60.907v167.931l-52.601-19.53V-80.435l52.601 19.528z" fill="#C3C3C3"/><path d="M923.869-80.435V87.494l-52.598 19.53v-167.93l52.598-19.529z" fill="#E3E3E3"/><path d="M493.133-111.356V56.575l-30.697-11.39v-167.928l30.697 11.387z" fill="#C3C3C3"/><path d="M462.435-122.743V45.185l-30.701 11.39v-167.931l30.701-11.387z" fill="#E3E3E3"/><path d="M462.436-60.907v167.931l-52.601-19.53V-80.435l52.601 19.528z" fill="#C3C3C3"/><path d="M515.033-80.435V87.494l-52.597 19.53v-167.93l52.597-19.529z" fill="#E3E3E3"/><path d="M356.857-111.356V56.575l-30.701-11.39v-167.928l30.701 11.387z" fill="#C3C3C3"/><path d="M326.155-122.743V45.185l-30.697 11.39v-167.931l30.697-11.387z" fill="#E3E3E3"/><path d="M326.156-60.907v167.931l-52.598-19.53V-80.435l52.598 19.528z" fill="#C3C3C3"/><path d="M378.757-80.435V87.494l-52.601 19.53v-167.93l52.601-19.529z" fill="#E3E3E3"/><path d="M220.576-111.356V56.575l-30.698-11.39v-167.928l30.698 11.387z" fill="#C3C3C3"/><path d="M189.877-122.743V45.185l-30.697 11.39v-167.931l30.697-11.387z" fill="#E3E3E3"/><path d="M189.878-60.907v167.931l-52.598-19.53V-80.435l52.598 19.528z" fill="#C3C3C3"/><path d="M242.476-80.435V87.494l-52.598 19.53v-167.93l52.598-19.529z" fill="#E3E3E3"/><path d="M84.298-111.356V56.575l-30.697-11.39v-167.928l30.697 11.387z" fill="#C3C3C3"/><path d="M53.601-122.743V45.185l-30.7 11.39v-167.931l30.7-11.387z" fill="#E3E3E3"/><path d="M53.6-60.907v167.931L1 87.494V-80.435l52.6 19.528z" fill="#C3C3C3"/><path d="M106.198-80.435V87.494l-52.597 19.53v-167.93l52.597-19.529z" fill="#E3E3E3"/><path d="M834.022-33.258V134.67l-30.7-11.387V-44.648l30.7 11.39z" fill="#C3C3C3"/><path d="M803.322-44.648v167.931l-30.698 11.387V-33.258l30.698-11.39z" fill="#E3E3E3"/><path d="M803.322 17.189v167.928l-52.598-19.528V-2.341l52.598 19.53z" fill="#C3C3C3"/><path d="M855.92-2.342V165.59l-52.598 19.528V17.189l52.598-19.53z" fill="#E3E3E3"/><path d="M855.921-2.342l-52.598 19.53-52.598-19.53v-39.046l52.598-19.53 52.598 19.53v39.046zm-83.284-8.14L803.335.93l30.697-11.413V-33.26l-30.7-11.387-30.707 11.387v22.777" fill="#fff"/><path d="M697.743-33.258V134.67l-30.698-11.387V-44.648l30.698 11.39z" fill="#C3C3C3"/><path d="M667.044-44.648v167.931l-30.7 11.387V-33.258l30.7-11.39z" fill="#E3E3E3"/><path d="M667.045 17.189v167.928l-52.601-19.528V-2.341l52.601 19.53z" fill="#C3C3C3"/><path d="M719.643-2.342V165.59l-52.598 19.528V17.189l52.598-19.53z" fill="#E3E3E3"/><path d="M719.643-2.342l-52.597 19.53-52.601-19.53v-39.046l52.601-19.53 52.597 19.53v39.046zm-83.283-8.14L667.06.93l30.698-11.413V-33.26L667.06-44.646l-30.7 11.387v22.777z" fill="#fff"/><path d="M561.464-33.258V134.67l-30.701-11.387V-44.648l30.701 11.39z" fill="#C3C3C3"/><path d="M530.764-44.648v167.931l-30.698 11.387V-33.258l30.698-11.39z" fill="#E3E3E3"/><path d="M530.764 17.189v167.928l-52.598-19.528V-2.341l52.598 19.53z" fill="#C3C3C3"/><path d="M583.364-2.342V165.59l-52.601 19.528V17.189l52.601-19.53z" fill="#E3E3E3"/><path d="M583.366-2.342l-52.601 19.53-52.598-19.53v-39.046l52.598-19.53 52.601 19.53v39.046zm-83.284-8.14L530.779.93l30.701-11.413V-33.26l-30.701-11.387-30.697 11.387v22.777z" fill="#fff"/><path d="M425.186-33.258V134.67l-30.7-11.387V-44.648l30.7 11.39z" fill="#C3C3C3"/><path d="M394.486-44.648v167.931l-30.697 11.387V-33.258l30.697-11.39z" fill="#E3E3E3"/><path d="M394.486 17.189v167.928l-52.598-19.528V-2.341l52.598 19.53z" fill="#C3C3C3"/><path d="M447.084-2.342V165.59l-52.598 19.528V17.189l52.598-19.53z" fill="#E3E3E3"/><path d="M447.084-2.342l-52.598 19.53-52.597-19.53v-39.046l52.597-19.53 52.598 19.53v39.046zm-83.283-8.14L394.498.93l30.701-11.413V-33.26l-30.701-11.387-30.697 11.387v22.777z" fill="#fff"/><path d="M288.906-33.258V134.67l-30.698-11.387V-44.648l30.698 11.39z" fill="#C3C3C3"/><path d="M258.208-44.648v167.931l-30.7 11.387V-33.258l30.7-11.39z" fill="#E3E3E3"/><path d="M258.209 17.189v167.928l-52.601-19.528V-2.341l52.601 19.53z" fill="#C3C3C3"/><path d="M310.806-2.342V165.59l-52.598 19.528V17.189l52.598-19.53z" fill="#E3E3E3"/><path d="M310.808-2.342l-52.598 19.53-52.601-19.53v-39.046l52.601-19.53 52.598 19.53v39.046zm-83.284-8.14L258.225.93l30.697-11.413V-33.26L258.21-44.646 227.509-33.26v22.777" fill="#fff"/><path d="M152.629-33.258V134.67l-30.7-11.387V-44.648l30.7 11.39z" fill="#C3C3C3"/><path d="M121.929-44.648v167.931L91.231 134.67V-33.258l30.698-11.39z" fill="#E3E3E3"/><path d="M121.929 17.189v167.928l-52.598-19.528V-2.341l52.598 19.53z" fill="#C3C3C3"/><path d="M174.529-2.342V165.59l-52.6 19.528V17.189l52.6-19.53z" fill="#E3E3E3"/><path d="M174.53-2.342l-52.601 19.53-52.597-19.53v-39.046l52.597-19.53 52.601 19.53v39.046zm-83.307-8.14L121.92.93l30.709-11.413V-33.26l-30.701-11.387L91.223-33.26v22.777z" fill="#fff"/><path d="M765.692 39.304v167.932l-30.701-11.39V27.917l30.701 11.387z" fill="#C3C3C3"/><path d="M734.991 27.918v167.928l-30.698 11.39V39.305l30.698-11.387z" fill="#E3E3E3"/><path d="M734.991 89.752v167.931l-52.597-19.53V70.225l52.597 19.527z" fill="#C3C3C3"/><path d="M787.592 70.225v167.928l-52.601 19.53V89.753l52.601-19.528z" fill="#E3E3E3"/><path d="M787.593 70.224l-52.601 19.528-52.598-19.528V31.19l52.598-19.53 52.601 19.53v39.035zm-83.284-8.143l30.698 11.413 30.697-11.413V39.304l-30.7-11.387-30.698 11.387V62.08" fill="#fff"/><path d="M629.411 39.303v167.932l-30.698-11.39V27.917l30.698 11.386z" fill="#C3C3C3"/><path d="M598.713 27.916v167.929l-30.697 11.39V39.303l30.697-11.386z" fill="#E3E3E3"/><path d="M598.714 89.751v167.931l-52.598-19.53V70.224l52.598 19.527z" fill="#C3C3C3"/><path d="M651.311 70.224v167.928l-52.598 19.53V89.752l52.598-19.528z" fill="#E3E3E3"/><path d="M651.311 70.224l-52.597 19.528-52.598-19.528V31.19l52.598-19.53 52.597 19.53v39.035zm-83.283-8.143l30.697 11.413 30.698-11.413V39.304l-30.698-11.387-30.697 11.387V62.08z" fill="#fff"/><path d="M970.3-33.258V134.67l-30.7-11.387V-44.648l30.7 11.39z" fill="#C3C3C3"/><path d="M939.6-44.648v167.931l-30.698 11.387V-33.258l30.698-11.39z" fill="#E3E3E3"/><path d="M939.6 17.189v167.928l-52.598-19.528V-2.341l52.598 19.53z" fill="#C3C3C3"/><path d="M992.2-2.342V165.59l-52.6 19.528V17.189l52.6-19.53z" fill="#E3E3E3"/><path d="M992.201-2.342l-52.598 19.53-52.598-19.53v-39.046l52.598-19.52 52.598 19.52v39.046zm-83.298-8.14L939.603.93l30.701-11.413V-33.26l-30.701-11.387-30.697 11.387v22.777" fill="#fff"/><path d="M1038.25 39.303v167.932l-30.7-11.39V27.917l30.7 11.386z" fill="#C3C3C3"/><path d="M1007.55 27.916v167.929l-30.702 11.39V39.303l30.702-11.386z" fill="#E3E3E3"/><path d="M1007.55 89.751v167.931l-52.599-19.53V70.224l52.599 19.527z" fill="#C3C3C3"/><path d="M1060.15 70.224v167.928l-52.6 19.53V89.752l52.6-19.528z" fill="#E3E3E3"/><path d="M1060.15 70.224l-52.6 19.528-52.598-19.528V31.19l52.598-19.53 52.6 19.53v39.035zm-83.286-8.143l30.696 11.413 30.7-11.413V39.304l-30.71-11.387-30.704 11.387V62.08" fill="#fff"/><path d="M901.969 39.303v167.932l-30.698-11.39V27.917l30.698 11.386z" fill="#C3C3C3"/><path d="M871.27 27.916v167.929l-30.7 11.39V39.303l30.7-11.386z" fill="#E3E3E3"/><path d="M871.271 89.751v167.931l-52.601-19.53V70.224l52.601 19.527z" fill="#C3C3C3"/><path d="M923.869 70.224v167.928l-52.598 19.53V89.752l52.598-19.528z" fill="#E3E3E3"/><path d="M923.87 70.224l-52.595 19.528-52.604-19.528V31.19l52.604-19.53 52.598 19.53-.003 39.035zm-83.284-8.143l30.689 11.413 30.698-11.413V39.304l-30.698-11.387-30.704 11.387V62.08" fill="#fff"/><path d="M493.133 39.303v167.932l-30.697-11.39V27.917l30.697 11.386z" fill="#C3C3C3"/><path d="M462.435 27.916v167.929l-30.701 11.39V39.303l30.701-11.386z" fill="#E3E3E3"/><path d="M462.436 89.751v167.931l-52.601-19.53V70.224l52.601 19.527z" fill="#C3C3C3"/><path d="M515.033 70.224v167.928l-52.597 19.53V89.752l52.597-19.528z" fill="#E3E3E3"/><path d="M515.034 70.224l-52.597 19.528-52.601-19.528V31.19l52.601-19.53 52.597 19.53v39.035zm-83.283-8.143l30.7 11.413 30.698-11.413V39.304l-30.698-11.387-30.7 11.387V62.08z" fill="#fff"/><path d="M356.857 39.303v167.932l-30.701-11.39V27.917l30.701 11.386z" fill="#C3C3C3"/><path d="M326.155 27.916v167.929l-30.697 11.39V39.303l30.697-11.386z" fill="#E3E3E3"/><path d="M326.156 89.751v167.931l-52.598-19.53V70.224l52.598 19.527z" fill="#C3C3C3"/><path d="M378.757 70.224v167.928l-52.601 19.53V89.752l52.601-19.528z" fill="#E3E3E3"/><path d="M378.757 70.224l-52.601 19.528-52.598-19.528V31.19l52.598-19.53 52.601 19.53v39.035zm-83.284-8.143l30.698 11.413 30.7-11.413V39.304l-30.7-11.387-30.698 11.387V62.08z" fill="#fff"/><path d="M220.576 39.303v167.932l-30.698-11.39V27.917l30.698 11.386z" fill="#C3C3C3"/><path d="M189.877 27.916v167.929l-30.697 11.39V39.303l30.697-11.386z" fill="#E3E3E3"/><path d="M189.878 89.751v167.931l-52.598-19.53V70.224l52.598 19.527z" fill="#C3C3C3"/><path d="M242.476 70.224v167.928l-52.598 19.53V89.752l52.598-19.528z" fill="#E3E3E3"/><path d="M242.477 70.224l-52.598 19.528-52.598-19.528V31.19l52.598-19.53 52.598 19.53v39.035zm-83.284-8.143l30.701 11.413 30.683-11.413V39.304l-30.698-11.387-30.701 11.387V62.08" fill="#fff"/><path d="M84.298 39.303v167.932l-30.697-11.39V27.917l30.697 11.386z" fill="#C3C3C3"/><path d="M53.601 27.916v167.929l-30.7 11.39V39.303l30.7-11.386z" fill="#E3E3E3"/><path d="M53.6 89.751v167.931L1 238.152V70.224L53.6 89.75z" fill="#C3C3C3"/><path d="M106.198 70.224v167.928l-52.597 19.53V89.752l52.597-19.528z" fill="#E3E3E3"/><path d="M106.199 70.224L53.601 89.752 1 70.224V31.19l52.6-19.53 52.599 19.53v39.035zm-83.305-8.143l30.7 11.413 30.699-11.413V39.304L53.6 27.917 22.894 39.304V62.08z" fill="#fff"/><path d="M834.022 117.399v167.928l-30.7-11.387V106.009l30.7 11.39z" fill="#C3C3C3"/><path d="M803.322 106.009V273.94l-30.698 11.387V117.399l30.698-11.39z" fill="#E3E3E3"/><path d="M803.322 167.847v167.928l-52.598-19.527V148.316l52.598 19.531z" fill="#C3C3C3"/><path d="M855.92 148.316v167.932l-52.598 19.527V167.847l52.598-19.531z" fill="#E3E3E3"/><path d="M855.921 148.317l-52.598 19.531-52.598-19.531v-39.035l52.598-19.53 52.598 19.53v39.035zm-83.284-8.141l30.698 11.414 30.697-11.414v-22.777l-30.7-11.387-30.707 11.387v22.777" fill="#fff"/><path d="M697.743 117.399v167.928l-30.698-11.387V106.009l30.698 11.39z" fill="#C3C3C3"/><path d="M667.044 106.009V273.94l-30.7 11.387V117.399l30.7-11.39z" fill="#E3E3E3"/><path d="M667.045 167.847v167.928l-52.601-19.527V148.316l52.601 19.531z" fill="#C3C3C3"/><path d="M719.643 148.316v167.932l-52.598 19.527V167.847l52.598-19.531z" fill="#E3E3E3"/><path d="M719.643 148.317l-52.597 19.531-52.601-19.531v-39.035l52.601-19.53 52.597 19.53v39.035zm-83.283-8.141l30.7 11.414 30.698-11.414v-22.777l-30.698-11.387-30.7 11.387v22.777z" fill="#fff"/><path d="M561.464 117.399v167.928l-30.701-11.387V106.009l30.701 11.39z" fill="#C3C3C3"/><path d="M530.764 106.009V273.94l-30.698 11.387V117.399l30.698-11.39z" fill="#E3E3E3"/><path d="M530.764 167.847v167.928l-52.598-19.527V148.316l52.598 19.531z" fill="#C3C3C3"/><path d="M583.364 148.316v167.932l-52.601 19.527V167.847l52.601-19.531z" fill="#E3E3E3"/><path d="M583.366 148.317l-52.601 19.531-52.598-19.531v-39.035l52.598-19.53 52.601 19.53v39.035zm-83.284-8.141l30.697 11.414 30.701-11.414v-22.777l-30.701-11.387-30.697 11.387v22.777z" fill="#fff"/><path d="M425.186 117.399v167.928l-30.7-11.387V106.009l30.7 11.39z" fill="#C3C3C3"/><path d="M394.486 106.009V273.94l-30.697 11.387V117.399l30.697-11.39z" fill="#E3E3E3"/><path d="M394.486 167.847v167.928l-52.598-19.527V148.316l52.598 19.531z" fill="#C3C3C3"/><path d="M447.084 148.316v167.932l-52.598 19.527V167.847l52.598-19.531z" fill="#E3E3E3"/><path d="M447.084 148.317l-52.598 19.531-52.597-19.531v-39.035l52.597-19.53 52.598 19.53v39.035zm-83.283-8.141l30.697 11.414 30.701-11.414v-22.777l-30.701-11.387-30.697 11.387v22.777z" fill="#fff"/><path d="M288.906 117.399v167.928l-30.698-11.387V106.009l30.698 11.39z" fill="#C3C3C3"/><path d="M258.208 106.009V273.94l-30.7 11.387V117.399l30.7-11.39z" fill="#E3E3E3"/><path d="M258.209 167.847v167.928l-52.601-19.527V148.316l52.601 19.531z" fill="#C3C3C3"/><path d="M310.806 148.316v167.932l-52.598 19.527V167.847l52.598-19.531z" fill="#E3E3E3"/><path d="M310.808 148.317l-52.598 19.531-52.601-19.531v-39.035l52.601-19.53 52.598 19.53v39.035zm-83.284-8.141l30.701 11.414 30.697-11.414v-22.777l-30.712-11.387-30.701 11.387v22.777" fill="#fff"/><path d="M152.629 117.399v167.928l-30.7-11.387V106.009l30.7 11.39z" fill="#C3C3C3"/><path d="M121.929 106.009V273.94l-30.698 11.387V117.399l30.698-11.39z" fill="#E3E3E3"/><path d="M121.929 167.847v167.928l-52.598-19.527V148.316l52.598 19.531z" fill="#C3C3C3"/><path d="M174.529 148.316v167.932l-52.6 19.527V167.847l52.6-19.531z" fill="#E3E3E3"/><path d="M174.53 148.317l-52.601 19.531-52.597-19.531v-39.035l52.597-19.53 52.601 19.53v39.035zm-83.307-8.141l30.698 11.414 30.709-11.414v-22.777l-30.701-11.387-30.706 11.387v22.777z" fill="#fff"/><path d="M765.692 189.961v167.931l-30.701-11.39V178.574l30.701 11.387z" fill="#C3C3C3"/><path d="M734.991 178.574v167.928l-30.698 11.39V189.961l30.698-11.387z" fill="#E3E3E3"/><path d="M787.593 220.883l-52.601 19.528-52.598-19.528v-39.035l52.598-19.531 52.601 19.531v39.035zm-83.284-8.144l30.698 11.414 30.697-11.414v-22.777l-30.7-11.387-30.698 11.387v22.777" fill="#fff"/><path d="M629.411 189.962v167.931l-30.698-11.39V178.575l30.698 11.387z" fill="#C3C3C3"/><path d="M598.713 178.575v167.928l-30.697 11.39V189.962l30.697-11.387z" fill="#E3E3E3"/><path d="M651.311 220.884l-52.597 19.528-52.598-19.528v-39.035l52.598-19.531 52.597 19.531v39.035zm-83.283-8.144l30.697 11.414 30.698-11.414v-22.777l-30.698-11.387-30.697 11.387v22.777z" fill="#fff"/><path d="M970.3 117.399v167.928l-30.7-11.387V106.009l30.7 11.39z" fill="#C3C3C3"/><path d="M939.6 106.009V273.94l-30.698 11.387V117.399l30.698-11.39z" fill="#E3E3E3"/><path d="M939.6 167.847v167.928l-52.598-19.527V148.316l52.598 19.531z" fill="#C3C3C3"/><path d="M992.2 148.316v167.932l-52.6 19.527V167.847l52.6-19.531z" fill="#E3E3E3"/><path d="M992.201 148.317l-52.598 19.531-52.598-19.531v-39.035l52.598-19.53 52.601 19.53-.003 39.035zm-83.298-8.141l30.7 11.414 30.701-11.414v-22.777l-30.701-11.387-30.697 11.387v22.777" fill="#fff"/><path d="M1038.25 189.962v167.931l-30.7-11.39V178.575l30.7 11.387z" fill="#C3C3C3"/><path d="M1007.55 178.575v167.928l-30.702 11.39V189.962l30.702-11.387z" fill="#E3E3E3"/><path d="M1060.15 220.884l-52.6 19.528-52.598-19.528v-39.035l52.598-19.531 52.6 19.531v39.035zm-83.286-8.144l30.696 11.414 30.7-11.414v-22.777l-30.7-11.387-30.714 11.387v22.777" fill="#fff"/><path d="M901.969 189.962v167.931l-30.698-11.39V178.575l30.698 11.387z" fill="#C3C3C3"/><path d="M871.27 178.575v167.928l-30.7 11.39V189.962l30.7-11.387z" fill="#E3E3E3"/><path d="M923.869 220.884l-52.595 19.528-52.601-19.528v-39.035l52.601-19.531 52.598 19.531-.003 39.035zm-83.284-8.144l30.689 11.414 30.698-11.414v-22.777l-30.698-11.387-30.7 11.387v22.777" fill="#fff"/><path d="M493.133 189.962v167.931l-30.697-11.39V178.575l30.697 11.387z" fill="#C3C3C3"/><path d="M462.435 178.575v167.928l-30.701 11.39V189.962l30.701-11.387z" fill="#E3E3E3"/><path d="M515.034 220.884l-52.597 19.528-52.601-19.528v-39.035l52.601-19.531 52.597 19.531v39.035zm-83.283-8.144l30.7 11.414 30.698-11.414v-22.777l-30.698-11.387-30.7 11.387v22.777z" fill="#fff"/><path d="M356.857 189.962v167.931l-30.701-11.39V178.575l30.701 11.387z" fill="#C3C3C3"/><path d="M326.155 178.575v167.928l-30.697 11.39V189.962l30.697-11.387z" fill="#E3E3E3"/><path d="M378.757 220.884l-52.601 19.528-52.598-19.528v-39.035l52.598-19.531 52.601 19.531v39.035zm-83.284-8.144l30.698 11.414 30.7-11.414v-22.777l-30.7-11.387-30.698 11.387v22.777z" fill="#fff"/><path d="M220.576 189.962v167.931l-30.698-11.39V178.575l30.698 11.387z" fill="#C3C3C3"/><path d="M189.877 178.575v167.928l-30.697 11.39V189.962l30.697-11.387z" fill="#E3E3E3"/><path d="M242.477 220.884l-52.598 19.528-52.598-19.528v-39.035l52.598-19.531 52.598 19.531v39.035zm-83.284-8.144l30.701 11.414 30.697-11.414v-22.777l-30.697-11.387-30.701 11.387v22.777z" fill="#fff"/><path d="M84.298 189.962v167.931l-30.697-11.39V178.575l30.697 11.387z" fill="#C3C3C3"/><path d="M53.601 178.575v167.928l-30.7 11.39V189.962l30.7-11.387z" fill="#E3E3E3"/><path d="M106.199 220.884l-52.598 19.528L1 220.884v-39.035l52.6-19.531 52.599 19.531v39.035zm-83.284-8.144l30.7 11.414 30.698-11.414v-22.777l-30.698-11.387-30.72 11.387v22.777" fill="#fff"/></g></svg>