<svg width="473" height="527" viewBox="0 0 473 527" fill="none" xmlns="http://www.w3.org/2000/svg"><path d="M427.842 340.551h-12.231v12.016h12.231v-12.016z" fill="#7543B8" fill-opacity=".32"/><path d="M252.423 228.717h-11.042v10.848h11.042v-10.848zM366.347 257.764h-9.258v9.096h9.258v-9.096z" fill="#F8F3FF"/><path d="M472.793 264.081H443.32v28.956h29.473v-28.956z" fill="#7543B8" fill-opacity=".32"/><path d="M353.357 331.058h-24.971v24.533h24.971v-24.533z" fill="#F8F3FF"/><path d="M247.498 264.081h-17.157v16.856h17.157v-16.856z" fill="#7543B8" fill-opacity=".8"/><path d="M182.802 210h-6.455v6.342h6.455V210z" fill="#fff" fill-opacity=".9"/><path d="M216.272 303.058h-24.886v24.45h24.886v-24.45z" fill="#fff"/><path d="M127.634 274.404h-19.281v18.942h19.281v-18.942zM172.629 243.452h-19.28v18.942h19.28v-18.942z" fill="#7543B8" fill-opacity=".32"/><path d="M57.838 268.002h-5.522v5.521h5.522v-5.521zM385.726 88.173h-4.332v4.332h4.332v-4.332zM394.475 207.096h-3.058v3.058h3.058v-3.058zM314.712 38.99h-6.371v6.371h6.371v-6.37zM365.254 203.698h-8.494v8.495h8.494v-8.495z" fill="#7543B8"/><path d="M326.52 171.844h-12.232v12.232h12.232v-12.232zM279.46 90.891h-9.259v9.259h9.259v-9.259zM188.568 6.03h-23.02v23.02h23.02V6.03zM153.486 0h-11.043v11.043h11.043V0zM180.074 521.139h-5.861V527h5.861v-5.861z" fill="#1AD5FF"/><path d="M231.721 489.2h-2.719v2.718h2.719V489.2z" fill="#7543B8"/><path d="M278.271 442.564h-6.881v6.881h6.881v-6.881z" fill="#1AD5FF"/><path d="M304.349 238.101h-2.718v2.718h2.718v-2.718zM294.41 171.929h-13.846v13.847h13.846v-13.847zM15.96 17.754H.67v15.29h15.29v-15.29zM308.681 266.983h-7.56v7.56h7.56v-7.56zM219.998 122.916h-4.077v4.077h4.077v-4.077z" fill="#7543B8"/><path d="M199.781 97.857h-9.769v9.769h9.769v-9.77z" fill="#1AD5FF"/><path d="M27.937 43.322H2.963v24.974h24.974V43.322z" fill="#7543B8"/><path d="M247.436 231.476h-15.29v15.29h15.29v-15.29z" fill="#1AD5FF"/><path d="M180.923 128.097h-4.077v4.078h4.077v-4.078z" fill="#7543B8"/><path d="M215.581 373.759h-29.476v29.476h29.476v-29.476zM134.889 117H110v24.889h24.889V117zM208.53 322.452h-19.877v19.877h19.877v-19.877z" fill="#1AD5FF"/><path d="M219.743 262.311h-16.989V279.3h16.989v-16.989zM179.309 236.488h-6.455v6.456h6.455v-6.456z" fill="#7543B8"/><path d="M173.193 202.085h-17.159v17.159h17.159v-17.159zM152.466 179.064h-12.487v12.487h12.487v-12.487z" fill="#1AD5FF"/><path d="M125.115 162.245h-6.116v6.116h6.116v-6.116zM96.573 149.079h-5.776v5.776h5.776v-5.776zM178.035 299.941h-3.907v3.908h3.907v-3.908z" fill="#7543B8"/><path d="M153.911 227.908H132.25v21.661h21.661v-21.661z" fill="#1AD5FF"/><path d="M74.402 175.582h-5.946v5.946h5.946v-5.946zM151.872 267.662h-6.201v6.201h6.201v-6.201zM58.517 204.888h-6.88v6.881h6.88v-6.881zM27.088 213.467h-6.456v6.456h6.456v-6.456zM118.998 269.446h-2.803v2.803h2.803v-2.803zM96.063 261.207H76.781v19.282h19.282v-19.282z" fill="#7543B8"/></svg>