<svg width="41" height="37" viewBox="0 0 41 37" fill="none" xmlns="http://www.w3.org/2000/svg"><path d="M1.472 35.694a.368.368 0 01-.368-.367V5.52h37.534v29.807a.368.368 0 01-.368.367H1.472z" fill="#12596B"/><path d="M37.534 6.623V34.59H2.208V6.623h35.326zm2.208-2.207H0v30.91c0 .813.659 1.472 1.472 1.472H38.27c.813 0 1.472-.66 1.472-1.472V4.416z" fill="#21708D"/><path d="M0 7.36V1.472C0 .659.659 0 1.472 0H38.27c.813 0 1.472.659 1.472 1.472V7.36H0z" fill="#fff"/><path d="M3.68 5.151a1.472 1.472 0 100-2.943 1.472 1.472 0 000 2.943zM8.096 5.151a1.472 1.472 0 100-2.943 1.472 1.472 0 000 2.943zM12.511 5.151a1.472 1.472 0 100-2.943 1.472 1.472 0 000 2.943z" fill="#1BD2FC"/><path d="M24.287 13.983h-8.832v1.472h8.832v-1.472zM25.759 18.398H5.888v1.472h19.87v-1.472zM21.343 22.814H5.888v1.472h15.455v-1.472zM24.287 27.23h-18.4v1.472h18.4V27.23zM40.57 16.666l-2.079 2.078-5.196-5.196 2.078-2.079a1.47 1.47 0 012.078 0l3.118 3.119a1.47 1.47 0 010 2.078zM38.49 18.747l-8.92 8.92-3.128-2.075-2.07-3.123 8.92-8.92 5.198 5.198z" fill="#1AD4FF"/><path d="M26.963 25.072l2.608 2.595-6.756 1.553 1.557-6.751 2.591 2.603z" fill="#5BE0FF"/></svg>