<svg width="42" height="33" viewBox="0 0 42 33" fill="none" xmlns="http://www.w3.org/2000/svg"><path d="M24.21 17.904L41 23.494a1.48 1.48 0 010 2.8l-16.79 5.58a10.15 10.15 0 01-6.41 0L1 26.294a1.48 1.48 0 010-2.8l16.77-5.58a10.15 10.15 0 016.44-.01z" fill="#8F48BE"/><path d="M24.21 17.904a10.15 10.15 0 00-6.41 0l-11.71 3.9 13.8 4.59a3.53 3.53 0 002.23 0l13.8-4.59-11.71-3.9z" fill="#6C3194"/><path d="M24.21 9.215L41 14.795a1.48 1.48 0 010 2.8l-18.89 6.29a3.53 3.53 0 01-2.23 0L1 17.605a1.48 1.48 0 010-2.8l16.77-5.58a10.15 10.15 0 016.44-.01z" fill="#4AD274"/><path d="M17.79 9.214l-11.24 3.74 13.34 4.44a3.53 3.53 0 002.23 0l13.33-4.44-11.24-3.74a10.15 10.15 0 00-6.42 0z" fill="#28BE56"/><path d="M24.21 17.904a10.15 10.15 0 00-6.41 0l-7.93 2.64 10 3.34a3.53 3.53 0 002.23 0l10-3.34-7.89-2.64z" fill="#28BE56"/><path d="M24.21.524L41 6.104a1.48 1.48 0 010 2.8l-18.89 6.29a3.53 3.53 0 01-2.23 0L1 8.904a1.48 1.48 0 010-2.8L17.77.524c2.09-.699 4.35-.699 6.44 0z" fill="#1AD4FF"/><path opacity=".2" d="M17.79 9.215l-7.93 2.64 10 3.34a3.53 3.53 0 002.23 0l10-3.34-7.93-2.64a10.15 10.15 0 00-6.37 0z" fill="#4AD274"/></svg>