<svg width="40" height="36" viewBox="0 0 40 36" fill="none" xmlns="http://www.w3.org/2000/svg"><path d="M33.513 19.786l.04-16.555c.91-.383 2.242.02 2.908.93.484.645.767 1.432.787 2.24 0 5.713.02 11.427-.02 17.16-.02 1.958-1.433 3.331-3.412 3.371-2.12.04-4.24 0-6.36 0-7.267 0-14.535-.06-21.782.02-2.604.04-4.22-1.433-4.159-4.199.101-5.41.02-10.82.04-16.23 0-1.697.768-2.807 2.241-3.352.424-.162.848-.283 1.232.06.02 4.906.02 9.832.04 14.738 0 .605.02 1.211.02 1.817.909.666 2.02.585 3.069.686 4.926.444 9.872.565 14.818.404 3.25-.08 6.52-.182 9.73-.767.283-.02.566-.142.808-.323z" fill="#12596B"/><path d="M33.09 16.98c.12 2.422.12 2.422-2.302 2.422-8.116 0-16.211-.02-24.327.02-.848 0-1.05-.181-1.03-1.03.04-5.813.04-11.648 0-17.462 0-.747.182-.949.93-.929 5.147.04 10.295.04 15.443.06.323.364.141.768.04 1.152a497.86 497.86 0 01-2.1 7.853c-.524 1.817-1.07 3.614-1.493 5.45-.06.263-.121.525-.141.788-.122 1.17.06 1.373 1.231 1.373 4.078.02 8.136 0 12.214 0 .525 0 1.09-.101 1.534.303z" fill="#1AD4FF"/><path d="M19.604 8.904c.727-2.786 1.433-5.571 2.16-8.357.04-.162.06-.323.06-.505 3.574 0 7.167-.02 10.74-.04.424 0 .586.12.566.565-.02 3.048-.02 6.097-.04 9.145-.263.262-.586.303-.93.303-3.774.02-7.55.04-11.345-.02-.686 0-1.272-.222-1.211-1.09z" fill="#1AD4FF"/><path d="M33.574 2.505c-.202-.848.141-1.13 1.01-1.09 1.11.06 2.22.02 3.33.02.767 0 1.09.343 1.09 1.09v25.074c0 .827-.343 1.09-1.17 1.09-4.24-.04-8.46-.02-12.699-.02-1.474 0-1.474 0-1.494 1.413-.04 0-.08 0-.1-.02-.485-1.353-1.616-1.09-2.645-1.09h-3.998c-.464 0-.948.04-1.332-.303-4.805 0-9.61-.02-14.414.02-.848 0-1.171-.162-1.151-1.09.04-8.338.04-16.656 0-24.993 0-.929.262-1.272 1.211-1.212.949.06 1.878.06 2.827 0 .847-.06 1.21.222 1.009 1.07-.626.384-1.312.162-1.979.222-.504.061-1.009-.12-1.473.162-.081.08-.142.182-.202.283-.08.302-.121.605-.101.908v21.763c0 .424-.101.888.323 1.211.686.263 1.413.162 2.1.162 10.76.02 21.52.06 32.28-.02 1.373-.02 1.413-.061 1.413-1.434.081-7.167.081-14.334 0-21.48-.02-1.413-.04-1.393-1.493-1.474-.767-.06-1.595.141-2.342-.262z" fill="#21708D"/><path d="M19.604 8.904c.201.646.626.828 1.292.828 4.057-.02 8.136-.02 12.193-.02v7.268c-4.703 0-9.407-.04-14.131.02-1.01.02-1.292-.303-1.191-1.252.161-1.716.726-3.331 1.19-4.966.182-.626.203-1.333.647-1.878z" fill="#1AD4FF"/><path d="M29.9 32.525c.302.565.242 1.21.424 1.816.181.485-.182.586-.505.667-.323.08-.666.1-1.01.08H9.994c-.363.02-.747 0-1.09-.1-.283-.102-.606-.202-.404-.626.222-.586.101-1.252.404-1.817 1.03-.222 2.08-.081 3.109-.101 3.351-.04 6.722-.505 10.054-.202 2.624.222 5.228.04 7.832.283zM33.574 2.505c1.15 0 2.281.04 3.432-.02.626-.02.787.202.787.807-.02 7.833-.02 15.666 0 23.5 0 .484-.06.726-.646.726-11.87-.02-23.741-.02-35.612-.02-.1-.02-.202-.04-.282-.081-.162-.242-.101-.525-.101-.787V3.413c0-.262-.06-.545.1-.787a14.768 14.768 0 013.776 0l.02.202c-.424.323-.969.222-1.433.424-1.272.565-1.959 1.534-1.959 2.907-.02 5.855-.02 11.709 0 17.564a3.056 3.056 0 002.988 3.149h.121c9.751.02 19.502.02 29.253 0a3.12 3.12 0 003.15-3.049v-.08c.02-5.855.02-11.71 0-17.564a3.09 3.09 0 00-2.746-3.109c-.303-.04-.606.02-.868-.202l.02-.363z" fill="#12596B"/><path d="M33.574 2.848c2.301-.263 3.876 1.474 3.836 3.815-.121 5.613-.04 11.225-.04 16.837 0 2.282-1.293 3.574-3.554 3.574H4.967c-2.301 0-3.533-1.252-3.533-3.574V6.461c0-2.382 1.212-3.593 3.594-3.613v.404c-1.958.06-3.19 1.312-3.19 3.23V23.42c0 1.938 1.272 3.23 3.19 3.23h28.748c1.918 0 3.19-1.292 3.19-3.23V6.683c0-2.221-1.192-3.412-3.392-3.432v-.404zM29.9 32.525H8.904c.323-.364.747-.202 1.13-.202 1.474-.02 2.948-.02 4.401 0 .606 0 .909-.182.929-.848.02-.929.121-1.858.182-2.786 2.22 0 4.42.02 6.642-.02.787-.02 1.433.02 1.251 1.09-.02.1.101.222.162.343.08 2.503-.323 2.2 2.2 2.2h3.13c.343.02.706-.1.968.223z" fill="#12596B"/><path d="M5.008 2.646H1.232c1.252-.343 2.544-.08 3.796-.141 0 .04 0 .08-.02.14z" fill="#2D5F8A"/><path d="M11.227 5.208c-.874-.728-1.63-1.368-2.358-1.98-.233-.174-.495-.349-.204-.698.291-.35.495-.204.728-.03l.35.263c3.143 2.445 3.143 2.736-.234 4.948-.29.175-.524.466-.844.088-.378-.437.087-.583.32-.786.67-.553 1.398-1.136 2.242-1.805z" fill="#F1F1F1"/><path d="M15.971 10.156h-2.154c-.262 0-.611.058-.64-.35-.03-.407.291-.407.582-.407h4.6c.261 0 .64-.058.64.35.029.523-.437.407-.728.407-.757.03-1.514 0-2.3 0z" fill="#FEFEFE"/><path d="M1.232 2.646v24.791c-.262-.202-.14-.505-.14-.747V3.413c0-.262-.102-.565.14-.767z" fill="#2D5F8A"/></svg>