<svg width="90" height="85" viewBox="0 0 90 85" fill="none" xmlns="http://www.w3.org/2000/svg"><path d="M70.827 74.233h-5.583v10.314L51.66 74.233H18.722c-2.047 0-3.722-1.6-3.722-3.556v-39.12C15 29.6 16.675 28 18.722 28h52.105c2.047 0 3.722 1.6 3.722 3.556v39.12c0 1.957-1.675 3.557-3.722 3.557z" fill="#2EB67D"/><path d="M3.722 60.458h5.583v10.314l13.584-10.314h32.938c2.047 0 3.722-1.6 3.722-3.556v-39.12c0-1.956-1.675-3.557-3.722-3.557H3.722c-2.047 0-3.722 1.6-3.722 3.557v39.12c0 1.956 1.675 3.556 3.722 3.556z" fill="#5144A3"/><path d="M80.696 45.775h-.459v9.848l-12.849-9.755-.123-.093H34.173c-1.814 0-3.264-1.415-3.264-3.098V3.557c0-1.684 1.45-3.099 3.264-3.099h52.105c1.814 0 3.264 1.415 3.264 3.098v39.12c0 1.684-1.45 3.099-3.264 3.099h-5.582z" fill="#fff" stroke="#000" stroke-width=".917"/><path d="M52.233 25.654c0 1.458-1.245 2.648-2.77 2.648-1.526 0-2.772-1.19-2.772-2.648 0-1.457 1.246-2.648 2.771-2.648h2.771v2.648zM53.634 25.654c0-1.457 1.246-2.648 2.771-2.648 1.526 0 2.771 1.19 2.771 2.648v6.63c0 1.457-1.245 2.648-2.77 2.648-1.526 0-2.772-1.19-2.772-2.648v-6.63z" fill="#E01E5A"/><path d="M56.405 15.01c-1.525 0-2.77-1.19-2.77-2.648 0-1.457 1.245-2.648 2.77-2.648 1.526 0 2.771 1.19 2.771 2.648v2.648h-2.77zM56.4 16.336c1.526 0 2.772 1.19 2.772 2.648 0 1.457-1.246 2.647-2.771 2.647h-6.939c-1.525 0-2.77-1.19-2.77-2.647 0-1.458 1.245-2.648 2.77-2.648h6.939z" fill="#36C5F0"/><path d="M67.531 18.984c0-1.458 1.246-2.648 2.771-2.648s2.771 1.19 2.771 2.648c0 1.457-1.245 2.647-2.77 2.647H67.53v-2.647zM66.131 18.992c0 1.458-1.246 2.648-2.771 2.648s-2.771-1.19-2.771-2.648v-6.63c0-1.457 1.246-2.648 2.77-2.648 1.526 0 2.772 1.19 2.772 2.648v6.63z" fill="#2EB67D"/><path d="M63.36 29.627c1.525 0 2.771 1.191 2.771 2.648 0 1.458-1.246 2.648-2.771 2.648s-2.771-1.19-2.771-2.648v-2.648h2.77zM63.36 28.302c-1.525 0-2.771-1.19-2.771-2.648 0-1.457 1.246-2.647 2.77-2.647h6.94c1.524 0 2.77 1.19 2.77 2.647 0 1.458-1.246 2.648-2.77 2.648h-6.94z" fill="#ECB22E"/></svg>