<svg width="36" height="40" viewBox="0 0 36 40" fill="none" xmlns="http://www.w3.org/2000/svg"><path d="M9.655 0H2.76A2.759 2.759 0 000 2.759V38.62A1.38 1.38 0 001.38 40h9.654a1.38 1.38 0 001.38-1.38V2.76A2.758 2.758 0 009.655 0zM2.76 6.207a.69.69 0 01.69-.69h5.517a.69.69 0 01.69.69v9.655a.69.69 0 01-.69.69H3.448a.69.69 0 01-.69-.69V6.207z" fill="#21708D"/><path d="M22.069 5.517h-6.897a2.759 2.759 0 00-2.758 2.759V38.62A1.38 1.38 0 0013.794 40h9.654a1.38 1.38 0 001.38-1.38V8.276a2.758 2.758 0 00-2.759-2.759zm-6.897 6.207a.69.69 0 01.69-.69h5.517a.69.69 0 01.69.69v9.655a.69.69 0 01-.69.69h-5.517a.69.69 0 01-.69-.69v-9.655z" fill="#12596B"/><path d="M33.103 12.414h-5.517a2.759 2.759 0 00-2.758 2.758V38.62A1.38 1.38 0 0026.207 40h8.276a1.38 1.38 0 001.38-1.38V15.172a2.758 2.758 0 00-2.76-2.758zm-5.517 5.517a.69.69 0 01.69-.69h4.138a.69.69 0 01.69.69v6.896a.69.69 0 01-.69.69h-4.138a.69.69 0 01-.69-.69v-6.896z" fill="#21708D"/><path d="M8.965 5.517H3.448a.69.69 0 00-.69.69v9.655c0 .38.31.69.69.69h5.517a.69.69 0 00.69-.69V6.207a.69.69 0 00-.69-.69zM21.38 11.035h-5.518a.69.69 0 00-.69.69v9.655c0 .38.31.69.69.69h5.517a.69.69 0 00.69-.69v-9.656a.69.69 0 00-.69-.69zM32.414 17.241h-4.138a.69.69 0 00-.69.69v6.896c0 .381.309.69.69.69h4.138a.69.69 0 00.69-.69v-6.896a.69.69 0 00-.69-.69z" fill="#fff"/><path d="M10.345 20H2.069v1.38h8.276V20zM10.345 24.138H2.069v1.379h8.276v-1.38zM22.759 25.517h-8.276v1.38h8.276v-1.38zM22.759 29.655h-8.276v1.38h8.276v-1.38zM33.793 28.965h-6.896v1.38h6.896v-1.38zM33.793 33.103h-6.896v1.38h6.896v-1.38z" fill="#1AD4FF"/></svg>