<svg width="90" height="77" viewBox="0 0 90 77" fill="none" xmlns="http://www.w3.org/2000/svg"><path d="M86.087 7.826H3.913A3.913 3.913 0 000 11.74v60.653a3.913 3.913 0 003.913 3.913h82.174A3.913 3.913 0 0090 72.392V11.74a3.913 3.913 0 00-3.913-3.914z" fill="#39AFFE"/><path d="M9.782 0h27.391a3.913 3.913 0 013.913 3.913v3.913H5.869V3.913A3.913 3.913 0 019.782 0z" fill="#42B2F1"/><path d="M22.525 41.662l9.504-9.505a18.35 18.35 0 0125.954 0l9.504 9.505a1.957 1.957 0 010 2.767l-9.504 9.504a18.352 18.352 0 01-25.954 0l-9.504-9.504a1.957 1.957 0 010-2.767z" fill="#fff"/><path d="M47.445 41.088a5.087 5.087 0 010-5.87.801.801 0 00-.489-1.252 9.314 9.314 0 107.376 9.782.821.821 0 00-1.056-.86 5.107 5.107 0 01-5.83-1.8z" fill="#C3A8E0"/></svg>