<svg width="214" height="233" viewBox="0 0 214 233" fill="none" xmlns="http://www.w3.org/2000/svg"><mask id="a" maskUnits="userSpaceOnUse" x="0" y="0" width="214" height="233"><path fill="url(#paint0_linear)" d="M0 0h213.865v233H0z"/></mask><g mask="url(#a)"><path fill="#1D46BF" d="M103.566 98.216l103.566 59.794-103.566 59.794L0 158.01z"/><path d="M207.21 158.057v-10.465l-12.881 6.708 12.881 3.757zM.047 158.057v-10.465l12.88 6.708-12.88 3.757z" fill="#1D46BF"/><path transform="matrix(.86603 .5 -.86603 .5 103.566 87.797)" fill="url(#paint1_linear)" d="M0 0h119.588v119.588H0z"/><path transform="matrix(.86603 .5 -.86603 .5 103.566 99.289)" fill="url(#paint2_linear)" d="M0 0h96.604v96.604H0z"/><path fill="#1D46BF" d="M103.566 50.94l103.566 59.794-103.566 59.794L0 110.734z"/><path d="M207.21 110.782v-10.466l-12.881 6.709 12.881 3.757zM.047 110.782v-10.466l12.88 6.709-12.88 3.757z" fill="#1D46BF"/><path transform="matrix(.86603 .5 -.86603 .5 103.566 40.522)" fill="url(#paint3_linear)" d="M0 0h119.588v119.588H0z"/><path transform="matrix(.86603 .5 -.86603 .5 103.566 52.013)" fill="url(#paint4_linear)" d="M0 0h96.604v96.604H0z"/><path fill="#1D46BF" d="M103.566 10.418l103.566 59.794-103.566 59.794L0 70.212z"/><path d="M207.21 70.26V59.794l-12.881 6.71 12.881 3.756zM.047 70.26V59.794l12.88 6.71L.048 70.26z" fill="#1D46BF"/><path transform="matrix(.86603 .5 -.86603 .5 103.566 0)" fill="url(#paint5_linear)" d="M0 0h119.588v119.588H0z"/><path transform="matrix(.86603 .5 -.86603 .5 103.566 11.491)" fill="url(#paint6_linear)" d="M0 0h96.604v96.604H0z"/><path d="M138.792 60.565c.924.362 1.663.875 2.116 1.488 2.578 3.57 1.22 7.63-3.447 10.356l-1.322.763c-4.704 2.716-11.727 3.506-17.9 2.012a7.263 7.263 0 01-1.876-.731 4.116 4.116 0 01-1.165-.971c-.111-.15-.471-.166-.628-.032a5.41 5.41 0 01-1.497.875c-10.914 4.39-25.654 3.638-35.062-1.793-9.408-5.431-10.71-13.942-3.105-20.243.416-.347.933-.635 1.516-.864.23-.09.203-.299-.056-.363a7.121 7.121 0 01-1.682-.672c-.527-.304-.952-.667-1.257-1.078-2.578-3.57-1.21-7.624 3.484-10.335l1.322-.763c4.704-2.716 11.727-3.505 17.9-2.011 1.072.256 1.95.688 2.579 1.221.12.102.342.134.517.064 6.257-2.395 14.537-2.32 20.645.288 2.875 1.222 5.037 2.876 6.257 4.776.323.507.832.96 1.478 1.334.647.373 1.433.667 2.311.853 3.281.71 6.145 1.959 8.271 3.613 4.519 3.526 4.648 8.307.499 11.919-.12.101-.074.224.102.294z" fill="#143252"/><path d="M142.191 61.126l-.005-.006-.004-.007a5.26 5.26 0 00-1.062-1.06c1.456-1.745 2.232-3.743 2.153-5.833-.101-2.674-1.587-5.149-4.108-7.117h-.002c-2.354-1.833-5.453-3.163-8.908-3.911l-.006-.001c-.741-.158-1.366-.398-1.848-.676-.488-.282-.782-.575-.936-.815l-.002-.004c-1.445-2.25-3.909-4.075-6.968-5.376-6.326-2.701-14.74-2.841-21.294-.508-.765-.519-1.684-.906-2.697-1.149-6.497-1.571-13.948-.773-19.063 2.18l-1.321.763c-2.566 1.481-4.412 3.438-5.178 5.71-.786 2.333-.355 4.767 1.202 6.923l.006.008.006.008c.35.473.786.875 1.274 1.213-3.79 3.333-5.548 7.39-4.916 11.509.648 4.227 3.748 8.064 8.706 10.926 9.867 5.697 25.12 6.446 36.442 1.891a7.606 7.606 0 001.087-.535c.252.206.527.395.822.565.675.39 1.455.69 2.287.897l.008.001c6.497 1.573 13.95.774 19.065-2.179l1.321-.763.007-.004c2.552-1.49 4.386-3.453 5.144-5.728.778-2.333.345-4.767-1.212-6.922z" stroke="#fff" stroke-opacity=".15" stroke-width="3.166"/><path fill-rule="evenodd" clip-rule="evenodd" d="M120.132 72.51c4.14 1.003 9.075.554 12.439-1.388l1.322-.763c3.363-1.942 4.149-4.796 2.411-7.187-.231-.314-.942-.394-1.358-.154l-15.082 8.707c-.425.246-.277.651.268.785zm-5.628-2.834c3.142-2.134 4.889-4.71 5.24-7.347.046-.304.499-.49 1.017-.426 4.694.597 9.842-.305 13.141-2.71 3.595-2.62 3.715-6.435.277-9.125-1.617-1.253-3.715-2.134-6.007-2.625-1.58-.336-2.966-.859-4.112-1.52-1.155-.667-2.052-1.473-2.634-2.375-.85-1.323-2.366-2.54-4.547-3.468-4.648-1.99-11.265-1.915-15.803.16-4.177 1.91-5.73 4.877-4.694 7.587.11.3-.213.56-.74.587-4.555.209-9.028 1.212-12.725 3.026-.379.186-.416.507-.064.71l15.21 8.782 15.212 8.782c.342.197.915.176 1.229-.038zM78.98 53.926c-6.09 5.053-5.267 12.047 2.542 16.556 7.809 4.508 19.915 4.989 28.676 1.467.434-.176.489-.528.12-.741l-15.027-8.676-15.026-8.675c-.37-.214-.989-.176-1.285.069zm-.96-5.73c.23.314.942.395 1.358.154l15.09-8.712c.426-.246.278-.651-.267-.785-4.15-.998-9.084-.55-12.448 1.393l-1.331.768c-3.355 1.937-4.14 4.791-2.403 7.182zm32.409-3.474l15.711 9.07c.85.491.85 1.291 0 1.782-.851.491-2.237.491-3.087 0l-15.71-9.07c-.851-.49-.851-1.291 0-1.782.85-.49 2.236-.491 3.086 0zm-1.081 11.04c1.016-.587 2.661-.587 3.678 0 1.016.587 1.016 1.537 0 2.124-1.017.586-2.662.586-3.678 0-1.017-.587-1.017-1.537 0-2.124zm-2.329-3.468c-1.017-.587-2.662-.587-3.678 0-1.017.587-1.017 1.537 0 2.124 1.016.587 2.661.587 3.678 0 1.016-.587 1.016-1.537 0-2.124z" fill="#fff"/></g><defs><linearGradient id="paint0_linear" x1="106.932" y1="62.471" x2="106.932" y2="233" gradientUnits="userSpaceOnUse"><stop stop-color="#C4C4C4"/><stop offset="1" stop-color="#C4C4C4" stop-opacity="0"/></linearGradient><linearGradient id="paint1_linear" x1="-4.712" y1="51.469" x2="71.319" y2="135.276" gradientUnits="userSpaceOnUse"><stop stop-color="#42B2F1"/><stop offset="1" stop-color="#2A54D3"/></linearGradient><linearGradient id="paint2_linear" x1="-3.806" y1="41.578" x2="57.612" y2="109.277" gradientUnits="userSpaceOnUse"><stop stop-color="#42B2F1"/><stop offset="1" stop-color="#2A54D3"/></linearGradient><linearGradient id="paint3_linear" x1="-4.712" y1="51.469" x2="71.319" y2="135.276" gradientUnits="userSpaceOnUse"><stop stop-color="#42B2F1"/><stop offset="1" stop-color="#2A54D3"/></linearGradient><linearGradient id="paint4_linear" x1="-3.806" y1="41.578" x2="57.612" y2="109.277" gradientUnits="userSpaceOnUse"><stop stop-color="#42B2F1"/><stop offset="1" stop-color="#2A54D3"/></linearGradient><linearGradient id="paint5_linear" x1="-4.712" y1="51.469" x2="71.319" y2="135.276" gradientUnits="userSpaceOnUse"><stop stop-color="#42B2F1"/><stop offset="1" stop-color="#2A54D3"/></linearGradient><linearGradient id="paint6_linear" x1="-3.806" y1="41.578" x2="57.612" y2="109.277" gradientUnits="userSpaceOnUse"><stop stop-color="#42B2F1"/><stop offset="1" stop-color="#2A54D3"/></linearGradient></defs></svg>