<svg width="52" height="38" viewBox="0 0 52 38" fill="none" xmlns="http://www.w3.org/2000/svg"><path d="M8.829 32.02a.797.797 0 01-.343-.653v-18.9a.797.797 0 01.797-.797h33.472a.797.797 0 01.797.797v18.9a.796.796 0 01-.343.653c-9.798 6.83-24.582 6.834-34.38 0z" fill="#12596B"/><path d="M51.043 10.906L26.338.067a.797.797 0 00-.642 0L.991 10.906a.797.797 0 000 1.466l3.112 1.291v9.615h-.398a.797.797 0 00-.797.797v7.173a.797.797 0 00.797.797h2.438a.797.797 0 00.797-.797v-7.173a.797.797 0 00-.797-.797h-.446v-8.977l20.02 8.232c.193.08.41.08.605 0l24.705-10.16a.797.797 0 00.016-1.467z" fill="#21708D"/></svg>