<svg width="90" height="79" viewBox="0 0 90 79" fill="none" xmlns="http://www.w3.org/2000/svg"><g opacity=".75"><path d="M24.23 0H6.924C5.087 0 3.326.567 2.028 1.577.729 2.587 0 3.957 0 5.385v70c0 .714.365 1.398 1.014 1.903.649.505 1.53.789 2.448.789h24.23c.918 0 1.799-.284 2.448-.789.65-.504 1.014-1.19 1.014-1.903v-70c0-1.428-.73-2.798-2.028-3.808C27.828.567 26.066 0 24.231 0zM6.924 12.115c0-.357.182-.699.507-.951.325-.253.765-.395 1.224-.395H22.5c.459 0 .9.142 1.224.395.324.252.507.594.507.951v18.846c0 .358-.183.7-.507.952-.325.253-.765.395-1.224.395H8.654c-.46 0-.9-.142-1.224-.395-.325-.252-.507-.594-.507-.951V12.114z" fill="#050505"/><path d="M55.384 10.77H38.076c-1.836 0-3.597.567-4.895 1.577-1.298 1.01-2.028 2.38-2.028 3.807v59.23c0 .715.365 1.4 1.014 1.905.65.505 1.53.788 2.448.788h24.23c.919 0 1.8-.283 2.448-.788.65-.505 1.014-1.19 1.014-1.904v-59.23c0-1.429-.73-2.799-2.028-3.808-1.298-1.01-3.059-1.577-4.895-1.577zM38.076 22.885c0-.357.183-.7.507-.952.325-.252.765-.394 1.224-.394h13.846c.46 0 .9.142 1.224.394.325.253.507.595.507.952V41.73c0 .357-.182.7-.507.952s-.765.394-1.224.394H39.807c-.459 0-.9-.142-1.224-.394-.324-.252-.507-.595-.507-.952V22.885z" fill="#858585"/><path d="M83.077 24.23H69.23c-1.836 0-3.597.568-4.896 1.578-1.298 1.01-2.027 2.38-2.027 3.807v45.77c0 .714.364 1.398 1.014 1.903.649.505 1.53.789 2.447.789h20.77c.917 0 1.798-.284 2.447-.789.65-.505 1.014-1.19 1.014-1.903v-45.77c0-1.428-.73-2.797-2.028-3.807-1.298-1.01-3.06-1.577-4.895-1.577zM69.23 35c0-.357.182-.7.507-.952.324-.252.764-.394 1.224-.394h10.384c.46 0 .9.142 1.224.394.325.252.507.595.507.952v13.462c0 .356-.183.699-.507.951-.325.253-.765.395-1.224.395H70.961c-.459 0-.899-.142-1.223-.395-.325-.252-.507-.594-.507-.951V35z" fill="#060606"/><path d="M22.5 10.77H8.654c-.956 0-1.73.602-1.73 1.346v18.846c0 .743.774 1.346 1.73 1.346H22.5c.956 0 1.731-.603 1.731-1.346V12.116c0-.744-.775-1.346-1.73-1.346zM53.654 21.538H39.807c-.955 0-1.73.603-1.73 1.346v18.847c0 .743.775 1.346 1.73 1.346h13.847c.955 0 1.73-.603 1.73-1.346V22.884c0-.743-.775-1.346-1.73-1.346zM81.347 33.654H70.962c-.956 0-1.73.603-1.73 1.346v13.462c0 .743.774 1.346 1.73 1.346h10.385c.956 0 1.73-.603 1.73-1.346V35c0-.743-.774-1.346-1.73-1.346zM25.961 39.039H5.191v2.692h20.77v-2.692zM25.961 47.115H5.191v2.693h20.77v-2.693zM57.116 49.808h-20.77V52.5h20.77v-2.692zM57.116 57.885h-20.77v2.692h20.77v-2.692zM84.808 56.539H67.5v2.692h17.308v-2.692zM84.808 64.615H67.5v2.693h17.308v-2.693z" fill="#fff"/></g></svg>