<svg width="211" height="299" viewBox="0 0 211 299" fill="none" xmlns="http://www.w3.org/2000/svg"><path d="M39.648 221.539L0 198.676l39.648-22.89 39.648 22.89-39.648 22.863z" fill="#606568" opacity=".4"/><path d="M39.65 132.413L.33 109.742v87.948l39.32 22.671v-87.948z" fill="url(#paint0_linear)"/><path d="M39.648 132.413l39.292-22.671v87.948l-39.292 22.671v-87.948z" fill="url(#paint1_linear)"/><path style="mix-blend-mode:multiply" opacity=".2" d="M83.705 105.857H54.9v113.331h28.805V105.857z" fill="url(#paint2_linear)"/><path d="M39.648 132.412L0 109.521l39.648-22.863 39.648 22.863-39.648 22.891z" fill="#321060"/><path d="M19.852 112.48l19.797 11.445 19.796-11.445-19.796-11.418-19.797 11.418z" fill="#256BF4"/><path d="M14.73 109.523l5.12 2.957 19.797-11.418v-5.914L14.73 109.523z" fill="#5C3A8A"/><path d="M64.565 109.523l-5.12 2.957-19.797-11.418v-5.914l24.917 14.375z" fill="#4C297C"/><path d="M18.263 172.063v-2.191a6.136 6.136 0 01-1.287-1.643 3.75 3.75 0 01-.41-1.67 1.37 1.37 0 01.465-1.177 1.175 1.175 0 011.232 0v-.548l.657.383v.521c.47.308.864.72 1.15 1.204.291.486.478 1.027.548 1.588l-1.15-.492a1.886 1.886 0 00-.547-1.15v2.026a6.026 6.026 0 011.478 1.752c.273.494.415 1.051.41 1.616a1.448 1.448 0 01-.492 1.287 1.402 1.402 0 01-1.396 0v.985l-.658-.383v-.849a4.489 4.489 0 01-1.26-1.424 5.254 5.254 0 01-.629-1.944l1.177.52c.05.304.142.599.274.877.11.257.258.497.438.712zm0-5.477a.444.444 0 00-.41 0 .658.658 0 00-.165.466 1.724 1.724 0 000 .602c.111.232.26.445.438.63l.137-1.698zm.657 5.942a.601.601 0 00.575 0 .684.684 0 00.192-.575 1.784 1.784 0 00-.164-.712 3.348 3.348 0 00-.602-.712v1.999zM26.394 192.35l-15.607-8.981a1.811 1.811 0 01-.794-1.397.49.49 0 01.522-.572c.1.007.194.045.272.107l15.607 9.008a1.756 1.756 0 01.794 1.397c0 .493-.41.712-.794.438zM26.394 188.325l-15.607-9.008a1.754 1.754 0 01-.794-1.369c0-.52.356-.739.794-.466l15.607 8.981a1.812 1.812 0 01.795 1.397.49.49 0 01-.522.572.487.487 0 01-.273-.107zM26.394 184.272l-15.607-9.009a1.754 1.754 0 01-.794-1.369c0-.52.356-.739.794-.465l15.607 8.981a1.802 1.802 0 01.795 1.396.495.495 0 01-.238.506.497.497 0 01-.557-.04z" fill="#43E8E1"/><path d="M19.852 112.643l19.797 11.418 19.796-11.418-19.796-11.418-19.797 11.418z" fill="url(#paint3_linear)"/><path d="M106.129 260.369l-39.648-22.891 39.648-22.891 39.648 22.891-39.648 22.891z" fill="#606568" opacity=".4"/><path d="M106.129 242.185l-39.292-22.699v17.003l39.292 22.672v-16.976z" fill="url(#paint4_linear)"/><path d="M106.128 242.185l39.292-22.699v17.003l-39.292 22.672v-16.976z" fill="url(#paint5_linear)"/><path d="M106.129 243.363l-39.648-22.89 39.648-22.891 39.648 22.891-39.648 22.89z" fill="#321060"/><path d="M106.129 242.185l-39.648-22.89 39.648-22.891 39.648 22.891-39.648 22.89z" fill="#321060"/><path d="M106.129 109.141L66.837 86.469v131.292l39.292 22.699V109.141z" fill="url(#paint6_linear)"/><path d="M106.128 109.141l39.292-22.672v131.292l-39.292 22.699V109.141z" fill="url(#paint7_linear)"/><path d="M106.129 110.317l-39.648-22.89 39.648-22.864 39.648 22.864-39.648 22.89z" fill="#321060"/><path d="M106.13 109.141l-39.648-22.89L106.13 63.36l39.648 22.89-39.648 22.891z" fill="#321060"/><path d="M86.333 89.21l19.797 11.445 19.796-11.446-19.796-11.418L86.333 89.21z" fill="#256BF4"/><path d="M81.21 86.25l5.121 2.958 19.797-11.418v-5.915L81.211 86.252z" fill="#5C3A8A"/><path d="M131.045 86.25l-5.12 2.958-19.797-11.418v-5.915l24.917 14.376z" fill="#4C297C"/><path d="M86.333 89.21l19.797 11.445 19.796-11.446-19.796-11.418L86.333 89.21z" fill="url(#paint8_linear)"/><path d="M85.62 197.447a21.9 21.9 0 01-9.83-17.031c0-6.27 4.408-8.817 9.83-5.668a21.74 21.74 0 019.83 17.004c0 6.27-4.409 8.816-9.83 5.695zm0-20.864c-4.545-2.738-8.214-.493-8.214 4.737a18.18 18.18 0 008.214 14.265c4.545 2.738 8.214.493 8.214-4.737a18.21 18.21 0 00-8.214-14.265z" fill="#43E8E1"/><path d="M85.21 189.201v-3.012a7.835 7.835 0 01-1.808-2.273 5.477 5.477 0 01-.548-2.3 1.781 1.781 0 01.63-1.616 1.782 1.782 0 011.725 0v-.711l.904.52v.712a5.469 5.469 0 011.56 1.697 5.26 5.26 0 01.767 2.136l-1.588-.657a2.738 2.738 0 00-.74-1.588v2.738a8.654 8.654 0 012.027 2.382c.36.684.549 1.445.547 2.218a2.134 2.134 0 01-.684 1.807 1.858 1.858 0 01-1.89 0v1.369l-.903-.52v-1.314a6.276 6.276 0 01-1.752-1.944 7.37 7.37 0 01-.876-2.739l1.642.74c.061.42.19.827.384 1.205.138.412.342.801.602 1.15zm0-7.558a.605.605 0 00-.603.165.875.875 0 00-.192.629c.004.285.07.565.192.822.153.322.356.618.602.876v-2.492zm.903 8.215a.713.713 0 00.766 0 .91.91 0 00.274-.767 2.079 2.079 0 00-.246-.958 3.663 3.663 0 00-.794-1.013v2.738zM76.584 195.389a1.752 1.752 0 01-.794-1.396v-13.691c0-.52.356-.711.794-.465a1.752 1.752 0 01.794 1.369v13.691c0 .547-.356.739-.794.492zM76.584 203.168a1.81 1.81 0 01-.794-1.397v-4.737c0-.52.356-.711.794-.465a1.752 1.752 0 01.794 1.369v4.764c0 .466-.356.712-.794.466zM94.657 209.656a1.752 1.752 0 01-.794-1.369v-1.917c0-.493.356-.712.794-.438a1.733 1.733 0 01.794 1.369v1.89c0 .52-.22.712-.794.465zM94.657 205.003a1.75 1.75 0 01-.794-1.369v-12.787c0-.52.356-.712.794-.465a1.752 1.752 0 01.794 1.369v12.787c0 .52-.22.712-.794.465zM85.621 213.081a1.752 1.752 0 01-.794-1.369V196.05a.495.495 0 01.522-.572c.1.007.195.044.272.107a1.806 1.806 0 01.794 1.396v15.635c0 .52-.355.711-.794.465zM85.51 163.63a1.752 1.752 0 01-.794-1.369v-9.556c0-.52.356-.739.794-.465a1.771 1.771 0 01.822 1.369v9.556c0 .52-.384.712-.822.465z" fill="#43E8E1"/><path d="M88.083 158.398a1.448 1.448 0 01-.575-.575l-1.998-3.45-1.972 1.15c-.328.164-.821 0-1.15-.657-.328-.657-.301-1.123 0-1.314l3.122-1.78 3.121 5.476c.329.548.329 1.123 0 1.287a.466.466 0 01-.548-.137z" fill="#43E8E1"/><path d="M171.352 298.482l-39.648-22.891 39.648-22.863L211 275.591l-39.648 22.891z" fill="#606568" opacity=".4"/><path d="M171.352 209.385l-39.292-22.699v87.921l39.292 22.699v-87.921z" fill="url(#paint9_linear)"/><path d="M171.353 209.385l39.291-22.699v87.921l-39.291 22.699v-87.921z" fill="url(#paint10_linear)"/><path d="M171.352 210.534l-39.648-22.863 39.648-22.891L211 187.671l-39.648 22.863z" fill="#321060"/><path d="M171.352 209.385l-39.647-22.918 39.647-22.863L211 186.467l-39.648 22.918z" fill="#321060"/><path d="M151.556 189.424l19.797 11.446 19.796-11.446-19.796-11.418-19.797 11.418z" fill="#256BF4"/><path d="M146.434 186.467l5.12 2.958 19.797-11.418v-5.915l-24.917 14.375z" fill="#5C3A8A"/><path d="M196.269 186.467l-5.12 2.958-19.796-11.418v-5.915l24.916 14.375z" fill="#4C297C"/><path d="M149.993 249.004v-2.191a6.304 6.304 0 01-1.314-1.642 3.766 3.766 0 01-.411-1.671 1.316 1.316 0 01.466-1.177 1.234 1.234 0 011.259 0v-.52l.657.383v.52c.457.325.848.734 1.15 1.205.275.483.461 1.012.548 1.561l-1.15-.466a2.056 2.056 0 00-.548-1.15v2.027a7.023 7.023 0 011.479 1.752 3.28 3.28 0 01.383 1.615 1.452 1.452 0 01-.492 1.287 1.345 1.345 0 01-1.37 0v.986l-.657-.383v-.959a4.132 4.132 0 01-1.259-1.396 4.923 4.923 0 01-.63-1.944l1.177.52c.05.304.142.599.274.876.113.273.261.531.438.767zm0-5.476a.409.409 0 00-.41 0 .653.653 0 00-.165.465c.009.208.056.412.137.603.111.232.259.444.438.629v-1.697zm.657 5.941a.49.49 0 00.548 0 .621.621 0 00.219-.547 1.48 1.48 0 00-.192-.712 2.49 2.49 0 00-.575-.712v1.971zM158.209 269.295l-15.58-8.981a1.802 1.802 0 01-.794-1.396.498.498 0 01.237-.506.494.494 0 01.557.04l15.58 9.009a1.75 1.75 0 01.794 1.396c-.109.493-.465.712-.794.438zM158.21 265.242l-15.58-8.981a1.802 1.802 0 01-.794-1.397c0-.492.356-.711.794-.438l15.58 8.981a1.757 1.757 0 01.794 1.397c-.109.493-.465.712-.794.438zM158.21 261.214l-15.58-9.008a1.754 1.754 0 01-.794-1.397c0-.493.356-.712.794-.438l15.58 8.981a1.815 1.815 0 01.794 1.397.48.48 0 01-.04.289.489.489 0 01-.754.176z" fill="#43E8E1"/><path d="M151.556 189.587l19.797 11.418 19.796-11.418-19.796-11.445-19.797 11.445z" fill="url(#paint11_linear)"/><path d="M108.241 3.195v2.93a26.525 26.525 0 014.326 3.669 19.17 19.17 0 013.121 4.545 21.784 21.784 0 011.643 3.779c.34.97.534 1.985.575 3.012a1.963 1.963 0 01-.849 1.861 2.026 2.026 0 01-2.08-.219 6.405 6.405 0 01-2.985-4.545 12.538 12.538 0 00-3.751-6.654v11.282c1.944 1.752 3.477 3.203 4.655 4.38a22.631 22.631 0 015.476 8.845c.506 1.612.764 3.293.766 4.983a9.138 9.138 0 01-1.259 5.065 4.795 4.795 0 01-3.697 2.273 10.402 10.402 0 01-5.804-1.314v6.735a5.494 5.494 0 01-.274 2.164c-.164.41-.575.41-1.178 0a2.744 2.744 0 01-1.177-1.26 5.025 5.025 0 01-.356-2.053v-7.311a27.81 27.81 0 01-4.792-4.244 29.077 29.077 0 01-3.45-4.82 24.89 24.89 0 01-2.026-4.709 14.103 14.103 0 01-.657-3.97 1.834 1.834 0 013.067-1.616c.712.39 1.33.932 1.807 1.588a6.41 6.41 0 011.013 2.19 66.604 66.604 0 001.095 4.053c.35 1.041.828 2.035 1.424 2.957a13.692 13.692 0 002.519 2.958V27.126a55.762 55.762 0 01-5.257-5.257 21.112 21.112 0 01-3.423-5.476 16.428 16.428 0 01-1.478-6.654 6.49 6.49 0 012.738-6.16c1.698-1.014 4.189-.74 7.42.82V1.663c0-1.534.493-2 1.479-1.424a3.26 3.26 0 011.369 2.957zm-2.985 16.894V9.684a4.954 4.954 0 00-3.066 0c-.74.301-1.123 1.205-1.123 2.738a7.257 7.257 0 001.04 3.834c.9 1.394 1.956 2.68 3.149 3.833zm2.985 9.775v11.883a3.995 3.995 0 003.669 0 3.475 3.475 0 001.287-3.094 7.998 7.998 0 00-1.26-4.38 21.507 21.507 0 00-3.696-4.409z" fill="url(#paint12_linear)"/><path d="M107.775 3.659v2.93a26.523 26.523 0 014.326 3.669 19.172 19.172 0 013.122 4.545 21.86 21.86 0 011.642 3.778c.343.97.536 1.985.575 3.012a1.972 1.972 0 01-.848 1.862 2.028 2.028 0 01-2.081-.219 6.4 6.4 0 01-2.848-4.6 12.538 12.538 0 00-3.751-6.653v11.28c1.944 1.726 3.505 3.204 4.655 4.382a22.624 22.624 0 015.339 8.844c.506 1.612.765 3.293.767 4.983a9.147 9.147 0 01-1.26 5.066 4.706 4.706 0 01-3.696 2.272 10.405 10.405 0 01-5.805-1.314v6.763a5.494 5.494 0 01-.274 2.163c-.164.41-.575.41-1.177 0a2.74 2.74 0 01-1.178-1.26 5.025 5.025 0 01-.356-2.053v-7.283a27.768 27.768 0 01-4.791-4.245 29.029 29.029 0 01-3.45-4.819 24.888 24.888 0 01-2.027-4.71 14.266 14.266 0 01-.657-3.97 1.835 1.835 0 013.067-1.615c.705.4 1.32.94 1.807 1.588.474.66.817 1.403 1.013 2.19a66.5 66.5 0 001.095 4.053c.35 1.041.829 2.035 1.424 2.957a13.693 13.693 0 002.519 2.957V27.59a59.398 59.398 0 01-5.257-5.257 21.11 21.11 0 01-3.422-5.477 16.428 16.428 0 01-1.342-6.626 6.49 6.49 0 012.601-6.16c1.698-1.014 4.189-.74 7.42.82V2.154c0-1.534.493-1.999 1.479-1.424a3.26 3.26 0 011.369 2.93zm-2.985 16.894V10.148a4.955 4.955 0 00-3.066 0c-.74.301-1.123 1.205-1.123 2.738a7.257 7.257 0 001.041 3.834 21.639 21.639 0 003.148 3.833zm2.985 9.775V42.21a3.996 3.996 0 003.669 0 3.476 3.476 0 001.287-3.094 7.997 7.997 0 00-1.26-4.38 21.505 21.505 0 00-3.696-4.41z" fill="#2E63D8"/><path d="M107.584 3.495v2.957a25.367 25.367 0 014.326 3.56 20.381 20.381 0 013.149 4.517 25.505 25.505 0 011.616 3.806c.342.97.536 1.985.575 3.012a1.976 1.976 0 01-.849 1.862 2.026 2.026 0 01-2.081-.219 6.483 6.483 0 01-2.985-4.6 12.37 12.37 0 00-3.751-6.654v11.281a81.747 81.747 0 014.655 4.381 22.613 22.613 0 015.339 8.845c.515 1.611.783 3.291.794 4.983a9.442 9.442 0 01-1.259 5.065 4.872 4.872 0 01-3.697 2.273 10.953 10.953 0 01-5.832-1.314v6.763a6.276 6.276 0 01-.246 2.163c-.192.383-.575.41-1.205 0a2.733 2.733 0 01-1.177-1.26 5.475 5.475 0 01-.356-2.053v-7.256a27.8 27.8 0 01-4.792-4.272 26.202 26.202 0 01-3.423-4.791 23.461 23.461 0 01-2.053-4.71 14.266 14.266 0 01-.657-3.97 2 2 0 01.903-1.862 2.11 2.11 0 012.19.22 6.049 6.049 0 012.739 3.805c.41 1.725.794 3.067 1.095 4.052a13.99 13.99 0 003.998 6.052V27.453a59.203 59.203 0 01-5.258-5.284 21.221 21.221 0 01-3.422-5.477 16.427 16.427 0 01-1.314-6.68 6.49 6.49 0 012.573-6.161c1.698-1.013 4.19-.74 7.421.821V1.797c0-1.506.492-1.971 1.478-1.424a3.285 3.285 0 011.506 3.122zM104.6 20.389V10.012a5.23 5.23 0 00-3.067 0c-.739.328-1.095 1.232-1.095 2.738a7.216 7.216 0 001.013 3.833 22.873 22.873 0 003.149 3.806zm2.984 9.802v11.884a3.997 3.997 0 003.669 0 3.497 3.497 0 001.314-3.122 8.21 8.21 0 00-1.259-4.353 22.705 22.705 0 00-3.724-4.409z" fill="url(#paint13_linear)"/><defs><linearGradient id="paint7_linear" x1="119.839" y1="215.038" x2="141.057" y2="208.17" gradientUnits="userSpaceOnUse"><stop stop-color="#5144A3"/><stop offset=".544" stop-color="#6152BD"/><stop offset="1" stop-color="#6C5DCC"/></linearGradient><linearGradient id="paint0_linear" x1="-1.219" y1="157.351" x2="46.784" y2="176.158" gradientUnits="userSpaceOnUse"><stop stop-color="#42B2F1"/><stop offset="1" stop-color="#2A54D3"/></linearGradient><linearGradient id="paint2_linear" x1="5276.36" y1="7375.99" x2="5579.38" y2="7375.99" gradientUnits="userSpaceOnUse"><stop offset=".08" stop-color="#00A2FF"/><stop offset=".93" stop-color="#47BBFF"/></linearGradient><linearGradient id="paint3_linear" x1="33.668" y1="120.291" x2="37.714" y2="111.391" gradientUnits="userSpaceOnUse"><stop stop-color="#5144A3"/><stop offset=".544" stop-color="#6152BD"/><stop offset="1" stop-color="#6C5DCC"/></linearGradient><linearGradient id="paint4_linear" x1="7360.58" y1="3877.93" x2="7924.41" y2="3877.93" gradientUnits="userSpaceOnUse"><stop offset=".08" stop-color="#00A2FF"/><stop offset=".93" stop-color="#47BBFF"/></linearGradient><linearGradient id="paint5_linear" x1="119.839" y1="252.611" x2="128.931" y2="241.189" gradientUnits="userSpaceOnUse"><stop stop-color="#5144A3"/><stop offset=".544" stop-color="#6152BD"/><stop offset="1" stop-color="#6C5DCC"/></linearGradient><linearGradient id="paint6_linear" x1="65.289" y1="152.745" x2="116.565" y2="167.167" gradientUnits="userSpaceOnUse"><stop stop-color="#42B2F1"/><stop offset="1" stop-color="#2A54D3"/></linearGradient><linearGradient id="paint1_linear" x1="53.359" y1="202.099" x2="72.844" y2="193.319" gradientUnits="userSpaceOnUse"><stop stop-color="#5144A3"/><stop offset=".544" stop-color="#6152BD"/><stop offset="1" stop-color="#6C5DCC"/></linearGradient><linearGradient id="paint8_linear" x1="100.149" y1="96.88" x2="104.203" y2="87.973" gradientUnits="userSpaceOnUse"><stop stop-color="#5144A3"/><stop offset=".544" stop-color="#6152BD"/><stop offset="1" stop-color="#6C5DCC"/></linearGradient><linearGradient id="paint9_linear" x1="130.512" y1="234.296" x2="178.49" y2="253.08" gradientUnits="userSpaceOnUse"><stop stop-color="#42B2F1"/><stop offset="1" stop-color="#2A54D3"/></linearGradient><linearGradient id="paint10_linear" x1="185.063" y1="279.043" x2="204.548" y2="270.264" gradientUnits="userSpaceOnUse"><stop stop-color="#5144A3"/><stop offset=".544" stop-color="#6152BD"/><stop offset="1" stop-color="#6C5DCC"/></linearGradient><linearGradient id="paint11_linear" x1="165.372" y1="197.23" x2="169.426" y2="188.323" gradientUnits="userSpaceOnUse"><stop stop-color="#5144A3"/><stop offset=".544" stop-color="#6152BD"/><stop offset="1" stop-color="#6C5DCC"/></linearGradient><linearGradient id="paint12_linear" x1="93.474" y1="24.228" x2="121.664" y2="37.863" gradientUnits="userSpaceOnUse"><stop stop-color="#42B2F1"/><stop offset="1" stop-color="#2A54D3"/></linearGradient><linearGradient id="paint13_linear" x1="92.692" y1="24.392" x2="120.896" y2="38.033" gradientUnits="userSpaceOnUse"><stop stop-color="#42B2F1"/><stop offset="1" stop-color="#2A54D3"/></linearGradient></defs></svg>