<svg width="287" height="226" viewBox="0 0 287 226" fill="none" xmlns="http://www.w3.org/2000/svg"><path d="M211.193 106.02v67.938h-7.763v-60.081c0-4.34 3.474-7.857 7.763-7.857z" fill="#12040B"/><path d="M203.429 104.548h-68.346v69.394h68.346v-69.394z" fill="#321224"/><path d="M86.217 154.942h193.569c3.507 0 6.35-2.878 6.35-6.428V6.427c0-3.55-2.843-6.427-6.35-6.427H86.217c-3.507 0-6.35 2.878-6.35 6.427v142.087c0 3.55 2.843 6.428 6.35 6.428z" fill="#26182D"/><path d="M76.405 154.942h193.563c3.508 0 6.35-2.878 6.35-6.428V6.427c0-3.55-2.842-6.427-6.35-6.427H76.405c-3.507 0-6.35 2.878-6.35 6.427v142.087c0 3.55 2.843 6.428 6.35 6.428z" fill="#452A51"/><path d="M267.463 6.368H79.828a4.273 4.273 0 00-4.294 4.25v129.117a4.274 4.274 0 004.294 4.25h187.635a4.274 4.274 0 004.293-4.25V10.618a4.272 4.272 0 00-4.293-4.25z" fill="url(#paint0_linear)"/><path d="M130.841 10.847H84.589a3.173 3.173 0 00-3.154 3.192v87.317a3.173 3.173 0 003.154 3.193h46.252a3.178 3.178 0 002.921-1.977c.157-.386.236-.799.234-1.216V14.039a3.171 3.171 0 00-3.155-3.192z" fill="url(#paint1_linear)"/><path d="M214.998 225.554l-4.105-45.703h-4.063l4.105 45.703h4.063zM4.064 225.554l3.949-43.952H3.949L0 225.554h4.064z" fill="#162A46"/><path d="M264.028 173.44H3.966v8.695h260.062v-8.695z" fill="#162A46"/><path d="M101.747 225.554h32.255l.083-1.178-34.037-2.358 1.668 2.925.031.611z" fill="#452A51"/><path d="M72.84 225.555h100.655a19.571 19.571 0 00-8.678-7.22l-.7 1.684.568-1.74c-27.204-11.985-70.677-8.012-88.1-5.746l-1.957.255.04.199c-.507.084-1.13.175-1.828.268v12.3z" fill="#162A46"/><path d="M47.16 208.012h-8.766c-4.543 0-8.24-3.741-8.24-8.338v-11.385a1.805 1.805 0 113.612 0v11.385a4.661 4.661 0 004.628 4.684h8.767a1.83 1.83 0 011.827 1.827 1.825 1.825 0 01-1.827 1.827z" fill="#7CBDF4"/><path d="M242.442 149.239h-13.879a2.174 2.174 0 00-2.158 2.185v19.761a2.176 2.176 0 001.328 2.015c.263.11.545.168.83.17h13.876a2.18 2.18 0 001.998-1.353c.108-.264.162-.547.161-.832v-19.753a2.184 2.184 0 00-.623-1.544 2.176 2.176 0 00-1.533-.649z" fill="#FF685A"/><path d="M227.946 165.926h-3.145a3.975 3.975 0 01-2.796-1.183 3.974 3.974 0 01-1.148-2.811v-2.984a3.979 3.979 0 013.944-3.993h3.145v-1.621h-3.145c-3.06 0-5.55 2.518-5.55 5.617v2.978c0 3.094 2.49 5.619 5.55 5.619h3.145v-1.622z" fill="#FF685A"/><path d="M270.092 225.554l-4.077-45.4h-4.064l4.077 45.4h4.064z" fill="#162A46"/><path d="M92.108 225.554h3.646l-2.463-18.293a1.81 1.81 0 00-2.044-1.6 1.815 1.815 0 00-1.536 2.092l2.397 17.801z" fill="#000543"/><path d="M266.062 173.44h-59.035v8.694h59.01c.025 0 .025-8.694.025-8.694z" fill="#0D1B30"/><path d="M152.768 10.847h53.323V75h-61.48V19.01a8.161 8.161 0 012.387-5.771 8.163 8.163 0 015.77-2.39z" fill="#fff"/><path d="M206.092 10.832h54.812a6.916 6.916 0 016.915 6.915V75.08h-61.727V10.832z" fill="url(#paint2_linear)"/><path opacity=".48" d="M218.082 87.831h-.248v4.266h.248V87.83z" fill="#2186C4"/><path d="M259.16 139.245h-53.069V75.002h61.478v55.834a8.407 8.407 0 01-8.409 8.409z" fill="#fff"/><path d="M206.092 139.232h-53.121a8.358 8.358 0 01-8.358-8.357V74.987h61.479v64.245z" fill="url(#paint3_linear)"/><path d="M211.863 52.337c4.221-4.51.429-3.003 13.081 3.483.964.494 2.726-.358 3.252-1.506 2.652-4.553 5.01-9.073 6.897-12.416l6.124 4.393a17.752 17.752 0 01-.944 2.026c-8.645 16.699-8.931 15.844-11.39 16.718-3.766 1.347-14.704-8.874-17.194-11.425-.287-.295-.186-.89.174-1.273z" fill="#fff"/><path d="M263.598 21.1c.325 1.115.434 2.334 1.05 3.302.527.826 1.373 1.378 1.964 2.157.591.78.859 2.017.166 2.75-.327.347-.806.505-1.133.851-.921.977-.13 2.505.121 3.816a4.46 4.46 0 01-1.416 4.078c-.812.707-1.963 1.221-2.182 2.285-.171.837.334 1.753-.055 2.517-.571 1.12-2.291.673-3.272 1.436-.69.54-.833 1.52-1.179 2.335-.644 1.521-2.201 2.598-3.785 2.619-.848.01-1.716-.25-2.523.041-1.045.376-1.725 1.587-2.807 1.792-2.248.424-2.565-2.318-3.962-3.86-1.755-1.943-5.427-1.952-6.084-4.546-.155-.609-.118-1.326-.536-1.768-.419-.442-1.163-.442-1.634-.852-.884-.759-.369-2.375-.702-3.464a7.33 7.33 0 00-.421-.699c-3.442-6.072-3.536-13.04.345-17.208 3.218-3.452 8.398-4.154 13.505-2.387.051-.04.08-.087.132-.127 1.218-.937 2.652-1.102 4.11-.91 2.688.349 3.345 2.938 5.539 3.56.84.238 1.751-.267 2.616-.146 1.119.162 1.821 1.312 2.143 2.428z" fill="#162A46"/><path d="M240.164 31.878c1.179-.776 3.482-1.448 4.394-2.11.614-.443 1.24-.926 1.716-1.512a3.72 3.72 0 00.737-1.633c0 .009-.407-.915-.077-.234-.782-1.61-.884-3.134-.536-4.475a5.711 5.711 0 00-1.22-2.748c-1.843-2.381-2.979-2.198-4.258-2.828-1.254-.617-1.204-.47-2.849-.856a5.194 5.194 0 00-4.202.905c-.329.271-.641.563-.934.874-.259.318-.491.66-.737.994-.383.186-1.794.985-2.043 2.009-.488 2.014.033 2.927.033 2.927 1.017-.08 2.05-1.39 2.899-1.139.27.09.524.22.754.387 1.147.867 2.094 1.576 2.378 3.123.233 1.269-.324 2.748.488 3.77.726.914 2.21.98 3.015 1.835.189.208.339.449.442.71z" fill="#162A46"/><path d="M250.582 26.04c-.248.994-4.16 5.423-5.677 6.455 0 0-1.567 2.2-1.573 2.195-1.575-1.435.079-5.169.079-5.169.381-.345.607-1.092.534-1.933-.095-1.117-.677-1.975-1.301-1.916-.047 0-.085.043-.129.062l3.878-4.25c.655 1.93 5.203.497 4.189 4.557z" fill="#162A46"/><path d="M214.335 45.997a.485.485 0 00-.557.4l-.479 2.44a.49.49 0 00.364.588.49.49 0 00.362-.083.47.47 0 00.195-.316l.481-2.438a.493.493 0 00-.366-.591z" fill="url(#paint4_linear)"/><path d="M209.6 49.188c-.079-.4-.122-.816 0-1.127.099-.218.259-.403.462-.532a5.619 5.619 0 011.578-.815c.523-.172 1.192-.234 1.743.295.506.52.796 1.214.809 1.94.047 1.293.053 1.756-.495 2.663-.684 1.138-1.683 1.393-2.737-.106-.545-.769-1.184-1.448-1.36-2.318z" fill="url(#paint5_linear)"/><path d="M212.791 47.813l-2.259-3.12a.482.482 0 01-.09-.355.476.476 0 01.355-.393.465.465 0 01.49.18l2.261 3.12a.479.479 0 01-.267.743.468.468 0 01-.49-.175z" fill="url(#paint6_linear)"/><path d="M211.576 47.946l-2.094-2.89a.44.44 0 01.578-.637c.049.03.091.069.125.116l2.093 2.889a.438.438 0 01-.094.617.429.429 0 01-.484.02.421.421 0 01-.124-.115z" fill="url(#paint7_linear)"/><path d="M210.808 49.131l-2.092-2.888a.442.442 0 01.093-.617.44.44 0 01.61.095l2.092 2.888a.445.445 0 01-.093.618.44.44 0 01-.61-.096z" fill="url(#paint8_linear)"/><path d="M210.512 50.462l-2.094-2.89a.444.444 0 01.249-.688.434.434 0 01.456.167l2.092 2.89a.444.444 0 01-.093.616.429.429 0 01-.485.021.438.438 0 01-.125-.116z" fill="url(#paint9_linear)"/><path d="M251.564 63.62c1.059-.209 1.932-1.975 1.65-3.209-1.389-10.87-3.698-20.85-2.029-20.817 6.731.136 7.712 7.456 7.911 8.573 3.324 18.55 2.579 18.054 1.179 20.273-2.153 3.405-16.989 2.147-20.502 1.684-.405-.053-.686-.589-.636-1.112.583-6.184-1.493-2.636 12.427-5.391z" fill="#fff"/><path d="M252.266 74.915a161.77 161.77 0 00-7.121 0h7.121z" fill="#000543"/><path d="M237.13 73.51a2.386 2.386 0 01-.435 1.489h23.156c-.201-4.51-1.419-11.521-.351-21.08.563-5.034-1.384-12.646-5.695-13.63-5.586-1.275-11.493-3.71-14.702-1.68a13.936 13.936 0 00-3.127 2.094c-3.773 3.36-.977 9 .784 13.641 4.568 12.037-.436 10.663.37 19.165z" fill="#fff"/><path d="M237.008 73.622a.115.115 0 00.082-.038.12.12 0 00.023-.04.102.102 0 00.005-.046c-.314-3.315.254-5.092.802-6.812.828-2.59 1.609-5.036-1.179-12.377-.18-.471-.368-.954-.561-1.444-1.68-4.273-3.584-9.105-.252-12.07a13.557 13.557 0 012.052-1.506.114.114 0 00.039-.147.127.127 0 00-.028-.032.109.109 0 00-.12-.008c-.742.438-1.441.947-2.088 1.518-3.451 3.069-1.514 7.984.192 12.324.191.487.381.97.561 1.44 2.759 7.272 2.025 9.57 1.179 12.23-.555 1.74-1.13 3.537-.812 6.903a.11.11 0 00.033.073c.019.019.045.03.072.032z" fill="#F9CDAF"/><path d="M238.88 29.84h1.2a.065.065 0 00.065-.065v-.214a.065.065 0 00-.065-.064h-1.2a.066.066 0 00-.065.064v.214c0 .036.03.065.065.065z" fill="#fff"/><path d="M233.637 24.888l6.267-1.046a.526.526 0 00.427-.602l-.551-3.38a1.031 1.031 0 00-1.179-.852l-5.765.963a2.492 2.492 0 00.803 4.917h-.002z" fill="#FFA27F"/><path d="M243.876 30.104a6.777 6.777 0 01-.884 2.483v.023a4.738 4.738 0 01-1.827-3.02c.348-.361.513-1.102.377-1.916-.178-1.074-.815-1.858-1.423-1.752-.046 0-.08.047-.122.07l3.486-4.408c.781 1.823 1.081 4.518.393 8.52z" fill="#162A46"/><path d="M242.683 44.917a228.137 228.137 0 014.152-3.783c.902-.803 1.116-1.982.473-2.582-.893-.83-2.077-1.348-3.526-1.132-1.609.242-4.556 1.524-4.237 3.176.386 2.004.166 1.064 1.024 4.205.224.8 1.318.86 2.114.116z" fill="url(#paint10_linear)"/><path d="M231.472 20.62a5.853 5.853 0 00-1.439 4.877l.779 4.636a5.806 5.806 0 006.678 4.775c3.14-.54 5.274-3.574 4.742-6.74l-.753-4.485-10.007-3.063z" fill="url(#paint11_linear)"/><path d="M246.775 38.579l-5.169-10.247c-.306-.605-.961-.893-1.456-.638l-3.593 1.858c-.496.255-.649.96-.344 1.567l5.157 10.22 5.405-2.76z" fill="url(#paint12_linear)"/><path d="M230.368 25.598l1.079-.18c.158-.026.314.12.348.326a.35.35 0 01-.226.421l-1.078.18c-.158.027-.314-.12-.348-.326a.345.345 0 01.225-.421z" fill="#000543"/><path d="M232.879 29.098l.025-.133a.732.732 0 00.551.547l.654.1a.453.453 0 00.485-.318l.025.07c.147.415-.128.842-.505.784l-.655-.1c-.39-.06-.664-.508-.58-.95z" fill="#FA694F"/><path d="M235.938 26.437c.057.356.294.616.52.577.225-.038.368-.36.309-.716s-.295-.614-.52-.576c-.225.038-.368.358-.309.715z" fill="#000543"/><path d="M236.247 25.722l-.706.118.507.367.199-.485zM230.947 27.271c.059.357.295.616.521.578.225-.039.368-.36.309-.716-.059-.357-.295-.616-.52-.578-.226.038-.367.36-.31.716z" fill="#000543"/><path d="M231.257 26.555l-.706.118.507.368.199-.486z" fill="#000543"/><path d="M241.719 25.764c.892-.147 1.769.604 1.947 1.692.178 1.087-.392 2.092-1.285 2.245-.893.153-1.768-.602-1.945-1.69-.177-1.087.392-2.094 1.283-2.247z" fill="url(#paint13_linear)"/><path d="M239.478 24.64c.847.928 1.412 2.1 2.281 3.005a5.79 5.79 0 001.996 1.357c.997.404 1.437.056 2.109-.794.613-.776 1.277-1.57.782-2.434-1.031-1.798-3.06-2.763-4.245-4.457-.865-1.236-1.326-2.9-2.659-3.576-.822-.419-1.799-.347-2.695-.148-1.077.242-2.11.653-3.139 1.063l-2.242.901a.57.57 0 00-.236.148.604.604 0 00-.109.294c-.077.4-.461 1.4-.295 1.769.186.42.737.343 1.105.306 3.778-.389 6.32 1.44 7.347 2.565z" fill="#162A46"/><path d="M235.305 23.855l1.389-.232a.374.374 0 01.43.31.378.378 0 01-.307.443l-1.391.232a.375.375 0 01-.429-.313.378.378 0 01.308-.44z" fill="#000543"/><path d="M249.76 70.843c4.756 0 9.527-.507 10.687-2.343.09-.147.176-.27.26-.396 1.241-1.858 1.704-2.552-1.416-19.957l-.025-.147a15.09 15.09 0 00-1.013-3.572l-.205.09c.476 1.128.811 2.31.997 3.52l.027.148c3.103 17.314 2.652 17.988 1.45 19.79-.084.126-.173.259-.264.402-2.091 3.31-16.618 2.129-20.393 1.632-.333-.044-.589-.506-.54-.99.072-.745.104-1.354.131-1.841.109-2.026.109-2.026 2.55-2.177 1.751-.106 4.68-.286 9.665-1.271.442-.09.884-.442 1.232-.977.47-.737.667-1.662.505-2.371-.424-3.323-.94-6.59-1.394-9.474-.442-2.816-.827-5.246-1.042-7.158l-.221.025c.214 1.915.59 4.35 1.042 7.168.454 2.882.97 6.149 1.395 9.48.148.662-.035 1.524-.473 2.21-.313.49-.699.802-1.088.884-4.969.985-7.889 1.163-9.634 1.27-2.592.158-2.643.202-2.761 2.388a41.014 41.014 0 01-.128 1.832c-.058.61.277 1.18.736 1.237 3.292.39 6.604.59 9.92.598z" fill="#F9CDAF"/><path d="M236.602 30.681c.096.4-.222.83-.725.968-.502.139-1-.072-1.112-.47l1.837-.498z" fill="#fff"/><path d="M236.653 62.305a.493.493 0 00-.113.68l1.375 2.064a.479.479 0 00.49.215.484.484 0 00.176-.068.492.492 0 00.113-.68l-1.375-2.064a.482.482 0 00-.666-.147z" fill="url(#paint14_linear)"/><path d="M235.559 67.954c-.338-.224-.66-.484-.793-.79a1.232 1.232 0 01-.049-.705c.09-.595.271-1.171.54-1.71.246-.496.673-1.02 1.433-1.043a2.782 2.782 0 011.93.784c.942.876 1.271 1.197 1.523 2.23.316 1.293-.208 2.19-2.001 1.893-.923-.153-1.848-.17-2.583-.659z" fill="url(#paint15_linear)"/><path d="M236.599 64.532l-3.501-.53a.44.44 0 01-.187-.783.441.441 0 01.317-.09l3.501.53a.443.443 0 01-.13.873z" fill="url(#paint16_linear)"/><path d="M236.078 65.66l-3.501-.529a.44.44 0 01-.341-.496.441.441 0 01.471-.376l3.501.53a.44.44 0 01.341.496.441.441 0 01-.471.375z" fill="url(#paint17_linear)"/><path d="M236.372 67.047l-3.501-.529a.445.445 0 01-.342-.496.447.447 0 01.472-.376l3.501.529a.44.44 0 01.179.777.44.44 0 01-.309.095z" fill="url(#paint18_linear)"/><path d="M237.096 68.198l-3.501-.53a.444.444 0 01-.353-.497.443.443 0 01.481-.376l3.501.529a.443.443 0 01.367.502.44.44 0 01-.495.371z" fill="url(#paint19_linear)"/><path d="M158.035 103.615a.565.565 0 00-.418.097.565.565 0 00-.227.365l-.554 2.82a.57.57 0 00.42.676.564.564 0 00.645-.461l.554-2.822a.566.566 0 00-.42-.675z" fill="url(#paint20_linear)"/><path d="M152.558 107.305c-.093-.464-.147-.945 0-1.303.114-.253.299-.467.533-.616a6.486 6.486 0 011.826-.941c.606-.201 1.378-.271 2.014.342.637.613.906 1.454.936 2.242.054 1.496.06 2.031-.572 3.081-.791 1.315-1.946 1.609-3.163-.124-.631-.891-1.372-1.673-1.574-2.681z" fill="url(#paint21_linear)"/><path d="M156.185 105.381l-2.421-3.34a.513.513 0 01.287-.797.499.499 0 01.526.194l2.421 3.34a.517.517 0 01-.109.713.49.49 0 01-.375.092.486.486 0 01-.329-.202z" fill="url(#paint22_linear)"/><path d="M154.842 105.867l-2.421-3.34a.517.517 0 01.109-.714.5.5 0 01.56-.024c.057.034.106.08.145.133l2.42 3.342a.513.513 0 01-.287.797.499.499 0 01-.526-.194z" fill="url(#paint23_linear)"/><path d="M153.956 107.238l-2.421-3.34a.513.513 0 01.287-.797.522.522 0 01.382.06.514.514 0 01.144.135l2.421 3.34a.515.515 0 01-.288.797.517.517 0 01-.381-.06.489.489 0 01-.144-.135z" fill="url(#paint24_linear)"/><path d="M153.612 108.778l-2.42-3.34a.516.516 0 01.108-.713.494.494 0 01.376-.092.499.499 0 01.329.202l2.42 3.341a.514.514 0 01-.288.796.498.498 0 01-.525-.194z" fill="url(#paint25_linear)"/><path d="M156.685 107.171l.231 1.349c.721 4.203 1.749 10.516 2.8 14.316.553 2.015 8.2-7.515 10.581-9.783l2.268 7.546c-5.368 5.226-14.208 12.925-15.282 9.233-2.091-7.175-2.257-15.361-2.505-20.994-.023-.514-.035-1.042-.057-1.525.698.228 1.132.183 1.964-.142z" fill="url(#paint26_linear)"/><path d="M172.771 139.231h21.079c-2.001-7.09-3.094-12.269-3.142-16.539-.048-4.686-4.483-11.112-9.406-11.767-6.587-.877-6.663-.656-9.948 1.233-4.294 2.895-3.796 9.862-2 14.057 2.881 6.725 3.488 10.335 3.417 13.016z" fill="#6D72A0"/><path d="M185.833 134.014c.262 1.687.452 3.436.57 5.219h4.965c.497-6.588.372-13.444-.686-19.407a4.037 4.037 0 00-3.872-3.364c-2.732-.055-4.716 2.609-3.912 5.251 1.068 3.473 2.27 7.995 2.935 12.301z" fill="url(#paint27_linear)"/><path d="M182.282 79.514c.688.027 1.393.198 2.056.027.567-.148 1.041-.534 1.594-.727.552-.193 1.299-.11 1.572.434.131.257.125.565.255.823.364.724 1.379.559 2.16.666a2.592 2.592 0 012.004 1.61c.237.608.295 1.377.85 1.708.442.263 1.048.148 1.398.518.515.55-.073 1.463.161 2.18.165.506.687.778 1.074 1.136a2.68 2.68 0 01.721 2.709c-.161.493-.478.948-.475 1.473 0 .68.55 1.31.451 1.977-.206 1.39-1.803 1.047-2.947 1.56-1.433.648-2.161 2.781-3.744 2.663-.371-.026-.765-.187-1.098-.03-.333.159-.478.59-.798.788-.6.368-1.403-.245-2.078-.261-.16.028-.318.066-.474.112-4.079.83-8-.457-9.569-3.52-1.299-2.537-.672-5.686 1.326-8.316-.012-.037-.032-.064-.044-.102-.286-.884-.096-1.75.295-2.567.725-1.495 2.304-1.377 3.085-2.534.295-.442.196-1.07.442-1.549.311-.617 1.095-.806 1.783-.778z" fill="#000543"/><path d="M180.109 102.955c1.179-.833 3.522-1.605 4.433-2.312.612-.478 1.237-.986 1.703-1.6a3.78 3.78 0 00.694-1.683c0 .01-.457-.91-.089-.234-.87-1.599-1.04-3.139-.736-4.51a5.788 5.788 0 00-1.366-2.735c-1.992-2.339-3.153-2.109-4.493-2.694-1.314-.576-1.257-.43-2.963-.754a5.406 5.406 0 00-4.283 1.083c-.328.287-.637.595-.926.922-.253.333-.477.688-.711 1.032-.386.203-1.805 1.066-2.02 2.115-.42 2.063.147 2.964.147 2.964 1.043-.123 2.051-1.49 2.934-1.269.28.078.547.2.791.36 1.215.834 2.219 1.514 2.573 3.069.294 1.276-.223 2.8.654 3.8.784.896 2.318.902 3.174 1.737.204.204.368.445.484.709z" fill="#000543"/><path d="M188.112 97.163c-.215 1.015-4.056 5.656-5.574 6.761 0 0-1.524 2.292-1.528 2.287-1.678-1.391-.13-5.239-.13-5.239.379-.363.579-1.13.472-1.978-.148-1.128-.778-1.973-1.416-1.887-.049 0-.086.047-.13.067l3.813-4.457c.753 1.928 5.371.296 4.493 4.446z" fill="#000543"/><path d="M173.237 95.311l6.569.137a.538.538 0 00.547-.53l.07-3.536a1.066 1.066 0 00-1.031-1.092l-6.041-.127a2.58 2.58 0 10-.105 5.157l-.009-.009z" fill="#FFA27F"/><path d="M182.672 102.579a6.97 6.97 0 01-1.367 2.357s0 .03-.011.024a4.926 4.926 0 01-1.293-3.421c.422-.295.727-1.023.736-1.87.019-1.126-.481-2.045-1.119-2.054a.503.503 0 00-.138.047l4.369-3.812c.47 1.994.271 4.79-1.177 8.729z" fill="#000543"/><path d="M175.372 117.671a235.93 235.93 0 015.297-2.262c1.144-.473 1.748-1.559 1.326-2.377-.589-1.136-1.563-2.063-3.042-2.357-1.643-.332-4.932-.111-5.177 1.629-.294 2.113-.193 1.108-.415 4.509-.062.861.989 1.307 2.011.858z" fill="url(#paint28_linear)"/><path d="M171.836 90.556a6.03 6.03 0 00-2.375 4.683l-.077 4.862c-.052 3.323 2.602 6.084 5.894 6.136 3.292.051 6.032-2.623 6.084-5.946l.072-4.701-9.598-5.034z" fill="url(#paint29_linear)"/><path d="M180.262 114.642l-3.474-.054c-.479-.009-.862-.526-.852-1.151l.181-11.732c.011-.625.41-1.13.885-1.123l3.475.055c.478.009.861.526.851 1.151l-.182 11.731c-.007.625-.406 1.131-.884 1.123z" fill="url(#paint30_linear)"/><path d="M181.292 97.752c.936.014 1.68.952 1.663 2.092-.018 1.141-.792 2.053-1.726 2.038-.934-.015-1.68-.952-1.662-2.092.018-1.14.79-2.053 1.725-2.038z" fill="url(#paint31_linear)"/><path d="M175.116 94.817l1.457.03a.392.392 0 01-.016.783l-1.457-.03a.397.397 0 01-.275-.12.388.388 0 01.011-.554.401.401 0 01.28-.109zM169.79 94.704l1.13.023c.167 0 .295.183.295.398 0 .215-.148.389-.308.385l-1.132-.023c-.165 0-.295-.182-.295-.397 0-.216.145-.386.31-.386z" fill="#000543"/><path d="M171.679 99.446l.05-.131a.765.765 0 00.459.663l.647.227a.47.47 0 00.552-.231l.012.075c.072.442-.287.832-.66.701l-.647-.227c-.386-.137-.581-.644-.413-1.077z" fill="#FA694F"/><path d="M175.286 97.328c-.007.373.182.68.422.685.24.004.442-.295.442-.668 0-.372-.181-.682-.422-.686-.24-.005-.433.294-.442.669z" fill="#000543"/><path d="M175.734 96.659l-.739-.015.446.47.293-.455zM170.056 97.218c0 .375.181.681.421.687.24.006.442-.295.442-.669 0-.374-.181-.68-.421-.687-.24-.006-.432.295-.442.67z" fill="#000543"/><path d="M170.505 96.55l-.741-.014.448.47.293-.456zM182.817 93.36c-.647-1.422-.809-3.203-2.033-4.146-.758-.59-1.769-.696-2.715-.663-1.14.04-2.267.259-3.388.478l-2.448.48a.59.59 0 00-.267.098.612.612 0 00-.165.273c-.147.392-.736 1.335-.633 1.747.11.463.685.49 1.067.523 3.913.34 6.154 2.686 6.988 4.029.688 1.105 1.043 2.404 1.757 3.492a6 6 0 001.777 1.768c.029.019.061.034.091.053l2.192-4.95c-.786-1.035-1.685-2.003-2.223-3.182z" fill="#000543"/><path d="M174.251 101.892c-.06.411-.113.824-1.006.927 0 0-1.493.184-1.326-.79l2.332-.137z" fill="#fff"/><path d="M172.348 88.191s11.219 1.387 11.516 14.526c.442-.315.865-.655 1.267-1.019a6.04 6.04 0 001.12-7.611c-1.793-2.927-4.986-6.846-9.585-7.75-3.229-.636-4.318 1.854-4.318 1.854z" fill="#FF685A"/><path d="M220.325 139.297a47.65 47.65 0 013.334-6.554c.686-1.127 1.458-2.252 2.274-3.441.392-.571.785-1.146 1.179-1.727 2.374-3.548 4.873-7.753 4.458-12.749a4.607 4.607 0 01.023-.917l.038-.346-.155-.31a45.305 45.305 0 01-1.61-3.616l-.344-.884-.919.164c-1.799.321-3.713.916-4.653 1.447-2.641 1.49-6.8 6.076-10.144 12.966-1.937 3.992-3.882 9.299-5.059 15.964l11.578.003z" fill="#4DB4E8"/><path d="M255.797 139.297c.148-3.117.196-6.235.129-9.32.057.053.109.106.165.159l-3.575-19.008-.115-.092c-3.168-2.505-4.942-2.324-5.885-2.632-6.925-1.384-17.068-.295-17.083-.295-4.754.758-10.295 4.615-10.18 9.484.147 6.136 4.038 13.043 4.058 21.709l32.486-.005z" fill="#4DB4E8"/><path d="M223.089 139.296h.442c0-4.845-1.217-9.159-2.305-13.024-.884-3.131-1.712-6.088-1.755-8.84a.213.213 0 00-.005-.097.232.232 0 00-.045-.085.234.234 0 00-.171-.079.222.222 0 00-.215.164.228.228 0 00-.006.097c.046 2.808.884 5.793 1.768 8.955 1.082 3.845 2.284 8.123 2.292 12.909z" fill="#4F99DB"/><path d="M232.613 114.103h7.386a2.109 2.109 0 002.087-2.111v-1.309a2.109 2.109 0 00-2.087-2.111h-7.386a2.109 2.109 0 00-2.087 2.111v1.309a2.109 2.109 0 002.087 2.111z" fill="#FF9985"/><path d="M244.947 114.825c-.413 4.997 2.086 9.202 4.46 12.75.387.58.782 1.155 1.179 1.727.816 1.189 1.588 2.313 2.273 3.44a47.883 47.883 0 013.335 6.554h7.121a3.633 3.633 0 002.851-1.413 3.643 3.643 0 00.65-3.116 58.805 58.805 0 00-4.099-11.434c-3.344-6.887-7.505-11.474-10.145-12.967-.94-.53-2.853-1.125-4.652-1.447l-.919-.163-.344.884a43.397 43.397 0 01-1.61 3.616l-.156.309.039.346c.036.304.041.61.017.914z" fill="#4DB4E8"/><path d="M256.304 139.414a.282.282 0 01-.26-.175 47.384 47.384 0 00-3.317-6.52c-.682-1.123-1.451-2.243-2.264-3.429-.394-.57-.789-1.146-1.179-1.728-1.101-1.646-2.238-3.442-3.11-5.434a.274.274 0 01-.004-.218.289.289 0 01.151-.157.291.291 0 01.216-.004.282.282 0 01.154.152c.854 1.949 1.977 3.72 3.063 5.342.388.581.781 1.156 1.179 1.724.818 1.194 1.591 2.32 2.281 3.456a48.046 48.046 0 013.355 6.592.284.284 0 01-.148.371.25.25 0 01-.117.028z" fill="#4F99DB"/><path d="M240.407 88.515c.615.72 1.201 1.612 1.051 2.554-.062.386-.248.748-.267 1.139-.031.644.381 1.208.718 1.753.337.545.617 1.244.323 1.813-.28.543-.971.736-1.306 1.243-.493.756-.097 2.03-.853 2.505-.314.197-.737.171-1.018.416-.392.341-.304 1.031-.666 1.404-.282.295-.759.295-1.111.097-.352-.197-.6-.535-.809-.884-.396-.662-.703-1.441-.553-2.201.176-.893.92-1.528 1.413-2.286.784-1.202.157-2.838-.67-4.013-.273-.388.109-.774-.18-1.148-.289-.374-.517-.839-.459-1.313.051-.427.324-.787.526-1.166.201-.378.333-.863.104-1.227-.106-.17-.281-.295-.383-.467-.278-.482.112-.943.567-1.045.456-.101.683.114 1.018.38a18.481 18.481 0 012.555 2.446zM223.553 87.143c.089-.872.312-1.832 1.031-2.31.295-.197.647-.295.916-.522.442-.377.559-1.012.708-1.583.149-.57.434-1.199.993-1.348.532-.147 1.087.22 1.631.136.806-.127 1.397-1.19 2.181-.961.325.096.571.405.907.442.47.06.868-.427 1.34-.408.365.016.663.346.756.71.07.37.044.75-.077 1.107-.189.685-.511 1.38-1.105 1.747-.697.432-1.58.308-2.384.442-1.281.202-2.471 1.179-2.731 2.483-.085.429-.072.872-.138 1.305-.066.434-.231.877-.578 1.13-.315.23-.72.264-1.096.359-.376.094-.775.305-.872.688-.047.18-.018.376-.069.554-.148.493-.691.507-1.042.255-.351-.252-.351-.543-.383-.94a17.51 17.51 0 01.012-3.286z" fill="#162A46"/><path d="M237.568 93.277c.946-.054 1.768.849 1.833 2.019.065 1.17-.647 2.161-1.593 2.21-.946.049-1.768-.85-1.833-2.02-.065-1.17.647-2.154 1.593-2.209z" fill="#FF9985"/><path d="M226.531 86.64a6.99 6.99 0 00-2.193 5.507l.905 5.6c.215 3.778 3.343 6.537 5.69 6.188 3.537-.527 6.926-3.231 6.711-7.008l-.304-5.347-10.809-4.94z" fill="#FF9985"/><path d="M240.185 110.896l-1.389-13.965a1.285 1.285 0 00-1.372-1.179l-4.954.514a1.291 1.291 0 00-1.106 1.437l1.346 13.495 7.475-.302z" fill="#FF9985"/><path d="M230.166 91.506l1.473-.076a.402.402 0 01.041.803l-1.473.076a.4.4 0 01-.41-.381.403.403 0 01.369-.422zM224.361 91.81l1.473-.077a.4.4 0 01.41.382.403.403 0 01-.368.421l-1.474.077a.403.403 0 01-.313-.667.403.403 0 01.27-.136h.002zM225.46 93.614c.021.393.24.701.489.69.249-.013.435-.344.414-.737-.02-.394-.238-.703-.487-.69-.249.013-.437.342-.416.737zM230.99 93.433c.021.393.241.702.49.689.249-.013.434-.343.414-.737-.021-.393-.239-.703-.49-.69-.25.014-.434.344-.414.738z" fill="#000543"/><path d="M227.408 95.795l.049-.137a.78.78 0 00.589.64l.778.18a.59.59 0 00.632-.282l.019.075a.609.609 0 01-.142.591.617.617 0 01-.58.183l-.776-.18a.811.811 0 01-.569-1.07z" fill="#FA694F"/><path d="M226.879 86.526s2.84-1.942 7.207-.989l-1.562 1.522-5.645-.533z" fill="#FFB288"/><path d="M224.986 87.494s6.21 4.973 14.073 4.227l-.312-4.643-11.228-2.136-2.533 2.552z" fill="#162A46"/><path d="M237.475 91.757l.433 5.157c.211 1.641-.023 3.489-1.01 4.796-.49.647-1.693 1.796-2.34 2.277-1.228.912-4.434.847-5.785.897-1.261.047-2.652-1.213-2.969-2.467l-.547-4.338s4.322.158 6.951-.714c2.145-.712 2.313-1.195 2.787-3.458l.942-4.503 1.538 2.353z" fill="#162A46"/><path d="M230.723 98.985c-.024.442-.243.983-1.26 1.194 0 0-1.494.256-1.419-.78l2.679-.414z" fill="#fff"/><path d="M241.171 87.337c.069.342.079.7.2 1.024.147.396.442.707.616 1.093.751 1.742-1.456 3.906-.454 5.493-.684-.035-1.168-.753-1.42-1.445-.252-.693-.394-1.474-.868-2.008-.71-.815-1.897-.82-2.8-1.374-.779-.479-1.326-1.363-2.158-1.715-.935-.392-2.022-.028-2.947-.43-.621-.27-1.147-.87-1.813-.884-.312 0-.62.12-.931.078-2.241-.304-.097-3.765.597-4.501 1.015-1.076 2.677-2.192 4.17-1.982 1.777.25 2.541 2.12 3.941 3.057 1.46.967 3.445 1.487 3.867 3.594z" fill="#162A46"/><path d="M176.459 68.477c-1.474-4.819-3.086-11.526-3.734-14.55l12.492.55c.33 1.975 2.514 8.274 3.782 12.12a2.352 2.352 0 01-.283 2.06 2.358 2.358 0 01-1.804 1.034l-8.094.442a2.336 2.336 0 01-2.359-1.656z" fill="#452A51"/><path d="M178.977 70.416h.148l8.095-.442a2.583 2.583 0 002.014-1.151 2.629 2.629 0 00.317-2.31c-.243-.737-.523-1.573-.815-2.448-.598-1.79-1.277-3.82-1.828-5.57a.275.275 0 00-.442-.13.278.278 0 00-.08.298c.552 1.755 1.232 3.787 1.831 5.58.295.874.571 1.705.815 2.445a2.086 2.086 0 01-.938 2.468 2.044 2.044 0 01-.905.265l-8.094.442a2.048 2.048 0 01-2.082-1.473c-.916-2.999-1.818-6.492-2.412-8.894a.271.271 0 00-.501-.075.282.282 0 00-.029.209c.589 2.409 1.5 5.913 2.419 8.923a2.614 2.614 0 002.487 1.863z" fill="#271730"/><path d="M187.264 74.995c-.011-.202-.019-.4-.037-.611v-.129c.082-1.791-.164-3.727-.442-5.357l-8.685.343c.818 2.446.908 2.753 1.517 4.683-6.369-1.525-19.537-4.98-22.397-5.994l-1.36 3.598a237.836 237.836 0 007.131 3.467h24.273z" fill="url(#paint32_linear)"/><path d="M155.265 63.632a.583.583 0 00-.333.314.596.596 0 00-.009.457l1.031 2.861a.605.605 0 00.759.38.583.583 0 00.333-.313.596.596 0 00.009-.457l-1.031-2.862a.608.608 0 00-.759-.38z" fill="url(#paint33_linear)"/><path d="M152.237 69.985c-.34-.37-.649-.778-.717-1.18a1.496 1.496 0 01.147-.85 6.994 6.994 0 011.167-1.856c.449-.514 1.123-1.002 2.047-.797.894.199 1.634.82 2.092 1.52.871 1.325 1.17 1.804 1.163 3.104-.009 1.62-.914 2.527-2.987 1.62-1.062-.458-2.175-.76-2.912-1.561z" fill="url(#paint34_linear)"/><path d="M154.526 66.25l-4.057-1.697a.533.533 0 01-.299-.293.538.538 0 01.719-.7l4.064 1.696a.543.543 0 01.295.705.54.54 0 01-.301.296.547.547 0 01-.421-.007z" fill="url(#paint35_linear)"/><path d="M153.554 67.427l-4.064-1.698a.534.534 0 01-.294-.292.545.545 0 01-.001-.414.549.549 0 01.71-.287l4.066 1.697a.53.53 0 01.294.292.527.527 0 010 .414.546.546 0 01-.711.288z" fill="url(#paint36_linear)"/><path d="M153.488 69.157l-4.065-1.697a.531.531 0 01-.299-.293.537.537 0 01.719-.7l4.064 1.696a.538.538 0 11-.419.994z" fill="url(#paint37_linear)"/><path d="M154.016 70.74l-4.063-1.697a.533.533 0 01-.307-.292.532.532 0 01.121-.601.536.536 0 01.604-.1l4.065 1.697a.544.544 0 01.295.291.546.546 0 010 .415.546.546 0 01-.715.287z" fill="url(#paint38_linear)"/><path d="M200.102 74.996h6.001a6.362 6.362 0 00-.318-.9c-.541-1.218-1.474-2.223-1.948-3.472-.458-1.217-.442-2.561-.508-3.867-.385-7.206-3.752-12.993-8.399-18.107-.59-.648-1.671-1.056-2.25-.402-.455.516-.282 1.326-.078 1.998l7.5 24.75z" fill="#000543"/><path d="M202.259 74.995c-2.055-10.127-1.087-13.872-4.531-22.864-1.973-5.157-7.389-8.2-13.286-8.074-.305 0-.608.013-.915.03-5.432.268-7.974-2.1-16.002 4.567 0 0-3.602 4.217-3.683 7.472.993 7.015 5.765 12.569 8.874 18.872l29.543-.003z" fill="#000543"/><path d="M163.253 25.914c.121-.249.32-.442.42-.708.224-.58-.108-1.19-.214-1.79-.106-.602.357-1.464.845-1.188-.426-.803-.859-1.795-.456-2.652.761-1.621 3.375-.776 4.29-2.3.272-.457.327-1.048.66-1.455.458-.56 1.279-.535 1.855-.188.383.256.725.568 1.015.926.054.018.109.03.165.039.48.048.69-.1 1.16-.35.891-.473 1.962.058 2.748.93.33.369.884-.426 1.246-.091.815.762 2.132.872 2.652 1.907.282.56.257 1.289.603 1.803.367.544 1.089.746 1.337 1.37.39.995-.275 2.181-.061 3.2.1.481-.209 1.032-.177 1.218.066.395.032.8-.097 1.179.151 1.326.2 2.663.147 3.997a7.207 7.207 0 01-.571 2.744l-.391.736-.156.295a9.885 9.885 0 00-.48-1.814c.11-.717.09-1.448-.061-2.158h.03c.915-.295 1.373-1.439 1.022-2.554-.336-1.07-1.292-1.724-2.177-1.518l-1.173.67c-4.099.556-4.203-3.963-7.944-3.518-2.447.295-3.728 1.148-4.324 1.708a6.91 6.91 0 00.025 2.817l1.346-.426a.4.4 0 01.472.57.405.405 0 01-.234.198l-1.374.442-.054.018a.397.397 0 01-.442-.15.397.397 0 01.009-.467.83.83 0 01-.295-.451.52.52 0 00-.034.051c-.816-.36-1.83-2.017-1.332-3.04z" fill="#162A46"/><path d="M170.509 28.002a.408.408 0 01.26-.504l1.428-.45a.399.399 0 01.471.569.406.406 0 01-.234.198l-1.427.451a.399.399 0 01-.498-.264zM167.562 30.669c.116.376.014.737-.227.82-.242.082-.532-.167-.649-.543-.116-.376-.014-.737.227-.82.242-.085.528.166.649.543zM172.295 28.536c.243-.077.533.166.648.543.115.377.015.737-.227.82-.242.082-.532-.167-.648-.543-.117-.375-.015-.744.227-.82z" fill="#000543"/><path d="M169.143 32.417a.788.788 0 00.736.469l.808-.026a.6.6 0 00.552-.434l.037.068a.62.62 0 01.002.613.62.62 0 01-.522.32l-.807.026a.807.807 0 01-.82-.884l.014-.152z" fill="#FA694F"/><path d="M170.778 35.49l2.156-1.002c-.569 1.677-2.156 1.002-2.156 1.002z" fill="#fff"/><path d="M166.779 29.512l-1.373.442 1.609 5.125c1.067 3.389 3.882 5.337 7.095 4.623l1.289 6.646c.128.66.429-.609 1.062-.737l4.743-.65c.634-.127 1.235.656 1.107 0l-1.883-9.701-.156.295a9.89 9.89 0 00-.481-1.814 5.98 5.98 0 00-.06-2.159h.029c.915-.294 1.374-1.438 1.023-2.553-.336-1.07-1.292-1.724-2.178-1.518l-1.171.651c-4.099.557-4.203-3.962-7.944-3.517-2.447.295-3.728 1.148-4.324 1.708-.185.93-.177 1.89.025 2.817l1.347-.426a.398.398 0 01.498.264.407.407 0 01-.257.504zm5.288-.156c-.116-.377-.014-.737.227-.82.242-.085.534.166.649.543.115.377.014.736-.227.819-.242.082-.532-.166-.649-.542zm-1.063-1.09a.399.399 0 01-.471-.568.408.408 0 01.233-.199l1.428-.45a.399.399 0 01.471.568.406.406 0 01-.234.199l-1.427.45zm-.226 7.22l2.156-1.001c-.569 1.68-2.156 1.005-2.156 1.005v-.003zm-1.652-2.925l.015-.148a.79.79 0 00.737.469l.807-.025a.603.603 0 00.553-.435l.037.068a.62.62 0 01.002.613.628.628 0 01-.522.321l-.808.025a.81.81 0 01-.783-.549.817.817 0 01-.038-.337v-.002zm-2.21-2.439c.242-.077.532.166.649.544.116.377.014.736-.227.819-.242.082-.532-.167-.649-.542-.116-.376-.022-.741.22-.818l.007-.003z" fill="url(#paint39_linear)"/><path d="M177.081 43.818h3.812a3.464 3.464 0 010 6.925h-3.812a3.464 3.464 0 010-6.925z" fill="url(#paint40_linear)"/><path d="M188.285 64.821c-1.778-4.715-3.815-11.3-4.655-14.273l12.501-.268c.455 1.948 3.037 8.09 4.547 11.846a2.363 2.363 0 01-.146 2.076 2.355 2.355 0 01-1.732 1.151l-8.048.977a2.335 2.335 0 01-2.467-1.509z" fill="#000543"/><path d="M190.754 66.602a2.8 2.8 0 00.312-.02l8.048-.978a2.59 2.59 0 001.938-1.279A2.63 2.63 0 00201.22 62c-.295-.724-.622-1.534-.968-2.387-.712-1.75-1.519-3.731-2.182-5.442a.273.273 0 00-.505-.01.277.277 0 00-.005.212c.666 1.715 1.473 3.7 2.185 5.452.348.853.678 1.662.968 2.386a2.084 2.084 0 01-.779 2.522 2.042 2.042 0 01-.886.324l-8.048.979a2.072 2.072 0 01-2.17-1.326c-1.105-2.925-2.228-6.356-2.977-8.719a.275.275 0 00-.343-.18.282.282 0 00-.161.138.281.281 0 00-.017.212c.751 2.369 1.877 5.81 2.986 8.746a2.614 2.614 0 002.436 1.696z" fill="#1B2D87"/><path d="M199.337 74.994c.26-1.136.399-2.764.07-4.98l-.01-.063v-.065c-.031-1.793-.401-3.709-.779-5.318l-8.644.912c.973 2.387 1.082 2.686 1.811 4.568-6.451-1.105-19.813-3.693-22.731-4.518l-1.127 3.684c4.968 2.122 10.255 4.19 15.029 5.779l16.381.001z" fill="url(#paint41_linear)"/><path d="M166.825 61.375a.596.596 0 00-.295.791l1.216 2.788a.604.604 0 00.782.33.599.599 0 00.295-.793l-1.217-2.786a.601.601 0 00-.781-.33z" fill="url(#paint42_linear)"/><path d="M164.208 67.911c-.362-.346-.697-.737-.791-1.129a1.497 1.497 0 01.1-.858 6.92 6.92 0 011.046-1.93c.414-.541 1.055-1.073 1.991-.929.904.147 1.682.712 2.185 1.38.953 1.265 1.283 1.725 1.358 3.021.095 1.621-.75 2.583-2.876 1.818-1.095-.392-2.223-.62-3.013-1.373z" fill="url(#paint43_linear)"/><path d="M166.255 64.037l-4.164-1.43a.538.538 0 11.355-1.018l4.164 1.428a.54.54 0 01.336.685.547.547 0 01-.691.335z" fill="url(#paint44_linear)"/><path d="M165.36 65.273l-4.164-1.428a.537.537 0 01-.059-.994.545.545 0 01.414-.024l4.164 1.427a.538.538 0 11-.355 1.019z" fill="url(#paint45_linear)"/><path d="M165.406 67.001l-4.166-1.427a.538.538 0 11.355-1.019l4.166 1.428a.537.537 0 01.058.994.543.543 0 01-.413.024z" fill="url(#paint46_linear)"/><path d="M166.033 68.549l-4.164-1.428a.536.536 0 01-.364-.476.547.547 0 01.028-.209.546.546 0 01.691-.333l4.164 1.428a.536.536 0 01.364.476.528.528 0 01-.305.517.547.547 0 01-.414.025z" fill="url(#paint47_linear)"/><path d="M109.116 17.55l-16.797.117a.71.71 0 11-.01-1.42l16.797-.119a.713.713 0 01.01 1.422zM114.5 17.512l-2.34.016a.709.709 0 01-.511-1.209.711.711 0 01.501-.211l2.34-.018a.713.713 0 01.01 1.422zM99.31 20.64l-6.987.048a.71.71 0 11-.01-1.42l6.987-.05a.71.71 0 11.01 1.421zM114.5 20.533l-12.113.085a.712.712 0 01-.01-1.422l12.113-.084a.712.712 0 01.511 1.21.71.71 0 01-.501.21zM105.831 23.646l-13.46.095a.712.712 0 01-.01-1.422l13.46-.093a.709.709 0 01.715.705.712.712 0 01-.705.715zM121.515 31.291l-11.317-.063c-.34 0-.614-.35-.61-.781.005-.43.283-.774.624-.772l11.316.063c.34 0 .613.35.61.78-.003.428-.283.775-.623.773zM128.297 31.33l-3.897-.022c-.34 0-.614-.35-.61-.78.005-.428.283-.775.623-.773l3.898.022c.34 0 .613.35.61.78-.003.428-.283.774-.624.773zM116.956 34.1l11.316.063c.341 0 .619-.343.624-.772.004-.43-.27-.778-.61-.781l-11.316-.064c-.341 0-.619.345-.624.774-.004.429.27.778.61.78zM110.47 36.944l17.206.096c.517 0 .94-.342.944-.77.005-.43-.412-.78-.931-.783l-17.205-.096c-.518 0-.94.342-.945.77-.004.43.411.783.931.783zM110.174 34.063l3.897.022c.341 0 .621-.343.624-.772.003-.429-.27-.778-.61-.781l-3.898-.022c-.34 0-.619.345-.623.773-.004.43.27.778.61.78zM121.364 64.313l-11.316-.064c-.34 0-.613-.35-.61-.78.003-.428.283-.774.623-.773l11.316.064c.341 0 .613.352.61.78-.002.43-.282.776-.623.773zM128.147 64.35l-3.898-.022c-.34 0-.614-.35-.61-.78.005-.428.283-.775.623-.773l3.898.022c.34 0 .613.35.61.78-.003.428-.283.773-.623.773zM116.806 67.122l11.316.064c.34 0 .62-.345.623-.774.003-.429-.269-.778-.61-.78l-11.316-.063c-.34 0-.619.344-.623.772-.005.43.269.778.61.781zM110.32 69.966l17.206.097c.517 0 .94-.343.944-.772.004-.429-.413-.778-.931-.781l-17.206-.097c-.517 0-.94.341-.944.77-.005.429.414.78.931.783zM110.023 67.084l3.897.022c.341 0 .621-.344.624-.773.003-.429-.27-.778-.61-.78l-3.898-.022c-.34 0-.618.344-.623.772-.004.43.27.778.61.781zM99.414 49.575l11.316.064c.341 0 .621-.345.624-.774.003-.428-.27-.778-.61-.78l-11.317-.063c-.34 0-.618.344-.623.773-.004.428.27.779.61.78zM92.928 52.416l17.206.098c.519 0 .94-.344.944-.773.005-.428-.412-.777-.931-.78l-17.205-.098c-.518 0-.94.344-.945.772-.004.43.419.781.931.781zM92.632 49.536l3.897.022c.34 0 .62-.345.623-.773.003-.43-.27-.778-.61-.78l-3.897-.022c-.34 0-.619.345-.623.774-.005.428.27.778.61.779zM121.443 39.697l-11.316-.063c-.34 0-.613-.353-.61-.781.003-.43.283-.775.623-.774l11.317.065c.34 0 .614.35.61.78-.005.428-.285.774-.624.773z" fill="#fff"/><path d="M189.062 173.51h16.146c-2.978-7.465-13.164-6.902-13.164-6.902l-2.982 6.902z" fill="url(#paint48_linear)"/><path d="M103.046 105.075a3.1 3.1 0 00.487-.16c7.891-2.418 10.396-8.904 11.126-11.8.078-.111.148-.223.22-.335-.827-.781-1.46-1.969-1.664-3.357-.372-2.546.821-4.734 2.667-4.887a2.907 2.907 0 011.975.626c.443.349.821.773 1.117 1.254.378-.113.456-1.311.465-1.62.024-.761-.115-1.518-.116-2.28 0-1.092.56-2.456 1.139-3.793l1.515 11.738c.378 4.099-1.391 7.921-4.163 10.641a14.776 14.776 0 01-4.459 3.004 32.408 32.408 0 00-1.878 5.112c-.47 1.711-1.374 4.134-2.955 6.188-.558.724-1.031-.779-1.925-.673a12.258 12.258 0 01-9.772-3.293c-.202-.193-.41-.419-.428-.7-.017-.281.148-.523.317-.737 1.068-1.431 1.62-2.82 2.377-4.439.222-.515.405-1.045.55-1.586.646.329 1.202.84 1.888 1.076.493.155 1.02.162 1.517.021z" fill="url(#paint49_linear)"/><path d="M91.25 95.506c.073.2.133.403.18.61.31 2.07-.604 4.507.737 6.098.846 1.001 2.28 1.222 3.582 1.238 1.303.016 2.669-.088 3.842.485l.048.028c.647.329 1.203.84 1.889 1.076a2.64 2.64 0 001.556.023c.151-.038.299-.087.442-.147 7.891-2.418 10.395-8.904 11.126-11.8.078-.112.148-.224.22-.336-.827-.78-1.46-1.968-1.664-3.356-.372-2.546.821-4.734 2.667-4.888a2.907 2.907 0 011.975.627c.443.348.821.773 1.117 1.254.378-.114.456-1.312.465-1.621.024-.76-.115-1.518-.116-2.28 0-1.092.56-2.456 1.139-3.792.488-1.13.99-2.239 1.179-3.142.548-2.652.07-6.548-1.406-8.813-1.477-2.264-4.902-1.785-7.563-2.142-.952-.128-1.951-.11-2.824-.52-.766-.361-1.354-1.02-2.077-1.462-1.409-.862-3.209-.818-4.784-.336-.079.024-.148.068-.223.093-1.487.492-2.85 1.298-4.248 2.011-2.238 1.144-4.635 2.03-6.622 3.575a9.514 9.514 0 00-1.977 2.097c-.776 1.13-1.278 2.425-1.266 3.767-.29.233-.561.487-.813.76a10.445 10.445 0 00-2.608 6.093c-.038.465-.049.932-.031 1.399.105 3.107 1.384 6.142 3.214 8.67 1.085 1.5 2.357 2.968 2.845 4.728v.003z" fill="#000543"/><path d="M127.51 159.497s-13.763-15.781-16.576-22.536c0 0-3.704-8.988-3.706-8.988-5.489-13.18 18.474-12.86 23.985.376 2.564 6.153 6.127 12.731 9.665 18.078l.12-.087 2.063 2.21c8.966 9.701 32.475 11.92 46.886 12.855a3.138 3.138 0 012.189 1.123 3.15 3.15 0 01.712 2.356l-.563 5.777a3.165 3.165 0 01-3.221 2.864c-50.382-1.348-52.09-6.418-61.554-14.028z" fill="#fff"/><path d="M59.705 225.554h58c1.853-2.001 3.252-4.225 3.965-6.483 2.194-6.955 4.126-14.485 3.05-18.942-11.017-45.656 3.807-34.256 9.215-57.877 1.292-5.654-9.135-33.113-16.995-33.221-8.525-.116-27.661.685-35.51 6.989-5.296 4.251-16.098 22.903-23.028 38.752-9.356 21.903 17.904 20.416-3.122 56.411-3.178 5.428-.703 12.006 4.425 14.371z" fill="#fff"/><path d="M189.061 173.987c-44.096-1.179-51.072-5.185-58.8-11.62a45.5 45.5 0 01-5.807-5.764c-2.306-2.757-5.662-6.869-8.546-10.811l.727-.543c2.868 3.922 6.209 8.018 8.507 10.765a44.787 44.787 0 005.692 5.647c7.58 6.311 14.451 10.238 58.251 11.412l-.024.914z" fill="#9194CA"/><path d="M100.759 34.707c.226-.127.565-.106.802-.221.501-.243.283-.884.489-1.326.282-.597 1.36-.777 2.185-.653.442.064.708.134.775.457.052.247.03.262.229.482.134.12.245.266.327.427.103.23.139.483.103.732a1.319 1.319 0 01-.309.672c-.167.189-.391.342-.565.526.076.044.148.093.215.148.289.157.531.387.703.667l.258.797a3.655 3.655 0 001.474-2.89 3.499 3.499 0 00-.978-2.51 3.488 3.488 0 00-2.476-1.062c-1.933 0-3.522 1.6-3.547 3.573-.003.217.014.434.049.648a.53.53 0 01.266-.467z" fill="#32B1DC"/><path d="M105.713 36.621a1.874 1.874 0 00-.702-.667l-.046 1.981a3.516 3.516 0 001.006-.517l-.258-.797z" fill="#5C5C9B"/><path d="M101.845 37.414l.186-.53a.62.62 0 01.048-.217.388.388 0 01.071-.113 3.41 3.41 0 011.189-.818c.15-.059.307-.1.467-.12a.112.112 0 000-.058l.01-.64a.74.74 0 01-.19-.529v-.035a.183.183 0 01-.073-.017.183.183 0 01-.101-.187.2.2 0 01.039-.136.195.195 0 01.122-.073c.021 0 .022-.093.022-.093 0-.194.073-.382.205-.526l.813.532v.165c.087 0 .156.09.148.205a.197.197 0 01-.157.215.776.776 0 01-.215.485l-.01.632a.097.097 0 010 .034.43.43 0 01.112.103c.092.033.181.074.265.123.174-.185.398-.338.565-.527a1.32 1.32 0 00.206-1.404 1.48 1.48 0 00-.327-.427c-.199-.22-.177-.234-.229-.482-.067-.322-.339-.393-.775-.457-.825-.123-1.903.056-2.185.653-.206.442.012 1.077-.489 1.326-.237.115-.576.095-.802.221a.536.536 0 00-.263.47c.15.886.632 1.682 1.348 2.225z" fill="#383872"/><path d="M102.148 36.553a.389.389 0 00-.071.114.621.621 0 00-.049.216l-.185.53c.436.332.945.552 1.485.643l.009-2.32c-.45.184-.856.463-1.189.817z" fill="#5C5C9B"/><path d="M104.792 35.81a1.56 1.56 0 00-.265-.123c.02.026.032.057.034.089a.166.166 0 01-.024.092 4.958 4.958 0 01-.294.46.146.146 0 01-.056.05.144.144 0 01-.072.016.145.145 0 01-.072-.017.144.144 0 01-.055-.05 4.84 4.84 0 01-.279-.459c-.053-.096 0-.186.087-.253a2.01 2.01 0 00-.458.118c-.009 0-.018 2.323-.018 2.323a3.497 3.497 0 001.637-.12l.046-1.982a1.74 1.74 0 00-.211-.145z" fill="#fff"/><path d="M103.717 35.869c.084.158.177.312.278.46a.151.151 0 00.127.066.15.15 0 00.073-.017.15.15 0 00.055-.05c.106-.147.205-.3.295-.46a.158.158 0 00-.011-.18.4.4 0 00-.112-.104.097.097 0 000-.033l.011-.633c.125-.13.2-.299.212-.478a.195.195 0 00.163-.21c0-.115-.067-.206-.147-.204v-.166l-.813-.531a.777.777 0 00-.205.526v.094a.19.19 0 00-.135.065.191.191 0 00-.046.143c0 .115.066.206.147.205.021 0 .021.033.021.033a.736.736 0 00.19.53l-.011.639a.12.12 0 00.009.045c-.101.074-.154.164-.101.26z" fill="#65D5EF"/><path d="M150.822 16.316a1.326 1.326 0 11-1.326-1.347 1.336 1.336 0 011.326 1.347z" fill="#2AB77E"/><path d="M154.197 16.316a1.326 1.326 0 11-1.326-1.347 1.336 1.336 0 011.326 1.347z" fill="#FF685A"/><path d="M260.567 16.53c.735 0 1.33-.602 1.33-1.346 0-.744-.595-1.347-1.33-1.347-.735 0-1.331.603-1.331 1.347s.596 1.347 1.331 1.347z" fill="#2AB77E"/><path d="M263.943 16.53c.735 0 1.33-.602 1.33-1.346 0-.744-.595-1.347-1.33-1.347-.735 0-1.331.603-1.331 1.347s.596 1.347 1.331 1.347z" fill="#FF685A"/><path d="M151.415 81.092a1.319 1.319 0 01-.831 1.212 1.328 1.328 0 01-1.797-.98 1.33 1.33 0 01.567-1.355c.218-.145.474-.222.735-.222a1.337 1.337 0 011.326 1.345z" fill="#2AB77E"/><path d="M154.792 81.092a1.328 1.328 0 01-2.271.912 1.325 1.325 0 01.21-2.035c.218-.145.473-.222.735-.222a1.338 1.338 0 011.326 1.345z" fill="#FF685A"/><path d="M261.16 81.302c.735 0 1.331-.603 1.331-1.347s-.596-1.347-1.331-1.347-1.33.603-1.33 1.347.595 1.347 1.33 1.347z" fill="#2AB77E"/><path d="M264.537 81.302c.734 0 1.33-.603 1.33-1.347s-.596-1.347-1.33-1.347c-.735 0-1.331.603-1.331 1.347s.596 1.347 1.331 1.347z" fill="#FF685A"/><path d="M89.409 21.675a3.54 3.54 0 00.147-.24l.028-.05c.041-.077.081-.158.116-.24l.022-.054c.037-.085.07-.174.1-.264.029-.09.052-.187.073-.28 0-.017.009-.033.012-.053.019-.09.034-.182.045-.277v-.054c.01-.099.017-.198.018-.295.002-.097 0-.21-.012-.314 0-.038-.009-.075-.013-.112-.004-.037-.01-.109-.02-.16a3.117 3.117 0 00-4.95-2.023 2.755 2.755 0 00-.352.3l-.041.04c-.062.062-.12.127-.176.193l-.038.047a2.993 2.993 0 00-.31.458l-.026.05c-.043.079-.081.158-.118.24 0 .018-.015.036-.02.054a2.724 2.724 0 00-.173.544c0 .017-.009.035-.012.053-.019.09-.035.184-.045.277v.054a3.35 3.35 0 00-.02.295c-.001.097 0 .209.012.312 0 .039.01.075.014.114.004.038.011.107.02.159a3.114 3.114 0 004.951 2.023c.05-.034.099-.072.147-.11.081-.07.148-.129.205-.188l.041-.041c.06-.063.12-.128.176-.195l.038-.047c.055-.069.11-.141.16-.216z" fill="#32B1DC"/><path d="M88.407 21.756a1.681 1.681 0 00-.636-.603l-.04 1.793c.327-.107.634-.266.91-.47l-.234-.72zM85.182 21.696a.318.318 0 00-.064.102.543.543 0 00-.044.196l-.168.48c.395.3.856.498 1.344.58v-2.098c-.404.169-.768.421-1.068.74z" fill="#5C5C9B"/><path d="M87.577 21.022a1.405 1.405 0 00-.242-.11.147.147 0 01.01.163 4.55 4.55 0 01-.261.416.131.131 0 01-.117.06.128.128 0 01-.115-.06 4.412 4.412 0 01-.252-.416c-.047-.087 0-.168.08-.228a1.77 1.77 0 00-.416.106l-.014 2.1c.492.084.998.047 1.473-.107l.04-1.793a1.54 1.54 0 00-.186-.131z" fill="#fff"/><path d="M86.463 19.705c-.078 0-.14-.082-.139-.185a.172.172 0 01.164-.188v-.085c0-.177.066-.347.185-.477l.737.481v.148c.08 0 .147.082.147.185a.177.177 0 01-.147.189.803.803 0 01-.057.234.97.97 0 00.527-.884.894.894 0 10-1.783 0 .984.984 0 00.423.816.761.761 0 01-.03-.212s-.008-.022-.027-.022z" fill="#383872"/><path d="M87.405 19.41v-.147l-.736-.482c-.12.13-.186.3-.186.477v.086a.173.173 0 00-.163.187c0 .103.06.185.138.185.02 0 .018.03.018.03 0 .072.01.143.03.212.024.1.075.192.147.267l-.01.577a.077.077 0 00.008.042c-.093.072-.147.147-.093.24.076.143.16.282.252.415a.127.127 0 00.115.06.13.13 0 00.115-.06c.096-.133.184-.272.264-.415a.148.148 0 00-.01-.164.364.364 0 00-.102-.093.077.077 0 000-.03l.01-.572a.65.65 0 00.134-.205.805.805 0 00.058-.234.177.177 0 00.147-.189c.012-.112-.054-.196-.136-.187z" fill="#65D5EF"/><path d="M89.577 52.088c.058-.085.103-.162.148-.238l.026-.05c.043-.079.081-.16.118-.242l.022-.052a3.335 3.335 0 00.172-.544c0-.017 0-.035.01-.053.02-.09.036-.184.046-.278v-.054a3.35 3.35 0 00.02-.295c.001-.097 0-.21-.012-.314 0-.038-.01-.075-.013-.112-.005-.037-.012-.108-.021-.16a3.118 3.118 0 00-5.098-1.912c-.081.07-.148.127-.205.187-.013.014-.028.027-.041.042-.06.062-.12.126-.176.194l-.038.046c-.056.07-.11.147-.162.218-.052.07-.103.162-.147.24l-.028.049c-.042.08-.081.16-.117.243l-.022.051a3.153 3.153 0 00-.172.544c0 .018-.01.035-.012.053-.02.091-.034.184-.046.279v.054a3.31 3.31 0 00-.019.295c-.001.097 0 .21.012.314 0 .036.009.073.013.112.005.038.01.107.02.16a3.114 3.114 0 004.95 2.022c.052-.034.1-.07.147-.11.082-.07.148-.129.205-.188l.041-.041a3.12 3.12 0 00.214-.242c.056-.07.115-.143.165-.218z" fill="#32B1DC"/><path d="M88.575 52.17a1.688 1.688 0 00-.635-.604L87.9 53.36c.327-.107.634-.265.91-.469l-.234-.72v-.002zM85.35 52.109a.391.391 0 00-.063.103.523.523 0 00-.042.194l-.17.48c.395.3.856.499 1.344.581V51.37c-.404.169-.768.42-1.068.74z" fill="#5C5C9B"/><path d="M87.746 51.436a1.503 1.503 0 00-.24-.11.148.148 0 01.01.163 4.45 4.45 0 01-.264.417.13.13 0 01-.116.06.127.127 0 01-.113-.06 4.233 4.233 0 01-.252-.417c-.049-.085 0-.166.078-.228a1.81 1.81 0 00-.414.106c-.01 0-.017 2.101-.017 2.101a3.114 3.114 0 001.48-.103l.043-1.793a1.665 1.665 0 00-.195-.136z" fill="#fff"/><path d="M86.63 50.121c-.077 0-.146-.082-.138-.185a.173.173 0 01.164-.188v-.085c0-.176.067-.346.186-.476l.736.48v.148c.078 0 .14.082.139.185a.174.174 0 01-.147.189.752.752 0 01-.056.234.968.968 0 00.526-.884.892.892 0 10-1.782 0 .977.977 0 00.422.816.758.758 0 01-.029-.21s-.001-.025-.02-.024z" fill="#383872"/><path d="M87.577 49.817v-.147l-.737-.48a.708.708 0 00-.186.475v.086a.173.173 0 00-.163.187c0 .103.06.186.138.186.02 0 .02.03.02.03-.001.072.008.143.028.211.025.1.076.192.147.267l-.01.578a.128.128 0 000 .042c-.093.072-.148.148-.093.239.076.143.16.283.252.417a.13.13 0 00.115.059.132.132 0 00.116-.059c.095-.134.182-.273.262-.417a.147.147 0 00-.01-.164.359.359 0 00-.1-.092.107.107 0 000-.031l.009-.572a.63.63 0 00.135-.205.749.749 0 00.056-.234.174.174 0 00.148-.189c.013-.104-.05-.187-.127-.187z" fill="#65D5EF"/><path d="M87.1 50.891a.34.34 0 01-.337-.34v-.1a.337.337 0 11.674 0v.1a.34.34 0 01-.337.34z" fill="#383872"/><path d="M46.018 225.555h3.647l-2.575-18.046c-.147-.997-1.058-1.719-2.043-1.547a1.822 1.822 0 00-1.53 2.063l2.5 17.53zM91.329 225.554h3.648l-2.593-18.174a1.785 1.785 0 00-1.335-1.512 1.783 1.783 0 00-.709-.035 1.827 1.827 0 00-1.53 2.063l2.519 17.658z" fill="#000543"/><path d="M41.033 211.835h63.684c5.97 0 10.609-5.268 9.916-11.269l-7.22-62.917c-.769-6.701-6.363-12.184-12.431-12.184H35.13c-6.07 0-10.404 5.483-9.634 12.184l7.707 67.134c.462 4.018 3.828 7.052 7.83 7.052z" fill="#DEE8FF"/><path d="M38.34 211.835H99.51c5.505 0 9.78-4.863 9.145-10.391l-7.325-63.801c-.769-6.701-6.364-12.184-12.432-12.184H29.043c-6.068 0-10.404 5.483-9.633 12.184l7.315 63.739c.685 5.956 5.675 10.453 11.614 10.453z" fill="#fff"/><defs><linearGradient id="paint25_linear" x1="161.83" y1="101.229" x2="161.83" y2="130.799" gradientUnits="userSpaceOnUse"><stop stop-color="#FFDBD0"/><stop offset="1" stop-color="#FF9979"/></linearGradient><linearGradient id="paint0_linear" x1="67.803" y1="65.597" x2="147.432" y2="190.749" gradientUnits="userSpaceOnUse"><stop stop-color="#42B2F1"/><stop offset="1" stop-color="#2A54D3"/></linearGradient><linearGradient id="paint2_linear" x1="227.631" y1="64.473" x2="242.448" y2="46.414" gradientUnits="userSpaceOnUse"><stop stop-color="#5144A3"/><stop offset=".544" stop-color="#6152BD"/><stop offset="1" stop-color="#6C5DCC"/></linearGradient><linearGradient id="paint3_linear" x1="184.64" y1="85.593" x2="169.811" y2="103.593" gradientUnits="userSpaceOnUse"><stop stop-color="#5144A3"/><stop offset=".544" stop-color="#6152BD"/><stop offset="1" stop-color="#6C5DCC"/></linearGradient><linearGradient id="paint4_linear" x1="211.524" y1="43.932" x2="211.524" y2="52.549" gradientUnits="userSpaceOnUse"><stop stop-color="#FFDBD0"/><stop offset="1" stop-color="#FF9979"/></linearGradient><linearGradient id="paint5_linear" x1="211.524" y1="43.932" x2="211.524" y2="52.549" gradientUnits="userSpaceOnUse"><stop stop-color="#FFDBD0"/><stop offset="1" stop-color="#FF9979"/></linearGradient><linearGradient id="paint6_linear" x1="211.524" y1="43.932" x2="211.524" y2="52.549" gradientUnits="userSpaceOnUse"><stop stop-color="#FFDBD0"/><stop offset="1" stop-color="#FF9979"/></linearGradient><linearGradient id="paint7_linear" x1="211.524" y1="43.932" x2="211.524" y2="52.549" gradientUnits="userSpaceOnUse"><stop stop-color="#FFDBD0"/><stop offset="1" stop-color="#FF9979"/></linearGradient><linearGradient id="paint8_linear" x1="211.524" y1="43.932" x2="211.524" y2="52.549" gradientUnits="userSpaceOnUse"><stop stop-color="#FFDBD0"/><stop offset="1" stop-color="#FF9979"/></linearGradient><linearGradient id="paint9_linear" x1="211.524" y1="43.932" x2="211.524" y2="52.549" gradientUnits="userSpaceOnUse"><stop stop-color="#FFDBD0"/><stop offset="1" stop-color="#FF9979"/></linearGradient><linearGradient id="paint10_linear" x1="238.818" y1="20.62" x2="238.818" y2="45.44" gradientUnits="userSpaceOnUse"><stop stop-color="#FFDBD0"/><stop offset="1" stop-color="#FF9979"/></linearGradient><linearGradient id="paint11_linear" x1="238.818" y1="20.62" x2="238.818" y2="45.44" gradientUnits="userSpaceOnUse"><stop stop-color="#FFDBD0"/><stop offset="1" stop-color="#FF9979"/></linearGradient><linearGradient id="paint12_linear" x1="238.818" y1="20.62" x2="238.818" y2="45.44" gradientUnits="userSpaceOnUse"><stop stop-color="#FFDBD0"/><stop offset="1" stop-color="#FF9979"/></linearGradient><linearGradient id="paint13_linear" x1="242.051" y1="25.746" x2="242.051" y2="29.721" gradientUnits="userSpaceOnUse"><stop stop-color="#FFDBD0"/><stop offset="1" stop-color="#FF9979"/></linearGradient><linearGradient id="paint14_linear" x1="236.23" y1="62.228" x2="236.23" y2="68.67" gradientUnits="userSpaceOnUse"><stop stop-color="#FFDBD0"/><stop offset="1" stop-color="#FF9979"/></linearGradient><linearGradient id="paint15_linear" x1="236.23" y1="62.228" x2="236.23" y2="68.67" gradientUnits="userSpaceOnUse"><stop stop-color="#FFDBD0"/><stop offset="1" stop-color="#FF9979"/></linearGradient><linearGradient id="paint16_linear" x1="236.23" y1="62.228" x2="236.23" y2="68.67" gradientUnits="userSpaceOnUse"><stop stop-color="#FFDBD0"/><stop offset="1" stop-color="#FF9979"/></linearGradient><linearGradient id="paint17_linear" x1="236.23" y1="62.228" x2="236.23" y2="68.67" gradientUnits="userSpaceOnUse"><stop stop-color="#FFDBD0"/><stop offset="1" stop-color="#FF9979"/></linearGradient><linearGradient id="paint18_linear" x1="236.23" y1="62.228" x2="236.23" y2="68.67" gradientUnits="userSpaceOnUse"><stop stop-color="#FFDBD0"/><stop offset="1" stop-color="#FF9979"/></linearGradient><linearGradient id="paint19_linear" x1="236.23" y1="62.228" x2="236.23" y2="68.67" gradientUnits="userSpaceOnUse"><stop stop-color="#FFDBD0"/><stop offset="1" stop-color="#FF9979"/></linearGradient><linearGradient id="paint20_linear" x1="161.83" y1="101.229" x2="161.83" y2="130.799" gradientUnits="userSpaceOnUse"><stop stop-color="#FFDBD0"/><stop offset="1" stop-color="#FF9979"/></linearGradient><linearGradient id="paint21_linear" x1="161.83" y1="101.229" x2="161.83" y2="130.799" gradientUnits="userSpaceOnUse"><stop stop-color="#FFDBD0"/><stop offset="1" stop-color="#FF9979"/></linearGradient><linearGradient id="paint22_linear" x1="161.83" y1="101.229" x2="161.83" y2="130.799" gradientUnits="userSpaceOnUse"><stop stop-color="#FFDBD0"/><stop offset="1" stop-color="#FF9979"/></linearGradient><linearGradient id="paint23_linear" x1="161.83" y1="101.229" x2="161.83" y2="130.799" gradientUnits="userSpaceOnUse"><stop stop-color="#FFDBD0"/><stop offset="1" stop-color="#FF9979"/></linearGradient><linearGradient id="paint24_linear" x1="161.83" y1="101.229" x2="161.83" y2="130.799" gradientUnits="userSpaceOnUse"><stop stop-color="#FFDBD0"/><stop offset="1" stop-color="#FF9979"/></linearGradient><linearGradient id="paint1_linear" x1="99.775" y1="89.08" x2="120.593" y2="74.267" gradientUnits="userSpaceOnUse"><stop stop-color="#5144A3"/><stop offset=".544" stop-color="#6152BD"/><stop offset="1" stop-color="#6C5DCC"/></linearGradient><linearGradient id="paint26_linear" x1="161.83" y1="101.229" x2="161.83" y2="130.799" gradientUnits="userSpaceOnUse"><stop stop-color="#FFDBD0"/><stop offset="1" stop-color="#FF9979"/></linearGradient><linearGradient id="paint27_linear" x1="187.183" y1="116.461" x2="187.183" y2="139.233" gradientUnits="userSpaceOnUse"><stop stop-color="#FFDBD0"/><stop offset="1" stop-color="#FF9979"/></linearGradient><linearGradient id="paint28_linear" x1="176.169" y1="90.556" x2="176.169" y2="114.642" gradientUnits="userSpaceOnUse"><stop stop-color="#FFDBD0"/><stop offset="1" stop-color="#FF9979"/></linearGradient><linearGradient id="paint29_linear" x1="176.169" y1="90.556" x2="176.169" y2="114.642" gradientUnits="userSpaceOnUse"><stop stop-color="#FFDBD0"/><stop offset="1" stop-color="#FF9979"/></linearGradient><linearGradient id="paint30_linear" x1="176.169" y1="90.556" x2="176.169" y2="114.642" gradientUnits="userSpaceOnUse"><stop stop-color="#FFDBD0"/><stop offset="1" stop-color="#FF9979"/></linearGradient><linearGradient id="paint31_linear" x1="176.169" y1="90.556" x2="176.169" y2="114.642" gradientUnits="userSpaceOnUse"><stop stop-color="#FFDBD0"/><stop offset="1" stop-color="#FF9979"/></linearGradient><linearGradient id="paint32_linear" x1="168.173" y1="63.512" x2="168.173" y2="74.995" gradientUnits="userSpaceOnUse"><stop stop-color="#FFDBD0"/><stop offset="1" stop-color="#FF9979"/></linearGradient><linearGradient id="paint33_linear" x1="168.173" y1="63.512" x2="168.173" y2="74.995" gradientUnits="userSpaceOnUse"><stop stop-color="#FFDBD0"/><stop offset="1" stop-color="#FF9979"/></linearGradient><linearGradient id="paint34_linear" x1="168.173" y1="63.512" x2="168.173" y2="74.995" gradientUnits="userSpaceOnUse"><stop stop-color="#FFDBD0"/><stop offset="1" stop-color="#FF9979"/></linearGradient><linearGradient id="paint35_linear" x1="168.173" y1="63.512" x2="168.173" y2="74.995" gradientUnits="userSpaceOnUse"><stop stop-color="#FFDBD0"/><stop offset="1" stop-color="#FF9979"/></linearGradient><linearGradient id="paint36_linear" x1="168.173" y1="63.512" x2="168.173" y2="74.995" gradientUnits="userSpaceOnUse"><stop stop-color="#FFDBD0"/><stop offset="1" stop-color="#FF9979"/></linearGradient><linearGradient id="paint37_linear" x1="168.173" y1="63.512" x2="168.173" y2="74.995" gradientUnits="userSpaceOnUse"><stop stop-color="#FFDBD0"/><stop offset="1" stop-color="#FF9979"/></linearGradient><linearGradient id="paint38_linear" x1="168.173" y1="63.512" x2="168.173" y2="74.995" gradientUnits="userSpaceOnUse"><stop stop-color="#FFDBD0"/><stop offset="1" stop-color="#FF9979"/></linearGradient><linearGradient id="paint39_linear" x1="174.645" y1="24.614" x2="174.645" y2="50.743" gradientUnits="userSpaceOnUse"><stop stop-color="#FFDBD0"/><stop offset="1" stop-color="#FF9979"/></linearGradient><linearGradient id="paint40_linear" x1="174.645" y1="24.614" x2="174.645" y2="50.743" gradientUnits="userSpaceOnUse"><stop stop-color="#FFDBD0"/><stop offset="1" stop-color="#FF9979"/></linearGradient><linearGradient id="paint41_linear" x1="180.215" y1="61.331" x2="180.215" y2="74.994" gradientUnits="userSpaceOnUse"><stop stop-color="#FFDBD0"/><stop offset="1" stop-color="#FF9979"/></linearGradient><linearGradient id="paint42_linear" x1="180.215" y1="61.331" x2="180.215" y2="74.994" gradientUnits="userSpaceOnUse"><stop stop-color="#FFDBD0"/><stop offset="1" stop-color="#FF9979"/></linearGradient><linearGradient id="paint43_linear" x1="180.215" y1="61.331" x2="180.215" y2="74.994" gradientUnits="userSpaceOnUse"><stop stop-color="#FFDBD0"/><stop offset="1" stop-color="#FF9979"/></linearGradient><linearGradient id="paint44_linear" x1="180.215" y1="61.331" x2="180.215" y2="74.994" gradientUnits="userSpaceOnUse"><stop stop-color="#FFDBD0"/><stop offset="1" stop-color="#FF9979"/></linearGradient><linearGradient id="paint45_linear" x1="180.215" y1="61.331" x2="180.215" y2="74.994" gradientUnits="userSpaceOnUse"><stop stop-color="#FFDBD0"/><stop offset="1" stop-color="#FF9979"/></linearGradient><linearGradient id="paint46_linear" x1="180.215" y1="61.331" x2="180.215" y2="74.994" gradientUnits="userSpaceOnUse"><stop stop-color="#FFDBD0"/><stop offset="1" stop-color="#FF9979"/></linearGradient><linearGradient id="paint47_linear" x1="180.215" y1="61.331" x2="180.215" y2="74.994" gradientUnits="userSpaceOnUse"><stop stop-color="#FFDBD0"/><stop offset="1" stop-color="#FF9979"/></linearGradient><linearGradient id="paint48_linear" x1="197.135" y1="166.599" x2="197.135" y2="173.51" gradientUnits="userSpaceOnUse"><stop stop-color="#FFDBD0"/><stop offset="1" stop-color="#FF9979"/></linearGradient><linearGradient id="paint49_linear" x1="109.212" y1="78.723" x2="109.212" y2="115.604" gradientUnits="userSpaceOnUse"><stop stop-color="#FFDBD0"/><stop offset="1" stop-color="#FF9979"/></linearGradient></defs></svg>