<svg width="300" height="227" viewBox="0 0 300 227" fill="none" xmlns="http://www.w3.org/2000/svg"><path d="M292.569 122.064c2.329-1.344 2.329-3.552 0-4.896l-63.995-36.944c-2.334-1.35-6.149-1.35-8.483 0l-29.192 16.854c-2.334 1.345-2.334 3.552 0 4.897l63.991 36.943c2.334 1.345 6.149 1.345 8.483 0l29.196-16.854z" fill="#F7F7FC"/><path d="M201.633 99.87v.04c0 .015-.005-.04 0-.04zM226.942 90.646l-2.738-1.579 2.738-1.584 2.733 1.584-2.733 1.579zM231.545 93.306l-2.733-1.579 2.733-1.583 2.739 1.583-2.739 1.579zM236.16 95.966l-2.739-1.578 2.739-1.584 2.733 1.584-2.733 1.578zM240.77 98.627l-2.739-1.579 2.739-1.578 2.733 1.578-2.733 1.58zM245.374 101.287l-2.733-1.578 2.733-1.58 2.738 1.58-2.738 1.578zM249.988 103.947l-2.738-1.578 2.738-1.579 2.734 1.579-2.734 1.578zM254.598 106.614l-2.738-1.579 2.738-1.583 2.734 1.583-2.734 1.579zM259.202 109.274l-2.734-1.579 2.734-1.583 2.738 1.583-2.738 1.579zM263.811 111.934l-2.733-1.578 2.733-1.584 2.738 1.584-2.738 1.578zM268.421 114.594l-2.733-1.578 2.733-1.584 2.738 1.584-2.738 1.578zM273.03 117.255l-2.733-1.579 2.733-1.579 2.739 1.579-2.739 1.579zM277.639 119.916l-2.738-1.579 2.738-1.579 2.739 1.579-2.739 1.579zM224.515 94.563l-4.921-2.836 2.738-1.583 4.921 2.84-2.738 1.579zM221.967 98.198l-6.793-3.922 2.739-1.579 6.792 3.923-2.738 1.578zM219.234 101.94l-8.664-5.004 2.734-1.579 8.663 5.004-2.733 1.579zM209.912 102.998l-4.921-2.84 3.703-2.14 4.921 2.841-3.703 2.139zM216.704 106.92l-4.921-2.841 3.703-2.139 4.921 2.841-3.703 2.139zM223.496 110.842l-4.921-2.84 3.703-2.139 4.921 2.84-3.703 2.139zM246.914 124.364l-4.916-2.841 3.703-2.139 4.921 2.841-3.708 2.139zM258.428 131.01l-9.653-5.57 3.708-2.139 9.648 5.57-3.703 2.139zM240.136 120.446l-14.769-8.522 3.703-2.139 14.769 8.527-3.703 2.134zM230.411 97.974l-4.025-2.324 2.739-1.584 4.024 2.325-2.738 1.583zM227.866 101.604l-4.024-2.324 2.738-1.579 4.025 2.324-2.739 1.579zM225.255 105.273l-4.025-2.324 2.739-1.579 4.024 2.324-2.738 1.579zM231.156 108.679l-4.025-2.324 2.733-1.579 4.03 2.325-2.738 1.578zM237.056 112.086l-4.029-2.324 2.738-1.579 4.025 2.324-2.734 1.579zM242.952 115.491l-4.025-2.324 2.739-1.579 4.024 2.324-2.738 1.579zM248.853 118.897l-4.024-2.324 2.733-1.579 4.03 2.324-2.739 1.579zM254.753 122.302l-4.029-2.324 2.738-1.579 4.025 2.325-2.734 1.578zM264.134 127.716l-7.509-4.332 2.738-1.578 7.504 4.331-2.733 1.579zM233.768 105.01l-4.029-2.324 2.738-1.579 4.025 2.325-2.734 1.578zM239.663 108.416l-4.025-2.324 2.739-1.584 4.024 2.329-2.738 1.579zM245.564 111.822l-4.024-2.324 2.733-1.583 4.03 2.329-2.739 1.578zM251.464 115.228l-4.029-2.325 2.738-1.583 4.025 2.329-2.734 1.579zM257.366 118.634l-4.03-2.324 2.738-1.584 4.025 2.329-2.733 1.579zM268.616 125.129l-9.38-5.413 2.734-1.584 9.379 5.419-2.733 1.578zM236.311 101.38l-4.024-2.329 2.733-1.578 4.03 2.324-2.739 1.583zM242.212 104.786l-4.03-2.325 2.738-1.583 4.025 2.324-2.733 1.584zM248.108 108.192l-4.025-2.324 2.738-1.584 4.025 2.324-2.738 1.584zM254.008 111.598l-4.025-2.329 2.734-1.579 4.029 2.325-2.738 1.583zM259.908 114.999l-4.029-2.325 2.738-1.578 4.025 2.324-2.734 1.579zM265.809 118.41l-4.03-2.329 2.739-1.579 4.024 2.324-2.733 1.584zM273.031 122.576l-5.35-3.089 2.734-1.579 5.355 3.089-2.739 1.579z" fill="#D0D4F6"/><path d="M190.9 101.989l63.991 36.944c2.334 1.345 6.149 1.345 8.483 0l29.196-16.869c1.164-.672 1.749-1.559 1.749-2.436v1.851c0 .892-.58 1.784-1.749 2.437l-29.191 16.854c-2.334 1.345-6.15 1.345-8.484 0L190.9 103.841c-1.189-.687-1.769-1.598-1.744-2.5v-1.812c-.005.887.604 1.773 1.744 2.46z" fill="#D0D4F6"/><path d="M296.803 59.019c0-2.694-1.91-5.998-4.239-7.348l-63.99-36.943c-2.334-1.345-4.24-.244-4.24 2.436v55.712c0 2.695 1.906 5.998 4.24 7.348l63.995 36.944c2.329 1.344 4.239.243 4.239-2.437l-.005-55.712z" fill="url(#paint0_linear)"/><path d="M296.803 114.716V59.019c0-2.695-1.91-5.998-4.239-7.348l-63.991-36.944c-1.15-.662-2.202-.73-2.967-.302l2.222-1.281c.775-.487 1.866-.463 3.074.234l63.991 36.963c2.334 1.35 4.239 4.653 4.239 7.347v55.684c0 1.413-.526 2.377-1.359 2.796l-2.11 1.218c.706-.467 1.14-1.383 1.14-2.67z" fill="#2B55D4"/><g style="mix-blend-mode:screen"><path d="M262.047 43.996l-11.075-6.393v-2.358l11.075 6.393v2.358zM256.312 52.88l-5.34-3.085v2.364l5.34 3.079V52.88zM283.315 106.916l-5.335-3.08v-2.363l5.335 3.084v2.359zM292.632 61.66l-28.714-16.582V42.72l28.714 16.576v2.363zM285.679 62.43L256.96 45.847V43.49l28.719 16.576v2.363zM281.294 64.68l-26.575-15.338V46.98l26.575 15.343v2.359zM264.99 65.237l-14.018-8.098V54.78l14.018 8.093v2.364zM292.632 81.194l-25.766-14.876v-2.363l25.766 14.876v2.363zM256.716 65.977l-5.744-3.313v-2.363l5.744 3.318v2.358zM292.631 86.714l-34.039-19.656V64.7l34.039 19.655v2.359zM262.047 74.577l-11.075-6.392V65.82l11.075 6.393v2.363zM292.632 92.235l-28.714-16.576V73.3l28.714 16.577v2.358zM285.679 93.925l-28.719-16.58v-2.36l28.719 16.577v2.363zM285.679 101.131L256.96 84.555v2.358l28.719 16.582v-2.364zM290.249 101.347l-28.202-16.28v-2.362l28.202 16.284v2.358z" fill="#fff"/></g><path d="M244.463 47.388c.243-.931 2.007-.137 2.714.273v-2.388c-.707-.41-2.466-1.647-2.705-2.855-.097-.395-.219-.8-.355-1.194-.488-1.233.628-2.183 1.13-2.47l-1.462-2.534c-.458.214-1.461.594-2.246.132-.189-.101-.355-.24-.487-.41a11.937 11.937 0 00-.863-.906c-.925-.814-1.12-2.924-1.115-3.762l-2.052-1.198c0 .813-.204 2.723-1.13 2.465a4.521 4.521 0 00-.867-.088.825.825 0 01-.488-.136c-.804-.463-1.822-2.003-2.231-2.719l-1.462.838c.57.907 1.598 3.094 1.111 3.767-.142.25-.263.513-.361.784-.243.926-2.007.132-2.714-.278v2.388c.707.41 2.466 1.652 2.705 2.855.102.4.219.8.355 1.199.488 1.228-.628 2.183-1.13 2.465l1.462 2.539c.414-.239 1.461-.604 2.241-.141.187.106.352.246.487.414.278.317.565.623.863.906.925 1.023 1.115 2.953 1.115 3.767l2.076 1.198c0-.813.205-2.728 1.131-2.47.284.057.572.086.862.087a.802.802 0 01.487.137c.809.487 1.827 2.007 2.237 2.724l1.462-.843c-.488-.863-1.604-3.094-1.111-3.762.135-.251.249-.514.341-.784zm-6.442-1.974a8.069 8.069 0 01-3.669-6.334c0-2.334 1.657-3.274 3.694-2.105a8.103 8.103 0 013.664 6.334c-.01 2.334-1.662 3.275-3.689 2.105z" fill="#43E8E1"/><path d="M216.128 178.117c0-6.855 4.342-7.05 4.342-7.05s2.353 0 6.178-1.589c3.825-1.588 9.087-.974 6.115 4.517a.98.98 0 01-.102.205 2.675 2.675 0 01-.975.848l-9.496 5.564c-1.433.828-6.032-1.082-6.062-2.495z" fill="url(#paint1_linear)"/><path d="M216.154 177.512c.083 1.413 4.614 3.284 6.051 2.466l9.497-5.574c.476-.28.924-.606 1.335-.975-.088.19-.161.375-.273.575a.98.98 0 01-.102.205 2.675 2.675 0 01-.975.848l-9.496 5.564c-1.355.775-5.472-.853-6.018-2.222a1.73 1.73 0 01-.044-.278 4.962 4.962 0 01.025-.609z" fill="#20196F"/><path d="M217.893 170.165c1.121 0 5.058.999 5.058.999.032.363.152.713.351 1.018.039.044.077.089.112.137.779.545 1.569 1.398-.278 2.553a2.55 2.55 0 01-3.318-.234 3.04 3.04 0 00-1.072-1.213 2.782 2.782 0 00-1.024-.434.524.524 0 000-.097s-.297-2.729.171-2.729z" fill="#fff"/><path d="M180.881 160.069c1.759-6.368 2.544-13.111 4.269-20.596 4.117-.818 36.987-16.785 41.416-8.19.158.313.231.662.214 1.013 1.579 8.001-3.693 39.277-3.693 39.277a1.46 1.46 0 01-.731.843 4.11 4.11 0 01-3.742 0c-.487-.268-.857-.618-.901-.974 0 0-2.286-18.608-1.589-26.843-11.299 8.771-28.426 17.746-35.243 15.47zM229.611 187.331c0-6.856 4.347-7.056 4.347-7.056s2.348 0 6.173-1.583c3.825-1.584 9.087-.975 6.115 4.517a1.11 1.11 0 01-.102.204 2.687 2.687 0 01-.975.843l-9.491 5.57c-1.438.843-6.033-1.082-6.067-2.495z" fill="#162A46"/><path d="M229.635 186.716c.083 1.414 4.615 3.285 6.052 2.466l9.492-5.569c.477-.28.926-.607 1.34-.975-.088.19-.161.37-.273.575-.027.072-.062.14-.103.205a2.684 2.684 0 01-.974.843l-9.492 5.569c-1.354.775-5.472-.853-6.017-2.222a1.618 1.618 0 01-.039-.278c-.01-.204-.005-.41.014-.614z" fill="#162A46"/><path d="M231.375 179.374c1.121 0 5.058 1.004 5.058 1.004.032.363.152.712.351 1.018.041.042.078.088.112.137.774.54 1.564 1.398-.283 2.553a2.557 2.557 0 01-3.318-.234 3.019 3.019 0 00-1.072-1.218 2.836 2.836 0 00-1.023-.434 1.442 1.442 0 000-.093s-.293-2.733.175-2.733z" fill="#fff"/><path d="M240.277 141.509c1.574 8.001-3.698 39.278-3.698 39.278a1.462 1.462 0 01-.731.843 4.15 4.15 0 01-3.742 0c-.487-.273-.857-.619-.901-.975 0 0-2.29-18.603-1.594-26.838 3.796-2.816 10.666-7.489 10.666-12.308z" fill="#162A46"/><path d="M231.497 163.684h-91.603v36.28c0 .975.652 1.949 1.949 2.719l39.145 22.579c2.607 1.501 6.822 1.501 9.429 0l39.121-22.589c1.306-.755 1.949-1.739 1.949-2.723l.01-36.266z" fill="url(#paint2_linear)"/><path d="M190.421 188.997l39.122-22.589c2.606-1.505 2.606-3.942 0-5.443l-39.122-22.588c-2.602-1.501-6.821-1.501-9.428 0l-39.127 22.569c-2.601 1.506-2.601 3.942 0 5.443l39.122 22.608c2.612 1.501 6.821 1.501 9.433 0z" fill="url(#paint3_linear)"/><path style="mix-blend-mode:multiply" d="M198.623 169.522h25.527l10.11-5.837-21.994-12.698-13.643 18.535z" fill="url(#paint4_linear)"/><path style="mix-blend-mode:multiply" d="M209.664 114.657c1.111-.95.974-.789 2.241-1.754.076-.233.115-.476.117-.721.242-.118.502-.196.77-.229.77.073 1.547.009 2.295-.19.843-.214 2.67-5.262 6.997-5.014-1.209.975-2.817 2.963-2.476 2.753a1.561 1.561 0 011.949.166c-.691.57-3.094 2.197-5.13 2.719a6.529 6.529 0 01-2.295.19c-.266.033-.525.11-.765.229a2.39 2.39 0 01-.122.716c-.975.779-1.861 1.501-2.31 1.886-.18-.108-1.062-.614-1.271-.751z" fill="url(#paint5_linear)"/><path style="mix-blend-mode:multiply" d="M232.096 120.606a2.17 2.17 0 00.112-.575c4.074.253 5.165-2.495 6.398-3.732 1.233-1.238 1.515-1.676 2.924-1.676 1.408 0 2.436-1.102 1.115-1.949a12.317 12.317 0 00-1.023-.566l.253.108c.733.317 1.446.678 2.135 1.081 1.32.829.263 1.949-1.121 1.949s-1.662.434-2.924 1.676c-1.262 1.243-2.324 3.986-6.392 3.733a2.746 2.746 0 01-.112.575c-2.461 1.895-3.002 2.616-5.136 4.214l-1.462-.813c2.1-1.584 2.821-2.178 5.233-4.025z" fill="url(#paint6_linear)"/><path d="M199.378 121.347a12.592 12.592 0 01-3.962.253 4.902 4.902 0 01-.974-.195c.71.453 1.516.734 2.353.819a12.45 12.45 0 003.479-.166l-.896-.711z" fill="url(#paint7_linear)"/><path d="M198.632 148.687c4.118-.818 36.993-16.786 41.417-8.195.157.315.231.666.214 1.018 0 4.829-6.87 9.492-10.675 12.308-11.295 8.77-28.422 17.741-35.238 15.465-11.046-3.683-16.601-6.592-20.114-14.13-1.16-2.466-1.399-9.37-1.399-12.327 12.23-6.023 21.795-.571 25.795 5.861z" fill="#162A46"/><path d="M221.889 105.223a20.08 20.08 0 00-2.134-1.086c-1.384-.658-3.586-.132-4.2.297-.614.429-4.41 2.753-5.131 4.259l-1.978 1.023 2.085 3.191s1.832-.974 2.261-.945c.77.073 1.547.009 2.295-.19 2.037-.521 4.439-2.144 5.126-2.719-1.014-.916-2.134.103-2.894.487.153-.265.338-.51.55-.73 1.238-1.243 1.52-1.677 2.899-1.677s2.442-1.081 1.121-1.91z" fill="url(#paint8_linear)"/><path d="M211.905 112.913c.731-2.183-1.866-4.108-3.411-3.962-7.167 3.123-10.642 4.98-13.092 4.259-10.306-4.819-6.106 7.854 0 8.39 7.162.629 10.787-4.283 16.503-8.687zM182.07 96.8c-5.184 1.135-11.694 4.448-7.358 13.482 2.948 6.169 7.358-13.482 7.358-13.482z" fill="#fff"/><path d="M183.015 157.145c10.15 5.696 23.934 3.615 25.824-4.385-6.899-23.193-8.458-38.591-8.293-48.038-4.477-3.455-8.283-6.53-11.572-7.265-3.411-.765-7.957-1.36-9.959.555-6.227 8.405-4.605 22.935-6.164 44.827 1.072 7.022 5.165 11.5 10.164 14.306z" fill="#fff"/><path d="M184.238 97.214c1.73-1.632 2.256-4.263 2.543-7.245a14.578 14.578 0 01.375-5.18c1.618-6.392 6.983-10.549 11.987-9.282 5.004 1.267 7.757 7.474 6.139 13.867-1.496 5.92-6.7 9.205-11.358 9.692-.234.487.644 1.228 1.462 1.754-3.825 1.018-7.372-.975-9.258-2.012-.974-.541-1.661-1.048-1.89-1.594z" fill="url(#paint9_linear)"/><path d="M228.905 116.981l1.462-.76c0-.327 1.149-3.898 4.204-4.809.629.95-.453 1.724-1.335 2.616 1.063-.848 2.437-1.7 3.056-2.124.618-.424 2.816-.975 4.195-.293.733.317 1.445.678 2.134 1.082 1.32.828.268 1.949-1.116 1.949-1.384 0-1.666.438-2.923 1.676-1.258 1.238-2.329 3.996-6.418 3.732a1.765 1.765 0 00-.925.346l-2.334-3.415z" fill="url(#paint10_linear)"/><path d="M232.095 120.606c.736-2.183-1.861-4.107-3.41-3.961-7.168 3.123-10.642 4.984-13.093 4.258-10.305-4.814-12.508-13.813-15.066-16.181-5.749-4.093-12.668 4.965-5.13 13.122 7.956 7.45 14.091 10.919 20.196 11.45 7.168.628 10.793-4.278 16.503-8.688z" fill="#fff"/><path d="M185.861 83.551c1.076-3.196 2.641-5.95 5.306-7.723 6.997-4.643 9.872-4.185 10.539-3.118 7.513-.916 9.19 3.07 4.044 8.77-1.462 1.95-.804 7.343-3.411 8.132.303-1.223-1.578-4.706-2.952.726-.146.585.258.81-.322 1.487-.58.677-3.537 2.002-5.579 3.215-2.845 1.7-3.664-.677-7.523-1.218a6.214 6.214 0 00-.122-3.674 17.657 17.657 0 01.02-6.597z" fill="#162A46"/><path d="M2.33 57.271c0-2.694 1.91-6.003 4.243-7.348L89.718 1.92c2.334-1.35 4.239-.243 4.239 2.437V81.77c0 2.695-1.905 5.998-4.24 7.348L6.574 137.122c-2.334 1.345-4.244.244-4.244-2.436V57.271z" fill="url(#paint11_linear)"/><path d="M2.33 134.67v-77.4c0-2.694 1.91-6.002 4.243-7.347L89.718 1.919c1.15-.668 2.197-.731 2.967-.307L90.463.33c-.775-.487-1.866-.458-3.075.24L4.244 48.577C1.91 49.923 0 53.231 0 55.926v77.4c0 1.408.526 2.377 1.36 2.792l2.114 1.223c-.706-.468-1.145-1.384-1.145-2.671z" fill="url(#paint12_linear)"/><path d="M60.867 101.138l30.064-17.36V17.291l-30.064 17.36v66.486z" fill="#DFE4F4"/><path d="M6.573 79.05l51.634-29.81V25.97L6.573 55.785V79.05z" fill="url(#paint13_linear)"/><path d="M47.38 52a8.31 8.31 0 013.743-6.486L76.06 31.12c2.06-1.189 3.742-.219 3.742 2.159V57.08a8.284 8.284 0 01-3.742 6.485L51.123 77.965c-2.056 1.189-3.742.214-3.742-2.164V52z" fill="#F1F1F6"/><path d="M48.145 60.764l8.926-5.155v2.363l-8.926 5.156v-2.364zM57.071 98.146l-19.797 11.431v-2.363l19.797-11.426v2.358zM44.554 62.835v2.363L6.573 87.124v-2.358l37.981-21.931zM39.993 70.495v2.358L6.573 92.148V89.79l33.42-19.295zM43.063 68.72l14.009-8.088v2.358L43.063 71.08V68.72zM48.145 70.807l8.926-5.15v2.358l-8.926 5.155v-2.363zM44.554 72.882v2.358L6.573 97.171v-2.363l37.981-21.926zM39.184 81.005v2.358L6.574 102.191v-2.359l32.611-18.827zM42.147 79.29l7.918-4.571v2.363l-7.918 4.57V79.29zM45.495 82.383l4.57-2.64V82.1l-4.57 2.64v-2.358zM41.065 84.942V87.3L6.573 107.214v-2.358l34.492-19.914zM43.56 88.522l6.505-3.756v2.358L43.56 90.88v-2.359zM41.065 89.96v2.363L6.573 112.237v-2.363L41.065 89.96zM44.554 92.972v2.358L6.573 117.256v-2.358l37.981-21.926zM48.145 90.896l8.926-5.155v2.363l-8.926 5.155v-2.363zM51.551 93.95l5.52-3.186v2.363l-5.52 3.187V93.95zM46.81 96.689v2.358L6.573 122.279v-2.358L46.81 96.688z" fill="#fff"/><path d="M91.422 50.42c-.21-.516-.356-2.046-.975-2.83-.487-.58-.726-4.235-1.661-4.337-.8-.088-.107 2.363-.755 2.894a5.233 5.233 0 00-2.1-1.242c-1.764-.186-3.728-.2-3.728.287s.56 3.688 1.35 4.01c.79.322 1.925.185 2.295.809.37.624 1.057 2.855 2.987 2.997l2.587-2.588z" fill="url(#paint14_linear)"/><path d="M91.422 50.42c1.014.488 7.158 13.955 11.007 16.737 4.629 1.618 7.504 6.335 10.535 7.909 3.094 2.221 2.816 8.98.336 12.234-5.916-2.986-10.179-8.059-15.222-12.61-6.744-6.09-9.95-16.669-10.115-20.669-.044-1.004 1.086-3.927 3.46-3.6z" fill="#fff"/><path d="M127.162 199.749c0-7.401-4.693-7.611-4.693-7.611s-2.538 0-6.665-1.715c-4.127-1.715-9.809-1.038-6.603 4.873.032.076.069.149.113.219.265.384.622.697 1.037.911l10.233 6.013c1.578.896 6.539-1.165 6.578-2.69z" fill="#162A46"/><path d="M127.132 199.086c-.087 1.521-4.979 3.543-6.534 2.661l-10.232-6.013a9.456 9.456 0 01-1.462-1.052c.093.204.176.399.293.618.031.076.069.15.112.22.265.384.622.697 1.038.911l10.232 6.013c1.462.838 5.91-.921 6.495-2.398.026-.099.042-.2.049-.302.018-.219.021-.438.009-.658z" fill="#20196F"/><path d="M125.34 191.168c-1.218 0-5.496 1.087-5.496 1.087a2.438 2.438 0 01-.38 1.111 1.122 1.122 0 00-.117.141c-.848.59-1.706 1.516.297 2.773a2.77 2.77 0 003.606-.254 3.236 3.236 0 011.159-1.32 2.98 2.98 0 011.121-.487.444.444 0 010-.103s.297-2.948-.19-2.948z" fill="#fff"/><path d="M125.388 118.354l-20.976.375c1.734 14.018 5.223 26.745 7.557 40.32 2.504 13.19 5.326 22.462 7.796 33.44.901 2.046 5.023 1.272 5.847-.697.653-10.11 1.403-22.414-1.598-34.108.511-12.561 1.666-26.638 1.374-39.33zM103.686 213.573c0-7.402-4.692-7.616-4.692-7.616s-2.539 0-6.666-1.71c-4.127-1.711-9.808-1.038-6.602 4.872.033.075.07.148.112.219.267.384.623.696 1.038.912l10.232 6.007c1.579.902 6.539-1.164 6.578-2.684z" fill="#162A46"/><path d="M103.656 212.909c-.087 1.525-4.98 3.547-6.529 2.661l-10.232-6.013a9.38 9.38 0 01-1.462-1.053c.093.205.175.4.292.624.034.075.071.148.113.219.267.384.623.696 1.037.912l10.233 6.007c1.461.838 5.905-.916 6.49-2.397.028-.097.044-.197.049-.297.018-.221.021-.442.009-.663z" fill="#20196F"/><path d="M101.805 204.851c-1.213 0-5.491 1.086-5.491 1.086a2.437 2.437 0 01-.38 1.111 1.82 1.82 0 00-.122.146c-.843.585-1.705 1.516.302 2.773a2.775 2.775 0 003.601-.259 3.355 3.355 0 011.165-1.32c.336-.234.715-.4 1.115-.487a.402.402 0 010-.098s.322-2.952-.19-2.952z" fill="#fff"/><path d="M110.595 151.682c1.277-6.028 15.977-6.773 15.012-30.463-4.614-.682-27.885 10.232-32.5 9.555-.574 14.13.79 27.242.878 41.012.312 13.423 1.579 23.027 2.217 34.263.555 2.164 4.75 2.076 5.896.273 2.294-9.867 5.047-21.926 3.995-33.898 1.374-6.646 3.006-13.687 4.502-20.742z" fill="#162A46"/><path d="M56.194 47.361c0-2.377 1.686-5.291 3.747-6.485l24.957-14.393c2.056-1.19 3.742-.22 3.742 2.158v23.793a8.313 8.313 0 01-3.742 6.485L59.96 73.317c-2.06 1.19-3.747.215-3.747-2.163l-.02-23.793z" fill="#fff"/><path d="M56.194 71.153V47.361c0-2.378 1.685-5.292 3.746-6.485l24.957-14.394c1.014-.59 1.95-.648 2.617-.268l-1.949-1.13c-.687-.434-1.647-.405-2.714.21L57.913 39.69a8.285 8.285 0 00-3.742 6.486v23.792c0 1.243.463 2.096 1.199 2.461l1.866 1.082c-.653-.415-1.042-1.223-1.042-2.359z" fill="url(#paint15_linear)"/><path d="M80.392 47.17a4.337 4.337 0 00-.61 1.575c-.13.869-.18 1.748-.15 2.626.02.855-.033 1.711-.156 2.558a5.073 5.073 0 01-.614 1.666 5.924 5.924 0 01-1.116 1.408c-.59.508-1.23.953-1.91 1.33l-.487.283v-2.558c.468-.241.903-.54 1.296-.892.19-.195.34-.425.443-.677.118-.341.169-.702.151-1.062 0-.327 0-1.091.063-2.295.02-.668.1-1.334.24-1.988a6.5 6.5 0 01.53-1.462c.247-.483.544-.939.887-1.36a1.887 1.887 0 01-.916-.355 1.778 1.778 0 01-.487-.794 5.532 5.532 0 01-.239-1.569 59.935 59.935 0 01-.083-2.495c.03-.291-.02-.586-.141-.852a.424.424 0 00-.429-.156 5 5 0 00-1.31.623v-2.543l.487-.283a7.724 7.724 0 011.769-.828 1.773 1.773 0 011.261.054 1.359 1.359 0 01.6.974c.142.92.198 1.852.165 2.782-.014.58.011 1.16.078 1.735.028.338.146.663.341.94a.717.717 0 00.59.302 2.684 2.684 0 001.014-.35v2.553c-.49.285-.92.662-1.267 1.11z" fill="url(#paint16_linear)"/><path d="M63.82 53.769a3.728 3.728 0 001.875-2.724c.12-.87.168-1.748.142-2.626-.019-.854.035-1.708.16-2.553a5.36 5.36 0 01.614-1.677 5.693 5.693 0 011.116-1.403 10.922 10.922 0 011.905-1.325l.487-.283v2.544c-.482.25-.932.56-1.34.92a1.798 1.798 0 00-.414.649c-.095.37-.138.752-.126 1.135-.03 1.705-.078 2.826-.147 3.362a7.47 7.47 0 01-.589 2.13 9.336 9.336 0 01-.975 1.573c.313.018.613.128.863.317.25.218.436.501.536.818a5.56 5.56 0 01.248 1.628c.054 1.189.078 2.002.083 2.436-.03.288.02.578.146.838a.458.458 0 00.449.156 4.607 4.607 0 001.286-.6v2.554l-.487.282a7.727 7.727 0 01-1.769.829 1.773 1.773 0 01-1.272-.049 1.383 1.383 0 01-.594-.974 15.532 15.532 0 01-.16-2.792 13.302 13.302 0 00-.074-1.725 2.057 2.057 0 00-.346-.93.707.707 0 00-.585-.308 2.66 2.66 0 00-1.013.351l-.02-2.553z" fill="url(#paint17_linear)"/><path d="M59.044 66.573c-.667-.536.312-2.436-.575-3.542-.886-1.106-.336-3.645-1.174-3.45-1.189.278-.629 2.85-1.13 2.88-1.462.078-2.437-2.33-2.208-3.382.23-1.052-.321-1.68-.906-.974s-3.074 4.083-1.316 7.075c1.76 2.991 4.951 5.291 4.951 5.291l2.358-3.898z" fill="url(#paint18_linear)"/><path d="M59.21 66.378c1.014.487 12.284 7.27 16.138 10.052 3.99 1.257 13.833 3.635 16.864 4.385 2.26.2 3.513.176 7.606-2.002 3.99-2.12 8.473-2.792 10.154-3.133 13.843-2.826 16.971 22.9 15.811 49.212-1.949 6.466-4.921 7.679-10.802 10.003-4.912 1.949-19.9 4.873-23.783-1.827 1.335-12.873 3.83-27.188 1.35-39.56-5.915-2.992-15.042-4.921-20.265-9.258-7.981-6.67-14.554-11.962-16.133-14.013-.945-1.145.604-4.268 3.06-3.859z" fill="#fff"/><path d="M73.442 85.108c3.898 1.311 15.817 3.835 20.514 4.722 5.403 1.018 3.464 4.595 3.016 7.62-.61 4.137-2.144 20.538-4.926 28.081 1.262-10.754 2.504-22.029.487-32.037-5.482-2.792-13.755-4.644-19.09-8.386z" fill="#F1F1F6"/><path d="M115.059 76.045c-2.968-2.144-3.06-.882-2.617-7.274.593-1.612.895-3.316.892-5.034 0-6.49-4.132-12.103-9.2-11.752-10.232.702-8.395 6.071-8.395 12.566 0 6.013 2.729 10.154 7.309 10.851 0 .975-1.213 1.784-2.436 3.026 3.196 2.139 8.502 2.358 11.05 1.423 2.349-.882 4.785-2.368 3.397-3.806z" fill="url(#paint19_linear)"/><path d="M108.622 50.343c-1.32-.677-2.504-.331-3.24-.799-1.739-1.067-3.411-1.75-4.317-1.242-.46.307-.894.652-1.296 1.033-.911.906-2.772-1.024-3.216 1.32a8.604 8.604 0 00-.156 1.822c-4.385.56-2.212 4.532 1.291 12.182 0-1.579 2.641-4.113 2.641 1.403 0 .594-.443.711-.053 1.496.39.784 2.894 2.762 4.551 4.414 2.304 2.31 3.659.239 7.469.653a6.063 6.063 0 011.009-3.474c.365-.648 2.436-2.7 2.46-6.285-2.962.365 2.3-7.66-7.143-12.523z" fill="#162A46"/><defs><linearGradient id="paint10_linear" x1="236.066" y1="111.29" x2="236.066" y2="120.396" gradientUnits="userSpaceOnUse"><stop stop-color="#FFDBD0"/><stop offset="1" stop-color="#FF9979"/></linearGradient><linearGradient id="paint0_linear" x1="221.479" y1="58.737" x2="285.477" y2="108.092" gradientUnits="userSpaceOnUse"><stop stop-color="#42B2F1"/><stop offset="1" stop-color="#2A54D3"/></linearGradient><linearGradient id="paint2_linear" x1="171.857" y1="216.036" x2="184.183" y2="193.196" gradientUnits="userSpaceOnUse"><stop stop-color="#5144A3"/><stop offset=".544" stop-color="#6152BD"/><stop offset="1" stop-color="#6C5DCC"/></linearGradient><linearGradient id="paint3_linear" x1="171.872" y1="181.394" x2="181.247" y2="160.794" gradientUnits="userSpaceOnUse"><stop stop-color="#5144A3"/><stop offset=".544" stop-color="#6152BD"/><stop offset="1" stop-color="#6C5DCC"/></linearGradient><linearGradient id="paint4_linear" x1="198.623" y1="160.254" x2="234.26" y2="160.254" gradientUnits="userSpaceOnUse"><stop stop-color="#D3D8F2"/><stop offset=".55" stop-color="#EEF0FA"/><stop offset="1" stop-color="#fff"/></linearGradient><linearGradient id="paint5_linear" x1="217.109" y1="113.683" x2="215.54" y2="109.916" gradientUnits="userSpaceOnUse"><stop stop-color="#C4CAE9"/><stop offset=".29" stop-color="#D1D6EE"/><stop offset=".83" stop-color="#F3F4FA"/><stop offset="1" stop-color="#fff"/></linearGradient><linearGradient id="paint6_linear" x1="237.31" y1="123.12" x2="234.64" y2="116.708" gradientUnits="userSpaceOnUse"><stop stop-color="#C4CAE9"/><stop offset="1" stop-color="#fff"/></linearGradient><linearGradient id="paint7_linear" x1="196.854" y1="122.906" x2="197.614" y2="121.088" gradientUnits="userSpaceOnUse"><stop stop-color="#E19100"/><stop offset=".58" stop-color="#F3AC04"/><stop offset="1" stop-color="#FCBA06"/></linearGradient><linearGradient id="paint8_linear" x1="215.469" y1="103.826" x2="215.469" y2="112.907" gradientUnits="userSpaceOnUse"><stop stop-color="#FFDBD0"/><stop offset="1" stop-color="#FF9979"/></linearGradient><linearGradient id="paint9_linear" x1="194.992" y1="75.28" x2="194.992" y2="101.101" gradientUnits="userSpaceOnUse"><stop stop-color="#FFDBD0"/><stop offset="1" stop-color="#FF9979"/></linearGradient><linearGradient id="paint1_linear" x1="233.626" y1="174.77" x2="216.124" y2="174.77" gradientUnits="userSpaceOnUse"><stop stop-color="#362E94"/><stop offset="1" stop-color="#362E94"/></linearGradient><linearGradient id="paint11_linear" x1="-1.281" y1="60.028" x2="82.039" y2="121.744" gradientUnits="userSpaceOnUse"><stop stop-color="#42B2F1"/><stop offset="1" stop-color="#2A54D3"/></linearGradient><linearGradient id="paint12_linear" x1="-3.652" y1="59.11" x2="80.375" y2="121.615" gradientUnits="userSpaceOnUse"><stop stop-color="#42B2F1"/><stop offset="1" stop-color="#2A54D3"/></linearGradient><linearGradient id="paint13_linear" x1="4.538" y1="48.815" x2="38.364" y2="85.084" gradientUnits="userSpaceOnUse"><stop stop-color="#42B2F1"/><stop offset="1" stop-color="#2A54D3"/></linearGradient><linearGradient id="paint14_linear" x1="86.813" y1="43.251" x2="86.813" y2="53.008" gradientUnits="userSpaceOnUse"><stop stop-color="#FFDBD0"/><stop offset="1" stop-color="#FF9979"/></linearGradient><linearGradient id="paint15_linear" x1="52.858" y1="45.76" x2="82.783" y2="68.334" gradientUnits="userSpaceOnUse"><stop stop-color="#42B2F1"/><stop offset="1" stop-color="#2A54D3"/></linearGradient><linearGradient id="paint16_linear" x1="75.1" y1="46.291" x2="83.154" y2="48.88" gradientUnits="userSpaceOnUse"><stop stop-color="#42B2F1"/><stop offset="1" stop-color="#2A54D3"/></linearGradient><linearGradient id="paint17_linear" x1="63.57" y1="50.503" x2="71.636" y2="53.096" gradientUnits="userSpaceOnUse"><stop stop-color="#42B2F1"/><stop offset="1" stop-color="#2A54D3"/></linearGradient><linearGradient id="paint18_linear" x1="55.081" y1="57.805" x2="55.081" y2="70.471" gradientUnits="userSpaceOnUse"><stop stop-color="#FFDBD0"/><stop offset="1" stop-color="#FF9979"/></linearGradient><linearGradient id="paint19_linear" x1="105.537" y1="51.969" x2="105.537" y2="80.376" gradientUnits="userSpaceOnUse"><stop stop-color="#FFDBD0"/><stop offset="1" stop-color="#FF9979"/></linearGradient></defs></svg>