<svg width="154" height="34" viewBox="0 0 154 34" fill="none" xmlns="http://www.w3.org/2000/svg"><path fill-rule="evenodd" clip-rule="evenodd" d="M49.257 14.527h3.714c1.267 0 2.28-1.095 2.2-2.404-.079-1.19-1.1-2.093-2.273-2.093h-3.641a.31.31 0 00-.304.311v3.875c0 .17.137.31.304.31zm6.422 3.32a.246.246 0 00-.08.289l3.584 8.622a.232.232 0 01-.21.326h-3.736a.464.464 0 01-.427-.296l-3.135-7.928a.464.464 0 00-.427-.296l-2.006-.007a.31.31 0 00-.304.31v7.906a.31.31 0 01-.304.31h-3.33a.31.31 0 01-.304-.31V6.311c0-.17.138-.311.304-.311h7.66c3.315 0 6.066 2.684 6.146 6.072.058 2.344-.847 3.978-3.048 5.502-.104.076-.19.136-.259.184a5.2 5.2 0 00-.124.09zm10.649 5.842c1.44 0 2.259-.606 2.44-1.804.18-1.22.18-3.372 0-4.6-.181-1.198-1-1.804-2.44-1.804-1.491 0-2.215.54-2.41 1.804-.182 1.22-.182 3.372 0 4.6.166 1.213.955 1.804 2.41 1.804zm-6.06-6.374c.42-3.432 2.737-5.562 6.06-5.562 3.337 0 5.676 2.13 6.088 5.562.153 1.212.153 3.328 0 4.54-.42 3.432-2.736 5.562-6.06 5.562-3.344 0-5.675-2.13-6.088-5.562-.152-1.212-.152-3.335 0-4.54zm22.885 4.563c-.065 1.175-.992 1.937-2.353 1.937-1.412 0-2.28-.702-2.382-1.937-.087-1.22-.087-3.365 0-4.585.065-.888.536-1.938 2.382-1.938 1.361 0 2.28.762 2.353 1.938.087 1.22.087 3.364 0 4.585zm-1.904-10.124c-1.267 0-1.904.303-2.498.835-.116.111-.304.022-.304-.14V6.31A.31.31 0 0078.143 6H75.11a.31.31 0 00-.304.31v20.463c0 .17.137.31.304.31h1.998a.456.456 0 00.369-.184l.739-.998c.072-.104.224-.097.296 0 .536.754 1.296 1.516 2.744 1.516 2.976 0 5.307-2.337 5.553-5.554.087-1.213.087-3.335 0-4.548-.254-3.225-2.585-5.562-5.56-5.562zm66.684 12.061c1.361 0 2.288-.762 2.353-1.937.094-1.22.094-3.365 0-4.585-.072-1.176-.992-1.938-2.353-1.938-1.412 0-2.28.71-2.382 1.938-.087 1.22-.087 3.364 0 4.585.073.887.536 1.937 2.382 1.937zm.449-12.062c2.976 0 5.314 2.337 5.553 5.554.087 1.213.087 3.343 0 4.556-.246 3.217-2.577 5.554-5.553 5.554-1.267 0-1.911-.304-2.498-.844-.115-.11-.304-.022-.304.141v5.975c0 .17-.137.311-.304.311h-3.033a.309.309 0 01-.304-.31V12.396c0-.17.137-.31.304-.31h1.998c.145 0 .282.066.369.184l.731.998c.08.104.225.104.297 0 .536-.754 1.296-1.515 2.744-1.515zM97.125 21.886c-.18 1.198-.999 1.804-2.44 1.804-1.454 0-2.244-.591-2.41-1.804-.181-1.228-.181-3.38 0-4.6.195-1.265.92-1.804 2.41-1.804 1.441 0 2.26.606 2.44 1.804.181 1.228.181 3.38 0 4.6zm-2.44-10.132c-3.322 0-5.639 2.13-6.059 5.562-.152 1.205-.152 3.328 0 4.54.413 3.432 2.751 5.562 6.089 5.562 3.323 0 5.639-2.13 6.059-5.562.152-1.212.152-3.328 0-4.54-.42-3.432-2.75-5.562-6.088-5.562zm7.957 5.562c.42-3.432 2.751-5.562 6.089-5.562 3.511 0 5.965 2.404 5.958 5.872v.178a.31.31 0 01-.304.31h-2.874a.304.304 0 01-.305-.28.314.314 0 00-.003-.043.43.43 0 01-.004-.054c-.087-1.464-.948-2.24-2.497-2.24-1.506 0-2.252.554-2.411 1.804-.152 1.22-.152 3.372 0 4.592.137 1.206.955 1.812 2.44 1.812 1.505 0 2.244-.673 2.468-2.233l.022-.126a.307.307 0 01.304-.266h2.867a.31.31 0 01.304.31v.178c0 3.838-2.997 5.85-5.965 5.85-3.345 0-5.676-2.13-6.089-5.562-.152-1.212-.152-3.335 0-4.54zm22.313 4.57c-.181 1.198-1 1.804-2.44 1.804-1.455 0-2.244-.591-2.411-1.804-.181-1.228-.181-3.38 0-4.6.195-1.265.919-1.804 2.411-1.804 1.44 0 2.259.606 2.44 1.804.181 1.228.181 3.38 0 4.6zm-2.44-10.132c-3.323 0-5.64 2.13-6.06 5.562-.152 1.205-.152 3.328 0 4.54.413 3.432 2.751 5.562 6.089 5.562 3.323 0 5.639-2.13 6.059-5.562.152-1.212.152-3.328 0-4.54-.42-3.432-2.751-5.562-6.088-5.562zm16.065.34h1.187a.3.3 0 01.304.311V15.2a.31.31 0 01-.304.31h-1.216c-2.498 0-3.989 1.42-3.989 3.801v7.47a.31.31 0 01-.305.31h-3.033a.31.31 0 01-.304-.31V12.41c0-.17.138-.31.304-.31h1.788a.46.46 0 01.435.318l.572 1.723c.043.133.21.17.304.074.275-.288.753-.769.999-.969.593-.488 1.404-1.153 3.258-1.153z" fill="#fff"/><mask id="a" maskUnits="userSpaceOnUse" x="0" y="0" width="39" height="34" fill="#000"><path fill="#fff" d="M0 0h39v34H0z"/><path d="M31.106 8.113a2.453 2.453 0 011.376.135 6.814 6.814 0 014.249 6.27v.775a6.758 6.758 0 01-4.227 6.27 2.419 2.419 0 01-1.756.027c-.108-.043-.222.054-.2.168.054.287.06.585.005.883a11.354 11.354 0 01-11.19 9.37c-5.517 0-10.22-3.94-11.19-9.37a2.418 2.418 0 01.005-.883c.021-.114-.092-.211-.2-.168a2.466 2.466 0 01-.835.152 2.46 2.46 0 01-.916-.179C3.658 20.506 2 18.046 2 15.293v-.775a6.758 6.758 0 014.227-6.27 2.406 2.406 0 011.376-.135c.087.016.168-.033.185-.12.617-3.05 3.083-5.44 6.199-5.906a7.49 7.49 0 014.26.59 2.65 2.65 0 002.221 0 7.583 7.583 0 014.26-.59c3.115.466 5.581 2.856 6.199 5.907.016.086.092.135.179.119z"/></mask><path d="M31.106 8.113a2.453 2.453 0 011.376.135 6.814 6.814 0 014.249 6.27v.775a6.758 6.758 0 01-4.227 6.27 2.419 2.419 0 01-1.756.027c-.108-.043-.222.054-.2.168.054.287.06.585.005.883a11.354 11.354 0 01-11.19 9.37c-5.517 0-10.22-3.94-11.19-9.37a2.418 2.418 0 01.005-.883c.021-.114-.092-.211-.2-.168a2.466 2.466 0 01-.835.152 2.46 2.46 0 01-.916-.179C3.658 20.506 2 18.046 2 15.293v-.775a6.758 6.758 0 014.227-6.27 2.406 2.406 0 011.376-.135c.087.016.168-.033.185-.12.617-3.05 3.083-5.44 6.199-5.906a7.49 7.49 0 014.26.59 2.65 2.65 0 002.221 0 7.583 7.583 0 014.26-.59c3.115.466 5.581 2.856 6.199 5.907.016.086.092.135.179.119z" fill="#2C3A4D"/><path d="M32.482 8.248l.612-1.487-.011-.004-.6 1.491zm-1.376-.135l.296 1.58h.005l-.301-1.58zm-.18-.12l1.581-.296-.002-.011-.002-.011-1.576.319zm-6.198-5.906l.237-1.59h-.002l-.236 1.59zm-4.26.59l-.666-1.463-.008.004.674 1.46zm-2.222 0l.674-1.46h-.003l-.67 1.46zm-4.259-.59l.238 1.59h.003l-.241-1.59zm-6.2 5.907l-1.575-.32-.003.012-.002.011 1.58.297zm-.184.119l-.3 1.58h.004l.296-1.58zm-1.376.135l.609 1.489.007-.003-.616-1.486zm0 13.315l-.612 1.487.007.003.008.003.597-1.493zm1.75.027l.545 1.513.026-.01.026-.01-.597-1.493zm.2.168l-1.579-.3v.002l1.58.298zm-.005.883l1.583-.282v-.005l-1.583.287zm22.381 0l-1.582-.287v.005l1.582.282zm-.005-.883l1.58-.298v-.003l-1.58.301zm.2-.168l-.597 1.493.021.009.022.007.554-1.509zm1.756-.027l.597 1.493.012-.005-.61-1.488zm4.227-7.045h1.608v-.01l-1.608.01zm-3.648-7.761a4.06 4.06 0 00-2.278-.224l.602 3.16a.845.845 0 01.475.047l1.2-2.983zm-2.274-.224a1.46 1.46 0 011.698 1.165l-3.16.592a1.754 1.754 0 002.055 1.403l-.593-3.16zm1.694 1.142c-.75-3.704-3.742-6.61-7.538-7.178l-.475 3.18c2.437.365 4.375 2.238 4.861 4.636l3.152-.638zM24.963.496a9.19 9.19 0 00-5.16.718l1.331 2.927a5.975 5.975 0 013.358-.463l.471-3.182zm-5.169.722a1.042 1.042 0 01-.437.096v3.215c.61 0 1.219-.13 1.785-.391l-1.348-2.92zm-.437.096c-.15 0-.299-.032-.437-.096l-1.348 2.92a4.259 4.259 0 001.785.391V1.314zm-.44-.098a9.098 9.098 0 00-5.171-.719l.482 3.18a5.882 5.882 0 013.348.462l1.341-2.923zM13.75.496c-3.795.568-6.787 3.475-7.537 7.179l3.151.638c.486-2.398 2.425-4.271 4.862-4.636l-.476-3.18zM6.207 7.698c.167-.89 1.016-1.291 1.693-1.164l-.593 3.16c.85.16 1.861-.338 2.06-1.403l-3.16-.593zm1.697-1.164a4.014 4.014 0 00-2.293.23l1.232 2.97a.799.799 0 01.46-.04l.601-3.16zm-2.286.227a8.366 8.366 0 00-5.226 7.758h3.216a5.15 5.15 0 013.228-4.781L5.618 6.76zM.392 14.518v.775h3.216v-.775H.392zm0 .775c0 3.412 2.059 6.455 5.223 7.757l1.224-2.974c-1.973-.811-3.231-2.69-3.231-4.783H.392zm5.238 7.763c.484.194.995.294 1.513.294v-3.216a.85.85 0 01-.319-.064L5.63 23.056zm1.513.294c.488 0 .953-.094 1.379-.247l-1.09-3.026a.867.867 0 01-.29.057v3.216zm1.431-.267c-1.121.449-2.182-.545-1.976-1.626l3.16.602c.248-1.308-1.04-2.497-2.378-1.962l1.194 2.986zM6.598 21.46a4.026 4.026 0 00-.008 1.47l3.164-.576a.811.811 0 01.004-.298l-3.16-.596zm-.009 1.464A12.962 12.962 0 0019.363 33.62v-3.216a9.746 9.746 0 01-9.608-8.044l-3.166.565zM19.363 33.62a12.962 12.962 0 0012.773-10.695l-3.166-.565a9.746 9.746 0 01-9.607 8.044v3.216zm12.772-10.69a4.028 4.028 0 00-.007-1.469l-3.16.596c.02.107.02.206.003.298l3.164.575zm-.008-1.472c.206 1.08-.855 2.075-1.976 1.626l1.194-2.986c-1.338-.535-2.626.654-2.377 1.962l3.16-.602zM30.194 23.1c.43.158.899.25 1.389.25v-3.215a.815.815 0 01-.28-.053l-1.11 3.018zm1.389.25c.514 0 1.03-.098 1.518-.293l-1.194-2.986a.879.879 0 01-.324.064v3.216zm1.53-.298a8.366 8.366 0 005.226-7.758h-3.216a5.15 5.15 0 01-3.228 4.782l1.218 2.976zm5.226-7.758v-.775h-3.216v.775h3.216zm0-.784a8.422 8.422 0 00-5.245-7.748L31.87 9.735a5.206 5.206 0 013.253 4.793l3.216-.02z" fill="#fff" fill-opacity=".15" mask="url(#a)"/><path fill-rule="evenodd" clip-rule="evenodd" d="M31.702 19.65c1.723-.704 2.942-2.378 2.942-4.351v-.775c0-1.972-1.22-3.652-2.942-4.357a.347.347 0 00-.477.32v8.844c0 .249.249.412.477.32zm-3.09.212a9.216 9.216 0 00-2.194-5.267.337.337 0 01.081-.515 5.428 5.428 0 002.477-5.23c-.276-2.384-2.179-4.357-4.552-4.714a5.48 5.48 0 00-3.094.428 4.704 4.704 0 01-1.978.433c-.678 0-1.35-.146-1.978-.433a5.434 5.434 0 00-3.095-.428c-2.373.352-4.275 2.33-4.552 4.714a5.423 5.423 0 002.477 5.23c.184.119.222.347.081.514a9.252 9.252 0 00-2.195 5.268.343.343 0 00.342.38h17.84a.35.35 0 00.34-.38zM10.2 22.279c.78 4.351 4.574 7.662 9.153 7.662 4.579 0 8.372-3.305 9.152-7.662a.348.348 0 00-.341-.412H10.54a.35.35 0 00-.341.412zM7.007 19.65a.347.347 0 00.477-.32v-8.85c0-.249-.25-.411-.477-.32-1.723.71-2.943 2.385-2.943 4.358v.78c0 1.967 1.22 3.647 2.943 4.352zm7.739-11.267h9.212c.498 0 .905.406.905.905a.907.907 0 01-.905.905h-9.212a.907.907 0 01-.905-.905c0-.499.406-.905.905-.905zm5.288 5.923a1.078 1.078 0 112.156-.002 1.078 1.078 0 01-2.156.002zm-2.444-1.079a1.078 1.078 0 100 2.156 1.078 1.078 0 000-2.156z" fill="#fff"/></svg>