<svg width="322" height="322" viewBox="0 0 322 322" fill="none" xmlns="http://www.w3.org/2000/svg">
<g filter="url(#filter0_b)">
<circle cx="161" cy="161" r="161" fill="#6641D8" fill-opacity="0.4"/>
</g>
<g filter="url(#filter1_b)">
<circle cx="161" cy="161" r="115" fill="#6641D8" fill-opacity="0.8"/>
</g>
<circle cx="161" cy="161" r="80.5" fill="#561FAA" stroke="#472B9E"/>
<path d="M116.45 147.162C115.574 147.162 114.8 146.982 114.128 146.622C113.456 146.262 112.934 145.758 112.562 145.11C112.202 144.45 112.022 143.694 112.022 142.842V138.558C112.022 137.706 112.202 136.956 112.562 136.308C112.934 135.66 113.456 135.156 114.128 134.796C114.8 134.436 115.574 134.256 116.45 134.256C117.338 134.256 118.118 134.436 118.79 134.796C119.474 135.156 120.002 135.66 120.374 136.308C120.746 136.956 120.932 137.706 120.932 138.558V142.842C120.932 143.694 120.746 144.45 120.374 145.11C120.002 145.758 119.474 146.262 118.79 146.622C118.118 146.982 117.338 147.162 116.45 147.162ZM116.45 145.668C117.278 145.668 117.944 145.416 118.448 144.912C118.952 144.408 119.204 143.742 119.204 142.914V138.54C119.204 137.7 118.952 137.028 118.448 136.524C117.944 136.008 117.278 135.75 116.45 135.75C115.634 135.75 114.98 136.008 114.488 136.524C113.996 137.028 113.75 137.7 113.75 138.54V142.914C113.75 143.742 113.996 144.408 114.488 144.912C114.98 145.416 115.634 145.668 116.45 145.668ZM130.502 140.142C130.718 140.802 130.826 141.57 130.826 142.446C130.826 143.286 130.73 144.012 130.538 144.624C130.286 145.428 129.872 146.052 129.296 146.496C128.72 146.928 127.982 147.144 127.082 147.144C126.674 147.144 126.284 147.066 125.912 146.91C125.552 146.742 125.24 146.508 124.976 146.208C124.952 146.184 124.928 146.178 124.904 146.19C124.892 146.202 124.886 146.22 124.886 146.244V150.258C124.886 150.378 124.826 150.438 124.706 150.438H123.338C123.218 150.438 123.158 150.378 123.158 150.258V138.018C123.158 137.898 123.218 137.838 123.338 137.838H124.706C124.826 137.838 124.886 137.898 124.886 138.018V138.612C124.886 138.636 124.892 138.654 124.904 138.666C124.928 138.678 124.952 138.672 124.976 138.648C125.24 138.348 125.552 138.114 125.912 137.946C126.272 137.778 126.662 137.694 127.082 137.694C127.946 137.694 128.666 137.91 129.242 138.342C129.818 138.762 130.238 139.362 130.502 140.142ZM128.504 144.786C128.888 144.21 129.08 143.418 129.08 142.41C129.08 141.486 128.93 140.742 128.63 140.178C128.474 139.854 128.246 139.608 127.946 139.44C127.646 139.272 127.304 139.188 126.92 139.188C126.224 139.188 125.702 139.512 125.354 140.16C125.066 140.652 124.922 141.408 124.922 142.428C124.922 143.46 125.078 144.228 125.39 144.732C125.726 145.344 126.23 145.65 126.902 145.65C127.622 145.65 128.156 145.362 128.504 144.786ZM140.323 141.276C140.383 141.732 140.407 142.284 140.395 142.932C140.395 143.052 140.335 143.112 140.215 143.112H134.473C134.425 143.112 134.401 143.136 134.401 143.184C134.401 143.592 134.437 143.904 134.509 144.12C134.641 144.6 134.905 144.978 135.301 145.254C135.709 145.518 136.219 145.65 136.831 145.65C137.719 145.65 138.397 145.284 138.865 144.552C138.913 144.444 138.997 144.426 139.117 144.498L140.143 145.182C140.227 145.254 140.245 145.332 140.197 145.416C139.849 145.968 139.369 146.4 138.757 146.712C138.145 147.012 137.449 147.162 136.669 147.162C135.793 147.162 135.049 146.97 134.437 146.586C133.837 146.202 133.393 145.656 133.105 144.948C132.817 144.24 132.673 143.382 132.673 142.374C132.673 141.498 132.739 140.832 132.871 140.376C133.087 139.548 133.513 138.894 134.149 138.414C134.797 137.934 135.583 137.694 136.507 137.694C137.731 137.694 138.637 138 139.225 138.612C139.825 139.212 140.191 140.1 140.323 141.276ZM136.507 139.188C136.003 139.188 135.583 139.32 135.247 139.584C134.911 139.836 134.683 140.178 134.563 140.61C134.479 140.874 134.425 141.21 134.401 141.618C134.401 141.666 134.425 141.69 134.473 141.69H138.595C138.643 141.69 138.667 141.666 138.667 141.618C138.643 141.222 138.607 140.928 138.559 140.736C138.439 140.268 138.199 139.896 137.839 139.62C137.491 139.332 137.047 139.188 136.507 139.188ZM146.438 137.712C147.422 137.712 148.202 138 148.778 138.576C149.354 139.14 149.642 139.908 149.642 140.88V146.82C149.642 146.94 149.582 147 149.462 147H148.094C147.974 147 147.914 146.94 147.914 146.82V141.222C147.914 140.622 147.74 140.136 147.392 139.764C147.044 139.392 146.582 139.206 146.006 139.206C145.454 139.206 144.998 139.38 144.638 139.728C144.29 140.076 144.104 140.532 144.08 141.096C144.08 141.168 144.074 141.204 144.062 141.204V146.82C144.062 146.94 144.002 147 143.882 147H142.514C142.394 147 142.334 146.94 142.334 146.82V138.018C142.334 137.898 142.394 137.838 142.514 137.838H143.882C144.002 137.838 144.062 137.898 144.062 138.018V138.684C144.062 138.708 144.068 138.726 144.08 138.738C144.104 138.75 144.122 138.744 144.134 138.72C144.65 138.048 145.418 137.712 146.438 137.712ZM151.999 140.934C151.999 140.814 152.059 140.754 152.179 140.754H157.741C157.861 140.754 157.921 140.814 157.921 140.934V142.068C157.921 142.188 157.861 142.248 157.741 142.248H152.179C152.059 142.248 151.999 142.188 151.999 142.068V140.934ZM163.269 147.108C162.549 147.108 161.919 147 161.379 146.784C160.839 146.568 160.419 146.274 160.119 145.902C159.819 145.518 159.669 145.098 159.669 144.642V144.444C159.669 144.324 159.729 144.264 159.849 144.264H161.145C161.265 144.264 161.325 144.324 161.325 144.444V144.534C161.325 144.87 161.505 145.164 161.865 145.416C162.237 145.668 162.699 145.794 163.251 145.794C163.803 145.794 164.247 145.68 164.583 145.452C164.919 145.212 165.087 144.912 165.087 144.552C165.087 144.204 164.925 143.946 164.601 143.778C164.289 143.598 163.785 143.412 163.089 143.22C162.405 143.028 161.835 142.836 161.379 142.644C160.923 142.44 160.533 142.158 160.209 141.798C159.897 141.426 159.741 140.952 159.741 140.376C159.741 139.572 160.053 138.936 160.677 138.468C161.313 137.988 162.147 137.748 163.179 137.748C163.875 137.748 164.487 137.862 165.015 138.09C165.555 138.306 165.969 138.612 166.257 139.008C166.557 139.404 166.707 139.848 166.707 140.34V140.394C166.707 140.514 166.647 140.574 166.527 140.574H165.249C165.129 140.574 165.069 140.514 165.069 140.394V140.34C165.069 139.992 164.895 139.704 164.547 139.476C164.211 139.236 163.749 139.116 163.161 139.116C162.633 139.116 162.207 139.218 161.883 139.422C161.559 139.626 161.397 139.902 161.397 140.25C161.397 140.598 161.553 140.862 161.865 141.042C162.189 141.222 162.705 141.414 163.413 141.618C164.109 141.81 164.685 142.002 165.141 142.194C165.597 142.374 165.987 142.65 166.311 143.022C166.647 143.382 166.815 143.856 166.815 144.444C166.815 145.26 166.491 145.908 165.843 146.388C165.195 146.868 164.337 147.108 163.269 147.108ZM172.336 147.144C171.436 147.144 170.656 146.922 169.996 146.478C169.348 146.022 168.886 145.392 168.61 144.588C168.406 143.916 168.304 143.184 168.304 142.392C168.304 141.54 168.406 140.82 168.61 140.232C168.874 139.44 169.33 138.822 169.978 138.378C170.638 137.922 171.43 137.694 172.354 137.694C173.218 137.694 173.968 137.916 174.604 138.36C175.24 138.804 175.696 139.422 175.972 140.214C176.2 140.862 176.314 141.582 176.314 142.374C176.314 143.19 176.2 143.928 175.972 144.588C175.696 145.392 175.24 146.022 174.604 146.478C173.968 146.922 173.212 147.144 172.336 147.144ZM172.336 145.65C172.816 145.65 173.23 145.512 173.578 145.236C173.938 144.96 174.196 144.582 174.352 144.102C174.496 143.67 174.568 143.106 174.568 142.41C174.568 141.714 174.502 141.156 174.37 140.736C174.214 140.244 173.956 139.866 173.596 139.602C173.236 139.326 172.804 139.188 172.3 139.188C171.796 139.188 171.364 139.326 171.004 139.602C170.644 139.866 170.392 140.244 170.248 140.736C170.116 141.156 170.05 141.714 170.05 142.41C170.05 143.106 170.116 143.67 170.248 144.102C170.38 144.594 170.632 144.978 171.004 145.254C171.376 145.518 171.82 145.65 172.336 145.65ZM183.859 138.018C183.859 137.898 183.919 137.838 184.039 137.838H185.389C185.509 137.838 185.569 137.898 185.569 138.018V146.82C185.569 146.94 185.509 147 185.389 147H184.039C183.919 147 183.859 146.94 183.859 146.82V146.154C183.859 146.13 183.847 146.118 183.823 146.118C183.811 146.106 183.793 146.112 183.769 146.136C183.289 146.796 182.545 147.126 181.537 147.126C180.961 147.126 180.421 147.012 179.917 146.784C179.425 146.556 179.029 146.22 178.729 145.776C178.429 145.332 178.279 144.792 178.279 144.156V138.018C178.279 137.898 178.339 137.838 178.459 137.838H179.809C179.929 137.838 179.989 137.898 179.989 138.018V143.616C179.989 144.24 180.151 144.732 180.475 145.092C180.811 145.452 181.279 145.632 181.879 145.632C182.479 145.632 182.959 145.452 183.319 145.092C183.679 144.72 183.859 144.228 183.859 143.616V138.018ZM192.069 137.748C192.453 137.748 192.801 137.826 193.113 137.982C193.197 138.018 193.227 138.09 193.203 138.198L192.933 139.548C192.921 139.656 192.849 139.692 192.717 139.656C192.441 139.548 192.111 139.512 191.727 139.548C191.175 139.572 190.713 139.77 190.341 140.142C189.969 140.502 189.783 140.976 189.783 141.564V146.82C189.783 146.94 189.723 147 189.603 147H188.235C188.115 147 188.055 146.94 188.055 146.82V138.018C188.055 137.898 188.115 137.838 188.235 137.838H189.603C189.723 137.838 189.783 137.898 189.783 138.018V139.008C189.783 139.044 189.789 139.068 189.801 139.08C189.825 139.08 189.843 139.062 189.855 139.026C190.395 138.174 191.133 137.748 192.069 137.748ZM198.244 147.144C197.344 147.144 196.57 146.916 195.922 146.46C195.274 145.992 194.824 145.362 194.572 144.57C194.392 143.958 194.302 143.232 194.302 142.392C194.302 141.636 194.392 140.91 194.572 140.214C194.812 139.446 195.256 138.834 195.904 138.378C196.564 137.922 197.344 137.694 198.244 137.694C199.156 137.694 199.948 137.922 200.62 138.378C201.292 138.834 201.73 139.41 201.934 140.106C201.994 140.298 202.036 140.49 202.06 140.682V140.718C202.06 140.802 202.006 140.856 201.898 140.88L200.548 141.078H200.512C200.428 141.078 200.374 141.024 200.35 140.916L200.296 140.628C200.2 140.22 199.966 139.878 199.594 139.602C199.222 139.326 198.772 139.188 198.244 139.188C197.728 139.188 197.29 139.326 196.93 139.602C196.57 139.878 196.336 140.244 196.228 140.7C196.108 141.096 196.048 141.666 196.048 142.41C196.048 143.142 196.108 143.706 196.228 144.102C196.336 144.582 196.564 144.96 196.912 145.236C197.272 145.512 197.716 145.65 198.244 145.65C198.772 145.65 199.222 145.512 199.594 145.236C199.966 144.948 200.2 144.588 200.296 144.156L200.314 144.03C200.326 143.91 200.398 143.862 200.53 143.886L201.862 144.102C201.97 144.126 202.024 144.18 202.024 144.264C202.024 144.36 201.994 144.51 201.934 144.714C201.73 145.446 201.286 146.034 200.602 146.478C199.93 146.922 199.144 147.144 198.244 147.144ZM211.128 141.276C211.188 141.732 211.212 142.284 211.2 142.932C211.2 143.052 211.14 143.112 211.02 143.112H205.278C205.23 143.112 205.206 143.136 205.206 143.184C205.206 143.592 205.242 143.904 205.314 144.12C205.446 144.6 205.71 144.978 206.106 145.254C206.514 145.518 207.024 145.65 207.636 145.65C208.524 145.65 209.202 145.284 209.67 144.552C209.718 144.444 209.802 144.426 209.922 144.498L210.948 145.182C211.032 145.254 211.05 145.332 211.002 145.416C210.654 145.968 210.174 146.4 209.562 146.712C208.95 147.012 208.254 147.162 207.474 147.162C206.598 147.162 205.854 146.97 205.242 146.586C204.642 146.202 204.198 145.656 203.91 144.948C203.622 144.24 203.478 143.382 203.478 142.374C203.478 141.498 203.544 140.832 203.676 140.376C203.892 139.548 204.318 138.894 204.954 138.414C205.602 137.934 206.388 137.694 207.312 137.694C208.536 137.694 209.442 138 210.03 138.612C210.63 139.212 210.996 140.1 211.128 141.276ZM207.312 139.188C206.808 139.188 206.388 139.32 206.052 139.584C205.716 139.836 205.488 140.178 205.368 140.61C205.284 140.874 205.23 141.21 205.206 141.618C205.206 141.666 205.23 141.69 205.278 141.69H209.4C209.448 141.69 209.472 141.666 209.472 141.618C209.448 141.222 209.412 140.928 209.364 140.736C209.244 140.268 209.004 139.896 208.644 139.62C208.296 139.332 207.852 139.188 207.312 139.188ZM129.639 169C129.543 169 129.477 168.958 129.441 168.874L126.921 163.492C126.909 163.456 126.885 163.438 126.849 163.438H124.275C124.227 163.438 124.203 163.462 124.203 163.51V168.82C124.203 168.94 124.143 169 124.023 169H122.655C122.535 169 122.475 168.94 122.475 168.82V156.58C122.475 156.46 122.535 156.4 122.655 156.4H127.497C128.205 156.4 128.829 156.55 129.369 156.85C129.921 157.15 130.347 157.57 130.647 158.11C130.947 158.65 131.097 159.274 131.097 159.982C131.097 160.81 130.875 161.518 130.431 162.106C129.987 162.694 129.387 163.09 128.631 163.294C128.583 163.318 128.571 163.348 128.595 163.384L131.205 168.784C131.217 168.808 131.223 168.838 131.223 168.874C131.223 168.958 131.175 169 131.079 169H129.639ZM124.275 157.894C124.227 157.894 124.203 157.918 124.203 157.966V161.998C124.203 162.046 124.227 162.07 124.275 162.07H127.263C127.899 162.07 128.409 161.884 128.793 161.512C129.189 161.128 129.387 160.624 129.387 160C129.387 159.376 129.189 158.872 128.793 158.488C128.409 158.092 127.899 157.894 127.263 157.894H124.275ZM138.343 156.382C139.075 156.382 139.717 156.538 140.269 156.85C140.833 157.15 141.265 157.576 141.565 158.128C141.877 158.68 142.033 159.316 142.033 160.036C142.033 160.756 141.877 161.386 141.565 161.926C141.253 162.466 140.809 162.886 140.233 163.186C139.669 163.486 139.015 163.636 138.271 163.636H135.103C135.055 163.636 135.031 163.66 135.031 163.708V168.82C135.031 168.94 134.971 169 134.851 169H133.483C133.363 169 133.303 168.94 133.303 168.82V156.562C133.303 156.442 133.363 156.382 133.483 156.382H138.343ZM138.109 162.232C138.769 162.232 139.297 162.034 139.693 161.638C140.101 161.242 140.305 160.72 140.305 160.072C140.305 159.412 140.101 158.884 139.693 158.488C139.297 158.08 138.769 157.876 138.109 157.876H135.103C135.055 157.876 135.031 157.9 135.031 157.948V162.16C135.031 162.208 135.055 162.232 135.103 162.232H138.109ZM150.372 169C150.264 169 150.192 168.952 150.156 168.856L149.508 166.75C149.496 166.714 149.472 166.696 149.436 166.696H144.36C144.324 166.696 144.3 166.714 144.288 166.75L143.64 168.856C143.604 168.952 143.532 169 143.424 169H141.966C141.834 169 141.786 168.934 141.822 168.802L145.764 156.544C145.8 156.448 145.872 156.4 145.98 156.4H147.798C147.906 156.4 147.978 156.448 148.014 156.544L151.974 168.802L151.992 168.874C151.992 168.958 151.938 169 151.83 169H150.372ZM144.756 165.238C144.744 165.262 144.744 165.286 144.756 165.31C144.78 165.322 144.804 165.328 144.828 165.328H148.968C148.992 165.328 149.01 165.322 149.022 165.31C149.046 165.286 149.052 165.262 149.04 165.238L146.934 158.578C146.922 158.554 146.904 158.542 146.88 158.542C146.856 158.542 146.838 158.554 146.826 158.578L144.756 165.238ZM164.549 169C164.453 169 164.387 168.958 164.351 168.874L161.831 163.492C161.819 163.456 161.795 163.438 161.759 163.438H159.185C159.137 163.438 159.113 163.462 159.113 163.51V168.82C159.113 168.94 159.053 169 158.933 169H157.565C157.445 169 157.385 168.94 157.385 168.82V156.58C157.385 156.46 157.445 156.4 157.565 156.4H162.407C163.115 156.4 163.739 156.55 164.279 156.85C164.831 157.15 165.257 157.57 165.557 158.11C165.857 158.65 166.007 159.274 166.007 159.982C166.007 160.81 165.785 161.518 165.341 162.106C164.897 162.694 164.297 163.09 163.541 163.294C163.493 163.318 163.481 163.348 163.505 163.384L166.115 168.784C166.127 168.808 166.133 168.838 166.133 168.874C166.133 168.958 166.085 169 165.989 169H164.549ZM159.185 157.894C159.137 157.894 159.113 157.918 159.113 157.966V161.998C159.113 162.046 159.137 162.07 159.185 162.07H162.173C162.809 162.07 163.319 161.884 163.703 161.512C164.099 161.128 164.297 160.624 164.297 160C164.297 159.376 164.099 158.872 163.703 158.488C163.319 158.092 162.809 157.894 162.173 157.894H159.185ZM171.633 169.144C170.733 169.144 169.953 168.922 169.293 168.478C168.645 168.022 168.183 167.392 167.907 166.588C167.703 165.916 167.601 165.184 167.601 164.392C167.601 163.54 167.703 162.82 167.907 162.232C168.171 161.44 168.627 160.822 169.275 160.378C169.935 159.922 170.727 159.694 171.651 159.694C172.515 159.694 173.265 159.916 173.901 160.36C174.537 160.804 174.993 161.422 175.269 162.214C175.497 162.862 175.611 163.582 175.611 164.374C175.611 165.19 175.497 165.928 175.269 166.588C174.993 167.392 174.537 168.022 173.901 168.478C173.265 168.922 172.509 169.144 171.633 169.144ZM171.633 167.65C172.113 167.65 172.527 167.512 172.875 167.236C173.235 166.96 173.493 166.582 173.649 166.102C173.793 165.67 173.865 165.106 173.865 164.41C173.865 163.714 173.799 163.156 173.667 162.736C173.511 162.244 173.253 161.866 172.893 161.602C172.533 161.326 172.101 161.188 171.597 161.188C171.093 161.188 170.661 161.326 170.301 161.602C169.941 161.866 169.689 162.244 169.545 162.736C169.413 163.156 169.347 163.714 169.347 164.41C169.347 165.106 169.413 165.67 169.545 166.102C169.677 166.594 169.929 166.978 170.301 167.254C170.673 167.518 171.117 167.65 171.633 167.65ZM185.063 162.214C185.255 162.826 185.351 163.552 185.351 164.392C185.351 165.28 185.243 166.048 185.027 166.696C184.763 167.476 184.343 168.082 183.767 168.514C183.191 168.934 182.471 169.144 181.607 169.144C181.187 169.144 180.797 169.06 180.437 168.892C180.077 168.724 179.765 168.49 179.501 168.19C179.477 168.166 179.453 168.16 179.429 168.172C179.417 168.184 179.411 168.202 179.411 168.226V168.82C179.411 168.94 179.351 169 179.231 169H177.863C177.743 169 177.683 168.94 177.683 168.82V156.58C177.683 156.46 177.743 156.4 177.863 156.4H179.231C179.351 156.4 179.411 156.46 179.411 156.58V160.594C179.411 160.618 179.417 160.636 179.429 160.648C179.453 160.66 179.477 160.654 179.501 160.63C179.765 160.33 180.077 160.102 180.437 159.946C180.809 159.778 181.199 159.694 181.607 159.694C182.507 159.694 183.245 159.916 183.821 160.36C184.397 160.804 184.811 161.422 185.063 162.214ZM183.155 166.66C183.455 166.096 183.605 165.352 183.605 164.428C183.605 163.408 183.413 162.616 183.029 162.052C182.681 161.476 182.147 161.188 181.427 161.188C180.755 161.188 180.251 161.494 179.915 162.106C179.603 162.622 179.447 163.39 179.447 164.41C179.447 165.43 179.591 166.186 179.879 166.678C180.227 167.326 180.749 167.65 181.445 167.65C181.829 167.65 182.171 167.566 182.471 167.398C182.771 167.23 182.999 166.984 183.155 166.66ZM191.039 169.144C190.139 169.144 189.359 168.922 188.699 168.478C188.051 168.022 187.589 167.392 187.313 166.588C187.109 165.916 187.007 165.184 187.007 164.392C187.007 163.54 187.109 162.82 187.313 162.232C187.577 161.44 188.033 160.822 188.681 160.378C189.341 159.922 190.133 159.694 191.057 159.694C191.921 159.694 192.671 159.916 193.307 160.36C193.943 160.804 194.399 161.422 194.675 162.214C194.903 162.862 195.017 163.582 195.017 164.374C195.017 165.19 194.903 165.928 194.675 166.588C194.399 167.392 193.943 168.022 193.307 168.478C192.671 168.922 191.915 169.144 191.039 169.144ZM191.039 167.65C191.519 167.65 191.933 167.512 192.281 167.236C192.641 166.96 192.899 166.582 193.055 166.102C193.199 165.67 193.271 165.106 193.271 164.41C193.271 163.714 193.205 163.156 193.073 162.736C192.917 162.244 192.659 161.866 192.299 161.602C191.939 161.326 191.507 161.188 191.003 161.188C190.499 161.188 190.067 161.326 189.707 161.602C189.347 161.866 189.095 162.244 188.951 162.736C188.819 163.156 188.753 163.714 188.753 164.41C188.753 165.106 188.819 165.67 188.951 166.102C189.083 166.594 189.335 166.978 189.707 167.254C190.079 167.518 190.523 167.65 191.039 167.65ZM201.518 161.08C201.518 161.2 201.458 161.26 201.338 161.26H199.376C199.328 161.26 199.304 161.284 199.304 161.332V166.102C199.304 166.606 199.418 166.972 199.646 167.2C199.874 167.416 200.228 167.524 200.708 167.524H201.23C201.35 167.524 201.41 167.584 201.41 167.704V168.82C201.41 168.94 201.35 169 201.23 169C200.846 169.024 200.57 169.036 200.402 169.036C199.49 169.036 198.8 168.874 198.332 168.55C197.876 168.214 197.648 167.602 197.648 166.714V161.332C197.648 161.284 197.624 161.26 197.576 161.26H196.478C196.358 161.26 196.298 161.2 196.298 161.08V160.018C196.298 159.898 196.358 159.838 196.478 159.838H197.576C197.624 159.838 197.648 159.814 197.648 159.766V157.642C197.648 157.522 197.708 157.462 197.828 157.462H199.124C199.244 157.462 199.304 157.522 199.304 157.642V159.766C199.304 159.814 199.328 159.838 199.376 159.838H201.338C201.458 159.838 201.518 159.898 201.518 160.018V161.08ZM124.313 179.912C123.713 179.912 123.305 180.026 123.089 180.254C122.873 180.482 122.765 180.914 122.765 181.55V181.766C122.765 181.814 122.789 181.838 122.837 181.838H124.727C124.847 181.838 124.907 181.898 124.907 182.018V183.242C124.907 183.362 124.847 183.422 124.727 183.422H122.837C122.789 183.422 122.765 183.446 122.765 183.494V190.82C122.765 190.94 122.705 191 122.585 191H121.217C121.097 191 121.037 190.94 121.037 190.82V183.494C121.037 183.446 121.013 183.422 120.965 183.422H119.759C119.639 183.422 119.579 183.362 119.579 183.242V182.018C119.579 181.898 119.639 181.838 119.759 181.838H120.965C121.013 181.838 121.037 181.814 121.037 181.766V181.442C121.037 180.65 121.127 180.038 121.307 179.606C121.499 179.174 121.811 178.868 122.243 178.688C122.687 178.496 123.317 178.4 124.133 178.4H124.727C124.847 178.4 124.907 178.46 124.907 178.58V179.732C124.907 179.852 124.847 179.912 124.727 179.912H124.313ZM130.484 181.748C130.868 181.748 131.216 181.826 131.528 181.982C131.612 182.018 131.642 182.09 131.618 182.198L131.348 183.548C131.336 183.656 131.264 183.692 131.132 183.656C130.856 183.548 130.526 183.512 130.142 183.548C129.59 183.572 129.128 183.77 128.756 184.142C128.384 184.502 128.198 184.976 128.198 185.564V190.82C128.198 190.94 128.138 191 128.018 191H126.65C126.53 191 126.47 190.94 126.47 190.82V182.018C126.47 181.898 126.53 181.838 126.65 181.838H128.018C128.138 181.838 128.198 181.898 128.198 182.018V183.008C128.198 183.044 128.204 183.068 128.216 183.08C128.24 183.08 128.258 183.062 128.27 183.026C128.81 182.174 129.548 181.748 130.484 181.748ZM136.233 181.694C137.349 181.694 138.231 181.976 138.879 182.54C139.527 183.104 139.851 183.836 139.851 184.736V190.82C139.851 190.94 139.791 191 139.671 191H138.303C138.183 191 138.123 190.94 138.123 190.82V190.19C138.123 190.13 138.093 190.118 138.033 190.154C137.409 190.814 136.527 191.144 135.387 191.144C134.511 191.144 133.779 190.922 133.191 190.478C132.615 190.022 132.327 189.338 132.327 188.426C132.327 187.49 132.651 186.758 133.299 186.23C133.959 185.69 134.877 185.42 136.053 185.42H138.051C138.099 185.42 138.123 185.396 138.123 185.348V184.862C138.123 184.334 137.973 183.926 137.673 183.638C137.373 183.338 136.911 183.188 136.287 183.188C135.771 183.188 135.357 183.29 135.045 183.494C134.733 183.686 134.535 183.95 134.451 184.286C134.427 184.418 134.361 184.472 134.253 184.448L132.777 184.25C132.657 184.226 132.603 184.178 132.615 184.106C132.711 183.398 133.089 182.822 133.749 182.378C134.409 181.922 135.237 181.694 136.233 181.694ZM135.765 189.686C136.401 189.686 136.953 189.518 137.421 189.182C137.889 188.846 138.123 188.42 138.123 187.904V186.842C138.123 186.794 138.099 186.77 138.051 186.77H136.377C135.669 186.77 135.105 186.908 134.685 187.184C134.265 187.46 134.055 187.844 134.055 188.336C134.055 188.78 134.211 189.116 134.523 189.344C134.847 189.572 135.261 189.686 135.765 189.686ZM151.777 181.712C152.701 181.712 153.421 181.988 153.937 182.54C154.465 183.08 154.729 183.836 154.729 184.808V190.82C154.729 190.94 154.669 191 154.549 191H153.199C153.079 191 153.019 190.94 153.019 190.82V185.168C153.019 184.568 152.851 184.094 152.515 183.746C152.191 183.386 151.753 183.206 151.201 183.206C150.649 183.206 150.199 183.38 149.851 183.728C149.515 184.076 149.347 184.544 149.347 185.132V190.82C149.347 190.94 149.287 191 149.167 191H147.817C147.697 191 147.637 190.94 147.637 190.82V185.168C147.637 184.568 147.469 184.094 147.133 183.746C146.809 183.386 146.371 183.206 145.819 183.206C145.267 183.206 144.823 183.38 144.487 183.728C144.151 184.076 143.983 184.544 143.983 185.132V190.82C143.983 190.94 143.923 191 143.803 191H142.435C142.315 191 142.255 190.94 142.255 190.82V182.018C142.255 181.898 142.315 181.838 142.435 181.838H143.803C143.923 181.838 143.983 181.898 143.983 182.018V182.648C143.983 182.672 143.989 182.69 144.001 182.702C144.025 182.714 144.049 182.708 144.073 182.684C144.601 182.036 145.375 181.712 146.395 181.712C146.995 181.712 147.511 181.832 147.943 182.072C148.387 182.3 148.729 182.636 148.969 183.08C148.993 183.14 149.023 183.14 149.059 183.08C149.359 182.624 149.743 182.282 150.211 182.054C150.691 181.826 151.213 181.712 151.777 181.712ZM164.361 185.276C164.421 185.732 164.445 186.284 164.433 186.932C164.433 187.052 164.373 187.112 164.253 187.112H158.511C158.463 187.112 158.439 187.136 158.439 187.184C158.439 187.592 158.475 187.904 158.547 188.12C158.679 188.6 158.943 188.978 159.339 189.254C159.747 189.518 160.257 189.65 160.869 189.65C161.757 189.65 162.435 189.284 162.903 188.552C162.951 188.444 163.035 188.426 163.155 188.498L164.181 189.182C164.265 189.254 164.283 189.332 164.235 189.416C163.887 189.968 163.407 190.4 162.795 190.712C162.183 191.012 161.487 191.162 160.707 191.162C159.831 191.162 159.087 190.97 158.475 190.586C157.875 190.202 157.431 189.656 157.143 188.948C156.855 188.24 156.711 187.382 156.711 186.374C156.711 185.498 156.777 184.832 156.909 184.376C157.125 183.548 157.551 182.894 158.187 182.414C158.835 181.934 159.621 181.694 160.545 181.694C161.769 181.694 162.675 182 163.263 182.612C163.863 183.212 164.229 184.1 164.361 185.276ZM160.545 183.188C160.041 183.188 159.621 183.32 159.285 183.584C158.949 183.836 158.721 184.178 158.601 184.61C158.517 184.874 158.463 185.21 158.439 185.618C158.439 185.666 158.463 185.69 158.511 185.69H162.633C162.681 185.69 162.705 185.666 162.705 185.618C162.681 185.222 162.645 184.928 162.597 184.736C162.477 184.268 162.237 183.896 161.877 183.62C161.529 183.332 161.085 183.188 160.545 183.188ZM165.616 181.982C165.616 181.886 165.676 181.838 165.796 181.838H167.218C167.338 181.838 167.404 181.892 167.416 182L169.108 188.534C169.12 188.558 169.132 188.57 169.144 188.57C169.168 188.57 169.186 188.558 169.198 188.534L170.944 182C170.968 181.892 171.034 181.838 171.142 181.838H172.384C172.492 181.838 172.558 181.892 172.582 182L174.364 188.516C174.376 188.54 174.388 188.552 174.4 188.552C174.424 188.552 174.442 188.54 174.454 188.516L176.236 182C176.26 181.892 176.326 181.838 176.434 181.838L177.838 181.856C177.898 181.856 177.94 181.874 177.964 181.91C178 181.946 178.012 181.994 178 182.054L175.39 190.856C175.354 190.952 175.288 191 175.192 191H173.77C173.674 191 173.608 190.952 173.572 190.856L171.808 184.772C171.796 184.748 171.778 184.736 171.754 184.736C171.742 184.736 171.73 184.748 171.718 184.772L170.044 190.838C170.02 190.946 169.954 191 169.846 191H168.424C168.328 191 168.262 190.952 168.226 190.856L165.634 182.036L165.616 181.982ZM183.366 191.144C182.466 191.144 181.686 190.922 181.026 190.478C180.378 190.022 179.916 189.392 179.64 188.588C179.436 187.916 179.334 187.184 179.334 186.392C179.334 185.54 179.436 184.82 179.64 184.232C179.904 183.44 180.36 182.822 181.008 182.378C181.668 181.922 182.46 181.694 183.384 181.694C184.248 181.694 184.998 181.916 185.634 182.36C186.27 182.804 186.726 183.422 187.002 184.214C187.23 184.862 187.344 185.582 187.344 186.374C187.344 187.19 187.23 187.928 187.002 188.588C186.726 189.392 186.27 190.022 185.634 190.478C184.998 190.922 184.242 191.144 183.366 191.144ZM183.366 189.65C183.846 189.65 184.26 189.512 184.608 189.236C184.968 188.96 185.226 188.582 185.382 188.102C185.526 187.67 185.598 187.106 185.598 186.41C185.598 185.714 185.532 185.156 185.4 184.736C185.244 184.244 184.986 183.866 184.626 183.602C184.266 183.326 183.834 183.188 183.33 183.188C182.826 183.188 182.394 183.326 182.034 183.602C181.674 183.866 181.422 184.244 181.278 184.736C181.146 185.156 181.08 185.714 181.08 186.41C181.08 187.106 181.146 187.67 181.278 188.102C181.41 188.594 181.662 188.978 182.034 189.254C182.406 189.518 182.85 189.65 183.366 189.65ZM193.431 181.748C193.815 181.748 194.163 181.826 194.475 181.982C194.559 182.018 194.589 182.09 194.565 182.198L194.295 183.548C194.283 183.656 194.211 183.692 194.079 183.656C193.803 183.548 193.473 183.512 193.089 183.548C192.537 183.572 192.075 183.77 191.703 184.142C191.331 184.502 191.145 184.976 191.145 185.564V190.82C191.145 190.94 191.085 191 190.965 191H189.597C189.477 191 189.417 190.94 189.417 190.82V182.018C189.417 181.898 189.477 181.838 189.597 181.838H190.965C191.085 181.838 191.145 181.898 191.145 182.018V183.008C191.145 183.044 191.151 183.068 191.163 183.08C191.187 183.08 191.205 183.062 191.217 183.026C191.757 182.174 192.495 181.748 193.431 181.748ZM196.096 178.58C196.096 178.46 196.156 178.4 196.276 178.4H197.644C197.764 178.4 197.824 178.46 197.824 178.58V185.51C197.824 185.534 197.836 185.552 197.86 185.564C197.884 185.576 197.902 185.57 197.914 185.546L201.262 181.928C201.31 181.868 201.382 181.838 201.478 181.838H203.08C203.152 181.838 203.194 181.862 203.206 181.91C203.23 181.946 203.218 181.994 203.17 182.054L200.848 184.736C200.824 184.784 200.818 184.82 200.83 184.844L203.584 190.784L203.602 190.856C203.602 190.952 203.548 191 203.44 191H201.982C201.886 191 201.82 190.952 201.784 190.856L199.66 185.96C199.636 185.9 199.606 185.894 199.57 185.942L197.86 187.814C197.836 187.838 197.824 187.868 197.824 187.904V190.82C197.824 190.94 197.764 191 197.644 191H196.276C196.156 191 196.096 190.94 196.096 190.82V178.58Z" fill="white"/>
<defs>
<filter id="filter0_b" x="-40" y="-40" width="402" height="402" filterUnits="userSpaceOnUse" color-interpolation-filters="sRGB">
<feFlood flood-opacity="0" result="BackgroundImageFix"/>
<feGaussianBlur in="BackgroundImage" stdDeviation="20"/>
<feComposite in2="SourceAlpha" operator="in" result="effect1_backgroundBlur"/>
<feBlend mode="normal" in="SourceGraphic" in2="effect1_backgroundBlur" result="shape"/>
</filter>
<filter id="filter1_b" x="6" y="6" width="310" height="310" filterUnits="userSpaceOnUse" color-interpolation-filters="sRGB">
<feFlood flood-opacity="0" result="BackgroundImageFix"/>
<feGaussianBlur in="BackgroundImage" stdDeviation="20"/>
<feComposite in2="SourceAlpha" operator="in" result="effect1_backgroundBlur"/>
<feBlend mode="normal" in="SourceGraphic" in2="effect1_backgroundBlur" result="shape"/>
</filter>
</defs>
</svg>
