<svg width="307" height="527" viewBox="0 0 307 527" fill="none" xmlns="http://www.w3.org/2000/svg">
<path d="M306.472 1.95361H297.978V10.4481H306.472V1.95361Z" fill="#1AD5FF"/>
<path d="M284.726 88.1729H280.394V92.5051H284.726V88.1729Z" fill="#7543B8"/>
<path d="M293.475 207.096H290.417V210.154H293.475V207.096Z" fill="#7543B8"/>
<path d="M213.712 38.9902H207.341V45.3611H213.712V38.9902Z" fill="#7543B8"/>
<path d="M263.915 420.649H261.451V423.112H263.915V420.649Z" fill="#7543B8"/>
<path d="M293.9 331.116H290.078V334.939H293.9V331.116Z" fill="#7543B8"/>
<path d="M264.255 203.698H255.76V212.193H264.255V203.698Z" fill="#7543B8"/>
<path d="M225.519 171.844H213.287V184.076H225.519V171.844Z" fill="#1AD5FF"/>
<path d="M178.46 90.8914H169.201V100.15H178.46V90.8914Z" fill="#1AD5FF"/>
<path d="M87.5685 6.03076H64.5483V29.0509H87.5685V6.03076Z" fill="#1AD5FF"/>
<path d="M52.486 0H41.4431V11.0429H52.486V0Z" fill="#1AD5FF"/>
<path d="M79.0741 521.139H73.2129V527H79.0741V521.139Z" fill="#1AD5FF"/>
<path d="M130.721 489.2H128.003V491.918H130.721V489.2Z" fill="#7543B8"/>
<path d="M177.271 442.564H170.39V449.445H177.271V442.564Z" fill="#1AD5FF"/>
<path d="M207.681 266.983H200.121V274.543H207.681V266.983Z" fill="#7543B8"/>
<path d="M203.349 238.101H200.631V240.82H203.349V238.101Z" fill="#7543B8"/>
<path d="M197.148 207.691H195.109V209.73H197.148V207.691Z" fill="#7543B8"/>
<path d="M193.41 171.929H179.564V185.776H193.41V171.929Z" fill="#7543B8"/>
<path d="M207.681 266.983H200.121V274.543H207.681V266.983Z" fill="#7543B8"/>
<path d="M177.186 266.388H168.352V275.222H177.186V266.388Z" fill="#7543B8"/>
<path d="M118.998 122.916H114.921V126.993H118.998V122.916Z" fill="#7543B8"/>
<path d="M98.781 97.8569H89.0123V107.626H98.781V97.8569Z" fill="#1AD5FF"/>
<path d="M176.676 266.898H168.861V274.713H176.676V266.898Z" fill="#1AD5FF"/>
<path d="M143.717 268.597H139.3V273.014H143.717V268.597Z" fill="#7543B8"/>
<path d="M146.435 231.476H131.145V246.766H146.435V231.476Z" fill="#1AD5FF"/>
<path d="M133.099 205.992H128.427V210.664H133.099V205.992Z" fill="#7543B8"/>
<path d="M119.423 177.79H116.11V181.103H119.423V177.79Z" fill="#7543B8"/>
<path d="M79.9232 128.097H75.8458V132.175H79.9232V128.097Z" fill="#7543B8"/>
<path d="M26.1531 94.6294H21.651V99.1315H26.1531V94.6294Z" fill="#1AD5FF"/>
<path d="M288.476 60H259V89.476H288.476V60Z" fill="#1AD5FF"/>
<path d="M137.856 326.105H123.67V340.291H137.856V326.105Z" fill="#7543B8"/>
<path d="M139.98 301.301H137.601V303.679H139.98V301.301Z" fill="#7543B8"/>
<path d="M144.057 268.257H138.96V273.354H144.057V268.257Z" fill="#7543B8"/>
<path d="M118.998 261.971H101.414V279.555H118.998V261.971Z" fill="#7543B8"/>
<path d="M108.295 238.187H105.917V240.565H108.295V238.187Z" fill="#7543B8"/>
<path d="M97.7619 208.965H97.3372V209.39H97.7619V208.965Z" fill="#7543B8"/>
<path d="M82.6417 181.273H81.9622V181.953H82.6417V181.273Z" fill="#7543B8"/>
<path d="M33.889 117H9V141.889H33.889V117Z" fill="#1AD5FF"/>
<path d="M84.3405 357.959H80.2632V362.037H84.3405V357.959Z" fill="#7543B8"/>
<path d="M107.531 322.452H87.6536V342.329H107.531V322.452Z" fill="#1AD5FF"/>
<path d="M118.743 262.311H101.754V279.3H118.743V262.311Z" fill="#7543B8"/>
<path d="M83.4061 266.473H74.7417V275.138H83.4061V266.473Z" fill="#7543B8"/>
<path d="M78.3096 236.488H71.8538V242.944H78.3096V236.488Z" fill="#7543B8"/>
<path d="M72.1932 202.085H55.0343V219.244H72.1932V202.085Z" fill="#1AD5FF"/>
<path d="M51.4666 179.064H38.9797V191.551H51.4666V179.064Z" fill="#1AD5FF"/>
<path d="M24.1146 162.245H17.9985V168.361H24.1146V162.245Z" fill="#7543B8"/>
<path d="M63.7839 330.691H63.3591V331.116H63.7839V330.691Z" fill="#7543B8"/>
<path d="M77.0354 299.941H73.1279V303.849H77.0354V299.941Z" fill="#7543B8"/>
<path d="M83.4061 266.473H74.7417V275.138H83.4061V266.473Z" fill="#1AD5FF"/>
<path d="M50.8722 267.662H44.6711V273.863H50.8722V267.662Z" fill="#7543B8"/>
<path d="M52.9107 227.908H31.2496V249.569H52.9107V227.908Z" fill="#1AD5FF"/>
<path d="M27.1725 329.842H24.7091V332.305H27.1725V329.842Z" fill="#7543B8"/>
<path d="M50.8722 267.662H44.6711V273.863H50.8722V267.662Z" fill="#7543B8"/>
<path d="M17.9982 269.446H15.1951V272.249H17.9982V269.446Z" fill="#7543B8"/>
<path d="M17.9982 269.446H15.1951V272.249H17.9982V269.446Z" fill="#7543B8"/>
</svg>
