<svg width="108" height="108" viewBox="0 0 108 108" fill="none" xmlns="http://www.w3.org/2000/svg">
<path d="M7.10226 0C3.17883 0 0 3.17883 0 7.10226V19.5484H14.2045V7.10226C14.2045 3.17883 11.0236 0 7.10226 0Z" fill="#43E8E1"/>
<path d="M86.4532 0H14.2037H7.10144C11.0245 0 14.2037 3.17967 14.2037 7.10226V108H93.5554V7.10226C93.5559 3.17967 90.3736 0 86.4532 0Z" fill="url(#paint0_linear)"/>
<path d="M93.5553 103.781H14.2036V108H93.5553V103.781Z" fill="url(#paint1_linear)"/>
<path d="M86.4532 0H14.2041H7.10144C9.99719 0 12.4863 1.73348 13.592 4.21875H14.2037H86.4532C90.3736 4.21875 93.5554 7.39842 93.5554 11.321V7.10226C93.5559 3.17967 90.3736 0 86.4532 0Z" fill="#FFF7F2"/>
<path d="M52.7993 16.6035H29.3945C27.9357 16.6035 26.7532 15.421 26.7532 13.9622C26.7532 12.5033 27.9357 11.3208 29.3945 11.3208H52.7993C54.2582 11.3208 55.4407 12.5033 55.4407 13.9622C55.4407 15.421 54.2582 16.6035 52.7993 16.6035Z" fill="#43E8E1"/>
<path d="M45.3161 26.8125H28.6934C27.6218 26.8125 26.7532 25.9439 26.7532 24.8723C26.7532 23.8008 27.6218 22.9321 28.6934 22.9321H45.3157C46.3872 22.9321 47.2559 23.8008 47.2559 24.8723C47.2563 25.9439 46.3877 26.8125 45.3161 26.8125Z" fill="white"/>
<path d="M53.7536 36.9805H28.6934C27.6218 36.9805 26.7532 36.1119 26.7532 35.0403C26.7532 33.9687 27.6218 33.1001 28.6934 33.1001H53.7532C54.8247 33.1001 55.6934 33.9687 55.6934 35.0403C55.6938 36.1114 54.8252 36.9805 53.7536 36.9805Z" fill="white"/>
<path d="M66.9418 88.0157H28.6934C27.6218 88.0157 26.7532 87.147 26.7532 86.0755C26.7532 85.0039 27.6218 84.1353 28.6934 84.1353H66.9414C68.013 84.1353 68.8816 85.0039 68.8816 86.0755C68.882 87.147 68.0134 88.0157 66.9418 88.0157Z" fill="white"/>
<path d="M45.3161 98.1836H28.6934C27.6218 98.1836 26.7532 97.315 26.7532 96.2434C26.7532 95.1719 27.6218 94.3032 28.6934 94.3032H45.3157C46.3872 94.3032 47.2559 95.1719 47.2559 96.2434C47.2563 97.315 46.3877 98.1836 45.3161 98.1836Z" fill="white"/>
<path d="M81.4282 47.3579H26.7532V45.4177C26.7532 44.3462 27.6218 43.4775 28.6934 43.4775H79.4875C80.5591 43.4775 81.4277 44.3462 81.4277 45.4177V47.3579H81.4282Z" fill="#43E8E1"/>
<path d="M26.7532 47.3579V74.6566V76.5968C26.7532 77.6684 27.6218 78.537 28.6934 78.537H79.4875C80.5591 78.537 81.4277 77.6684 81.4277 76.5968V74.6566V47.3579H26.7532Z" fill="white"/>
<path d="M91.5469 32.9062C100.634 32.9062 108 25.5399 108 16.4531C108 7.36631 100.634 0 91.5469 0C82.4601 0 75.0938 7.36631 75.0938 16.4531C75.0938 25.5399 82.4601 32.9062 91.5469 32.9062Z" fill="url(#paint2_linear)"/>
<path d="M91.5178 1.67909C100.334 1.66348 107.542 8.5856 107.978 17.2969C107.993 17.0079 108 16.7172 108 16.4245C107.984 7.33727 100.605 -0.0160051 91.5178 2.61631e-05C82.431 0.0160574 75.0777 7.39549 75.0938 16.4823C75.0942 16.7527 75.1022 17.0214 75.1157 17.2885C75.554 8.6067 82.7238 1.6947 91.5178 1.67909Z" fill="url(#paint3_linear)"/>
<path d="M89.6134 24.0834C88.9624 24.0834 88.3073 23.872 87.7576 23.4375L84.0662 20.5185C82.7689 19.4925 82.5487 17.6093 83.5747 16.312C84.6003 15.0148 86.4835 14.7945 87.7812 15.8205L89.1578 16.909L94.848 9.92526C95.893 8.64318 97.7792 8.45081 99.0613 9.49537C100.343 10.5399 100.536 12.4266 99.4912 13.7086L91.9367 22.9802C91.3456 23.7058 90.4833 24.0834 89.6134 24.0834Z" fill="#FFF7F2"/>
<defs>
<linearGradient id="paint0_linear" x1="3.69525" y1="46.4821" x2="72.1477" y2="106.883" gradientUnits="userSpaceOnUse">
<stop stop-color="#42B2F1"/>
<stop offset="1" stop-color="#2A54D3"/>
</linearGradient>
<linearGradient id="paint1_linear" x1="11.0772" y1="105.597" x2="11.3366" y2="110.974" gradientUnits="userSpaceOnUse">
<stop stop-color="#42B2F1"/>
<stop offset="1" stop-color="#2A54D3"/>
</linearGradient>
<linearGradient id="paint2_linear" x1="66.0782" y1="29.4208" x2="101.62" y2="42.1804" gradientUnits="userSpaceOnUse">
<stop stop-color="#26259E"/>
<stop offset="1" stop-color="#5F50CC"/>
</linearGradient>
<linearGradient id="paint3_linear" x1="66.0782" y1="15.4648" x2="93.4386" y2="34.1512" gradientUnits="userSpaceOnUse">
<stop stop-color="#26259E"/>
<stop offset="1" stop-color="#5F50CC"/>
</linearGradient>
</defs>
</svg>
