<svg width="110" height="109" viewBox="0 0 110 109" fill="none" xmlns="http://www.w3.org/2000/svg">
<path d="M24.0372 51.4254C26.3124 49.9493 28.6506 48.5453 30.6976 46.7664C33.7833 44.085 35.5796 41.1481 31.9043 37.4727L22.0166 27.5851C20.497 26.0659 17.9776 25.3846 15.9898 26.3341C14.9217 26.8445 14.043 27.6729 13.2005 28.5052C12.3669 29.3285 11.5525 30.1625 10.7646 31.0097C4.13188 38.137 -0.637985 46.1746 0.815103 56.4447C1.56766 61.7633 3.76434 66.789 6.49357 71.3751C14.0289 84.0368 25.4788 95.502 38.178 103.06C42.7645 105.789 47.7897 107.986 53.1083 108.738C63.3785 110.191 71.4161 105.421 78.5438 98.7885C79.3906 98.0005 80.2245 97.1862 81.0483 96.3526C81.8806 95.5105 82.709 94.6318 83.2194 93.5633C84.1694 91.5755 83.488 89.0556 81.9684 87.5364L72.0808 77.6488C68.4054 73.9734 65.469 75.7702 62.7871 78.8554C61.0082 80.9025 59.6042 83.2407 58.1281 85.5159C57.0182 87.226 55.7954 88.6732 53.5987 88.5043C48.8915 88.1419 44.3493 84.1365 40.9046 81.2521C36.2469 77.352 31.9162 73.0111 28.0383 68.3334C25.2404 64.9586 21.4009 60.5409 21.0488 55.954C20.8799 53.7581 22.327 52.5353 24.0372 51.4254Z" fill="url(#paint0_linear)"/>
<path d="M83.2194 90.579C82.709 91.6471 81.8806 92.5258 81.0483 93.3683C80.225 94.2019 79.391 95.0163 78.5438 95.8042C71.416 102.437 63.3789 107.207 53.1083 105.754C47.7897 105.001 42.764 102.804 38.178 100.075C25.4792 92.5173 14.0293 81.0525 6.49357 68.3908C3.76391 63.8043 1.56765 58.779 0.8151 53.4604C0.711917 52.7305 0.64327 52.0129 0.601486 51.3047C0.502566 52.956 0.563538 54.6662 0.8151 56.4451C1.56765 61.7637 3.76434 66.7894 6.49357 71.3755C14.0289 84.0371 25.4788 95.5023 38.178 103.06C42.764 105.79 47.7897 107.986 53.1083 108.738C63.3784 110.191 71.416 105.422 78.5438 98.7888C79.3905 98.0009 80.2245 97.1865 81.0483 96.353C81.8806 95.5109 82.709 94.6321 83.2194 93.5636C83.7451 92.4636 83.7694 91.2011 83.4305 90.0354C83.3712 90.2196 83.3038 90.402 83.2194 90.579Z" fill="url(#paint1_linear)"/>
<path d="M15.9898 26.3341C14.9217 26.8445 14.043 27.6729 13.2004 28.5052C13.0585 28.6455 12.9207 28.7879 12.7796 28.9286L30.6537 46.8027C30.6682 46.7903 30.6831 46.7788 30.6976 46.7664C33.7833 44.085 35.5796 41.1481 31.9042 37.4727L22.0166 27.5851C20.4974 26.0659 17.9775 25.3846 15.9898 26.3341Z" fill="url(#paint2_linear)"/>
<path d="M81.9685 87.5366L72.0808 77.649C68.4054 73.9736 65.469 75.7703 62.7871 78.8556C62.7747 78.8701 62.7632 78.885 62.7509 78.8995L80.6249 96.7736C80.7656 96.6329 80.9081 96.4947 81.0483 96.3528C81.8806 95.5107 82.7091 94.6319 83.2194 93.5634C84.1694 91.5757 83.4881 89.0558 81.9685 87.5366Z" fill="#B665C2"/>
<path d="M81.9685 87.5366L72.0808 77.649C68.4054 73.9736 65.469 75.7703 62.7871 78.8556C62.7747 78.8701 62.7632 78.885 62.7509 78.8995L80.6249 96.7736C80.7656 96.6329 80.9081 96.4947 81.0483 96.3528C81.8806 95.5107 82.7091 94.6319 83.2194 93.5634C84.1694 91.5757 83.4881 89.0558 81.9685 87.5366Z" fill="url(#paint3_linear)"/>
<path d="M83.4258 93.0347C83.4569 92.9396 83.4867 92.8441 83.511 92.7473C83.5234 92.6983 83.5324 92.6484 83.543 92.599C83.5631 92.5069 83.5822 92.4143 83.5963 92.3214C83.604 92.2715 83.6095 92.2216 83.6155 92.1713C83.627 92.0762 83.6368 91.9811 83.6428 91.8856C83.6458 91.8383 83.6475 91.791 83.6492 91.7436C83.6526 91.643 83.653 91.5424 83.6505 91.4413C83.6492 91.3991 83.6479 91.3569 83.6458 91.3147C83.6402 91.206 83.6313 91.0973 83.6189 90.9885C83.6151 90.9544 83.6117 90.9199 83.6074 90.8858C83.5916 90.7647 83.5712 90.644 83.5473 90.5238C83.543 90.502 83.5396 90.4803 83.5349 90.4585C83.5051 90.3166 83.4701 90.175 83.4296 90.0352C83.3703 90.2194 83.303 90.4018 83.2185 90.5788C82.7082 91.6469 81.8797 92.5256 81.0474 93.3681C80.41 94.0132 79.7636 94.643 79.1121 95.2621L80.6236 96.7736C80.7643 96.6329 80.9067 96.4947 81.047 96.3528C81.3591 96.0368 81.6704 95.7162 81.965 95.3819C82.4558 94.8251 82.8988 94.2311 83.2181 93.5638C83.2808 93.4321 83.3358 93.2978 83.3844 93.1622C83.401 93.12 83.4121 93.0769 83.4258 93.0347Z" fill="url(#paint4_linear)"/>
<path d="M21.2602 57.3086C21.0846 57.7891 21.0018 58.3246 21.0492 58.9386C21.4013 63.5256 25.2409 67.9428 28.0387 71.318C31.9166 75.9958 36.2473 80.3367 40.905 84.2368C44.3502 87.1212 48.8919 91.1266 53.5991 91.489C55.7954 91.6578 57.0186 90.2111 58.1285 88.5005C59.6046 86.2254 61.0086 83.8871 62.7875 81.8401C65.469 78.7544 68.4058 76.9581 72.0812 80.6335L81.9688 90.5211C82.6476 91.1999 83.1571 92.0782 83.4309 93.0197C84.0372 91.1338 83.3533 88.9205 81.9688 87.5365L72.0812 77.6488C68.4058 73.9735 65.4694 75.7702 62.7875 78.8555C61.0086 80.9025 59.6046 83.2408 58.1285 85.5159C57.0186 87.2261 55.7958 88.6732 53.5991 88.5044C48.8919 88.1419 44.3497 84.1366 40.905 81.2521C36.2473 77.3521 31.9166 73.0112 28.0387 68.3334C25.5176 65.2921 22.1594 61.4035 21.2602 57.3086Z" fill="url(#paint5_linear)"/>
<path d="M64.2176 80.3658C66.517 78.2954 69.0471 77.5995 72.0808 80.6332L81.9685 90.5208C82.6472 91.1996 83.1568 92.078 83.4305 93.0194C83.7281 92.0933 83.7132 91.0888 83.4586 90.1418C83.4522 90.1175 83.4463 90.0932 83.4394 90.0693C83.4143 89.9798 83.3853 89.8911 83.3559 89.8028C83.3431 89.7649 83.3307 89.7274 83.3175 89.6898C83.2894 89.611 83.2591 89.5333 83.2275 89.4557C83.2088 89.4093 83.1892 89.3628 83.1691 89.3168C83.1388 89.2473 83.1073 89.1782 83.074 89.1095C83.0489 89.0571 83.0224 89.0051 82.9956 88.9531C82.9636 88.8912 82.9312 88.8298 82.8971 88.7693C82.8651 88.7122 82.831 88.6563 82.7973 88.6004C82.7645 88.5463 82.7317 88.4917 82.6971 88.4388C82.657 88.3779 82.6153 88.3186 82.5731 88.2589C82.5406 88.2129 82.5087 88.166 82.475 88.1212C82.4247 88.0543 82.3714 87.9899 82.3185 87.9255C82.2895 87.8901 82.2618 87.8539 82.2319 87.8193C82.1475 87.7217 82.0597 87.627 81.9693 87.5362C81.9693 87.5362 81.496 87.0629 80.7567 86.3236C80.4399 86.0068 80.0741 85.641 79.6758 85.2427C79.5432 85.1101 79.4068 84.9737 79.2674 84.8343C78.5702 84.1371 77.7976 83.365 77.0255 82.5924C76.8711 82.438 76.7164 82.2833 76.5624 82.1293C74.254 79.8209 72.0817 77.6486 72.0817 77.6486C71.7371 77.3041 71.399 77.0077 71.0669 76.7557C70.956 76.6717 70.8464 76.5929 70.7369 76.5187C70.1902 76.1477 69.6603 75.8979 69.1448 75.7529C66.7741 75.0856 64.7152 76.6376 62.7875 78.8552C62.7752 78.8697 62.7636 78.8846 62.7513 78.8991L64.2176 80.3658Z" fill="url(#paint6_linear)"/>
<path d="M10.7646 33.9943C11.5525 33.1476 12.3669 32.3136 13.2005 31.4898C14.0425 30.6575 14.9213 29.8291 15.9898 29.3187C17.9776 28.3688 20.4974 29.0501 22.0166 30.5697L31.9043 40.4573C32.798 41.351 33.3659 42.2012 33.6729 43.0143C34.3005 41.3408 33.9534 39.5215 31.9043 37.4727L22.0166 27.5851C20.4974 26.0659 17.9776 25.3846 15.9898 26.3341C14.9217 26.8445 14.043 27.6729 13.2005 28.5052C12.3669 29.3285 11.5525 30.1625 10.7646 31.0097C4.60345 37.6305 0.0531665 45.0379 0.601485 54.2894C1.07391 46.404 5.28053 39.8877 10.7646 33.9943Z" fill="url(#paint7_linear)"/>
<path d="M12.78 28.929L14.3077 30.4567C14.8258 30.0128 15.3758 29.6124 15.9902 29.3191C17.978 28.3691 20.4979 29.0505 22.017 30.5701L31.9047 40.4577C32.7984 41.3514 33.3663 42.2016 33.6733 43.0147C33.7108 42.9145 33.7445 42.8135 33.7752 42.712C33.7794 42.6975 33.7833 42.683 33.7875 42.6685C33.8127 42.5811 33.8357 42.4937 33.8553 42.4054C33.86 42.3841 33.8643 42.3628 33.8686 42.3415C33.8856 42.2592 33.9001 42.1769 33.9125 42.0937C33.9159 42.0694 33.9193 42.0447 33.9227 42.0204C33.9329 41.9398 33.9406 41.8584 33.9457 41.7769C33.9474 41.7514 33.9496 41.7258 33.9504 41.7002C33.9543 41.617 33.9547 41.5335 33.9534 41.4499C33.953 41.4265 33.9534 41.403 33.9526 41.3796C33.9496 41.2883 33.9423 41.1966 33.9325 41.1041C33.9308 41.0883 33.9304 41.0721 33.9283 41.0564C33.9027 40.8364 33.8583 40.6134 33.7935 40.3878C33.7905 40.3771 33.7863 40.3665 33.7833 40.3558C33.7543 40.2573 33.7215 40.158 33.6848 40.0582C33.6729 40.0262 33.6588 39.9938 33.6464 39.9619C33.6153 39.883 33.5829 39.8037 33.5466 39.7239C33.5287 39.6839 33.5087 39.6438 33.4891 39.6037C33.4541 39.5312 33.4175 39.4583 33.3782 39.385C33.3548 39.3411 33.3296 39.2971 33.3045 39.2528C33.2644 39.1824 33.2222 39.1117 33.1778 39.0405C33.1493 38.9944 33.1203 38.9484 33.0896 38.9023C33.0431 38.832 32.9941 38.7612 32.9438 38.69C32.9105 38.6431 32.8777 38.5966 32.8427 38.5497C32.789 38.4772 32.7314 38.4043 32.6734 38.3314C32.6368 38.2853 32.6018 38.2397 32.5634 38.1937C32.4978 38.1144 32.4274 38.0342 32.3562 37.9545C32.3208 37.9144 32.2876 37.8747 32.2509 37.8347C32.1426 37.7161 32.0292 37.5972 31.9098 37.4774C31.9077 37.4757 31.9064 37.4735 31.9042 37.4718C31.9042 37.4718 30.9385 36.5061 29.6108 35.1788C28.9469 34.5149 28.1926 33.7606 27.423 32.991C27.1152 32.6832 26.8052 32.3732 26.4974 32.0654C25.8817 31.4497 25.2758 30.8438 24.7181 30.2861C24.4393 30.0073 24.1724 29.7404 23.9229 29.4909C22.7986 28.3666 22.0166 27.5846 22.0166 27.5846C21.6367 27.2047 21.1945 26.8772 20.7136 26.6146C19.8719 26.155 18.9122 25.8936 17.9626 25.897C17.2843 25.8996 16.611 26.0369 15.9898 26.3336C15.0552 26.7805 14.2655 27.4703 13.5185 28.1935C13.4119 28.2966 13.3058 28.4007 13.2009 28.5047C13.0585 28.6454 12.9207 28.7878 12.78 28.929Z" fill="url(#paint8_linear)"/>
<path d="M98.7352 0H55.5502C49.4914 0 44.58 4.91142 44.58 10.9702V38.8846C44.58 44.9434 49.4914 49.8548 55.5502 49.8548H78.7403V61.4202C78.7403 63.2451 80.9468 64.1589 82.237 62.8686L95.2508 49.8548H98.7352C104.794 49.8548 109.705 44.9434 109.705 38.8846V10.9702C109.705 4.91142 104.794 0 98.7352 0Z" fill="url(#paint9_linear)"/>
<path d="M55.5502 0H98.7352C104.794 0 109.705 4.91142 109.705 10.9702V14.5484C109.705 8.48956 104.794 3.57814 98.7352 3.57814H55.5502C49.4914 3.57814 44.58 8.48956 44.58 14.5484V10.9702C44.58 4.91142 49.4918 0 55.5502 0Z" fill="url(#paint10_linear)"/>
<path d="M57.9558 35.2735C57.9558 34.4012 58.3071 33.5629 58.9284 32.9502C60.0885 31.8063 61.1766 30.7258 62.1936 29.7089C62.738 29.1644 63.2949 28.6076 63.8654 28.0371C64.435 27.4675 64.9667 26.9358 65.4596 26.4429C65.9516 25.9508 66.3925 25.504 66.7814 25.1015C67.1702 24.6999 67.4678 24.3822 67.6755 24.149C68.0899 23.6569 68.4591 23.2161 68.7836 22.8272C69.1072 22.4379 69.3669 22.0559 69.5609 21.6803C69.7553 21.3046 69.9041 20.929 70.0082 20.5525C70.1113 20.1769 70.1638 19.7688 70.1638 19.3279C70.1638 18.4726 69.8265 17.7278 69.1529 17.0925C68.4788 16.4576 67.5586 16.1399 66.3925 16.1399C65.5351 16.1399 64.1805 16.6303 63.2092 17.8113C62.5078 18.6641 61.322 18.9442 60.3009 18.5238C58.7207 17.8732 58.2261 15.8824 59.3061 14.5577C59.7641 13.9961 60.2126 13.5693 60.5217 13.3212C61.247 12.7379 62.1091 12.2586 63.1073 11.883C64.1046 11.5074 65.2259 11.3193 66.4701 11.3193C67.8175 11.3193 69.036 11.5206 70.1246 11.9218C71.2131 12.3243 72.1332 12.8748 72.8853 13.574C73.6366 14.2737 74.2199 15.0974 74.6348 16.0431C75.0492 16.9893 75.2568 18.0062 75.2568 19.0951C75.2568 20.7542 74.8488 22.2772 74.0323 23.6633C73.2158 25.0503 72.2245 26.3397 71.0575 27.5318L67.7138 30.875C66.8325 31.7564 65.8344 32.7413 64.7203 33.8298L64.8759 34.0631H73.4098C74.6446 34.0631 75.6453 35.0638 75.6453 36.2985C75.6453 37.5333 74.6441 38.534 73.4098 38.534H61.2163C59.4161 38.5349 57.9558 37.075 57.9558 35.2735Z" fill="#43E8E1"/>
<path d="M87.9317 36.1633V33.6358H78.8039C77.0596 33.6358 75.6457 32.2219 75.6457 30.4776C75.6457 29.85 75.8329 29.236 76.1834 28.7154L86.3942 13.533C87.0636 12.5378 88.1841 11.9409 89.3835 11.9409C91.373 11.9409 92.986 13.5539 92.986 15.5434V28.8928H93.9581C95.2679 28.8928 96.3296 29.9544 96.3296 31.2643C96.3296 32.5741 95.2679 33.6358 93.9581 33.6358H92.986V36.1633C92.986 37.4731 91.9243 38.5348 90.6145 38.5348H90.3032C88.9938 38.5348 87.9317 37.4731 87.9317 36.1633ZM87.9317 19.5227H87.6204L81.2832 28.8928H87.9317V19.5227Z" fill="#43E8E1"/>
<defs>
<linearGradient id="paint0_linear" x1="-2.72095" y1="61.6639" x2="50.1132" y2="119.902" gradientUnits="userSpaceOnUse">
<stop stop-color="#42B2F1"/>
<stop offset="1" stop-color="#2A54D3"/>
</linearGradient>
<linearGradient id="paint1_linear" x1="-2.71755" y1="76.1362" x2="30.523" y2="128.909" gradientUnits="userSpaceOnUse">
<stop stop-color="#42B2F1"/>
<stop offset="1" stop-color="#2A54D3"/>
</linearGradient>
<linearGradient id="paint2_linear" x1="11.9453" y1="34.8948" x2="25.2185" y2="49.7155" gradientUnits="userSpaceOnUse">
<stop stop-color="#42B2F1"/>
<stop offset="1" stop-color="#2A54D3"/>
</linearGradient>
<linearGradient id="paint3_linear" x1="61.9272" y1="84.7113" x2="75.4063" y2="99.3789" gradientUnits="userSpaceOnUse">
<stop stop-color="#42B2F1"/>
<stop offset="1" stop-color="#2A54D3"/>
</linearGradient>
<linearGradient id="paint4_linear" x1="78.9333" y1="92.9353" x2="83.054" y2="95.9956" gradientUnits="userSpaceOnUse">
<stop stop-color="#42B2F1"/>
<stop offset="1" stop-color="#2A54D3"/>
</linearGradient>
<linearGradient id="paint5_linear" x1="18.569" y1="72.6783" x2="37.1897" y2="108.668" gradientUnits="userSpaceOnUse">
<stop stop-color="#42B2F1"/>
<stop offset="1" stop-color="#2A54D3"/>
</linearGradient>
<linearGradient id="paint6_linear" x1="61.9278" y1="83.0952" x2="72.6366" y2="97.2555" gradientUnits="userSpaceOnUse">
<stop stop-color="#42B2F1"/>
<stop offset="1" stop-color="#2A54D3"/>
</linearGradient>
<linearGradient id="paint7_linear" x1="-0.759165" y1="38.1171" x2="16.782" y2="60.8619" gradientUnits="userSpaceOnUse">
<stop stop-color="#42B2F1"/>
<stop offset="1" stop-color="#2A54D3"/>
</linearGradient>
<linearGradient id="paint8_linear" x1="11.9458" y1="33.2643" x2="22.3751" y2="47.4844" gradientUnits="userSpaceOnUse">
<stop stop-color="#42B2F1"/>
<stop offset="1" stop-color="#2A54D3"/>
</linearGradient>
<linearGradient id="paint9_linear" x1="26.7372" y1="56.7496" x2="96.6579" y2="82.5047" gradientUnits="userSpaceOnUse">
<stop stop-color="#26259E"/>
<stop offset="1" stop-color="#5F50CC"/>
</linearGradient>
<linearGradient id="paint10_linear" x1="26.7372" y1="13.0074" x2="48.9019" y2="48.6273" gradientUnits="userSpaceOnUse">
<stop stop-color="#26259E"/>
<stop offset="1" stop-color="#5F50CC"/>
</linearGradient>
</defs>
</svg>
