<svg width="727" height="41" viewBox="0 0 727 41" fill="none" xmlns="http://www.w3.org/2000/svg">
<path d="M200.991 24.0973L192.905 30.3986L189.378 28.6421V12.2195L192.891 10.449L200.921 16.7643L213.635 4.03613L222 7.36804V33.4238L213.677 36.8115L200.991 24.0973ZM213.384 26.3139V14.5337L205.773 20.4308L213.384 26.3139ZM193.184 24.1949L197.185 20.5563L193.184 16.5691V24.1949Z" fill="#B4A2DA"/>
<path fill-rule="evenodd" clip-rule="evenodd" d="M537.326 19.5527V17.0849H534.262V13.2483L534.158 13.28L531.28 14.1607L531.223 14.178V17.085H526.68V15.4655C526.68 14.7115 526.849 14.1344 527.181 13.7496C527.511 13.3693 527.983 13.176 528.585 13.176C529.018 13.176 529.466 13.278 529.917 13.479L530.03 13.5295V10.9305L529.977 10.911C529.556 10.7597 528.984 10.6836 528.274 10.6836C527.381 10.6836 526.568 10.8781 525.86 11.2636C525.151 11.6497 524.594 12.2008 524.203 12.9016C523.814 13.6015 523.617 14.4098 523.617 15.3044V17.0849H521.483V19.5527H523.617V29.9494H526.68V19.5527H531.223V26.1597C531.223 28.8807 532.507 30.2596 535.038 30.2596C535.454 30.2596 535.892 30.2109 536.339 30.1154C536.794 30.0174 537.104 29.9196 537.286 29.815L537.326 29.7912V27.3005L537.202 27.3829C537.036 27.4936 536.828 27.5842 536.586 27.6515C536.342 27.7201 536.138 27.7544 535.981 27.7544C535.388 27.7544 534.949 27.5946 534.677 27.2793C534.401 26.9611 534.262 26.4047 534.262 25.6263V19.5527H537.326ZM514.642 27.7548C513.53 27.7548 512.653 27.3861 512.035 26.6599C511.414 25.93 511.099 24.8893 511.099 23.5672C511.099 22.2031 511.414 21.1354 512.035 20.3926C512.654 19.6547 513.522 19.2802 514.617 19.2802C515.679 19.2802 516.524 19.6378 517.13 20.3439C517.739 21.0535 518.048 22.1126 518.048 23.4926C518.048 24.8896 517.757 25.9627 517.184 26.6805C516.615 27.3929 515.76 27.7548 514.642 27.7548ZM509.77 18.6225C510.971 17.3965 512.656 16.775 514.778 16.775C516.776 16.775 518.361 17.3695 519.488 18.5425C520.614 19.715 521.185 21.3472 521.185 23.3929C521.185 25.464 520.577 27.1446 519.376 28.3862C518.175 29.6291 516.524 30.2593 514.467 30.2593C512.494 30.2593 510.899 29.6612 509.727 28.4805C508.555 27.3002 507.961 25.6801 507.961 23.6659C507.961 21.5452 508.57 19.8485 509.77 18.6225ZM503.022 16.775C501.579 16.775 500.385 17.144 499.473 17.8718C498.556 18.6039 498.091 19.564 498.091 20.7259C498.091 21.3298 498.191 21.8663 498.389 22.3213C498.588 22.7778 498.895 23.1797 499.304 23.5171C499.71 23.8517 500.336 24.2022 501.166 24.5588C501.864 24.8459 502.384 25.0888 502.715 25.2802C503.038 25.4678 503.267 25.6563 503.397 25.84C503.523 26.0197 503.586 26.2657 503.586 26.5692C503.586 27.4335 502.939 27.854 501.607 27.854C501.113 27.854 500.55 27.7509 499.933 27.5475C499.32 27.3473 498.741 27.054 498.218 26.6779L498.09 26.5867V29.5361L498.137 29.5578C498.57 29.7579 499.117 29.9266 499.761 30.0594C500.404 30.1923 500.988 30.2599 501.496 30.2599C503.061 30.2599 504.322 29.889 505.242 29.1569C506.168 28.4198 506.638 27.437 506.638 26.235C506.638 25.3678 506.385 24.6242 505.887 24.0245C505.393 23.4297 504.534 22.8835 503.337 22.4008C502.383 22.018 501.772 21.7002 501.52 21.4563C501.277 21.2207 501.154 20.8874 501.154 20.4654C501.154 20.0912 501.306 19.7915 501.619 19.5488C501.934 19.3049 502.372 19.1808 502.923 19.1808C503.433 19.1808 503.955 19.2614 504.475 19.4194C504.993 19.5774 505.449 19.7891 505.83 20.0479L505.955 20.1335V17.3357L505.907 17.3151C505.556 17.1645 505.093 17.0357 504.531 16.9312C503.971 16.8273 503.463 16.775 503.022 16.775ZM487.498 26.6599C488.116 27.3861 488.993 27.7548 490.105 27.7548C491.223 27.7548 492.078 27.3929 492.647 26.6805C493.22 25.9627 493.511 24.8896 493.511 23.4926C493.511 22.1126 493.202 21.0535 492.593 20.3439C491.987 19.6378 491.142 19.2802 490.08 19.2802C488.985 19.2802 488.117 19.6547 487.499 20.3926C486.877 21.1354 486.562 22.2031 486.562 23.5672C486.562 24.8896 486.877 25.93 487.498 26.6599ZM490.241 16.775C488.119 16.775 486.434 17.3965 485.234 18.6225C484.033 19.8485 483.424 21.5452 483.424 23.6659C483.424 25.6809 484.018 27.3002 485.19 28.4805C486.363 29.6612 487.957 30.2593 489.931 30.2593C491.987 30.2593 493.639 29.6291 494.839 28.3862C496.04 27.1446 496.648 25.464 496.648 23.3929C496.648 21.3472 496.077 19.715 494.951 18.5425C493.824 17.3695 492.239 16.775 490.241 16.775ZM478.774 17.0849V19.3127H478.806C479.089 18.5897 479.458 18.01 479.97 17.5871C480.553 17.106 481.233 16.8617 481.994 16.8617C482.498 16.8617 482.897 16.9221 483.179 17.0418L483.228 17.0629V20.1136L483.101 20.0215C482.961 19.9205 482.723 19.8245 482.395 19.7361C482.064 19.6472 481.758 19.6023 481.485 19.6023C480.681 19.6023 480.022 19.9499 479.528 20.636C479.027 21.3303 478.774 22.2496 478.774 23.3686V29.9492H475.748V17.0849H478.774ZM470.329 16.775C468.94 16.775 467.702 17.0726 466.649 17.6595C465.593 18.2477 464.777 19.0874 464.222 20.1552C463.669 21.2204 463.388 22.4646 463.388 23.8522C463.388 25.0677 463.66 26.1831 464.198 27.1662C464.736 28.1509 465.498 28.9213 466.463 29.4556C467.426 29.9892 468.539 30.2597 469.771 30.2597C471.209 30.2597 472.437 29.9722 473.421 29.4052L473.461 29.3824V26.6101L473.334 26.7029C472.888 27.0278 472.39 27.287 471.853 27.4738C471.319 27.6605 470.831 27.7548 470.403 27.7548C469.216 27.7548 468.263 27.3833 467.571 26.6508C466.877 25.9173 466.526 24.8874 466.526 23.5915C466.526 22.2873 466.893 21.231 467.615 20.4515C468.336 19.6744 469.29 19.2802 470.453 19.2802C471.448 19.2802 472.417 19.6169 473.334 20.2821L473.461 20.3743V17.4531L473.42 17.4301C473.075 17.2369 472.604 17.0774 472.02 16.9564C471.438 16.8358 470.869 16.775 470.329 16.775ZM458.278 17.085H461.304V29.9492H458.278V17.085ZM459.822 11.6048C459.324 11.6048 458.889 11.7743 458.533 12.1103C458.174 12.4472 457.992 12.8714 457.992 13.3721C457.992 13.8648 458.172 14.2813 458.527 14.6092C458.88 14.9363 459.315 15.102 459.822 15.102C460.328 15.102 460.766 14.9363 461.123 14.6098C461.482 14.2813 461.664 13.865 461.664 13.3721C461.664 12.8889 461.487 12.4691 461.138 12.1239C460.789 11.7793 460.346 11.6048 459.822 11.6048ZM452.272 29.9492V16.1359H452.172L446.692 29.9492H444.501L438.934 16.1345H438.834V29.949H435.932V11.9986H440.381L445.653 25.3317L451.086 11.9986H455.36V29.9492H452.272Z" fill="#B4A2DA"/>
<path d="M411.234 20.2355H396.999V6H411.234V20.2355Z" fill="#B4A2DA"/>
<path d="M426.952 20.2355H412.717V6H426.952V20.2355Z" fill="#B4A2DA"/>
<path d="M411.234 35.9585H396.999V21.7231H411.234V35.9585Z" fill="#B4A2DA"/>
<path d="M426.952 35.9585H412.717V21.7231H426.952V35.9585Z" fill="#B4A2DA"/>
<path d="M600.793 35.7455L598 5L628.088 5.01173L625.319 35.7221L613.021 39.1956L600.793 35.7455ZM623.054 34.0674L625.389 7.73424H613.068L613.162 36.7782L623.054 34.0674ZM611.918 11.595H608.925L608.89 27.3551L603.081 25.7708L603.093 29.3735L611.918 31.7557V11.595Z" fill="#B4A2DA"/>
<path opacity="0.986" d="M610.932 31.4624C610.545 31.345 608.632 30.8287 606.684 30.3006L603.152 29.3501V27.5781C603.152 25.8413 603.152 25.8061 603.328 25.8648C603.422 25.9 604.712 26.252 606.191 26.6628L608.878 27.4021L608.902 19.5397L608.925 11.6772H611.859V21.6754C611.859 29.62 611.836 31.6736 611.753 31.6736C611.695 31.6618 611.319 31.568 610.932 31.4624Z" fill="#B4A2DA"/>
<path opacity="0.986" d="M603.093 29.3736L603.081 25.771C603.081 25.771 606.789 26.8154 608.89 27.3552L608.925 11.6069H611.918V31.7558L603.093 29.3736Z" fill="#B4A2DA"/>
<path d="M613.068 7.72266H625.389L623.054 34.0559L613.068 36.7666V7.72266ZM622.42 29.6435L623.23 19.7979L617.245 20.4668V15.2095L623.629 15.1861L623.887 11.5952L614.253 11.6421L614.382 24.7148L620.202 23.7174L620.12 26.6276L614.253 28.1884L614.312 31.7558L622.42 29.6435Z" fill="#B4A2DA"/>
<path d="M726.361 22.6816C726.361 32.4464 718.445 40.3627 708.68 40.3627C698.914 40.3627 690.998 32.4464 690.998 22.6816C690.998 12.9162 698.914 5 708.68 5C718.445 5 726.361 12.9162 726.361 22.6816Z" fill="#B4A2DA"/>
<path d="M696.656 20.3207C695.352 20.3207 694.295 21.3774 694.295 22.6818C694.295 23.9854 695.352 25.0423 696.656 25.0423C697.96 25.0423 699.017 23.9854 699.017 22.6818C699.017 21.3774 697.96 20.3207 696.656 20.3207ZM713.512 31.0499C712.383 31.7021 711.995 33.1451 712.648 34.2736C713.299 35.4027 714.742 35.7898 715.871 35.1377C717 34.4861 717.387 33.0432 716.735 31.9139C716.084 30.7855 714.64 30.3985 713.512 31.0499ZM701.784 22.6818C701.784 20.349 702.943 18.2878 704.716 17.0398L702.99 14.1492C700.925 15.5298 699.388 17.6394 698.749 20.1104C699.495 20.7183 699.972 21.644 699.972 22.6817C699.972 23.7187 699.495 24.6445 698.749 25.2525C699.387 27.724 700.924 29.8339 702.99 31.2145L704.716 28.3231C702.943 27.0758 701.784 25.0148 701.784 22.6818ZM708.679 15.7859C712.282 15.7859 715.237 18.5477 715.547 22.0701L718.911 22.0206C718.746 19.4202 717.61 17.0857 715.864 15.3691C714.967 15.7082 713.93 15.6563 713.034 15.1397C712.136 14.6217 711.573 13.7477 711.419 12.7991C710.527 12.5522 709.605 12.4269 708.679 12.4266C707.103 12.425 705.547 12.7882 704.135 13.4878L705.775 16.4273C706.685 16.0039 707.676 15.785 708.679 15.7859ZM708.679 29.5771C707.676 29.578 706.685 29.3591 705.775 28.9357L704.135 31.8749C705.547 32.5753 707.103 32.9389 708.68 32.9372C709.606 32.937 710.527 32.8114 711.419 32.5637C711.573 31.6152 712.136 30.742 713.034 30.2232C713.931 29.7057 714.967 29.6547 715.864 29.9938C717.61 28.2772 718.746 25.9427 718.911 23.3423L715.547 23.2928C715.237 26.8161 712.282 29.577 708.679 29.577V29.5771ZM713.511 14.3123C714.64 14.9643 716.083 14.5782 716.734 13.449C717.387 12.3199 717 10.8768 715.871 10.2245C714.742 9.57311 713.299 9.96002 712.647 11.0892C711.995 12.2178 712.382 13.6608 713.511 14.3123Z" fill="white"/>
<path fill-rule="evenodd" clip-rule="evenodd" d="M310.824 3.39447C313.408 0.0165324 316.999 0 316.999 0C316.999 0 317.533 3.17589 314.967 6.23529C312.227 9.50205 309.112 8.9675 309.112 8.9675C309.112 8.9675 308.527 6.39831 310.824 3.39447Z" fill="#B4A2DA"/>
<mask id="mask0" mask-type="alpha" maskUnits="userSpaceOnUse" x="293" y="9" width="31" height="29">
<path fill-rule="evenodd" clip-rule="evenodd" d="M293.045 9.04053H323.999V37.9998H293.045V9.04053Z" fill="white"/>
</mask>
<g mask="url(#mask0)">
<path fill-rule="evenodd" clip-rule="evenodd" d="M315.554 9.04053C320.89 9.04053 322.99 12.8539 322.99 12.8539C322.99 12.8539 318.884 14.9621 318.884 20.0776C318.884 25.8484 323.999 27.8371 323.999 27.8371C323.999 27.8371 320.423 37.9438 315.593 37.9438C313.375 37.9438 311.65 36.4426 309.313 36.4426C306.931 36.4426 304.567 37.9998 303.028 37.9998C298.617 37.9998 293.045 28.4127 293.045 20.7064C293.045 13.1242 297.762 9.14676 302.185 9.14676C305.061 9.14676 307.293 10.8121 308.788 10.8121C310.071 10.8121 312.453 9.04053 315.554 9.04053Z" fill="#B4A2DA"/>
</g>
<path d="M44.6171 20.6213C44.6171 16.9921 43.5823 15.1289 41.5125 15.027C40.6888 14.9881 39.8851 15.1192 39.1028 15.423C38.4784 15.6463 38.0582 15.8676 37.8372 16.0912V24.7538C39.1611 25.5847 40.3367 25.971 41.362 25.9102C43.531 25.7664 44.6171 24.0053 44.6171 20.6213ZM47.1702 20.7719C47.1702 22.6157 46.7378 24.1462 45.868 25.3631C44.8988 26.7406 43.5554 27.4499 41.838 27.4888C40.5433 27.5299 39.2094 27.1244 37.8369 26.274V34.1473L35.6166 33.3553V15.8796C35.9809 15.4327 36.45 15.0489 37.0182 14.7232C38.3399 13.9531 39.9454 13.5573 41.8355 13.5378L41.8669 13.5692C43.5943 13.5476 44.9252 14.2569 45.8605 15.6949C46.7328 17.014 47.1702 18.7048 47.1702 20.7719ZM60.7398 25.9391C60.7398 28.4122 60.4921 30.1246 59.9966 31.0769C59.4987 32.0289 58.5511 32.7893 57.152 33.3556C56.0175 33.8024 54.7905 34.0454 53.4741 34.0868L53.107 32.6876C54.4456 32.5057 55.3882 32.3233 55.9347 32.1411C57.0109 31.7767 57.7494 31.2182 58.1551 30.4698C58.4806 29.8602 58.6408 28.6965 58.6408 26.9744V26.3962C57.1225 27.0863 55.5315 27.4287 53.8677 27.4287C52.7743 27.4287 51.81 27.0863 50.9791 26.3962C50.0463 25.6455 49.58 24.6935 49.58 23.5395V14.2982L51.8003 13.5378V22.8392C51.8003 23.8326 52.1208 24.598 52.7621 25.1348C53.4033 25.6717 54.2343 25.9294 55.2521 25.9097C56.2699 25.8877 57.3606 25.4942 58.5192 24.7241V13.8728H60.7396V25.9391H60.7398ZM69.4072 27.3674C69.1639 27.3879 68.92 27.3984 68.6759 27.3988C67.4201 27.3988 66.4409 27.1002 65.7415 26.5001C65.0442 25.9002 64.6945 25.072 64.6945 24.0151V15.2697H63.1738V13.8731H64.6945V10.1636L66.9124 9.37402V13.8731H69.4072V15.2697H66.9124V23.9542C66.9124 24.7877 67.1357 25.3778 67.5826 25.723C67.9664 26.0071 68.5762 26.1699 69.4069 26.2112V27.3674H69.4072ZM82.8507 27.1852H80.6303V18.6148C80.6303 17.7428 80.4264 16.9921 80.0207 16.3656C79.5519 15.656 78.9009 15.3014 78.065 15.3014C77.0472 15.3014 75.7744 15.8382 74.2464 16.9119V27.1852H72.0263V6.69958L74.2464 6V15.3305C75.665 14.298 77.2149 13.7806 78.8984 13.7806C80.0743 13.7806 81.0263 14.1766 81.7553 14.9662C82.4865 15.7555 82.8509 16.7394 82.8509 17.9152V27.1852H82.8507ZM94.6518 20.2717C94.6518 18.8773 94.3871 17.7258 93.8597 16.8149C93.2329 15.7049 92.2589 15.1192 90.9423 15.0586C88.5081 15.1994 87.2934 16.9435 87.2934 20.2864C87.2934 21.8191 87.5461 23.0994 88.0562 24.127C88.7072 25.4364 89.6839 26.0826 90.9861 26.0607C93.4298 26.041 94.6518 24.1123 94.6518 20.2717ZM97.0835 20.2861C97.0835 22.271 96.5758 23.9228 95.5627 25.2417C94.4474 26.7189 92.9077 27.4596 90.9423 27.4596C88.9941 27.4596 87.4758 26.7187 86.3802 25.2417C85.3865 23.9228 84.8908 22.271 84.8908 20.2861C84.8908 18.4207 85.4277 16.8513 86.5016 15.5735C87.636 14.218 89.1274 13.5378 90.9714 13.5378C92.815 13.5378 94.3163 14.218 95.4727 15.5735C96.5466 16.8513 97.0835 18.4207 97.0835 20.2861ZM109.812 27.1852H107.592V18.1291C107.592 17.1357 107.294 16.3606 106.696 15.8018C106.098 15.2455 105.301 14.9759 104.308 14.9976C103.254 15.017 102.25 15.3619 101.298 16.0301V27.1852H99.0778V15.7557C100.356 14.8256 101.531 14.218 102.605 13.9339C103.618 13.6692 104.512 13.5378 105.282 13.5378C105.809 13.5378 106.305 13.5887 106.771 13.6909C107.643 13.8925 108.353 14.2666 108.899 14.8156C109.509 15.423 109.812 16.1515 109.812 17.0043V27.1852Z" fill="#B4A2DA"/>
<path d="M13.6871 6.78149C12.5447 6.78673 11.4538 6.88417 10.4941 7.05415C7.66634 7.55385 7.15294 8.59935 7.15294 10.5279V13.0747H13.8352V13.9236H4.64498C2.70301 13.9236 1.00229 15.0909 0.470438 17.3115C-0.143156 19.8569 -0.170322 21.4452 0.470438 24.103C0.945463 26.0813 2.07994 27.4909 4.02191 27.4909H6.31952V24.4379C6.31952 22.2323 8.22785 20.2868 10.4941 20.2868H17.1686C19.0266 20.2868 20.5097 18.7571 20.5097 16.8911V10.5276C20.5097 8.71673 18.982 7.35621 17.1686 7.0539C16.0204 6.86299 14.8296 6.77601 13.6871 6.78149ZM10.0734 8.82963C10.7637 8.82963 11.3272 9.4026 11.3272 10.1069C11.3272 10.8087 10.7635 11.3765 10.0734 11.3765C9.38077 11.3765 8.81951 10.809 8.81951 10.1069C8.81951 9.4026 9.38077 8.82963 10.0734 8.82963Z" fill="#B4A2DA"/>
<path d="M21.3431 13.9233V16.8906C21.3431 19.1912 19.3927 21.1275 17.1686 21.1275H10.4941C8.66576 21.1275 7.15295 22.6921 7.15295 24.5232V30.8862C7.15295 32.6973 8.72757 33.7625 10.4941 34.2819C12.6093 34.9039 14.6377 35.0163 17.1686 34.2819C18.8509 33.7949 20.5097 32.8144 20.5097 30.8862V28.3396H13.8352V27.4907H23.8509C25.7931 27.4907 26.5166 26.1359 27.192 24.1027C27.8898 22.0097 27.8602 19.9965 27.192 17.3113C26.712 15.3781 25.7953 13.9233 23.8509 13.9233H21.3431ZM17.589 30.0373C18.2816 30.0373 18.8429 30.6048 18.8429 31.3069C18.8429 32.0112 18.2816 32.5841 17.589 32.5841C16.8987 32.5841 16.3352 32.0112 16.3352 31.3069C16.3352 30.605 16.8989 30.0373 17.589 30.0373Z" fill="#B4A2DA"/>
<path d="M114.136 11.8936H114.525V9.45223H115.447V9.16113H113.214V9.45223H114.136V11.8936H114.136ZM115.793 11.8936H116.125V9.66382L116.847 11.8934H117.217L117.969 9.6713V11.8936H118.332V9.16138H117.852L117.03 11.5024L116.329 9.16138H115.793V11.8936Z" fill="#B4A2DA"/>
</svg>
