<svg width="115" height="49" viewBox="0 0 115 49" fill="none" xmlns="http://www.w3.org/2000/svg">
<path opacity="0.7" d="M107.713 10.1704C106.869 10.1752 106.032 10.333 105.245 10.6361C104.917 8.0677 103.779 5.67065 101.996 3.79293C100.214 1.91522 97.8787 0.65461 95.3308 0.194136C92.7829 -0.266338 90.1545 0.0972948 87.8273 1.23224C85.5001 2.36718 83.5953 4.21435 82.3893 6.50555C81.1233 6.00925 79.7634 5.79824 78.4065 5.88754C77.0496 5.97685 75.7292 6.36427 74.5391 7.02221C73.3491 7.68016 72.3188 8.59244 71.5216 9.69407C70.7244 10.7957 70.1799 12.0596 69.927 13.3956C69.6741 14.7317 69.7189 16.1071 70.0583 17.4239C70.3976 18.7407 71.0232 19.9664 71.8904 21.0138C72.7576 22.0612 73.8451 22.9045 75.0755 23.4836C76.3058 24.0627 77.6487 24.3634 79.0085 24.3641H107.713C109.562 24.3168 111.319 23.549 112.61 22.2245C113.901 20.9001 114.623 19.1238 114.623 17.2743C114.623 15.4248 113.901 13.6484 112.61 12.324C111.319 10.9995 109.562 10.2318 107.713 10.1844V10.1704Z" fill="#9742EA"/>
<path d="M46.6533 7.79082C45.1517 7.7898 43.6633 8.07262 42.2667 8.62438C40.7015 5.65308 38.2305 3.25759 35.212 1.7853C32.1936 0.313021 28.7847 -0.159519 25.4796 0.436217C22.1745 1.03195 19.1451 2.665 16.8307 5.09851C14.5162 7.53203 13.0372 10.6395 12.6079 13.9703C11.5845 13.5891 10.5008 13.3951 9.4087 13.3975C8.1832 13.37 6.96459 13.5875 5.82434 14.0374C4.68408 14.4874 3.64522 15.1606 2.76875 16.0176C1.89228 16.8745 1.19585 17.898 0.720396 19.0278C0.244938 20.1577 0 21.3711 0 22.5969C0 23.8227 0.244938 25.0362 0.720396 26.166C1.19585 27.2959 1.89228 28.3193 2.76875 29.1763C3.64522 30.0333 4.68408 30.7065 5.82434 31.1564C6.96459 31.6063 8.1832 31.8239 9.4087 31.7963H46.6626C49.805 31.7344 52.7978 30.4426 54.9982 28.1984C57.1987 25.9542 58.4313 22.9366 58.4313 19.7936C58.4313 16.6506 57.1987 13.6329 54.9982 11.3887C52.7978 9.1445 49.805 7.85272 46.6626 7.79082H46.6533Z" fill="#9742EA"/>
<g style="mix-blend-mode:lighten" opacity="0.75">
<g style="mix-blend-mode:color-dodge" opacity="0.51">
<path d="M34.8439 48.7418C36.0167 48.7418 36.9673 48.0475 36.9673 47.1911C36.9673 46.3346 36.0167 45.6404 34.8439 45.6404C33.6711 45.6404 32.7204 46.3346 32.7204 47.1911C32.7204 48.0475 33.6711 48.7418 34.8439 48.7418Z" fill="#9742EA"/>
</g>
<g style="mix-blend-mode:color-dodge" opacity="0.51">
<path d="M41.6101 48.7418C42.7829 48.7418 43.7336 48.0475 43.7336 47.1911C43.7336 46.3346 42.7829 45.6404 41.6101 45.6404C40.4374 45.6404 39.4867 46.3346 39.4867 47.1911C39.4867 48.0475 40.4374 48.7418 41.6101 48.7418Z" fill="#9742EA"/>
</g>
<g style="mix-blend-mode:color-dodge" opacity="0.51">
<path d="M48.381 48.7418C49.5538 48.7418 50.5045 48.0475 50.5045 47.1911C50.5045 46.3346 49.5538 45.6404 48.381 45.6404C47.2082 45.6404 46.2575 46.3346 46.2575 47.1911C46.2575 48.0475 47.2082 48.7418 48.381 48.7418Z" fill="#9742EA"/>
</g>
<g style="mix-blend-mode:color-dodge" opacity="0.51">
<path d="M55.1473 48.7418C56.3201 48.7418 57.2707 48.0475 57.2707 47.1911C57.2707 46.3346 56.3201 45.6404 55.1473 45.6404C53.9745 45.6404 53.0238 46.3346 53.0238 47.1911C53.0238 48.0475 53.9745 48.7418 55.1473 48.7418Z" fill="#9742EA"/>
</g>
<g style="mix-blend-mode:color-dodge" opacity="0.51">
<path d="M61.9182 48.7418C63.0909 48.7418 64.0417 48.0475 64.0417 47.1911C64.0417 46.3346 63.0909 45.6404 61.9182 45.6404C60.7454 45.6404 59.7947 46.3346 59.7947 47.1911C59.7947 48.0475 60.7454 48.7418 61.9182 48.7418Z" fill="#9742EA"/>
</g>
<g style="mix-blend-mode:color-dodge" opacity="0.51">
<path d="M68.6891 48.7418C69.8618 48.7418 70.8126 48.0475 70.8126 47.1911C70.8126 46.3346 69.8618 45.6404 68.6891 45.6404C67.5163 45.6404 66.5656 46.3346 66.5656 47.1911C66.5656 48.0475 67.5163 48.7418 68.6891 48.7418Z" fill="#9742EA"/>
</g>
<g style="mix-blend-mode:color-dodge" opacity="0.51">
<path d="M75.4553 48.7418C76.6281 48.7418 77.5788 48.0475 77.5788 47.1911C77.5788 46.3346 76.6281 45.6404 75.4553 45.6404C74.2826 45.6404 73.3318 46.3346 73.3318 47.1911C73.3318 48.0475 74.2826 48.7418 75.4553 48.7418Z" fill="#9742EA"/>
</g>
<g style="mix-blend-mode:color-dodge" opacity="0.51">
<path d="M82.2262 48.7418C83.399 48.7418 84.3497 48.0475 84.3497 47.1911C84.3497 46.3346 83.399 45.6404 82.2262 45.6404C81.0535 45.6404 80.1027 46.3346 80.1027 47.1911C80.1027 48.0475 81.0535 48.7418 82.2262 48.7418Z" fill="#9742EA"/>
</g>
<g style="mix-blend-mode:color-dodge" opacity="0.51">
<path d="M88.9925 48.7418C90.1652 48.7418 91.116 48.0475 91.116 47.1911C91.116 46.3346 90.1652 45.6404 88.9925 45.6404C87.8197 45.6404 86.869 46.3346 86.869 47.1911C86.869 48.0475 87.8197 48.7418 88.9925 48.7418Z" fill="#9742EA"/>
</g>
<g style="mix-blend-mode:color-dodge" opacity="0.51">
<path d="M32.6785 43.4425C33.9465 43.4425 34.9743 42.6919 34.9743 41.766C34.9743 40.8402 33.9465 40.0896 32.6785 40.0896C31.4106 40.0896 30.3828 40.8402 30.3828 41.766C30.3828 42.6919 31.4106 43.4425 32.6785 43.4425Z" fill="#9742EA"/>
</g>
<g style="mix-blend-mode:color-dodge" opacity="0.51">
<path d="M39.985 43.4425C41.2529 43.4425 42.2807 42.6919 42.2807 41.766C42.2807 40.8402 41.2529 40.0896 39.985 40.0896C38.717 40.0896 37.6892 40.8402 37.6892 41.766C37.6892 42.6919 38.717 43.4425 39.985 43.4425Z" fill="#9742EA"/>
</g>
<g style="mix-blend-mode:color-dodge" opacity="0.51">
<path d="M47.296 43.4425C48.564 43.4425 49.5918 42.6919 49.5918 41.766C49.5918 40.8402 48.564 40.0896 47.296 40.0896C46.0281 40.0896 45.0002 40.8402 45.0002 41.766C45.0002 42.6919 46.0281 43.4425 47.296 43.4425Z" fill="#9742EA"/>
</g>
<g style="mix-blend-mode:color-dodge" opacity="0.51">
<path d="M54.6071 43.4425C55.875 43.4425 56.9029 42.6919 56.9029 41.766C56.9029 40.8402 55.875 40.0896 54.6071 40.0896C53.3392 40.0896 52.3113 40.8402 52.3113 41.766C52.3113 42.6919 53.3392 43.4425 54.6071 43.4425Z" fill="#9742EA"/>
</g>
<g style="mix-blend-mode:color-dodge" opacity="0.51">
<path d="M61.9182 43.4425C63.1861 43.4425 64.214 42.6919 64.214 41.766C64.214 40.8402 63.1861 40.0896 61.9182 40.0896C60.6503 40.0896 59.6224 40.8402 59.6224 41.766C59.6224 42.6919 60.6503 43.4425 61.9182 43.4425Z" fill="#9742EA"/>
</g>
<g style="mix-blend-mode:color-dodge" opacity="0.51">
<path d="M69.2293 43.4425C70.4972 43.4425 71.525 42.6919 71.525 41.766C71.525 40.8402 70.4972 40.0896 69.2293 40.0896C67.9613 40.0896 66.9335 40.8402 66.9335 41.766C66.9335 42.6919 67.9613 43.4425 69.2293 43.4425Z" fill="#9742EA"/>
</g>
<g style="mix-blend-mode:color-dodge" opacity="0.51">
<path d="M76.5403 43.4425C77.8082 43.4425 78.8361 42.6919 78.8361 41.766C78.8361 40.8402 77.8082 40.0896 76.5403 40.0896C75.2724 40.0896 74.2446 40.8402 74.2446 41.766C74.2446 42.6919 75.2724 43.4425 76.5403 43.4425Z" fill="#9742EA"/>
</g>
<g style="mix-blend-mode:color-dodge" opacity="0.51">
<path d="M83.8515 43.4425C85.1194 43.4425 86.1472 42.6919 86.1472 41.766C86.1472 40.8402 85.1194 40.0896 83.8515 40.0896C82.5835 40.0896 81.5557 40.8402 81.5557 41.766C81.5557 42.6919 82.5835 43.4425 83.8515 43.4425Z" fill="#9742EA"/>
</g>
<g style="mix-blend-mode:color-dodge" opacity="0.51">
<path d="M91.1579 43.4425C92.4258 43.4425 93.4537 42.6919 93.4537 41.766C93.4537 40.8402 92.4258 40.0896 91.1579 40.0896C89.8899 40.0896 88.8621 40.8402 88.8621 41.766C88.8621 42.6919 89.8899 43.4425 91.1579 43.4425Z" fill="#9742EA"/>
</g>
<g style="mix-blend-mode:color-dodge" opacity="0.51">
<path d="M30.3362 38.1571C31.7044 38.1571 32.8135 37.3461 32.8135 36.3457C32.8135 35.3452 31.7044 34.5342 30.3362 34.5342C28.968 34.5342 27.8588 35.3452 27.8588 36.3457C27.8588 37.3461 28.968 38.1571 30.3362 38.1571Z" fill="#9742EA"/>
</g>
<g style="mix-blend-mode:color-dodge" opacity="0.51">
<path d="M38.234 38.1571C39.6022 38.1571 40.7114 37.3461 40.7114 36.3457C40.7114 35.3452 39.6022 34.5342 38.234 34.5342C36.8657 34.5342 35.7566 35.3452 35.7566 36.3457C35.7566 37.3461 36.8657 38.1571 38.234 38.1571Z" fill="#9742EA"/>
</g>
<g style="mix-blend-mode:color-dodge" opacity="0.51">
<path d="M46.1272 38.1571C47.4954 38.1571 48.6046 37.3461 48.6046 36.3457C48.6046 35.3452 47.4954 34.5342 46.1272 34.5342C44.759 34.5342 43.6498 35.3452 43.6498 36.3457C43.6498 37.3461 44.759 38.1571 46.1272 38.1571Z" fill="#9742EA"/>
</g>
<g style="mix-blend-mode:color-dodge" opacity="0.51">
<path d="M54.025 38.1571C55.3933 38.1571 56.5024 37.3461 56.5024 36.3457C56.5024 35.3452 55.3933 34.5342 54.025 34.5342C52.6568 34.5342 51.5477 35.3452 51.5477 36.3457C51.5477 37.3461 52.6568 38.1571 54.025 38.1571Z" fill="#9742EA"/>
</g>
<g style="mix-blend-mode:color-dodge" opacity="0.51">
<path d="M61.9182 38.1571C63.2864 38.1571 64.3956 37.3461 64.3956 36.3457C64.3956 35.3452 63.2864 34.5342 61.9182 34.5342C60.5499 34.5342 59.4408 35.3452 59.4408 36.3457C59.4408 37.3461 60.5499 38.1571 61.9182 38.1571Z" fill="#9742EA"/>
</g>
<g style="mix-blend-mode:color-dodge" opacity="0.51">
<path d="M69.8113 38.1571C71.1796 38.1571 72.2887 37.3461 72.2887 36.3457C72.2887 35.3452 71.1796 34.5342 69.8113 34.5342C68.4431 34.5342 67.3339 35.3452 67.3339 36.3457C67.3339 37.3461 68.4431 38.1571 69.8113 38.1571Z" fill="#9742EA"/>
</g>
<g style="mix-blend-mode:color-dodge" opacity="0.51">
<path d="M77.7092 38.1571C79.0774 38.1571 80.1866 37.3461 80.1866 36.3457C80.1866 35.3452 79.0774 34.5342 77.7092 34.5342C76.3409 34.5342 75.2318 35.3452 75.2318 36.3457C75.2318 37.3461 76.3409 38.1571 77.7092 38.1571Z" fill="#9742EA"/>
</g>
<g style="mix-blend-mode:color-dodge" opacity="0.51">
<path d="M85.6024 38.1571C86.9706 38.1571 88.0798 37.3461 88.0798 36.3457C88.0798 35.3452 86.9706 34.5342 85.6024 34.5342C84.2342 34.5342 83.125 35.3452 83.125 36.3457C83.125 37.3461 84.2342 38.1571 85.6024 38.1571Z" fill="#9742EA"/>
</g>
<g style="mix-blend-mode:color-dodge" opacity="0.51">
<path d="M93.5002 38.1571C94.8684 38.1571 95.9775 37.3461 95.9775 36.3457C95.9775 35.3452 94.8684 34.5342 93.5002 34.5342C92.132 34.5342 91.0228 35.3452 91.0228 36.3457C91.0228 37.3461 92.132 38.1571 93.5002 38.1571Z" fill="#9742EA"/>
</g>
<g style="mix-blend-mode:color-dodge" opacity="0.51">
<path d="M27.8122 32.8765C29.291 32.8765 30.4898 32.0009 30.4898 30.9207C30.4898 29.8405 29.291 28.9648 27.8122 28.9648C26.3334 28.9648 25.1346 29.8405 25.1346 30.9207C25.1346 32.0009 26.3334 32.8765 27.8122 32.8765Z" fill="#9742EA"/>
</g>
<g style="mix-blend-mode:color-dodge" opacity="0.51">
<path d="M36.3387 32.8765C37.8175 32.8765 39.0163 32.0009 39.0163 30.9207C39.0163 29.8405 37.8175 28.9648 36.3387 28.9648C34.8599 28.9648 33.6611 29.8405 33.6611 30.9207C33.6611 32.0009 34.8599 32.8765 36.3387 32.8765Z" fill="#9742EA"/>
</g>
<g style="mix-blend-mode:color-dodge" opacity="0.51">
<path d="M44.8652 32.8765C46.344 32.8765 47.5428 32.0009 47.5428 30.9207C47.5428 29.8405 46.344 28.9648 44.8652 28.9648C43.3864 28.9648 42.1876 29.8405 42.1876 30.9207C42.1876 32.0009 43.3864 32.8765 44.8652 32.8765Z" fill="#9742EA"/>
</g>
<g style="mix-blend-mode:color-dodge" opacity="0.51">
<path d="M53.3917 32.8765C54.8705 32.8765 56.0693 32.0009 56.0693 30.9207C56.0693 29.8405 54.8705 28.9648 53.3917 28.9648C51.9129 28.9648 50.7141 29.8405 50.7141 30.9207C50.7141 32.0009 51.9129 32.8765 53.3917 32.8765Z" fill="#9742EA"/>
</g>
<g style="mix-blend-mode:color-dodge" opacity="0.51">
<path d="M61.9182 32.8765C63.397 32.8765 64.5958 32.0009 64.5958 30.9207C64.5958 29.8405 63.397 28.9648 61.9182 28.9648C60.4394 28.9648 59.2405 29.8405 59.2405 30.9207C59.2405 32.0009 60.4394 32.8765 61.9182 32.8765Z" fill="#9742EA"/>
</g>
<g style="mix-blend-mode:color-dodge" opacity="0.51">
<path d="M70.4447 32.8765C71.9235 32.8765 73.1223 32.0009 73.1223 30.9207C73.1223 29.8405 71.9235 28.9648 70.4447 28.9648C68.9658 28.9648 67.767 29.8405 67.767 30.9207C67.767 32.0009 68.9658 32.8765 70.4447 32.8765Z" fill="#9742EA"/>
</g>
<g style="mix-blend-mode:color-dodge" opacity="0.51">
<path d="M78.9711 32.8765C80.45 32.8765 81.6488 32.0009 81.6488 30.9207C81.6488 29.8405 80.45 28.9648 78.9711 28.9648C77.4923 28.9648 76.2935 29.8405 76.2935 30.9207C76.2935 32.0009 77.4923 32.8765 78.9711 32.8765Z" fill="#9742EA"/>
</g>
<g style="mix-blend-mode:color-dodge" opacity="0.51">
<path d="M87.4976 32.8765C88.9764 32.8765 90.1753 32.0009 90.1753 30.9207C90.1753 29.8405 88.9764 28.9648 87.4976 28.9648C86.0188 28.9648 84.82 29.8405 84.82 30.9207C84.82 32.0009 86.0188 32.8765 87.4976 32.8765Z" fill="#9742EA"/>
</g>
<g style="mix-blend-mode:color-dodge" opacity="0.51">
<path d="M96.0241 32.8765C97.5029 32.8765 98.7017 32.0009 98.7017 30.9207C98.7017 29.8405 97.5029 28.9648 96.0241 28.9648C94.5453 28.9648 93.3465 29.8405 93.3465 30.9207C93.3465 32.0009 94.5453 32.8765 96.0241 32.8765Z" fill="#9742EA"/>
</g>
<g style="mix-blend-mode:color-dodge" opacity="0.51">
<path d="M25.0833 27.6047C26.6805 27.6047 27.9752 26.6603 27.9752 25.4952C27.9752 24.3302 26.6805 23.3857 25.0833 23.3857C23.4862 23.3857 22.1915 24.3302 22.1915 25.4952C22.1915 26.6603 23.4862 27.6047 25.0833 27.6047Z" fill="#9742EA"/>
</g>
<g style="mix-blend-mode:color-dodge" opacity="0.51">
<path d="M34.2898 27.6047C35.8869 27.6047 37.1816 26.6603 37.1816 25.4952C37.1816 24.3302 35.8869 23.3857 34.2898 23.3857C32.6926 23.3857 31.3979 24.3302 31.3979 25.4952C31.3979 26.6603 32.6926 27.6047 34.2898 27.6047Z" fill="#9742EA"/>
</g>
<g style="mix-blend-mode:color-dodge" opacity="0.51">
<path d="M43.5008 27.6047C45.0979 27.6047 46.3926 26.6603 46.3926 25.4952C46.3926 24.3302 45.0979 23.3857 43.5008 23.3857C41.9036 23.3857 40.6089 24.3302 40.6089 25.4952C40.6089 26.6603 41.9036 27.6047 43.5008 27.6047Z" fill="#9742EA"/>
</g>
<g style="mix-blend-mode:color-dodge" opacity="0.51">
<path d="M52.7072 27.6047C54.3043 27.6047 55.599 26.6603 55.599 25.4952C55.599 24.3302 54.3043 23.3857 52.7072 23.3857C51.1101 23.3857 49.8153 24.3302 49.8153 25.4952C49.8153 26.6603 51.1101 27.6047 52.7072 27.6047Z" fill="#9742EA"/>
</g>
<g style="mix-blend-mode:color-dodge" opacity="0.51">
<path d="M61.9182 27.6047C63.5153 27.6047 64.8101 26.6603 64.8101 25.4952C64.8101 24.3302 63.5153 23.3857 61.9182 23.3857C60.3211 23.3857 59.0264 24.3302 59.0264 25.4952C59.0264 26.6603 60.3211 27.6047 61.9182 27.6047Z" fill="#9742EA"/>
</g>
<g style="mix-blend-mode:color-dodge" opacity="0.51">
<path d="M71.1292 27.6047C72.7263 27.6047 74.021 26.6603 74.021 25.4952C74.021 24.3302 72.7263 23.3857 71.1292 23.3857C69.5321 23.3857 68.2374 24.3302 68.2374 25.4952C68.2374 26.6603 69.5321 27.6047 71.1292 27.6047Z" fill="#9742EA"/>
</g>
<g style="mix-blend-mode:color-dodge" opacity="0.51">
<path d="M80.3356 27.6047C81.9327 27.6047 83.2274 26.6603 83.2274 25.4952C83.2274 24.3302 81.9327 23.3857 80.3356 23.3857C78.7385 23.3857 77.4438 24.3302 77.4438 25.4952C77.4438 26.6603 78.7385 27.6047 80.3356 27.6047Z" fill="#9742EA"/>
</g>
<g style="mix-blend-mode:color-dodge" opacity="0.51">
<path d="M89.5467 27.6047C91.1438 27.6047 92.4385 26.6603 92.4385 25.4952C92.4385 24.3302 91.1438 23.3857 89.5467 23.3857C87.9495 23.3857 86.6548 24.3302 86.6548 25.4952C86.6548 26.6603 87.9495 27.6047 89.5467 27.6047Z" fill="#9742EA"/>
</g>
<g style="mix-blend-mode:color-dodge" opacity="0.51">
<path d="M98.753 27.6047C100.35 27.6047 101.645 26.6603 101.645 25.4952C101.645 24.3302 100.35 23.3857 98.753 23.3857C97.1559 23.3857 95.8611 24.3302 95.8611 25.4952C95.8611 26.6603 97.1559 27.6047 98.753 27.6047Z" fill="#9742EA"/>
</g>
<g style="mix-blend-mode:color-dodge" opacity="0.51">
<path d="M22.1356 22.3527C23.8613 22.3527 25.2603 21.3311 25.2603 20.0709C25.2603 18.8107 23.8613 17.7891 22.1356 17.7891C20.4099 17.7891 19.011 18.8107 19.011 20.0709C19.011 21.3311 20.4099 22.3527 22.1356 22.3527Z" fill="#9742EA"/>
</g>
<g style="mix-blend-mode:color-dodge" opacity="0.51">
<path d="M32.0824 22.3522C33.8081 22.3522 35.2071 21.3306 35.2071 20.0704C35.2071 18.8102 33.8081 17.7886 32.0824 17.7886C30.3567 17.7886 28.9578 18.8102 28.9578 20.0704C28.9578 21.3306 30.3567 22.3522 32.0824 22.3522Z" fill="#9742EA"/>
</g>
<g style="mix-blend-mode:color-dodge" opacity="0.51">
<path d="M42.0246 22.3522C43.7503 22.3522 45.1492 21.3306 45.1492 20.0704C45.1492 18.8102 43.7503 17.7886 42.0246 17.7886C40.2988 17.7886 38.8999 18.8102 38.8999 20.0704C38.8999 21.3306 40.2988 22.3522 42.0246 22.3522Z" fill="#9742EA"/>
</g>
<g style="mix-blend-mode:color-dodge" opacity="0.51">
<path d="M51.9714 22.3522C53.6971 22.3522 55.0961 21.3306 55.0961 20.0704C55.0961 18.8102 53.6971 17.7886 51.9714 17.7886C50.2457 17.7886 48.8467 18.8102 48.8467 20.0704C48.8467 21.3306 50.2457 22.3522 51.9714 22.3522Z" fill="#9742EA"/>
</g>
<g style="mix-blend-mode:color-dodge" opacity="0.51">
<path d="M61.9182 22.3522C63.6439 22.3522 65.0429 21.3306 65.0429 20.0704C65.0429 18.8102 63.6439 17.7886 61.9182 17.7886C60.1925 17.7886 58.7935 18.8102 58.7935 20.0704C58.7935 21.3306 60.1925 22.3522 61.9182 22.3522Z" fill="#9742EA"/>
</g>
<g style="mix-blend-mode:color-dodge" opacity="0.51">
<path d="M71.865 22.3522C73.5907 22.3522 74.9897 21.3306 74.9897 20.0704C74.9897 18.8102 73.5907 17.7886 71.865 17.7886C70.1393 17.7886 68.7403 18.8102 68.7403 20.0704C68.7403 21.3306 70.1393 22.3522 71.865 22.3522Z" fill="#9742EA"/>
</g>
<g style="mix-blend-mode:color-dodge" opacity="0.51">
<path d="M81.8118 22.3522C83.5375 22.3522 84.9364 21.3306 84.9364 20.0704C84.9364 18.8102 83.5375 17.7886 81.8118 17.7886C80.0861 17.7886 78.6871 18.8102 78.6871 20.0704C78.6871 21.3306 80.0861 22.3522 81.8118 22.3522Z" fill="#9742EA"/>
</g>
<g style="mix-blend-mode:color-dodge" opacity="0.51">
<path d="M91.7539 22.3522C93.4796 22.3522 94.8786 21.3306 94.8786 20.0704C94.8786 18.8102 93.4796 17.7886 91.7539 17.7886C90.0282 17.7886 88.6293 18.8102 88.6293 20.0704C88.6293 21.3306 90.0282 22.3522 91.7539 22.3522Z" fill="#9742EA"/>
</g>
<g style="mix-blend-mode:color-dodge" opacity="0.51">
<path d="M101.701 22.3522C103.426 22.3522 104.825 21.3306 104.825 20.0704C104.825 18.8102 103.426 17.7886 101.701 17.7886C99.975 17.7886 98.576 18.8102 98.576 20.0704C98.576 21.3306 99.975 22.3522 101.701 22.3522Z" fill="#9742EA"/>
</g>
</g>
</svg>
