<svg width="108" height="109" viewBox="0 0 108 109" fill="none" xmlns="http://www.w3.org/2000/svg">
<path d="M29.8154 80.0921V108.726H53.4102V68.2656L29.8154 80.0921Z" fill="url(#paint0_linear)"/>
<path d="M53.4102 68.2649V108.725H77.0053V56.4385L53.4102 68.2649Z" fill="url(#paint1_linear)"/>
<path d="M77.0054 108.726H100.601V44.6123L77.0054 56.4388V108.726Z" fill="url(#paint2_linear)"/>
<path d="M107.926 43.6815C107.937 43.6238 107.949 43.566 107.957 43.5083C107.967 43.4373 107.974 43.366 107.981 43.2946C107.987 43.233 107.993 43.1719 107.996 43.1107C107.999 43.0428 107.998 42.9744 107.998 42.906C107.998 42.8593 108.001 42.8117 107.999 42.765C107.998 42.7484 107.996 42.7319 107.995 42.7153C107.992 42.6486 107.984 42.5824 107.977 42.5157C107.97 42.4516 107.965 42.387 107.955 42.3233C107.945 42.2588 107.932 42.1942 107.919 42.1301C107.905 42.0651 107.893 42.0001 107.877 41.936C107.861 41.8748 107.842 41.8145 107.824 41.7538C107.803 41.6867 107.783 41.62 107.759 41.5542C107.739 41.4981 107.715 41.4425 107.692 41.3868C107.683 41.3664 107.676 41.3456 107.667 41.3252C107.657 41.3015 107.649 41.2764 107.638 41.253C107.635 41.2458 107.631 41.2395 107.628 41.2322C107.62 41.2152 107.61 41.1991 107.602 41.1825C107.592 41.1613 107.584 41.1396 107.574 41.1184C107.557 41.0853 107.537 41.0551 107.519 41.0224C107.485 40.9583 107.45 40.8954 107.412 40.833C107.379 40.7778 107.344 40.7239 107.308 40.6708C107.271 40.6164 107.234 40.5629 107.194 40.5102C107.153 40.4554 107.111 40.4019 107.068 40.3497C107.028 40.3013 106.986 40.2546 106.944 40.2083C106.898 40.1577 106.852 40.1085 106.803 40.0609C106.758 40.0154 106.711 39.9717 106.663 39.9288C106.615 39.8855 106.566 39.843 106.516 39.8027C106.463 39.7593 106.408 39.7177 106.353 39.6769C106.304 39.6413 106.255 39.6064 106.205 39.5733C106.145 39.5334 106.084 39.4952 106.022 39.4582C105.971 39.4285 105.921 39.3996 105.869 39.372C105.806 39.338 105.742 39.3062 105.676 39.2756C105.62 39.2493 105.564 39.2246 105.506 39.2013C105.444 39.1754 105.381 39.1507 105.316 39.1278C105.251 39.1049 105.186 39.0841 105.119 39.0645C105.082 39.0535 105.047 39.039 105.009 39.0288C105.009 39.0288 105.008 39.0288 105.008 39.0288L89.5368 34.8837C87.3827 34.3052 85.1695 35.5845 84.5923 37.7386C84.0151 39.8923 85.2931 42.1059 87.4472 42.683L92.6588 44.0795L24.642 78.1692C22.6489 79.1685 21.8428 81.5941 22.8417 83.5872C23.5497 85.0002 24.9746 85.8165 26.4538 85.8165C27.062 85.8165 27.6791 85.6785 28.2597 85.3876L97.7388 50.5627L95.9193 57.3529C95.3421 59.5066 96.6201 61.7206 98.7738 62.2974C99.1237 62.3913 99.4754 62.4363 99.8211 62.4363C101.604 62.4363 103.235 61.2467 103.718 59.4429L107.864 43.9712C107.87 43.9487 107.873 43.9262 107.878 43.9037C107.897 43.8302 107.912 43.7559 107.926 43.6815Z" fill="#43E8E1"/>
<path d="M47.5411 88.0277L38.6545 85.1074H14.7833L5.87373 88.0298C2.36945 89.1791 0 92.4498 0 96.138V108.726H53.4102V96.1346C53.4102 92.4481 51.0433 89.1783 47.5411 88.0277Z" fill="url(#paint3_linear)"/>
<path d="M35.2496 81.2935H18.161V88.5233H35.2496V81.2935Z" fill="#3D37B1"/>
<path d="M29.6629 95.7533H23.7476L22.4331 88.5234H30.9774L29.6629 95.7533Z" fill="#5D53CF"/>
<path d="M12.2456 85.8943L20.7899 95.0961L26.7053 88.5233L18.161 81.2935L12.2456 85.8943Z" fill="#665CE0"/>
<path d="M31.2497 108.726L29.663 95.7534H23.7477L22.1605 108.726H31.2497Z" fill="#5D53CF"/>
<path d="M36.4069 46.3338C35.9949 44.7399 34.2358 42.4809 27.5708 42.4809C17.2738 42.4809 15.8077 44.0056 13.067 41.3724C10.7549 39.1503 9.3971 49.8441 12.4801 53.24C11.1788 58.0499 12.2197 62.8674 12.2197 62.8674H26.7053H41.1908C41.1908 62.8674 43.6223 51.6143 36.4069 46.3338Z" fill="#162A46"/>
<path d="M13.067 44.0154C15.8073 46.649 17.2734 45.1239 27.5709 45.1239C34.2358 45.1239 35.995 47.3829 36.4069 48.9769C40.2357 51.7787 41.348 56.2619 41.5489 59.8537C41.7489 56.1396 41.2601 49.8858 36.4069 46.3343C35.995 44.7404 34.2358 42.4814 27.5709 42.4814C17.2738 42.4814 15.8077 44.0061 13.067 41.3729C11.544 39.9093 10.4355 44.0486 10.7367 48.0153C10.9567 45.1099 11.8876 42.8819 13.067 44.0154Z" fill="#162A46"/>
<path d="M33.2717 74.0659H20.1384V82.967L26.7053 88.5235L33.2777 82.9623L33.2717 74.0659Z" fill="url(#paint4_linear)"/>
<path d="M15.1452 63.3734C15.1452 63.3734 13.8961 61.0854 11.3984 61.0854C8.90069 61.0854 7.13093 72.0676 15.1452 70.2371V63.3734Z" fill="url(#paint5_linear)"/>
<path d="M38.265 63.3734C38.265 63.3734 39.5141 61.0854 42.0118 61.0854C44.5099 61.0854 46.2793 72.0676 38.265 70.2371V63.3734Z" fill="url(#paint6_linear)"/>
<path d="M26.7053 48.6572C7.56748 48.6572 11.2268 80.0441 26.7053 80.0441C42.1838 80.0441 45.8427 48.6572 26.7053 48.6572Z" fill="url(#paint7_linear)"/>
<path d="M26.5676 46.9207C26.5676 46.9207 13.6115 45.0932 13.6115 61.7163C13.6115 61.7163 15.2428 54.8454 18.9853 52.9715C20.7283 52.0988 21.3666 54.3098 26.5676 54.3098C31.7686 54.3098 32.4065 52.0988 34.15 52.9715C37.8925 54.8454 39.5238 61.7163 39.5238 61.7163C39.5234 45.0932 26.5676 46.9207 26.5676 46.9207Z" fill="#162A46"/>
<path d="M26.7053 46.9483C26.7053 46.9483 13.6884 45.1119 13.6884 61.814C13.6884 61.814 15.3273 54.9108 19.0877 53.0281C20.8392 52.151 21.4805 54.3727 26.7057 54.3727C31.9309 54.3727 32.5722 52.1515 34.3237 53.0281C38.0841 54.9108 39.723 61.814 39.723 61.814C39.7222 45.1123 26.7053 46.9483 26.7053 46.9483Z" fill="#162A46"/>
<path d="M41.165 85.8943L32.6207 95.0961L26.7053 88.5233L35.2496 81.2935L41.165 85.8943Z" fill="#665CE0"/>
<path d="M72.8313 0H35.8943C31.9042 0 28.6692 3.23501 28.6692 7.22516V28.4182C28.6692 32.4083 31.9042 35.6433 35.8943 35.6433H41.3739V43.2605C41.3739 44.4624 42.8273 45.0642 43.6771 44.2144L52.2482 35.6433H72.8309C76.821 35.6433 80.0561 32.4083 80.0561 28.4182V7.22516C80.0565 3.23501 76.8215 0 72.8313 0Z" fill="#43E8E1"/>
<path d="M35.8943 0H72.8309C76.8215 0 80.0561 3.23459 80.0561 7.22516V10.2457C80.0561 6.25512 76.8215 3.02053 72.8309 3.02053H35.8943C31.9038 3.02053 28.6692 6.25512 28.6692 10.2457V7.22516C28.6692 3.23459 31.9042 0 35.8943 0Z" fill="#43E8E1"/>
<path d="M53.3065 27.762C51.9818 27.5679 50.8037 27.0557 49.7695 26.225C49.1664 25.7404 48.6649 25.133 48.2639 24.4025C47.7772 23.5162 48.1573 22.4017 49.0934 22.0191C49.8375 21.715 50.7098 21.9732 51.1252 22.6616C51.2586 22.8829 51.4123 23.0944 51.5856 23.2957C52.0617 23.8525 52.635 24.2373 53.3065 24.448V19.4143L53.0699 19.3077C52.4167 19.061 51.8018 18.77 51.228 18.4332C50.6542 18.099 50.1501 17.7091 49.7181 17.2678C49.2832 16.8266 48.9388 16.3275 48.684 15.7707C48.4266 15.2139 48.2979 14.5913 48.2979 13.902C48.2979 13.2666 48.4139 12.6661 48.6428 12.1C48.8742 11.5355 49.2034 11.031 49.6383 10.5901C50.0707 10.1489 50.5952 9.78105 51.2152 9.49055C51.8328 9.19878 52.5297 9.00936 53.3065 8.92059V7.82102C53.3065 7.16952 53.8344 6.6416 54.4859 6.6416C55.1374 6.6416 55.6653 7.16952 55.6653 7.82102V8.97326C56.3729 9.07858 56.9875 9.26503 57.5073 9.53005C58.0297 9.79507 58.4756 10.1043 58.8604 10.4444C59.0082 10.5753 59.1514 10.7316 59.286 10.9002C59.9553 11.7381 59.6156 12.9906 58.6362 13.4276C57.9651 13.727 57.1926 13.5393 56.6982 12.9953C56.4392 12.7098 56.0981 12.4295 55.6653 12.2321V16.9756C56.4269 17.2946 57.1136 17.6212 57.7337 17.9571C58.3512 18.2927 58.8808 18.6723 59.3234 19.0966C59.7659 19.5196 60.1002 20.0021 60.3291 20.5398C60.5605 21.08 60.6739 21.7026 60.6739 22.4085C60.6739 23.2036 60.5376 23.9107 60.265 24.5282C59.9897 25.147 59.6245 25.6767 59.1641 26.1179C58.7037 26.5605 58.1711 26.9143 57.5617 27.1789C56.9522 27.4434 56.3194 27.629 55.6658 27.7344V28.8866C55.6658 29.5381 55.1379 30.066 54.4864 30.066C53.8348 30.066 53.3069 29.5381 53.3069 28.8866V27.762H53.3065ZM51.5601 13.9016C51.5601 14.3259 51.6964 14.6924 51.9691 15.0012C52.2443 15.3112 52.6894 15.6251 53.3069 15.9427V12.0736C52.7769 12.2151 52.3552 12.444 52.0362 12.7617C51.7168 13.081 51.5601 13.4603 51.5601 13.9016ZM57.2835 22.4357C57.2835 21.9766 57.1599 21.5956 56.9106 21.2962C56.6638 20.9951 56.2493 20.6957 55.6653 20.3945V24.4488C56.144 24.2908 56.5322 24.0385 56.8333 23.6937C57.1319 23.3488 57.2835 22.9296 57.2835 22.4357Z" fill="#F6F9FC"/>
<path d="M100.601 105.752H77.0054V108.725H100.601V105.752Z" fill="url(#paint8_linear)"/>
<path d="M77.0053 105.752H53.4102V108.725H77.0053V105.752Z" fill="url(#paint9_linear)"/>
<path d="M53.4102 105.752H0V108.725H53.4102V105.752Z" fill="url(#paint10_linear)"/>
<path d="M22.5241 105.752L22.1605 108.725H31.2497L30.8862 105.752H22.5241Z" fill="#5D53CF"/>
<defs>
<linearGradient id="paint0_linear" x1="28.8858" y1="85.6794" x2="52.3979" y2="100.793" gradientUnits="userSpaceOnUse">
<stop stop-color="#42B2F1"/>
<stop offset="1" stop-color="#2A54D3"/>
</linearGradient>
<linearGradient id="paint1_linear" x1="52.4805" y1="78.9422" x2="79.1176" y2="92.1919" gradientUnits="userSpaceOnUse">
<stop stop-color="#42B2F1"/>
<stop offset="1" stop-color="#2A54D3"/>
</linearGradient>
<linearGradient id="paint2_linear" x1="76.0757" y1="72.206" x2="104.608" y2="83.7805" gradientUnits="userSpaceOnUse">
<stop stop-color="#42B2F1"/>
<stop offset="1" stop-color="#2A54D3"/>
</linearGradient>
<linearGradient id="paint3_linear" x1="-14.6331" y1="106.224" x2="24.6193" y2="138.091" gradientUnits="userSpaceOnUse">
<stop stop-color="#26259E"/>
<stop offset="1" stop-color="#5F50CC"/>
</linearGradient>
<linearGradient id="paint4_linear" x1="26.708" y1="74.0659" x2="26.708" y2="88.5235" gradientUnits="userSpaceOnUse">
<stop stop-color="#FFDBD0"/>
<stop offset="1" stop-color="#FF9979"/>
</linearGradient>
<linearGradient id="paint5_linear" x1="12.2196" y1="61.0854" x2="12.2196" y2="70.4429" gradientUnits="userSpaceOnUse">
<stop stop-color="#FFDBD0"/>
<stop offset="1" stop-color="#FF9979"/>
</linearGradient>
<linearGradient id="paint6_linear" x1="41.1907" y1="61.0854" x2="41.1907" y2="70.4429" gradientUnits="userSpaceOnUse">
<stop stop-color="#FFDBD0"/>
<stop offset="1" stop-color="#FF9979"/>
</linearGradient>
<linearGradient id="paint7_linear" x1="26.7052" y1="48.6572" x2="26.7052" y2="80.0441" gradientUnits="userSpaceOnUse">
<stop stop-color="#FFDBD0"/>
<stop offset="1" stop-color="#FF9979"/>
</linearGradient>
<linearGradient id="paint8_linear" x1="76.0757" y1="107.032" x2="76.5043" y2="110.781" gradientUnits="userSpaceOnUse">
<stop stop-color="#42B2F1"/>
<stop offset="1" stop-color="#2A54D3"/>
</linearGradient>
<linearGradient id="paint9_linear" x1="52.4805" y1="107.032" x2="52.9091" y2="110.781" gradientUnits="userSpaceOnUse">
<stop stop-color="#42B2F1"/>
<stop offset="1" stop-color="#2A54D3"/>
</linearGradient>
<linearGradient id="paint10_linear" x1="-14.6331" y1="108.411" x2="-13.1043" y2="118.271" gradientUnits="userSpaceOnUse">
<stop stop-color="#26259E"/>
<stop offset="1" stop-color="#5F50CC"/>
</linearGradient>
</defs>
</svg>
