<svg width="107" height="106" viewBox="0 0 107 106" fill="none" xmlns="http://www.w3.org/2000/svg">
<path d="M54.9557 16.5785C54.9557 14.3165 56.7896 12.4826 59.0516 12.4826H65.265C61.3745 11.2988 57.269 10.6587 53.046 10.6587C36.744 10.6587 21.7263 20.195 14.7866 34.9538C13.9109 36.8163 14.7109 39.0361 16.5733 39.9118C18.4349 40.7871 20.6556 39.9876 21.5313 38.1251C27.2479 25.9674 39.6184 18.1118 53.046 18.1118C53.6862 18.1118 54.3217 18.1358 54.9553 18.1706V16.5785H54.9557Z" fill="#43E8E1"/>
<path d="M59.0516 12.4825H65.4973C61.5206 11.2411 57.3146 10.5732 52.9864 10.5732C40.097 10.5732 28.0147 16.5386 20.0891 26.3296L20.5094 28.7133C28.4383 19.2276 40.3239 13.4713 52.9864 13.4713C54.0799 13.4713 55.1644 13.5205 56.2409 13.6042C56.9742 12.9106 57.9618 12.4825 59.0516 12.4825Z" fill="#60F2EC"/>
<path d="M102.011 48.4454H59.0516C56.7895 48.4454 54.9557 46.6115 54.9557 44.3495V16.5783C54.9557 14.3163 56.7895 12.4824 59.0516 12.4824H102.011C104.273 12.4824 106.106 14.3163 106.106 16.5783V44.3495C106.106 46.6115 104.273 48.4454 102.011 48.4454Z" fill="#6770E6"/>
<path d="M18.131 40.1579C17.3716 40.1579 16.6242 39.9256 15.9936 39.4842C15.1837 38.9174 14.6326 38.052 14.4612 37.0785L11.7495 21.6998C11.3922 19.673 12.7453 17.7401 14.7721 17.3828C16.799 17.0259 18.7318 18.3786 19.0892 20.4055L21.1537 32.1143L32.8625 30.0498C34.8894 29.6933 36.8222 31.0456 37.1796 33.0725C37.5369 35.0993 36.1837 37.0321 34.1569 37.3895L18.7782 40.1012C18.5629 40.1393 18.3467 40.1579 18.131 40.1579Z" fill="#43E8E1"/>
<path d="M14.7307 37.9888C14.734 37.9814 14.7369 37.9739 14.7398 37.9661C14.6777 37.8286 14.6231 37.6874 14.5779 37.5425C14.6206 37.694 14.6694 37.8439 14.7307 37.9888Z" fill="#FFAC8C"/>
<path d="M14.4285 36.8926L14.4612 37.0781C14.4632 37.0893 14.4666 37.0996 14.4686 37.1104L14.4285 36.8926Z" fill="#FFAC8C"/>
<path d="M15.3204 20.2808C16.9998 19.9975 18.6146 20.7942 19.3964 22.1486L19.0891 20.405C18.7318 18.3781 16.7986 17.0254 14.7721 17.3823C12.7453 17.7397 11.3917 19.6725 11.7495 21.6993L12.1139 23.7667C12.2004 22.0674 13.4976 20.5888 15.3204 20.2808Z" fill="#60F2EC"/>
<path d="M89.6392 66.0884C87.7771 65.213 85.5565 66.0122 84.6812 67.875C78.9646 80.0327 66.5945 87.8883 53.1665 87.8883C52.5263 87.8883 51.8907 87.8643 51.2572 87.8295V95.2971C51.8907 95.3257 52.5272 95.3415 53.1665 95.3415C69.4685 95.3415 84.4862 85.8052 91.4258 71.0463C92.3016 69.1839 91.5016 66.9641 89.6392 66.0884Z" fill="#43E8E1"/>
<path d="M53.1665 92.4433C52.5272 92.4433 51.8907 92.4272 51.2572 92.3986V95.2974C51.8907 95.326 52.5272 95.3417 53.1665 95.3417C66.0558 95.3417 78.1382 89.3763 86.0637 79.5854L85.6435 77.2017C77.7146 86.6874 65.8293 92.4433 53.1665 92.4433Z" fill="#60F2EC"/>
<path d="M90.789 88.6745C89.0148 88.6745 87.4422 87.4025 87.1233 85.5947L85.0588 73.8863L73.3504 75.9508C71.324 76.3089 69.3907 74.955 69.0334 72.9281C68.676 70.9013 70.0292 68.9684 72.056 68.6111L87.4347 65.8994C89.4616 65.5425 91.3944 66.8952 91.7517 68.9221L94.4634 84.3008C94.8208 86.3276 93.4676 88.2604 91.4408 88.6178C91.2217 88.6559 91.0039 88.6745 90.789 88.6745Z" fill="#43E8E1"/>
<path d="M94.4634 84.3004L94.2854 83.29C93.8113 84.5144 92.6527 85.4771 91.1551 85.7189C90.9157 85.7574 90.6777 85.7761 90.4429 85.7761C88.879 85.7761 87.4596 84.9475 86.7859 83.6784L87.1238 85.5943C87.4426 87.4021 89.0148 88.6741 90.7895 88.6741C91.0044 88.6741 91.2222 88.6555 91.4412 88.617C93.4676 88.26 94.8208 86.3272 94.4634 84.3004Z" fill="#60F2EC"/>
<path d="M102.011 48.4454H59.0516C56.7895 48.4454 54.9557 46.6115 54.9557 44.3495V16.5783C54.9557 14.3163 56.7895 12.4824 59.0516 12.4824H102.011C104.273 12.4824 106.106 14.3163 106.106 16.5783V44.3495C106.106 46.6115 104.273 48.4454 102.011 48.4454Z" fill="url(#paint0_linear)"/>
<path d="M102.011 12.4824H59.0516C56.7895 12.4824 54.9557 14.3163 54.9557 16.5783V18.4528C54.9557 16.1908 56.7895 14.3569 59.0516 14.3569H102.011C104.273 14.3569 106.106 16.1908 106.106 18.4528V16.5783C106.106 14.3163 104.273 12.4824 102.011 12.4824Z" fill="url(#paint1_linear)"/>
<path d="M97.2902 43.657H63.7719C60.9943 43.657 58.7427 41.4053 58.7427 38.6278V27.9007C58.7427 26.9852 59.4847 26.2432 60.4002 26.2432H100.662C101.578 26.2432 102.32 26.9852 102.32 27.9007V38.6278C102.319 41.4053 100.068 43.657 97.2902 43.657Z" fill="#F6F9FC"/>
<path d="M67.3407 20.3422C65.2554 20.3422 63.5652 18.652 63.5652 16.5668V12.398C63.5652 11.673 64.1528 11.0854 64.8778 11.0854H69.8039C70.529 11.0854 71.1165 11.673 71.1165 12.398V16.5664C71.1161 18.6516 69.4259 20.3422 67.3407 20.3422Z" fill="url(#paint2_linear)"/>
<path d="M93.7214 20.3422C91.6362 20.3422 89.946 18.652 89.946 16.5668V12.398C89.946 11.673 90.5336 11.0854 91.2586 11.0854H96.1847C96.9097 11.0854 97.4973 11.673 97.4973 12.398V16.5664C97.4969 18.6516 95.8067 20.3422 93.7214 20.3422Z" fill="url(#paint3_linear)"/>
<path d="M95.4584 11.0857H91.984C91.984 6.88876 88.5697 3.4744 84.3727 3.4744H76.689C72.492 3.4744 69.0777 6.88876 69.0777 11.0857H65.6033C65.6037 4.97289 70.5766 0 76.689 0H84.3727C90.4855 0 95.4584 4.97289 95.4584 11.0857Z" fill="url(#paint4_linear)"/>
<path d="M76.689 1.87446H84.3727C89.8462 1.87446 94.403 5.86271 95.2969 11.0857H95.4588C95.4584 4.97289 90.4855 0 84.3727 0H76.689C70.5762 0 65.6033 4.97289 65.6033 11.0857H65.7652C66.6587 5.86313 71.2155 1.87446 76.689 1.87446Z" fill="url(#paint5_linear)"/>
<path d="M96.9785 34.6896H64.0837C61.1339 34.6896 58.7427 32.2984 58.7427 29.3486V27.9835C58.7427 27.0224 59.5219 26.2432 60.483 26.2432H100.58C101.541 26.2432 102.32 27.0224 102.32 27.9835V29.3486C102.319 32.2984 99.9282 34.6896 96.9785 34.6896Z" fill="#43E8E1"/>
<path d="M83.6804 36.792H77.3817C76.8322 36.792 76.3867 36.3464 76.3867 35.797V33.3929C76.3867 32.8435 76.8322 32.3979 77.3817 32.3979H83.6804C84.2299 32.3979 84.6754 32.8435 84.6754 33.3929V35.797C84.6754 36.3464 84.2299 36.792 83.6804 36.792Z" fill="#43E8E1"/>
<path d="M47.1613 106H4.20235C1.94033 106 0.106445 104.166 0.106445 101.904V74.133C0.106445 71.871 1.94033 70.0371 4.20235 70.0371H47.1613C49.4234 70.0371 51.2572 71.871 51.2572 74.133V101.904C51.2572 104.166 49.4234 106 47.1613 106Z" fill="url(#paint6_linear)"/>
<path d="M47.1613 70.0371H4.20235C1.94033 70.0371 0.106445 71.871 0.106445 74.133V76.0075C0.106445 73.7455 1.94033 71.9116 4.20235 71.9116H47.1613C49.4234 71.9116 51.2572 73.7455 51.2572 76.0075V74.133C51.2572 71.871 49.4234 70.0371 47.1613 70.0371Z" fill="url(#paint7_linear)"/>
<path d="M42.441 101.212H8.92264C6.1451 101.212 3.89343 98.96 3.89343 96.1825V85.4553C3.89343 84.5398 4.63543 83.7979 5.55092 83.7979H45.8131C46.7286 83.7979 47.4706 84.5398 47.4706 85.4553V96.1825C47.4702 98.96 45.2185 101.212 42.441 101.212Z" fill="#F6F9FC"/>
<path d="M12.4915 77.897C10.4063 77.897 8.71606 76.2068 8.71606 74.1216V69.9532C8.71606 69.2282 9.30362 68.6406 10.0286 68.6406H14.9547C15.6798 68.6406 16.2673 69.2282 16.2673 69.9532V74.1216C16.2673 76.2064 14.5767 77.897 12.4915 77.897Z" fill="url(#paint8_linear)"/>
<path d="M38.8722 77.897C36.787 77.897 35.0968 76.2068 35.0968 74.1216V69.9532C35.0968 69.2282 35.6844 68.6406 36.4094 68.6406H41.3355C42.0605 68.6406 42.6481 69.2282 42.6481 69.9532V74.1216C42.6476 76.2064 40.9574 77.897 38.8722 77.897Z" fill="url(#paint9_linear)"/>
<path d="M40.6096 68.6404H37.1352C37.1352 64.4434 33.7208 61.0291 29.5239 61.0291H21.8402C17.6432 61.0291 14.2289 64.4434 14.2289 68.6404H10.7545C10.7545 62.5276 15.7273 57.5547 21.8402 57.5547H29.5239C35.6363 57.5547 40.6096 62.5276 40.6096 68.6404Z" fill="url(#paint10_linear)"/>
<path d="M21.8402 59.4291H29.5239C34.9974 59.4291 39.5542 63.4174 40.4481 68.6404H40.61C40.6096 62.5276 35.6363 57.5547 29.5239 57.5547H21.8402C15.7273 57.5547 10.7545 62.5276 10.7545 68.6404H10.9164C11.8099 63.4178 16.3667 59.4291 21.8402 59.4291Z" fill="url(#paint11_linear)"/>
<path d="M42.1292 92.2443H9.23443C6.28464 92.2443 3.89343 89.8531 3.89343 86.9033V85.5382C3.89343 84.5771 4.6727 83.7979 5.63374 83.7979H45.7303C46.6913 83.7979 47.4706 84.5771 47.4706 85.5382V86.9033C47.4702 89.8531 45.079 92.2443 42.1292 92.2443Z" fill="#43E8E1"/>
<path d="M28.8312 94.3467H22.5325C21.983 94.3467 21.5375 93.9011 21.5375 93.3517V90.9476C21.5375 90.3982 21.983 89.9526 22.5325 89.9526H28.8312C29.3806 89.9526 29.8262 90.3982 29.8262 90.9476V93.3517C29.8262 93.9011 29.3806 94.3467 28.8312 94.3467Z" fill="#43E8E1"/>
<defs>
<linearGradient id="paint0_linear" x1="40.9416" y1="44.6362" x2="90.4119" y2="69.8962" gradientUnits="userSpaceOnUse">
<stop stop-color="#26259E"/>
<stop offset="1" stop-color="#5F50CC"/>
</linearGradient>
<linearGradient id="paint1_linear" x1="40.9416" y1="17.8204" x2="46.9042" y2="36.1596" gradientUnits="userSpaceOnUse">
<stop stop-color="#26259E"/>
<stop offset="1" stop-color="#5F50CC"/>
</linearGradient>
<linearGradient id="paint2_linear" x1="61.4964" y1="19.3618" x2="69.9764" y2="21.8452" gradientUnits="userSpaceOnUse">
<stop stop-color="#26259E"/>
<stop offset="1" stop-color="#5F50CC"/>
</linearGradient>
<linearGradient id="paint3_linear" x1="87.8772" y1="19.3618" x2="96.3571" y2="21.8452" gradientUnits="userSpaceOnUse">
<stop stop-color="#26259E"/>
<stop offset="1" stop-color="#5F50CC"/>
</linearGradient>
<linearGradient id="paint4_linear" x1="57.4237" y1="9.91151" x2="76.2387" y2="28.1024" gradientUnits="userSpaceOnUse">
<stop stop-color="#26259E"/>
<stop offset="1" stop-color="#5F50CC"/>
</linearGradient>
<linearGradient id="paint5_linear" x1="57.4236" y1="9.91151" x2="76.2386" y2="28.1026" gradientUnits="userSpaceOnUse">
<stop stop-color="#26259E"/>
<stop offset="1" stop-color="#5F50CC"/>
</linearGradient>
<linearGradient id="paint6_linear" x1="-1.90884" y1="85.5152" x2="18.9222" y2="118.174" gradientUnits="userSpaceOnUse">
<stop stop-color="#42B2F1"/>
<stop offset="1" stop-color="#2A54D3"/>
</linearGradient>
<linearGradient id="paint7_linear" x1="-1.90884" y1="72.6067" x2="-1.1101" y2="80.1497" gradientUnits="userSpaceOnUse">
<stop stop-color="#42B2F1"/>
<stop offset="1" stop-color="#2A54D3"/>
</linearGradient>
<linearGradient id="paint8_linear" x1="8.41855" y1="72.6245" x2="14.2982" y2="77.9116" gradientUnits="userSpaceOnUse">
<stop stop-color="#42B2F1"/>
<stop offset="1" stop-color="#2A54D3"/>
</linearGradient>
<linearGradient id="paint9_linear" x1="34.7993" y1="72.6245" x2="40.679" y2="77.9116" gradientUnits="userSpaceOnUse">
<stop stop-color="#42B2F1"/>
<stop offset="1" stop-color="#2A54D3"/>
</linearGradient>
<linearGradient id="paint10_linear" x1="9.57819" y1="62.3259" x2="13.8629" y2="75.0453" gradientUnits="userSpaceOnUse">
<stop stop-color="#42B2F1"/>
<stop offset="1" stop-color="#2A54D3"/>
</linearGradient>
<linearGradient id="paint11_linear" x1="9.57818" y1="62.3259" x2="13.8628" y2="75.0454" gradientUnits="userSpaceOnUse">
<stop stop-color="#42B2F1"/>
<stop offset="1" stop-color="#2A54D3"/>
</linearGradient>
</defs>
</svg>
